G04 start of page 2 for group 0 idx 0 *
G04 Title: (unknown), top *
G04 Creator: pcb 20110918 *
G04 CreationDate: Wed 29 Oct 2014 08:53:53 GMT UTC *
G04 For: ksarkies *
G04 Format: Gerber/RS-274X *
G04 PCB-Dimensions: 350000 210000 *
G04 PCB-Coordinate-Origin: lower left *
%MOIN*%
%FSLAX25Y25*%
%LNTOP*%
%ADD26C,0.0430*%
%ADD25C,0.1140*%
%ADD24C,0.0380*%
%ADD23C,0.0280*%
%ADD22C,0.0650*%
%ADD21C,0.0700*%
%ADD20C,0.0800*%
%ADD19C,0.1650*%
%ADD18C,0.0680*%
%ADD17C,0.0001*%
%ADD16C,0.0350*%
%ADD15C,0.0500*%
%ADD14C,0.0600*%
%ADD13C,0.0550*%
%ADD12C,0.0100*%
%ADD11C,0.0300*%
G54D11*X337000Y110500D02*X336500D01*
G54D12*X220500Y150500D02*X221000D01*
X210500Y170500D02*Y169000D01*
X179500Y159000D02*X180000Y158500D01*
X81500Y194500D02*X82000Y194000D01*
X190500D02*X192500D01*
X190500Y191500D02*Y194000D01*
X192500Y192000D02*X190500Y191500D01*
X193000Y194000D02*X190500D01*
X193000D02*X192000Y193000D01*
X192500Y192000D01*
X220000Y80500D02*X220500D01*
X24000Y124500D02*Y124000D01*
X180000Y112500D02*X178500D01*
X24000Y124500D02*X26000D01*
X47500Y130500D02*X49500D01*
X222000Y80500D02*X220000D01*
X196999Y23500D02*X197500D01*
X271500Y35500D02*Y48500D01*
X257500Y23500D02*X271500Y35500D01*
G54D13*X56500Y21000D02*Y41500D01*
X18500Y76500D01*
G54D14*X169500Y100000D02*X133000D01*
G54D12*X149000Y110500D02*X153500D01*
X143500Y130500D02*X149000Y110500D01*
X153500Y120500D02*X208500D01*
G54D14*X169500Y100500D02*X178500Y112500D01*
G54D12*X185500Y92500D02*X68070Y92526D01*
X184000Y90500D02*X58500D01*
G54D13*X222000Y80500D02*X229500Y71500D01*
G54D14*X212500Y80500D02*X220000D01*
X180000Y112500D02*X212500Y80500D01*
G54D12*X214000Y61000D02*X184000Y90500D01*
X215000Y63500D02*X185500Y92500D01*
X168500Y34000D02*Y48500D01*
X153500Y23500D02*X168500Y34000D01*
X56000Y155500D02*Y127000D01*
X24000Y124500D02*X26000D01*
X36000Y130500D02*X49500D01*
X45000Y137000D02*X49500Y140500D01*
X32000Y137000D02*X45000D01*
X32000D02*X26500Y134500D01*
X24000D02*X26500D01*
X36000Y130500D02*X26000Y124500D01*
X56000Y127000D02*X50000Y121000D01*
X68000Y92500D02*X49500Y110500D01*
X58500Y90500D02*X49500Y99500D01*
X45000Y156500D02*X49500Y150500D01*
X31500Y156500D02*X45000D01*
X28000Y158500D02*X31500Y156500D01*
X24000Y160500D02*X28000Y158500D01*
X24000Y170500D02*X49500D01*
X65500Y173500D02*Y161000D01*
X56000Y155500D01*
X78500Y184000D02*X65500Y173500D01*
X81500Y184500D02*X78500Y184000D01*
X50000Y184500D02*X57000Y177500D01*
Y167500D01*
X49500Y160000D01*
G54D14*X131500Y100000D02*X123500Y110500D01*
G54D12*X88500Y126000D02*Y116000D01*
X79500Y110500D01*
Y130500D02*X88500Y126000D01*
X79500Y100500D02*X112500Y127500D01*
X123500Y130500D02*X143500D01*
X123500Y150500D02*Y140500D01*
X149000D02*X153500D01*
X144500Y160500D02*X149000Y140500D01*
X173500Y150500D02*X153500Y130500D01*
X112500Y159500D02*X123500Y170500D01*
X112500Y127500D02*Y159500D01*
X123500Y160500D02*X144500D01*
G54D15*X146500Y189500D02*X173000D01*
X179000Y183500D01*
G54D11*X316000Y190500D02*Y178500D01*
G54D12*X285000Y194500D02*Y170000D01*
G54D11*X310500Y195500D02*X316000Y190500D01*
X303500Y202500D02*X310000Y196000D01*
X262500Y202500D02*X303500D01*
G54D12*X280000Y196000D02*X285000Y194500D01*
X270000Y196000D02*X275500Y194000D01*
X328500Y130500D02*X285000Y170000D01*
X275500Y168500D02*X308500Y139500D01*
X275500Y194000D02*Y168500D01*
G54D11*X250500Y189500D02*X262500Y202500D01*
X250500Y170500D02*Y189500D01*
G54D12*X225000Y184000D02*X229000Y185500D01*
X213000Y125000D02*X245000D01*
X213000D02*X208500Y120500D01*
X231500Y181500D02*X220500Y170500D01*
X231500Y185500D02*Y181500D01*
X229000Y185500D02*X231500D01*
X272500Y130500D02*X250500D01*
X245000Y125000D02*X250500Y120500D01*
X258000Y139500D02*X268500D01*
X258500Y161500D02*X268500D01*
X258500D02*X254500Y160500D01*
X250500D02*X254500D01*
X250500Y150500D02*X268500D01*
X254500Y140500D02*X258000Y139500D01*
X250500Y140500D02*X254500D01*
G54D13*X179500Y183500D02*Y159000D01*
G54D15*Y183500D02*X190500Y191500D01*
G54D12*X192500Y184000D02*X191500D01*
X220500Y170500D02*X210500D01*
X225000Y184000D02*X191500D01*
X221000Y150500D02*X173500D01*
X210500Y169000D02*X200000Y158500D01*
G54D14*X230500Y71000D02*X303500D01*
G54D12*X215000Y63500D02*X329500D01*
X329000Y61000D02*X214000D01*
X221500Y33500D02*Y48500D01*
X207500Y23500D02*X221500Y33500D01*
X247500Y26500D02*Y23500D01*
X337500Y56500D02*X329000Y61000D01*
X329500Y63500D02*X333500D01*
X337000Y67000D01*
G54D11*X336500Y160500D02*X316000Y178500D01*
G54D12*X328500Y130500D02*X337000D01*
X308500Y161500D02*X315500D01*
X336500Y140500D01*
X285500Y117500D02*X272500Y130500D01*
G54D11*X344500Y154500D02*Y82000D01*
G54D14*X303000Y71000D02*X328000Y110500D01*
G54D12*X327500Y120500D02*X337000D01*
X308500Y139500D02*X327500Y120500D01*
G54D13*X328000Y110500D02*X336500D01*
G54D11*Y160500D02*X344500Y154500D01*
G54D16*X338500Y76500D02*X344500Y82500D01*
G54D17*G36*
X217500Y173500D02*Y167500D01*
X223500D01*
Y173500D01*
X217500D01*
G37*
G54D14*X220500Y160500D03*
Y150500D03*
Y140500D03*
Y130500D03*
G54D17*G36*
X265100Y153900D02*Y147100D01*
X271900D01*
Y153900D01*
X265100D01*
G37*
G54D14*X250500Y150500D03*
Y160500D03*
Y170500D03*
G54D17*G36*
X265100Y164900D02*Y158100D01*
X271900D01*
Y164900D01*
X265100D01*
G37*
G54D14*X220500Y120500D03*
X250500D03*
Y130500D03*
Y140500D03*
X270000Y196000D03*
Y186000D03*
G54D17*G36*
X265100Y142900D02*Y136100D01*
X271900D01*
Y142900D01*
X265100D01*
G37*
G54D18*X308500Y150500D03*
Y161500D03*
Y139500D03*
G54D17*G36*
X307000Y199000D02*Y193000D01*
X313000D01*
Y199000D01*
X307000D01*
G37*
G54D14*X310000Y186000D03*
X300000Y196000D03*
Y186000D03*
X290000Y196000D03*
Y186000D03*
X280000Y196000D03*
Y186000D03*
G54D19*X335000Y195000D03*
G54D17*G36*
X238500Y188500D02*Y182500D01*
X244500D01*
Y188500D01*
X238500D01*
G37*
G54D14*X231500Y185500D03*
G54D17*G36*
X189500Y197000D02*Y191000D01*
X195500D01*
Y197000D01*
X189500D01*
G37*
G54D14*X192500Y184000D03*
G54D20*X179500Y140500D03*
X199500D03*
G54D17*G36*
X176500Y130500D02*Y124500D01*
X182500D01*
Y130500D01*
X176500D01*
G37*
G54D14*X199500Y127500D03*
G54D18*X210500Y170500D03*
G54D20*X179500Y157500D03*
X199500D03*
G54D17*G36*
X334000Y80500D02*Y73500D01*
X341000D01*
Y80500D01*
X334000D01*
G37*
G54D21*X337500Y67000D03*
Y57000D03*
Y47000D03*
G54D19*X335000Y15000D03*
G54D14*X285500Y117500D03*
G54D20*X277000Y71500D03*
Y91500D03*
G54D17*G36*
X292500Y120500D02*Y114500D01*
X298500D01*
Y120500D01*
X292500D01*
G37*
G36*
X333500Y114000D02*Y107000D01*
X340500D01*
Y114000D01*
X333500D01*
G37*
G54D21*X337000Y120500D03*
Y130500D03*
Y140500D03*
Y150500D03*
Y160500D03*
G54D14*X220500Y110500D03*
X250500D03*
G54D20*X180000Y112500D03*
X200000D03*
G54D14*X123500Y110500D03*
X153500D03*
X220500Y100500D03*
X250500D03*
X220500Y90500D03*
Y80500D03*
X250500D03*
Y90500D03*
G54D17*G36*
X178100Y51900D02*Y45100D01*
X184900D01*
Y51900D01*
X178100D01*
G37*
G36*
X125100D02*Y45100D01*
X131900D01*
Y51900D01*
X125100D01*
G37*
G54D18*X168500Y48500D03*
G54D20*X96500Y33000D03*
Y13000D03*
G54D17*G36*
X228100Y51900D02*Y45100D01*
X234900D01*
Y51900D01*
X228100D01*
G37*
G54D18*X271500Y48500D03*
X221500D03*
G54D17*G36*
X244250Y26750D02*Y20250D01*
X250750D01*
Y26750D01*
X244250D01*
G37*
G54D22*X257500Y23500D03*
G54D17*G36*
X140250Y26750D02*Y20250D01*
X146750D01*
Y26750D01*
X140250D01*
G37*
G54D22*X153500Y23500D03*
G54D17*G36*
X194250Y26750D02*Y20250D01*
X200750D01*
Y26750D01*
X194250D01*
G37*
G54D22*X207500Y23500D03*
G54D17*G36*
X46500Y173500D02*Y167500D01*
X52500D01*
Y173500D01*
X46500D01*
G37*
G54D14*X49500Y160500D03*
G54D17*G36*
X21000Y173500D02*Y167500D01*
X27000D01*
Y173500D01*
X21000D01*
G37*
G54D14*X24000Y160500D03*
G54D17*G36*
X21000Y137500D02*Y131500D01*
X27000D01*
Y137500D01*
X21000D01*
G37*
G54D14*X24000Y124500D03*
G54D17*G36*
X15000Y48500D02*Y41500D01*
X22000D01*
Y48500D01*
X15000D01*
G37*
G54D21*X18500Y55000D03*
Y65000D03*
Y75000D03*
G54D17*G36*
X46500Y187500D02*Y181500D01*
X52500D01*
Y187500D01*
X46500D01*
G37*
G54D14*X49500Y194500D03*
G54D19*X15000Y193000D03*
G54D17*G36*
X43000Y25000D02*Y18000D01*
X50000D01*
Y25000D01*
X43000D01*
G37*
G54D21*X56500Y21500D03*
G54D19*X15000Y17000D03*
G54D14*X49500Y110500D03*
Y100500D03*
X79500D03*
Y110500D03*
X49500Y150500D03*
Y140500D03*
Y130500D03*
Y120500D03*
G54D20*X94000Y158000D03*
Y178000D03*
G54D14*X79500Y120500D03*
Y130500D03*
Y140500D03*
Y150500D03*
Y160500D03*
Y170500D03*
G54D17*G36*
X78500Y197500D02*Y191500D01*
X84500D01*
Y197500D01*
X78500D01*
G37*
G54D14*X81500Y184500D03*
G54D17*G36*
X75500Y16000D02*Y10000D01*
X81500D01*
Y16000D01*
X75500D01*
G37*
G54D14*X78500Y23000D03*
G54D17*G36*
X167100Y173900D02*Y167100D01*
X173900D01*
Y173900D01*
X167100D01*
G37*
G36*
X120500Y173500D02*Y167500D01*
X126500D01*
Y173500D01*
X120500D01*
G37*
G54D20*X127000Y190000D03*
G54D14*X123500Y160500D03*
Y150500D03*
Y140500D03*
Y130500D03*
Y120500D03*
X153500D03*
Y130500D03*
Y140500D03*
Y150500D03*
Y160500D03*
Y170500D03*
G54D20*X147000Y190000D03*
G54D23*G54D24*G54D23*G54D24*G54D23*G54D24*G54D25*G54D24*G54D11*G54D16*G54D23*G54D24*G54D16*G54D24*G54D25*G54D24*G54D16*G54D24*G54D23*G54D16*G54D23*G54D24*G54D16*G54D24*G54D26*G54D23*G54D11*G54D24*G54D11*G54D25*G54D24*G54D25*G54D23*G54D16*G54D23*G54D11*G54D24*G54D23*G54D16*G54D23*G54D16*M02*
