M48
INCH
T110C0.043
T109C0.030
T108C0.028
T107C0.035
T106C0.038
%
T108
X017950Y012750
X015350Y013050
X015350Y014050
X015350Y015050
X015350Y016050
X015350Y017050
X004950Y014050
X004950Y013050
X004950Y012050
X004950Y011050
X004950Y010050
X007950Y010050
X007950Y011050
X007950Y012050
X007950Y013050
X007950Y014050
X004950Y017050
X004950Y016050
X004950Y015050
X007950Y015050
X007950Y016050
X007950Y017050
X012350Y017050
X012350Y016050
X012350Y015050
X012350Y014050
X012350Y013050
X012350Y012050
X012350Y011050
X015350Y011050
X015350Y012050
X022050Y011050
X025050Y011050
X022050Y010050
X025050Y010050
X022050Y009050
X022050Y008050
X025050Y008050
X025050Y009050
X022050Y017050
X022050Y016050
X022050Y015050
X022050Y014050
X022050Y013050
X025050Y015050
X025050Y016050
X025050Y017050
X022050Y012050
X025050Y012050
X025050Y013050
X025050Y014050
X019950Y012750
T109
X002400Y017050
X002400Y016050
X002400Y013450
X002400Y012450
X009850Y019450
X009850Y018450
X006250Y018450
X006250Y019450
X006500Y001300
X006500Y002300
X019250Y019400
X019250Y018400
T107
X017950Y014050
X019950Y014050
X017950Y015750
X019950Y015750
X018000Y011250
X008600Y003300
X008600Y001300
X020000Y011250
T106
X024150Y018550
X017050Y017050
X018150Y004850
X012850Y004850
X016850Y004850
X003000Y002200
X004000Y002200
X001850Y004500
X001850Y005500
X001850Y006500
X001850Y007500
X023150Y004850
X027150Y004850
X022150Y004850
X026850Y015050
X026850Y016150
X026850Y013950
X023150Y018550
X021050Y017050
X030850Y015050
X030850Y016150
X029550Y011750
X028550Y011750
X030850Y013950
X031750Y019550
X031750Y018550
X030750Y019550
X030750Y018550
X029750Y019550
X029750Y018550
X028750Y019550
X028750Y018550
X027750Y019550
X027750Y018550
X033750Y007700
X033750Y006700
X033750Y005700
X033750Y004700
X033700Y011050
X033700Y012050
X033700Y013050
X033700Y014050
X033700Y015050
X033700Y016050
T110
X024750Y002350
X025750Y002350
X014350Y002350
X015350Y002350
X019750Y002350
X020750Y002350
M30
