G04 start of page 9 for group -4079 idx -4079 *
G04 Title: (unknown), topsilk *
G04 Creator: pcb 20110918 *
G04 CreationDate: Sun 26 Oct 2014 13:14:07 GMT UTC *
G04 For: ksarkies *
G04 Format: Gerber/RS-274X *
G04 PCB-Dimensions: 390000 370000 *
G04 PCB-Coordinate-Origin: lower left *
%MOIN*%
%FSLAX25Y25*%
%LNTOPSILK*%
%ADD118C,0.0100*%
%ADD117C,0.0200*%
%ADD116C,0.0060*%
%ADD115C,0.0001*%
G54D115*G36*
X56977Y247514D02*X59554D01*
X59637Y247482D01*
X59684Y247406D01*
X59733Y247167D01*
X59777Y246945D01*
X60168Y244813D01*
X60215Y244725D01*
X60298Y244667D01*
X60401Y244623D01*
X61191Y244352D01*
X61941Y243994D01*
X61947D01*
X62034Y243956D01*
X62131Y243942D01*
X62229Y243973D01*
X64002Y245192D01*
X64193Y245317D01*
X64394Y245453D01*
X64480Y245478D01*
X64562Y245442D01*
X64893Y245112D01*
X65397Y244612D01*
X65555Y244449D01*
X66054Y243951D01*
X66216Y243794D01*
X66384Y243620D01*
X66423Y243535D01*
X66401Y243446D01*
X66265Y243245D01*
X66136Y243055D01*
X64947Y241319D01*
X64915Y241227D01*
X64930Y241130D01*
X64975Y241031D01*
X65658Y239425D01*
X65695Y239334D01*
X65758Y239256D01*
X65848Y239209D01*
X67887Y238828D01*
X68111Y238785D01*
X68354Y238742D01*
X68429Y238695D01*
X68458Y238612D01*
Y236035D01*
X68429Y235946D01*
X68354Y235899D01*
X68111Y235856D01*
X67887Y235813D01*
X65908Y235444D01*
X65820Y235396D01*
X65766Y235313D01*
X65738Y235253D01*
Y235242D01*
X65023Y233469D01*
X65018Y233457D01*
X65001Y233414D01*
X64984Y233313D01*
X65012Y233219D01*
X66141Y231587D01*
X66265Y231396D01*
X66406Y231195D01*
X66425Y231109D01*
X66384Y231027D01*
X66216Y230848D01*
X66054Y230691D01*
X64736Y229373D01*
X64562Y229205D01*
X64480Y229164D01*
X64394Y229182D01*
X64193Y229324D01*
X64002Y229448D01*
X62408Y230545D01*
X62309Y230574D01*
X62212Y230555D01*
X61881Y230371D01*
X61687Y230262D01*
X61340Y230084D01*
X61255Y230078D01*
X61193Y230138D01*
X61047Y230495D01*
X60959Y230702D01*
X59576Y234060D01*
X59488Y234266D01*
X59391Y234499D01*
X59387Y234594D01*
X59440Y234667D01*
X59663Y234798D01*
X59804Y234906D01*
X60340Y235352D01*
X60755Y235916D01*
X61022Y236575D01*
X61116Y237305D01*
X61058Y237880D01*
X60893Y238414D01*
X60630Y238899D01*
X60281Y239321D01*
X59861Y239670D01*
X59377Y239934D01*
X58843Y240099D01*
X58269Y240157D01*
X57694Y240099D01*
X57159Y239934D01*
X56676Y239670D01*
X56254Y239321D01*
X55906Y238899D01*
X55644Y238414D01*
X55479Y237880D01*
X55420Y237305D01*
X55513Y236575D01*
X55780Y235916D01*
X56194Y235352D01*
X56733Y234906D01*
X56869Y234798D01*
X57091Y234667D01*
X57145Y234594D01*
X57140Y234499D01*
X57043Y234266D01*
X56955Y234060D01*
X55572Y230702D01*
X55486Y230495D01*
X55338Y230138D01*
X55277Y230078D01*
X55193Y230084D01*
X54851Y230262D01*
X54650Y230371D01*
X54319Y230555D01*
X54220Y230574D01*
X54123Y230545D01*
X52529Y229448D01*
X52344Y229324D01*
X52138Y229182D01*
X52051Y229164D01*
X51969Y229205D01*
X51795Y229373D01*
X51638Y229535D01*
X51140Y230034D01*
X50977Y230192D01*
X50477Y230691D01*
X50315Y230848D01*
X50147Y231027D01*
X50108Y231109D01*
X50130Y231195D01*
X50266Y231396D01*
X50397Y231587D01*
X51519Y233219D01*
X51547Y233313D01*
X51530Y233414D01*
X51508Y233474D01*
X50798Y235248D01*
X50765Y235313D01*
X50711Y235396D01*
X50625Y235444D01*
X48644Y235813D01*
X48422Y235856D01*
X48183Y235899D01*
X48104Y235949D01*
X48075Y236035D01*
Y238612D01*
X48104Y238695D01*
X48183Y238742D01*
X48422Y238791D01*
X48644Y238828D01*
X50684Y239209D01*
X50773Y239256D01*
X50836Y239339D01*
X50873Y239425D01*
X51562Y241031D01*
X51601Y241130D01*
X51618Y241227D01*
X51590Y241319D01*
X50397Y243060D01*
X50266Y243245D01*
X50130Y243446D01*
X50108Y243535D01*
X50147Y243620D01*
X50315Y243794D01*
X50477Y243951D01*
X51969Y245442D01*
X52051Y245478D01*
X52138Y245459D01*
X52344Y245323D01*
X52529Y245192D01*
X54302Y243973D01*
X54400Y243944D01*
X54498Y243962D01*
X54584Y243994D01*
X54595Y243999D01*
X55341Y244353D01*
X56131Y244628D01*
X56234Y244667D01*
X56318Y244725D01*
X56363Y244813D01*
X56761Y246945D01*
X56798Y247167D01*
X56847Y247406D01*
X56894Y247482D01*
X56977Y247514D01*
G37*
G36*
X85177Y20414D02*X87754D01*
X87837Y20382D01*
X87884Y20306D01*
X87933Y20067D01*
X87977Y19845D01*
X88368Y17713D01*
X88415Y17625D01*
X88498Y17567D01*
X88601Y17523D01*
X89391Y17252D01*
X90141Y16894D01*
X90147D01*
X90234Y16856D01*
X90331Y16842D01*
X90429Y16873D01*
X92202Y18092D01*
X92393Y18217D01*
X92594Y18353D01*
X92680Y18378D01*
X92762Y18342D01*
X93093Y18012D01*
X93597Y17512D01*
X93755Y17349D01*
X94254Y16851D01*
X94416Y16694D01*
X94584Y16520D01*
X94623Y16435D01*
X94601Y16346D01*
X94465Y16145D01*
X94336Y15955D01*
X93147Y14219D01*
X93115Y14127D01*
X93130Y14030D01*
X93175Y13931D01*
X93858Y12325D01*
X93895Y12234D01*
X93958Y12156D01*
X94048Y12109D01*
X96087Y11728D01*
X96311Y11685D01*
X96554Y11642D01*
X96629Y11595D01*
X96658Y11512D01*
Y8935D01*
X96629Y8846D01*
X96554Y8799D01*
X96311Y8756D01*
X96087Y8713D01*
X94108Y8344D01*
X94020Y8296D01*
X93966Y8213D01*
X93938Y8153D01*
Y8142D01*
X93223Y6369D01*
X93218Y6357D01*
X93201Y6314D01*
X93184Y6213D01*
X93212Y6119D01*
X94341Y4487D01*
X94465Y4296D01*
X94606Y4095D01*
X94625Y4009D01*
X94584Y3927D01*
X94416Y3748D01*
X94254Y3591D01*
X92936Y2273D01*
X92762Y2105D01*
X92680Y2064D01*
X92594Y2082D01*
X92393Y2224D01*
X92202Y2348D01*
X90608Y3445D01*
X90509Y3474D01*
X90412Y3455D01*
X90081Y3271D01*
X89887Y3162D01*
X89540Y2984D01*
X89455Y2978D01*
X89393Y3038D01*
X89247Y3395D01*
X89159Y3602D01*
X87776Y6960D01*
X87688Y7166D01*
X87591Y7399D01*
X87587Y7494D01*
X87640Y7567D01*
X87863Y7698D01*
X88004Y7806D01*
X88540Y8252D01*
X88955Y8816D01*
X89222Y9475D01*
X89316Y10205D01*
X89258Y10780D01*
X89093Y11314D01*
X88830Y11799D01*
X88481Y12221D01*
X88061Y12570D01*
X87577Y12834D01*
X87043Y12999D01*
X86469Y13057D01*
X85894Y12999D01*
X85359Y12834D01*
X84876Y12570D01*
X84454Y12221D01*
X84106Y11799D01*
X83844Y11314D01*
X83679Y10780D01*
X83620Y10205D01*
X83713Y9475D01*
X83980Y8816D01*
X84394Y8252D01*
X84933Y7806D01*
X85069Y7698D01*
X85291Y7567D01*
X85345Y7494D01*
X85340Y7399D01*
X85243Y7166D01*
X85155Y6960D01*
X83772Y3602D01*
X83686Y3395D01*
X83538Y3038D01*
X83477Y2978D01*
X83393Y2984D01*
X83051Y3162D01*
X82850Y3271D01*
X82519Y3455D01*
X82420Y3474D01*
X82323Y3445D01*
X80729Y2348D01*
X80544Y2224D01*
X80338Y2082D01*
X80251Y2064D01*
X80169Y2105D01*
X79995Y2273D01*
X79838Y2435D01*
X79340Y2934D01*
X79177Y3092D01*
X78677Y3591D01*
X78515Y3748D01*
X78347Y3927D01*
X78308Y4009D01*
X78330Y4095D01*
X78466Y4296D01*
X78597Y4487D01*
X79719Y6119D01*
X79747Y6213D01*
X79730Y6314D01*
X79708Y6374D01*
X78998Y8148D01*
X78965Y8213D01*
X78911Y8296D01*
X78825Y8344D01*
X76844Y8713D01*
X76622Y8756D01*
X76383Y8799D01*
X76304Y8849D01*
X76275Y8935D01*
Y11512D01*
X76304Y11595D01*
X76383Y11642D01*
X76622Y11691D01*
X76844Y11728D01*
X78884Y12109D01*
X78973Y12156D01*
X79036Y12239D01*
X79073Y12325D01*
X79762Y13931D01*
X79801Y14030D01*
X79818Y14127D01*
X79790Y14219D01*
X78597Y15960D01*
X78466Y16145D01*
X78330Y16346D01*
X78308Y16435D01*
X78347Y16520D01*
X78515Y16694D01*
X78677Y16851D01*
X80169Y18342D01*
X80251Y18378D01*
X80338Y18359D01*
X80544Y18223D01*
X80729Y18092D01*
X82502Y16873D01*
X82600Y16844D01*
X82698Y16862D01*
X82784Y16894D01*
X82795Y16899D01*
X83541Y17253D01*
X84331Y17528D01*
X84434Y17567D01*
X84518Y17625D01*
X84563Y17713D01*
X84961Y19845D01*
X84998Y20067D01*
X85047Y20306D01*
X85094Y20382D01*
X85177Y20414D01*
G37*
G36*
X169477Y93514D02*X172054D01*
X172137Y93482D01*
X172184Y93406D01*
X172233Y93167D01*
X172277Y92945D01*
X172668Y90813D01*
X172715Y90725D01*
X172798Y90667D01*
X172901Y90623D01*
X173691Y90352D01*
X174441Y89994D01*
X174447D01*
X174534Y89956D01*
X174631Y89942D01*
X174729Y89973D01*
X176502Y91192D01*
X176693Y91317D01*
X176894Y91453D01*
X176980Y91478D01*
X177062Y91442D01*
X177393Y91112D01*
X177897Y90612D01*
X178055Y90449D01*
X178554Y89951D01*
X178716Y89794D01*
X178884Y89620D01*
X178923Y89535D01*
X178901Y89446D01*
X178765Y89245D01*
X178636Y89055D01*
X177447Y87319D01*
X177415Y87227D01*
X177430Y87130D01*
X177475Y87031D01*
X178158Y85425D01*
X178195Y85334D01*
X178258Y85256D01*
X178348Y85209D01*
X180387Y84828D01*
X180611Y84785D01*
X180854Y84742D01*
X180929Y84695D01*
X180958Y84612D01*
Y82035D01*
X180929Y81946D01*
X180854Y81899D01*
X180611Y81856D01*
X180387Y81813D01*
X178408Y81444D01*
X178320Y81396D01*
X178266Y81313D01*
X178238Y81253D01*
Y81242D01*
X177523Y79469D01*
X177518Y79457D01*
X177501Y79414D01*
X177484Y79313D01*
X177512Y79219D01*
X178641Y77587D01*
X178765Y77396D01*
X178906Y77195D01*
X178925Y77109D01*
X178884Y77027D01*
X178716Y76848D01*
X178554Y76691D01*
X177236Y75373D01*
X177062Y75205D01*
X176980Y75164D01*
X176894Y75182D01*
X176693Y75324D01*
X176502Y75448D01*
X174908Y76545D01*
X174809Y76574D01*
X174712Y76555D01*
X174381Y76371D01*
X174187Y76262D01*
X173840Y76084D01*
X173755Y76078D01*
X173693Y76138D01*
X173547Y76495D01*
X173459Y76702D01*
X172076Y80060D01*
X171988Y80266D01*
X171891Y80499D01*
X171887Y80594D01*
X171940Y80667D01*
X172163Y80798D01*
X172304Y80906D01*
X172840Y81352D01*
X173255Y81916D01*
X173522Y82575D01*
X173616Y83305D01*
X173558Y83880D01*
X173393Y84414D01*
X173130Y84899D01*
X172781Y85321D01*
X172361Y85670D01*
X171877Y85934D01*
X171343Y86099D01*
X170769Y86157D01*
X170194Y86099D01*
X169659Y85934D01*
X169176Y85670D01*
X168754Y85321D01*
X168406Y84899D01*
X168144Y84414D01*
X167979Y83880D01*
X167920Y83305D01*
X168013Y82575D01*
X168280Y81916D01*
X168694Y81352D01*
X169233Y80906D01*
X169369Y80798D01*
X169591Y80667D01*
X169645Y80594D01*
X169640Y80499D01*
X169543Y80266D01*
X169455Y80060D01*
X168072Y76702D01*
X167986Y76495D01*
X167838Y76138D01*
X167777Y76078D01*
X167693Y76084D01*
X167351Y76262D01*
X167150Y76371D01*
X166819Y76555D01*
X166720Y76574D01*
X166623Y76545D01*
X165029Y75448D01*
X164844Y75324D01*
X164638Y75182D01*
X164551Y75164D01*
X164469Y75205D01*
X164295Y75373D01*
X164138Y75535D01*
X163640Y76034D01*
X163477Y76192D01*
X162977Y76691D01*
X162815Y76848D01*
X162647Y77027D01*
X162608Y77109D01*
X162630Y77195D01*
X162766Y77396D01*
X162897Y77587D01*
X164019Y79219D01*
X164047Y79313D01*
X164030Y79414D01*
X164008Y79474D01*
X163298Y81248D01*
X163265Y81313D01*
X163211Y81396D01*
X163125Y81444D01*
X161144Y81813D01*
X160922Y81856D01*
X160683Y81899D01*
X160604Y81949D01*
X160575Y82035D01*
Y84612D01*
X160604Y84695D01*
X160683Y84742D01*
X160922Y84791D01*
X161144Y84828D01*
X163184Y85209D01*
X163273Y85256D01*
X163336Y85339D01*
X163373Y85425D01*
X164062Y87031D01*
X164101Y87130D01*
X164118Y87227D01*
X164090Y87319D01*
X162897Y89060D01*
X162766Y89245D01*
X162630Y89446D01*
X162608Y89535D01*
X162647Y89620D01*
X162815Y89794D01*
X162977Y89951D01*
X164469Y91442D01*
X164551Y91478D01*
X164638Y91459D01*
X164844Y91323D01*
X165029Y91192D01*
X166802Y89973D01*
X166900Y89944D01*
X166998Y89962D01*
X167084Y89994D01*
X167095Y89999D01*
X167841Y90353D01*
X168631Y90628D01*
X168734Y90667D01*
X168818Y90725D01*
X168863Y90813D01*
X169261Y92945D01*
X169298Y93167D01*
X169347Y93406D01*
X169394Y93482D01*
X169477Y93514D01*
G37*
G36*
X314977Y143014D02*X317554D01*
X317637Y142982D01*
X317684Y142906D01*
X317733Y142667D01*
X317777Y142445D01*
X318168Y140313D01*
X318215Y140225D01*
X318298Y140167D01*
X318401Y140123D01*
X319191Y139852D01*
X319941Y139494D01*
X319947D01*
X320034Y139456D01*
X320131Y139442D01*
X320229Y139473D01*
X322002Y140692D01*
X322193Y140817D01*
X322394Y140953D01*
X322480Y140978D01*
X322562Y140942D01*
X322893Y140612D01*
X323397Y140112D01*
X323555Y139949D01*
X324054Y139451D01*
X324216Y139294D01*
X324384Y139120D01*
X324423Y139035D01*
X324401Y138946D01*
X324265Y138745D01*
X324136Y138555D01*
X322947Y136819D01*
X322915Y136727D01*
X322930Y136630D01*
X322975Y136531D01*
X323658Y134925D01*
X323695Y134834D01*
X323758Y134756D01*
X323848Y134709D01*
X325887Y134328D01*
X326111Y134285D01*
X326354Y134242D01*
X326429Y134195D01*
X326458Y134112D01*
Y131535D01*
X326429Y131446D01*
X326354Y131399D01*
X326111Y131356D01*
X325887Y131313D01*
X323908Y130944D01*
X323820Y130896D01*
X323766Y130813D01*
X323738Y130753D01*
Y130742D01*
X323023Y128969D01*
X323018Y128957D01*
X323001Y128914D01*
X322984Y128813D01*
X323012Y128719D01*
X324141Y127087D01*
X324265Y126896D01*
X324406Y126695D01*
X324425Y126609D01*
X324384Y126527D01*
X324216Y126348D01*
X324054Y126191D01*
X322736Y124873D01*
X322562Y124705D01*
X322480Y124664D01*
X322394Y124682D01*
X322193Y124824D01*
X322002Y124948D01*
X320408Y126045D01*
X320309Y126074D01*
X320212Y126055D01*
X319881Y125871D01*
X319687Y125762D01*
X319340Y125584D01*
X319255Y125578D01*
X319193Y125638D01*
X319047Y125995D01*
X318959Y126202D01*
X317576Y129560D01*
X317488Y129766D01*
X317391Y129999D01*
X317387Y130094D01*
X317440Y130167D01*
X317663Y130298D01*
X317804Y130406D01*
X318340Y130852D01*
X318755Y131416D01*
X319022Y132075D01*
X319116Y132805D01*
X319058Y133380D01*
X318893Y133914D01*
X318630Y134399D01*
X318281Y134821D01*
X317861Y135170D01*
X317377Y135434D01*
X316843Y135599D01*
X316269Y135657D01*
X315694Y135599D01*
X315159Y135434D01*
X314676Y135170D01*
X314254Y134821D01*
X313906Y134399D01*
X313644Y133914D01*
X313479Y133380D01*
X313420Y132805D01*
X313513Y132075D01*
X313780Y131416D01*
X314194Y130852D01*
X314733Y130406D01*
X314869Y130298D01*
X315091Y130167D01*
X315145Y130094D01*
X315140Y129999D01*
X315043Y129766D01*
X314955Y129560D01*
X313572Y126202D01*
X313486Y125995D01*
X313338Y125638D01*
X313277Y125578D01*
X313193Y125584D01*
X312851Y125762D01*
X312650Y125871D01*
X312319Y126055D01*
X312220Y126074D01*
X312123Y126045D01*
X310529Y124948D01*
X310344Y124824D01*
X310138Y124682D01*
X310051Y124664D01*
X309969Y124705D01*
X309795Y124873D01*
X309638Y125035D01*
X309140Y125534D01*
X308977Y125692D01*
X308477Y126191D01*
X308315Y126348D01*
X308147Y126527D01*
X308108Y126609D01*
X308130Y126695D01*
X308266Y126896D01*
X308397Y127087D01*
X309519Y128719D01*
X309547Y128813D01*
X309530Y128914D01*
X309508Y128974D01*
X308798Y130748D01*
X308765Y130813D01*
X308711Y130896D01*
X308625Y130944D01*
X306644Y131313D01*
X306422Y131356D01*
X306183Y131399D01*
X306104Y131449D01*
X306075Y131535D01*
Y134112D01*
X306104Y134195D01*
X306183Y134242D01*
X306422Y134291D01*
X306644Y134328D01*
X308684Y134709D01*
X308773Y134756D01*
X308836Y134839D01*
X308873Y134925D01*
X309562Y136531D01*
X309601Y136630D01*
X309618Y136727D01*
X309590Y136819D01*
X308397Y138560D01*
X308266Y138745D01*
X308130Y138946D01*
X308108Y139035D01*
X308147Y139120D01*
X308315Y139294D01*
X308477Y139451D01*
X309969Y140942D01*
X310051Y140978D01*
X310138Y140959D01*
X310344Y140823D01*
X310529Y140692D01*
X312302Y139473D01*
X312400Y139444D01*
X312498Y139462D01*
X312584Y139494D01*
X312595Y139499D01*
X313341Y139853D01*
X314131Y140128D01*
X314234Y140167D01*
X314318Y140225D01*
X314363Y140313D01*
X314761Y142445D01*
X314798Y142667D01*
X314847Y142906D01*
X314894Y142982D01*
X314977Y143014D01*
G37*
G54D116*X33500Y188500D02*X35500D01*
X34500Y189500D02*Y187500D01*
X36700Y190500D02*X38700D01*
X36700D02*Y188500D01*
X37200Y189000D01*
X38200D01*
X38700Y188500D01*
Y187000D01*
X38200Y186500D02*X38700Y187000D01*
X37200Y186500D02*X38200D01*
X36700Y187000D02*X37200Y186500D01*
X39900Y190500D02*Y187500D01*
X40900Y186500D01*
X41900Y187500D01*
Y190500D02*Y187500D01*
X70200Y153200D02*X72200D01*
X72700Y153700D01*
Y154700D02*Y153700D01*
X72200Y155200D02*X72700Y154700D01*
X70700Y155200D02*X72200D01*
X70700Y157200D02*Y153200D01*
X70200Y157200D02*X72200D01*
X72700Y156700D01*
Y155700D01*
X72200Y155200D02*X72700Y155700D01*
X73900Y155200D02*Y153700D01*
X74400Y153200D01*
X75400D01*
X75900Y153700D01*
Y155200D02*Y153700D01*
X77600Y155200D02*X79100D01*
X77100Y154700D02*X77600Y155200D01*
X77100Y154700D02*Y153700D01*
X77600Y153200D01*
X79100D01*
X80300Y157200D02*Y153200D01*
Y154700D02*X81800Y153200D01*
X80300Y154700D02*X81300Y155700D01*
X85300Y153200D02*X86800D01*
X84800Y153700D02*X85300Y153200D01*
X84800Y156700D02*Y153700D01*
Y156700D02*X85300Y157200D01*
X86800D01*
X88000Y154700D02*Y153700D01*
Y154700D02*X88500Y155200D01*
X89500D01*
X90000Y154700D01*
Y153700D01*
X89500Y153200D02*X90000Y153700D01*
X88500Y153200D02*X89500D01*
X88000Y153700D02*X88500Y153200D01*
X91700Y154700D02*Y153200D01*
Y154700D02*X92200Y155200D01*
X92700D01*
X93200Y154700D01*
Y153200D01*
X91200Y155200D02*X91700Y154700D01*
X94400Y155200D02*Y154200D01*
X95400Y153200D01*
X96400Y154200D01*
Y155200D02*Y154200D01*
X98100Y153200D02*X99600D01*
X97600Y153700D02*X98100Y153200D01*
X97600Y154700D02*Y153700D01*
Y154700D02*X98100Y155200D01*
X99100D01*
X99600Y154700D01*
X97600Y154200D02*X99600D01*
Y154700D02*Y154200D01*
X101300Y154700D02*Y153200D01*
Y154700D02*X101800Y155200D01*
X102800D01*
X100800D02*X101300Y154700D01*
X104500Y157200D02*Y153700D01*
X105000Y153200D01*
X104000Y155700D02*X105000D01*
X106500Y153200D02*X108000D01*
X106000Y153700D02*X106500Y153200D01*
X106000Y154700D02*Y153700D01*
Y154700D02*X106500Y155200D01*
X107500D01*
X108000Y154700D01*
X106000Y154200D02*X108000D01*
Y154700D02*Y154200D01*
X109700Y154700D02*Y153200D01*
Y154700D02*X110200Y155200D01*
X111200D01*
X109200D02*X109700Y154700D01*
X79800Y146500D02*X81800D01*
X82300Y147000D01*
Y148000D02*Y147000D01*
X81800Y148500D02*X82300Y148000D01*
X80300Y148500D02*X81800D01*
X80300Y150500D02*Y146500D01*
X79800Y150500D02*X81800D01*
X82300Y150000D01*
Y149000D01*
X81800Y148500D02*X82300Y149000D01*
X85000Y148500D02*X85500Y148000D01*
X84000Y148500D02*X85000D01*
X83500Y148000D02*X84000Y148500D01*
X83500Y148000D02*Y147000D01*
X84000Y146500D01*
X85500Y148500D02*Y147000D01*
X86000Y146500D01*
X84000D02*X85000D01*
X85500Y147000D01*
X87700Y146500D02*X89200D01*
X89700Y147000D01*
X89200Y147500D02*X89700Y147000D01*
X87700Y147500D02*X89200D01*
X87200Y148000D02*X87700Y147500D01*
X87200Y148000D02*X87700Y148500D01*
X89200D01*
X89700Y148000D01*
X87200Y147000D02*X87700Y146500D01*
X90900Y149500D02*Y149000D01*
Y148000D02*Y146500D01*
X92400Y148500D02*X93900D01*
X91900Y148000D02*X92400Y148500D01*
X91900Y148000D02*Y147000D01*
X92400Y146500D01*
X93900D01*
X9000Y198500D02*X11000D01*
X10000D02*Y194500D01*
X13700Y196500D02*X14200Y196000D01*
X12700Y196500D02*X13700D01*
X12200Y196000D02*X12700Y196500D01*
X12200Y196000D02*Y195000D01*
X12700Y194500D01*
X14200Y196500D02*Y195000D01*
X14700Y194500D01*
X12700D02*X13700D01*
X14200Y195000D01*
X16400Y196000D02*Y194500D01*
Y196000D02*X16900Y196500D01*
X17900D01*
X15900D02*X16400Y196000D01*
X20600Y196500D02*X21100Y196000D01*
X19600Y196500D02*X20600D01*
X19100Y196000D02*X19600Y196500D01*
X19100Y196000D02*Y195000D01*
X19600Y194500D01*
X20600D01*
X21100Y195000D01*
X19100Y193500D02*X19600Y193000D01*
X20600D01*
X21100Y193500D01*
Y196500D02*Y193500D01*
X22800Y194500D02*X24300D01*
X22300Y195000D02*X22800Y194500D01*
X22300Y196000D02*Y195000D01*
Y196000D02*X22800Y196500D01*
X23800D01*
X24300Y196000D01*
X22300Y195500D02*X24300D01*
Y196000D02*Y195500D01*
X26000Y198500D02*Y195000D01*
X26500Y194500D01*
X25500Y197000D02*X26500D01*
X56700Y38900D02*Y34900D01*
Y36900D02*X58700Y38900D01*
X56700Y36900D02*X58700Y34900D01*
X59900D02*X60400D01*
X63400Y38900D02*Y34900D01*
X64900Y36400D01*
X66400Y34900D01*
Y38900D02*Y34900D01*
X67600D02*X68100D01*
X73100Y38900D02*X73600Y38400D01*
X71600Y38900D02*X73100D01*
X71100Y38400D02*X71600Y38900D01*
X71100Y38400D02*Y37400D01*
X71600Y36900D01*
X73100D01*
X73600Y36400D01*
Y35400D01*
X73100Y34900D02*X73600Y35400D01*
X71600Y34900D02*X73100D01*
X71100Y35400D02*X71600Y34900D01*
X76300Y36900D02*X76800Y36400D01*
X75300Y36900D02*X76300D01*
X74800Y36400D02*X75300Y36900D01*
X74800Y36400D02*Y35400D01*
X75300Y34900D01*
X76800Y36900D02*Y35400D01*
X77300Y34900D01*
X75300D02*X76300D01*
X76800Y35400D01*
X79000Y36400D02*Y34900D01*
Y36400D02*X79500Y36900D01*
X80500D01*
X78500D02*X79000Y36400D01*
X81700Y38900D02*Y34900D01*
Y36400D02*X83200Y34900D01*
X81700Y36400D02*X82700Y37400D01*
X84400Y37900D02*Y37400D01*
Y36400D02*Y34900D01*
X85900D02*X87400D01*
X85400Y35400D02*X85900Y34900D01*
X85400Y36400D02*Y35400D01*
Y36400D02*X85900Y36900D01*
X86900D01*
X87400Y36400D01*
X85400Y35900D02*X87400D01*
Y36400D02*Y35900D01*
X89100Y34900D02*X90600D01*
X91100Y35400D01*
X90600Y35900D02*X91100Y35400D01*
X89100Y35900D02*X90600D01*
X88600Y36400D02*X89100Y35900D01*
X88600Y36400D02*X89100Y36900D01*
X90600D01*
X91100Y36400D01*
X88600Y35400D02*X89100Y34900D01*
X94100Y38400D02*X94600Y38900D01*
X96100D01*
X96600Y38400D01*
Y37400D01*
X94100Y34900D02*X96600Y37400D01*
X94100Y34900D02*X96600D01*
X97800Y36900D02*X99800Y38900D01*
X97800Y36900D02*X100300D01*
X99800Y38900D02*Y34900D01*
X101500Y35400D02*X104500Y38400D01*
X106200Y34900D02*X107200D01*
X106700Y38900D02*Y34900D01*
X105700Y37900D02*X106700Y38900D01*
X108400Y35400D02*X108900Y34900D01*
X108400Y38400D02*Y35400D01*
Y38400D02*X108900Y38900D01*
X109900D01*
X110400Y38400D01*
Y35400D01*
X109900Y34900D02*X110400Y35400D01*
X108900Y34900D02*X109900D01*
X108400Y35900D02*X110400Y37900D01*
X111600Y35400D02*X114600Y38400D01*
X115800D02*X116300Y38900D01*
X117800D01*
X118300Y38400D01*
Y37400D01*
X115800Y34900D02*X118300Y37400D01*
X115800Y34900D02*X118300D01*
X119500Y35400D02*X120000Y34900D01*
X119500Y38400D02*Y35400D01*
Y38400D02*X120000Y38900D01*
X121000D01*
X121500Y38400D01*
Y35400D01*
X121000Y34900D02*X121500Y35400D01*
X120000Y34900D02*X121000D01*
X119500Y35900D02*X121500Y37900D01*
X123200Y34900D02*X124200D01*
X123700Y38900D02*Y34900D01*
X122700Y37900D02*X123700Y38900D01*
X125400Y36900D02*X127400Y38900D01*
X125400Y36900D02*X127900D01*
X127400Y38900D02*Y34900D01*
X72200Y32900D02*Y29900D01*
X73200Y28900D01*
X74200Y29900D01*
Y32900D02*Y29900D01*
X75900Y28900D02*X77400D01*
X75400Y29400D02*X75900Y28900D01*
X75400Y30400D02*Y29400D01*
Y30400D02*X75900Y30900D01*
X76900D01*
X77400Y30400D01*
X75400Y29900D02*X77400D01*
Y30400D02*Y29900D01*
X79100Y30400D02*Y28900D01*
Y30400D02*X79600Y30900D01*
X80600D01*
X78600D02*X79100Y30400D01*
X82300Y28900D02*X83800D01*
X84300Y29400D01*
X83800Y29900D02*X84300Y29400D01*
X82300Y29900D02*X83800D01*
X81800Y30400D02*X82300Y29900D01*
X81800Y30400D02*X82300Y30900D01*
X83800D01*
X84300Y30400D01*
X81800Y29400D02*X82300Y28900D01*
X85500Y31900D02*Y31400D01*
Y30400D02*Y28900D01*
X86500Y30400D02*Y29400D01*
Y30400D02*X87000Y30900D01*
X88000D01*
X88500Y30400D01*
Y29400D01*
X88000Y28900D02*X88500Y29400D01*
X87000Y28900D02*X88000D01*
X86500Y29400D02*X87000Y28900D01*
X90200Y30400D02*Y28900D01*
Y30400D02*X90700Y30900D01*
X91200D01*
X91700Y30400D01*
Y28900D01*
X89700Y30900D02*X90200Y30400D01*
X94700Y29400D02*X95200Y28900D01*
X94700Y32400D02*Y29400D01*
Y32400D02*X95200Y32900D01*
X96200D01*
X96700Y32400D01*
Y29400D01*
X96200Y28900D02*X96700Y29400D01*
X95200Y28900D02*X96200D01*
X94700Y29900D02*X96700Y31900D01*
X97900Y28900D02*X98400D01*
X99600Y29400D02*X100100Y28900D01*
X99600Y32400D02*Y29400D01*
Y32400D02*X100100Y32900D01*
X101100D01*
X101600Y32400D01*
Y29400D01*
X101100Y28900D02*X101600Y29400D01*
X100100Y28900D02*X101100D01*
X99600Y29900D02*X101600Y31900D01*
X63700Y25900D02*Y21900D01*
X65700D01*
X66900Y24900D02*Y24400D01*
Y23400D02*Y21900D01*
X68400Y23900D02*X69900D01*
X67900Y23400D02*X68400Y23900D01*
X67900Y23400D02*Y22400D01*
X68400Y21900D01*
X69900D01*
X71600D02*X73100D01*
X71100Y22400D02*X71600Y21900D01*
X71100Y23400D02*Y22400D01*
Y23400D02*X71600Y23900D01*
X72600D01*
X73100Y23400D01*
X71100Y22900D02*X73100D01*
Y23400D02*Y22900D01*
X74800Y23400D02*Y21900D01*
Y23400D02*X75300Y23900D01*
X75800D01*
X76300Y23400D01*
Y21900D01*
X74300Y23900D02*X74800Y23400D01*
X78000Y23900D02*X79500D01*
X77500Y23400D02*X78000Y23900D01*
X77500Y23400D02*Y22400D01*
X78000Y21900D01*
X79500D01*
X81200D02*X82700D01*
X80700Y22400D02*X81200Y21900D01*
X80700Y23400D02*Y22400D01*
Y23400D02*X81200Y23900D01*
X82200D01*
X82700Y23400D01*
X80700Y22900D02*X82700D01*
Y23400D02*Y22900D01*
X86200Y23900D02*X87700D01*
X85700Y23400D02*X86200Y23900D01*
X85700Y23400D02*Y22400D01*
X86200Y21900D01*
X87700D01*
X89400Y23900D02*X90900D01*
X88900Y23400D02*X89400Y23900D01*
X88900Y23400D02*Y22400D01*
X89400Y21900D01*
X90900D01*
X92100Y23900D02*X94100D01*
X95300Y25900D02*Y21900D01*
Y22400D02*X95800Y21900D01*
X96800D01*
X97300Y22400D01*
Y23400D02*Y22400D01*
X96800Y23900D02*X97300Y23400D01*
X95800Y23900D02*X96800D01*
X95300Y23400D02*X95800Y23900D01*
X98500D02*Y22400D01*
X99000Y21900D01*
X100500Y23900D02*Y20900D01*
X100000Y20400D02*X100500Y20900D01*
X99000Y20400D02*X100000D01*
X98500Y20900D02*X99000Y20400D01*
Y21900D02*X100000D01*
X100500Y22400D01*
X101700Y23900D02*X103700D01*
X105400Y21900D02*X106900D01*
X107400Y22400D01*
X106900Y22900D02*X107400Y22400D01*
X105400Y22900D02*X106900D01*
X104900Y23400D02*X105400Y22900D01*
X104900Y23400D02*X105400Y23900D01*
X106900D01*
X107400Y23400D01*
X104900Y22400D02*X105400Y21900D01*
X110100Y23900D02*X110600Y23400D01*
X109100Y23900D02*X110100D01*
X108600Y23400D02*X109100Y23900D01*
X108600Y23400D02*Y22400D01*
X109100Y21900D01*
X110600Y23900D02*Y22400D01*
X111100Y21900D01*
X109100D02*X110100D01*
X110600Y22400D01*
X133500Y18000D02*X137500D01*
X135500D02*X133500Y20000D01*
X135500Y18000D02*X137500Y20000D01*
Y21700D02*Y21200D01*
X133500Y24700D02*X137500D01*
X136000Y26200D01*
X137500Y27700D01*
X133500D02*X137500D01*
Y29400D02*Y28900D01*
X133500Y34400D02*X134000Y34900D01*
X133500Y34400D02*Y32900D01*
X134000Y32400D02*X133500Y32900D01*
X134000Y32400D02*X135000D01*
X135500Y32900D01*
Y34400D02*Y32900D01*
Y34400D02*X136000Y34900D01*
X137000D01*
X137500Y34400D02*X137000Y34900D01*
X137500Y34400D02*Y32900D01*
X137000Y32400D02*X137500Y32900D01*
X135500Y37600D02*X136000Y38100D01*
X135500Y37600D02*Y36600D01*
X136000Y36100D02*X135500Y36600D01*
X136000Y36100D02*X137000D01*
X137500Y36600D01*
X135500Y38100D02*X137000D01*
X137500Y38600D01*
Y37600D02*Y36600D01*
Y37600D02*X137000Y38100D01*
X136000Y40300D02*X137500D01*
X136000D02*X135500Y40800D01*
Y41800D02*Y40800D01*
Y39800D02*X136000Y40300D01*
X133500Y43000D02*X137500D01*
X136000D02*X137500Y44500D01*
X136000Y43000D02*X135000Y44000D01*
X134500Y45700D02*X135000D01*
X136000D02*X137500D01*
Y48700D02*Y47200D01*
X137000Y46700D02*X137500Y47200D01*
X136000Y46700D02*X137000D01*
X136000D02*X135500Y47200D01*
Y48200D02*Y47200D01*
Y48200D02*X136000Y48700D01*
X136500D02*Y46700D01*
X136000Y48700D02*X136500D01*
X137500Y51900D02*Y50400D01*
Y51900D02*X137000Y52400D01*
X136500Y51900D02*X137000Y52400D01*
X136500Y51900D02*Y50400D01*
X136000Y49900D02*X136500Y50400D01*
X136000Y49900D02*X135500Y50400D01*
Y51900D02*Y50400D01*
Y51900D02*X136000Y52400D01*
X137000Y49900D02*X137500Y50400D01*
X134000Y55400D02*X133500Y55900D01*
Y57400D02*Y55900D01*
Y57400D02*X134000Y57900D01*
X135000D01*
X137500Y55400D02*X135000Y57900D01*
X137500D02*Y55400D01*
X133500Y60600D02*X134000Y61100D01*
X133500Y60600D02*Y59600D01*
X134000Y59100D02*X133500Y59600D01*
X134000Y59100D02*X137000D01*
X137500Y59600D01*
X135500Y60600D02*X136000Y61100D01*
X135500Y60600D02*Y59100D01*
X137500Y60600D02*Y59600D01*
Y60600D02*X137000Y61100D01*
X136000D02*X137000D01*
Y62300D02*X134000Y65300D01*
X137500Y68000D02*Y67000D01*
X133500Y67500D02*X137500D01*
X134500Y66500D02*X133500Y67500D01*
X137000Y69200D02*X137500Y69700D01*
X134000Y69200D02*X137000D01*
X134000D02*X133500Y69700D01*
Y70700D02*Y69700D01*
Y70700D02*X134000Y71200D01*
X137000D01*
X137500Y70700D02*X137000Y71200D01*
X137500Y70700D02*Y69700D01*
X136500Y69200D02*X134500Y71200D01*
X137000Y72400D02*X134000Y75400D01*
Y76600D02*X133500Y77100D01*
Y78600D02*Y77100D01*
Y78600D02*X134000Y79100D01*
X135000D01*
X137500Y76600D02*X135000Y79100D01*
X137500D02*Y76600D01*
X137000Y80300D02*X137500Y80800D01*
X134000Y80300D02*X137000D01*
X134000D02*X133500Y80800D01*
Y81800D02*Y80800D01*
Y81800D02*X134000Y82300D01*
X137000D01*
X137500Y81800D02*X137000Y82300D01*
X137500Y81800D02*Y80800D01*
X136500Y80300D02*X134500Y82300D01*
X137500Y85000D02*Y84000D01*
X133500Y84500D02*X137500D01*
X134500Y83500D02*X133500Y84500D01*
X135500Y86200D02*X133500Y88200D01*
X135500Y88700D02*Y86200D01*
X133500Y88200D02*X137500D01*
X256000Y93000D02*X259000D01*
X256000D02*X255000Y92000D01*
X256000Y91000D01*
X259000D01*
X255000Y89300D02*Y87800D01*
X255500Y89800D02*X255000Y89300D01*
X255500Y89800D02*X256500D01*
X257000Y89300D01*
Y88300D01*
X256500Y87800D01*
X256000Y89800D02*Y87800D01*
X256500D01*
X255000Y86100D02*X256500D01*
X257000Y85600D01*
Y84600D01*
Y86600D02*X256500Y86100D01*
X255000Y82900D02*Y81400D01*
X255500Y80900D01*
X256000Y81400D02*X255500Y80900D01*
X256000Y82900D02*Y81400D01*
X256500Y83400D02*X256000Y82900D01*
X256500Y83400D02*X257000Y82900D01*
Y81400D01*
X256500Y80900D01*
X255500Y83400D02*X255000Y82900D01*
X257500Y79700D02*X258000D01*
X255000D02*X256500D01*
X255500Y78700D02*X256500D01*
X257000Y78200D01*
Y77200D01*
X256500Y76700D01*
X255500D02*X256500D01*
X255000Y77200D02*X255500Y76700D01*
X255000Y78200D02*Y77200D01*
X255500Y78700D02*X255000Y78200D01*
Y75000D02*X256500D01*
X257000Y74500D01*
Y74000D01*
X256500Y73500D01*
X255000D02*X256500D01*
X257000Y75500D02*X256500Y75000D01*
X255500Y70500D02*X255000Y70000D01*
X255500Y70500D02*X258500D01*
X259000Y70000D01*
Y69000D01*
X258500Y68500D01*
X255500D02*X258500D01*
X255000Y69000D02*X255500Y68500D01*
X255000Y70000D02*Y69000D01*
X256000Y70500D02*X258000Y68500D01*
X255000Y67300D02*Y66800D01*
X255500Y65600D02*X255000Y65100D01*
X255500Y65600D02*X258500D01*
X259000Y65100D01*
Y64100D01*
X258500Y63600D01*
X255500D02*X258500D01*
X255000Y64100D02*X255500Y63600D01*
X255000Y65100D02*Y64100D01*
X256000Y65600D02*X258000Y63600D01*
X255000Y60600D02*X259000D01*
X255000D02*Y58600D01*
X257500Y57400D02*X258000D01*
X255000D02*X256500D01*
X257000Y55900D02*Y54400D01*
X256500Y56400D02*X257000Y55900D01*
X255500Y56400D02*X256500D01*
X255500D02*X255000Y55900D01*
Y54400D01*
Y52700D02*Y51200D01*
X255500Y53200D02*X255000Y52700D01*
X255500Y53200D02*X256500D01*
X257000Y52700D01*
Y51700D01*
X256500Y51200D01*
X256000Y53200D02*Y51200D01*
X256500D01*
X255000Y49500D02*X256500D01*
X257000Y49000D01*
Y48500D01*
X256500Y48000D01*
X255000D02*X256500D01*
X257000Y50000D02*X256500Y49500D01*
X257000Y46300D02*Y44800D01*
X256500Y46800D02*X257000Y46300D01*
X255500Y46800D02*X256500D01*
X255500D02*X255000Y46300D01*
Y44800D01*
Y43100D02*Y41600D01*
X255500Y43600D02*X255000Y43100D01*
X255500Y43600D02*X256500D01*
X257000Y43100D01*
Y42100D01*
X256500Y41600D01*
X256000Y43600D02*Y41600D01*
X256500D01*
X257000Y38100D02*Y36600D01*
X256500Y38600D02*X257000Y38100D01*
X255500Y38600D02*X256500D01*
X255500D02*X255000Y38100D01*
Y36600D01*
X257000Y34900D02*Y33400D01*
X256500Y35400D02*X257000Y34900D01*
X255500Y35400D02*X256500D01*
X255500D02*X255000Y34900D01*
Y33400D01*
X257000Y32200D02*Y30200D01*
X255000Y29000D02*X259000D01*
X255500D02*X255000Y28500D01*
Y27500D01*
X255500Y27000D01*
X256500D01*
X257000Y27500D02*X256500Y27000D01*
X257000Y28500D02*Y27500D01*
X256500Y29000D02*X257000Y28500D01*
X255500Y25800D02*X257000D01*
X255500D02*X255000Y25300D01*
X254000Y23800D02*X257000D01*
X253500Y24300D02*X254000Y23800D01*
X253500Y25300D02*Y24300D01*
X254000Y25800D02*X253500Y25300D01*
X255000D02*Y24300D01*
X255500Y23800D01*
X257000Y22600D02*Y20600D01*
X255000Y18900D02*Y17400D01*
X255500Y16900D01*
X256000Y17400D02*X255500Y16900D01*
X256000Y18900D02*Y17400D01*
X256500Y19400D02*X256000Y18900D01*
X256500Y19400D02*X257000Y18900D01*
Y17400D01*
X256500Y16900D01*
X255500Y19400D02*X255000Y18900D01*
X257000Y14200D02*X256500Y13700D01*
X257000Y15200D02*Y14200D01*
X256500Y15700D02*X257000Y15200D01*
X255500Y15700D02*X256500D01*
X255500D02*X255000Y15200D01*
X255500Y13700D02*X257000D01*
X255500D02*X255000Y13200D01*
Y15200D02*Y14200D01*
X255500Y13700D01*
X262200Y6900D02*X266200D01*
X264200D02*X262200Y8900D01*
X264200Y6900D02*X266200Y8900D01*
Y10600D02*Y10100D01*
X262200Y13600D02*X266200D01*
X264700Y15100D01*
X266200Y16600D01*
X262200D02*X266200D01*
Y18300D02*Y17800D01*
X262200Y23300D02*X262700Y23800D01*
X262200Y23300D02*Y21800D01*
X262700Y21300D02*X262200Y21800D01*
X262700Y21300D02*X263700D01*
X264200Y21800D01*
Y23300D02*Y21800D01*
Y23300D02*X264700Y23800D01*
X265700D01*
X266200Y23300D02*X265700Y23800D01*
X266200Y23300D02*Y21800D01*
X265700Y21300D02*X266200Y21800D01*
X264200Y26500D02*X264700Y27000D01*
X264200Y26500D02*Y25500D01*
X264700Y25000D02*X264200Y25500D01*
X264700Y25000D02*X265700D01*
X266200Y25500D01*
X264200Y27000D02*X265700D01*
X266200Y27500D01*
Y26500D02*Y25500D01*
Y26500D02*X265700Y27000D01*
X264700Y29200D02*X266200D01*
X264700D02*X264200Y29700D01*
Y30700D02*Y29700D01*
Y28700D02*X264700Y29200D01*
X262200Y31900D02*X266200D01*
X264700D02*X266200Y33400D01*
X264700Y31900D02*X263700Y32900D01*
X263200Y34600D02*X263700D01*
X264700D02*X266200D01*
Y37600D02*Y36100D01*
X265700Y35600D02*X266200Y36100D01*
X264700Y35600D02*X265700D01*
X264700D02*X264200Y36100D01*
Y37100D02*Y36100D01*
Y37100D02*X264700Y37600D01*
X265200D02*Y35600D01*
X264700Y37600D02*X265200D01*
X266200Y40800D02*Y39300D01*
Y40800D02*X265700Y41300D01*
X265200Y40800D02*X265700Y41300D01*
X265200Y40800D02*Y39300D01*
X264700Y38800D02*X265200Y39300D01*
X264700Y38800D02*X264200Y39300D01*
Y40800D02*Y39300D01*
Y40800D02*X264700Y41300D01*
X265700Y38800D02*X266200Y39300D01*
X262700Y44300D02*X262200Y44800D01*
Y46300D02*Y44800D01*
Y46300D02*X262700Y46800D01*
X263700D01*
X266200Y44300D02*X263700Y46800D01*
X266200D02*Y44300D01*
X264200Y48000D02*X262200Y50000D01*
X264200Y50500D02*Y48000D01*
X262200Y50000D02*X266200D01*
X265700Y51700D02*X262700Y54700D01*
X266200Y57400D02*Y56400D01*
X262200Y56900D02*X266200D01*
X263200Y55900D02*X262200Y56900D01*
X265700Y58600D02*X266200Y59100D01*
X262700Y58600D02*X265700D01*
X262700D02*X262200Y59100D01*
Y60100D02*Y59100D01*
Y60100D02*X262700Y60600D01*
X265700D01*
X266200Y60100D02*X265700Y60600D01*
X266200Y60100D02*Y59100D01*
X265200Y58600D02*X263200Y60600D01*
X265700Y61800D02*X262700Y64800D01*
Y66000D02*X262200Y66500D01*
Y68000D02*Y66500D01*
Y68000D02*X262700Y68500D01*
X263700D01*
X266200Y66000D02*X263700Y68500D01*
X266200D02*Y66000D01*
X265700Y69700D02*X266200Y70200D01*
X262700Y69700D02*X265700D01*
X262700D02*X262200Y70200D01*
Y71200D02*Y70200D01*
Y71200D02*X262700Y71700D01*
X265700D01*
X266200Y71200D02*X265700Y71700D01*
X266200Y71200D02*Y70200D01*
X265200Y69700D02*X263200Y71700D01*
X266200Y74400D02*Y73400D01*
X262200Y73900D02*X266200D01*
X263200Y72900D02*X262200Y73900D01*
X264200Y75600D02*X262200Y77600D01*
X264200Y78100D02*Y75600D01*
X262200Y77600D02*X266200D01*
X385800Y94200D02*X388800D01*
X385800D02*X384800Y93200D01*
X385800Y92200D01*
X388800D01*
X384800Y90500D02*Y89000D01*
X385300Y91000D02*X384800Y90500D01*
X385300Y91000D02*X386300D01*
X386800Y90500D01*
Y89500D01*
X386300Y89000D01*
X385800Y91000D02*Y89000D01*
X386300D01*
X384800Y87300D02*X386300D01*
X386800Y86800D01*
Y85800D01*
Y87800D02*X386300Y87300D01*
X384800Y84100D02*Y82600D01*
X385300Y82100D01*
X385800Y82600D02*X385300Y82100D01*
X385800Y84100D02*Y82600D01*
X386300Y84600D02*X385800Y84100D01*
X386300Y84600D02*X386800Y84100D01*
Y82600D01*
X386300Y82100D01*
X385300Y84600D02*X384800Y84100D01*
X387300Y80900D02*X387800D01*
X384800D02*X386300D01*
X385300Y79900D02*X386300D01*
X386800Y79400D01*
Y78400D01*
X386300Y77900D01*
X385300D02*X386300D01*
X384800Y78400D02*X385300Y77900D01*
X384800Y79400D02*Y78400D01*
X385300Y79900D02*X384800Y79400D01*
Y76200D02*X386300D01*
X386800Y75700D01*
Y75200D01*
X386300Y74700D01*
X384800D02*X386300D01*
X386800Y76700D02*X386300Y76200D01*
X385300Y71700D02*X384800Y71200D01*
X385300Y71700D02*X388300D01*
X388800Y71200D01*
Y70200D01*
X388300Y69700D01*
X385300D02*X388300D01*
X384800Y70200D02*X385300Y69700D01*
X384800Y71200D02*Y70200D01*
X385800Y71700D02*X387800Y69700D01*
X384800Y68500D02*Y68000D01*
X385300Y66800D02*X384800Y66300D01*
X385300Y66800D02*X388300D01*
X388800Y66300D01*
Y65300D01*
X388300Y64800D01*
X385300D02*X388300D01*
X384800Y65300D02*X385300Y64800D01*
X384800Y66300D02*Y65300D01*
X385800Y66800D02*X387800Y64800D01*
X384800Y61800D02*X388800D01*
X384800D02*Y59800D01*
X387300Y58600D02*X387800D01*
X384800D02*X386300D01*
X386800Y57100D02*Y55600D01*
X386300Y57600D02*X386800Y57100D01*
X385300Y57600D02*X386300D01*
X385300D02*X384800Y57100D01*
Y55600D01*
Y53900D02*Y52400D01*
X385300Y54400D02*X384800Y53900D01*
X385300Y54400D02*X386300D01*
X386800Y53900D01*
Y52900D01*
X386300Y52400D01*
X385800Y54400D02*Y52400D01*
X386300D01*
X384800Y50700D02*X386300D01*
X386800Y50200D01*
Y49700D01*
X386300Y49200D01*
X384800D02*X386300D01*
X386800Y51200D02*X386300Y50700D01*
X386800Y47500D02*Y46000D01*
X386300Y48000D02*X386800Y47500D01*
X385300Y48000D02*X386300D01*
X385300D02*X384800Y47500D01*
Y46000D01*
Y44300D02*Y42800D01*
X385300Y44800D02*X384800Y44300D01*
X385300Y44800D02*X386300D01*
X386800Y44300D01*
Y43300D01*
X386300Y42800D01*
X385800Y44800D02*Y42800D01*
X386300D01*
X386800Y39300D02*Y37800D01*
X386300Y39800D02*X386800Y39300D01*
X385300Y39800D02*X386300D01*
X385300D02*X384800Y39300D01*
Y37800D01*
X386800Y36100D02*Y34600D01*
X386300Y36600D02*X386800Y36100D01*
X385300Y36600D02*X386300D01*
X385300D02*X384800Y36100D01*
Y34600D01*
X386800Y33400D02*Y31400D01*
X384800Y30200D02*X388800D01*
X385300D02*X384800Y29700D01*
Y28700D01*
X385300Y28200D01*
X386300D01*
X386800Y28700D02*X386300Y28200D01*
X386800Y29700D02*Y28700D01*
X386300Y30200D02*X386800Y29700D01*
X385300Y27000D02*X386800D01*
X385300D02*X384800Y26500D01*
X383800Y25000D02*X386800D01*
X383300Y25500D02*X383800Y25000D01*
X383300Y26500D02*Y25500D01*
X383800Y27000D02*X383300Y26500D01*
X384800D02*Y25500D01*
X385300Y25000D01*
X386800Y23800D02*Y21800D01*
X384800Y20100D02*Y18600D01*
X385300Y18100D01*
X385800Y18600D02*X385300Y18100D01*
X385800Y20100D02*Y18600D01*
X386300Y20600D02*X385800Y20100D01*
X386300Y20600D02*X386800Y20100D01*
Y18600D01*
X386300Y18100D01*
X385300Y20600D02*X384800Y20100D01*
X386800Y15400D02*X386300Y14900D01*
X386800Y16400D02*Y15400D01*
X386300Y16900D02*X386800Y16400D01*
X385300Y16900D02*X386300D01*
X385300D02*X384800Y16400D01*
X385300Y14900D02*X386800D01*
X385300D02*X384800Y14400D01*
Y16400D02*Y15400D01*
X385300Y14900D01*
X200500Y154500D02*X202500D01*
X203000Y155000D01*
Y156000D02*Y155000D01*
X202500Y156500D02*X203000Y156000D01*
X201000Y156500D02*X202500D01*
X201000Y158500D02*Y154500D01*
X200500Y158500D02*X202500D01*
X203000Y158000D01*
Y157000D01*
X202500Y156500D02*X203000Y157000D01*
X204200Y156500D02*Y155000D01*
X204700Y154500D01*
X205700D01*
X206200Y155000D01*
Y156500D02*Y155000D01*
X207900Y156500D02*X209400D01*
X207400Y156000D02*X207900Y156500D01*
X207400Y156000D02*Y155000D01*
X207900Y154500D01*
X209400D01*
X210600Y158500D02*Y154500D01*
Y156000D02*X212100Y154500D01*
X210600Y156000D02*X211600Y157000D01*
X215600Y154500D02*X217100D01*
X215100Y155000D02*X215600Y154500D01*
X215100Y158000D02*Y155000D01*
Y158000D02*X215600Y158500D01*
X217100D01*
X218300Y156000D02*Y155000D01*
Y156000D02*X218800Y156500D01*
X219800D01*
X220300Y156000D01*
Y155000D01*
X219800Y154500D02*X220300Y155000D01*
X218800Y154500D02*X219800D01*
X218300Y155000D02*X218800Y154500D01*
X222000Y156000D02*Y154500D01*
Y156000D02*X222500Y156500D01*
X223000D01*
X223500Y156000D01*
Y154500D01*
X221500Y156500D02*X222000Y156000D01*
X224700Y156500D02*Y155500D01*
X225700Y154500D01*
X226700Y155500D01*
Y156500D02*Y155500D01*
X228400Y154500D02*X229900D01*
X227900Y155000D02*X228400Y154500D01*
X227900Y156000D02*Y155000D01*
Y156000D02*X228400Y156500D01*
X229400D01*
X229900Y156000D01*
X227900Y155500D02*X229900D01*
Y156000D02*Y155500D01*
X231600Y156000D02*Y154500D01*
Y156000D02*X232100Y156500D01*
X233100D01*
X231100D02*X231600Y156000D01*
X234800Y158500D02*Y155000D01*
X235300Y154500D01*
X234300Y157000D02*X235300D01*
X236800Y154500D02*X238300D01*
X236300Y155000D02*X236800Y154500D01*
X236300Y156000D02*Y155000D01*
Y156000D02*X236800Y156500D01*
X237800D01*
X238300Y156000D01*
X236300Y155500D02*X238300D01*
Y156000D02*Y155500D01*
X240000Y156000D02*Y154500D01*
Y156000D02*X240500Y156500D01*
X241500D01*
X239500D02*X240000Y156000D01*
X335800Y157300D02*Y153300D01*
X337800D01*
X339000Y155300D02*X340500D01*
X339000Y153300D02*X341000D01*
X339000Y157300D02*Y153300D01*
Y157300D02*X341000D01*
X342700D02*Y153300D01*
X344200Y157300D02*X344700Y156800D01*
Y153800D01*
X344200Y153300D02*X344700Y153800D01*
X342200Y153300D02*X344200D01*
X342200Y157300D02*X344200D01*
X348200D02*Y153300D01*
X349700Y157300D02*X350200Y156800D01*
Y153800D01*
X349700Y153300D02*X350200Y153800D01*
X347700Y153300D02*X349700D01*
X347700Y157300D02*X349700D01*
X351900Y154800D02*Y153300D01*
Y154800D02*X352400Y155300D01*
X353400D01*
X351400D02*X351900Y154800D01*
X354600Y156300D02*Y155800D01*
Y154800D02*Y153300D01*
X355600Y155300D02*Y154300D01*
X356600Y153300D01*
X357600Y154300D01*
Y155300D02*Y154300D01*
X359300Y153300D02*X360800D01*
X358800Y153800D02*X359300Y153300D01*
X358800Y154800D02*Y153800D01*
Y154800D02*X359300Y155300D01*
X360300D01*
X360800Y154800D01*
X358800Y154300D02*X360800D01*
Y154800D02*Y154300D01*
X362500Y154800D02*Y153300D01*
Y154800D02*X363000Y155300D01*
X364000D01*
X362000D02*X362500Y154800D01*
X211500Y151000D02*Y147000D01*
X211000Y151000D02*X213000D01*
X213500Y150500D01*
Y149500D01*
X213000Y149000D02*X213500Y149500D01*
X211500Y149000D02*X213000D01*
X214700Y151000D02*Y147000D01*
Y151000D02*X216200Y149500D01*
X217700Y151000D01*
Y147000D01*
X218900Y150500D02*Y147500D01*
Y150500D02*X219400Y151000D01*
X220400D01*
X220900Y150500D01*
Y147500D01*
X220400Y147000D02*X220900Y147500D01*
X219400Y147000D02*X220400D01*
X218900Y147500D02*X219400Y147000D01*
X224100Y151000D02*X224600Y150500D01*
X222600Y151000D02*X224100D01*
X222100Y150500D02*X222600Y151000D01*
X222100Y150500D02*Y149500D01*
X222600Y149000D01*
X224100D01*
X224600Y148500D01*
Y147500D01*
X224100Y147000D02*X224600Y147500D01*
X222600Y147000D02*X224100D01*
X222100Y147500D02*X222600Y147000D01*
X186500Y167000D02*Y163000D01*
X186000Y167000D02*X188000D01*
X188500Y166500D01*
Y165500D01*
X188000Y165000D02*X188500Y165500D01*
X186500Y165000D02*X188000D01*
X190200Y164500D02*Y163000D01*
Y164500D02*X190700Y165000D01*
X191700D01*
X189700D02*X190200Y164500D01*
X192900D02*Y163500D01*
Y164500D02*X193400Y165000D01*
X194400D01*
X194900Y164500D01*
Y163500D01*
X194400Y163000D02*X194900Y163500D01*
X193400Y163000D02*X194400D01*
X192900Y163500D02*X193400Y163000D01*
X197600Y165000D02*X198100Y164500D01*
X196600Y165000D02*X197600D01*
X196100Y164500D02*X196600Y165000D01*
X196100Y164500D02*Y163500D01*
X196600Y163000D01*
X197600D01*
X198100Y163500D01*
X196100Y162000D02*X196600Y161500D01*
X197600D01*
X198100Y162000D01*
Y165000D02*Y162000D01*
X199800Y164500D02*Y163000D01*
Y164500D02*X200300Y165000D01*
X201300D01*
X199300D02*X199800Y164500D01*
X204000Y165000D02*X204500Y164500D01*
X203000Y165000D02*X204000D01*
X202500Y164500D02*X203000Y165000D01*
X202500Y164500D02*Y163500D01*
X203000Y163000D01*
X204500Y165000D02*Y163500D01*
X205000Y163000D01*
X203000D02*X204000D01*
X204500Y163500D01*
X206700Y164500D02*Y163000D01*
Y164500D02*X207200Y165000D01*
X207700D01*
X208200Y164500D01*
Y163000D01*
Y164500D02*X208700Y165000D01*
X209200D01*
X209700Y164500D01*
Y163000D01*
X206200Y165000D02*X206700Y164500D01*
X212700Y167000D02*Y163000D01*
Y167000D02*X214200Y165500D01*
X215700Y167000D01*
Y163000D01*
X216900Y164500D02*Y163500D01*
Y164500D02*X217400Y165000D01*
X218400D01*
X218900Y164500D01*
Y163500D01*
X218400Y163000D02*X218900Y163500D01*
X217400Y163000D02*X218400D01*
X216900Y163500D02*X217400Y163000D01*
X222100Y167000D02*Y163000D01*
X221600D02*X222100Y163500D01*
X220600Y163000D02*X221600D01*
X220100Y163500D02*X220600Y163000D01*
X220100Y164500D02*Y163500D01*
Y164500D02*X220600Y165000D01*
X221600D01*
X222100Y164500D01*
X223800Y163000D02*X225300D01*
X223300Y163500D02*X223800Y163000D01*
X223300Y164500D02*Y163500D01*
Y164500D02*X223800Y165000D01*
X224800D01*
X225300Y164500D01*
X223300Y164000D02*X225300D01*
Y164500D02*Y164000D01*
X238000Y167000D02*X239000D01*
X238500D02*Y163000D01*
X238000D02*X239000D01*
X240700Y164500D02*Y163000D01*
Y164500D02*X241200Y165000D01*
X241700D01*
X242200Y164500D01*
Y163000D01*
X240200Y165000D02*X240700Y164500D01*
X245700Y167000D02*Y163000D01*
X245200Y167000D02*X247200D01*
X247700Y166500D01*
Y165500D01*
X247200Y165000D02*X247700Y165500D01*
X245700Y165000D02*X247200D01*
X249400Y164500D02*Y163000D01*
Y164500D02*X249900Y165000D01*
X250900D01*
X248900D02*X249400Y164500D01*
X252100D02*Y163500D01*
Y164500D02*X252600Y165000D01*
X253600D01*
X254100Y164500D01*
Y163500D01*
X253600Y163000D02*X254100Y163500D01*
X252600Y163000D02*X253600D01*
X252100Y163500D02*X252600Y163000D01*
X256800Y165000D02*X257300Y164500D01*
X255800Y165000D02*X256800D01*
X255300Y164500D02*X255800Y165000D01*
X255300Y164500D02*Y163500D01*
X255800Y163000D01*
X256800D01*
X257300Y163500D01*
X255300Y162000D02*X255800Y161500D01*
X256800D01*
X257300Y162000D01*
Y165000D02*Y162000D01*
X259000Y164500D02*Y163000D01*
Y164500D02*X259500Y165000D01*
X260500D01*
X258500D02*X259000Y164500D01*
X262200Y163000D02*X263700D01*
X261700Y163500D02*X262200Y163000D01*
X261700Y164500D02*Y163500D01*
Y164500D02*X262200Y165000D01*
X263200D01*
X263700Y164500D01*
X261700Y164000D02*X263700D01*
Y164500D02*Y164000D01*
X265400Y163000D02*X266900D01*
X267400Y163500D01*
X266900Y164000D02*X267400Y163500D01*
X265400Y164000D02*X266900D01*
X264900Y164500D02*X265400Y164000D01*
X264900Y164500D02*X265400Y165000D01*
X266900D01*
X267400Y164500D01*
X264900Y163500D02*X265400Y163000D01*
X269100D02*X270600D01*
X271100Y163500D01*
X270600Y164000D02*X271100Y163500D01*
X269100Y164000D02*X270600D01*
X268600Y164500D02*X269100Y164000D01*
X268600Y164500D02*X269100Y165000D01*
X270600D01*
X271100Y164500D01*
X268600Y163500D02*X269100Y163000D01*
X77500Y220900D02*Y219100D01*
X78100Y218500D01*
X78700D01*
X79300Y219100D01*
Y220900D02*Y219100D01*
X79900Y218500D01*
X80500D01*
X81100Y219100D01*
Y220900D02*Y219100D01*
X82540Y220900D02*Y219100D01*
X83140Y218500D01*
X83740D01*
X84340Y219100D01*
Y220900D02*Y219100D01*
X84940Y218500D01*
X85540D01*
X86140Y219100D01*
Y220900D02*Y219100D01*
X87580Y220900D02*Y219100D01*
X88180Y218500D01*
X88780D01*
X89380Y219100D01*
Y220900D02*Y219100D01*
X89980Y218500D01*
X90580D01*
X91180Y219100D01*
Y220900D02*Y219100D01*
X92620Y218500D02*X93220D01*
X95260Y222100D02*Y221500D01*
Y220300D02*Y217300D01*
X94660Y216700D02*X95260Y217300D01*
X96460Y222100D02*Y221500D01*
Y220300D02*Y218500D01*
X99460Y220900D02*X100060Y220300D01*
X98260Y220900D02*X99460D01*
X97660Y220300D02*X98260Y220900D01*
X97660Y220300D02*Y219100D01*
X98260Y218500D01*
X99460D01*
X100060Y219100D01*
X97660Y217300D02*X98260Y216700D01*
X99460D01*
X100060Y217300D01*
Y220900D02*Y217300D01*
X103300Y220900D02*X103900Y220300D01*
X102100Y220900D02*X103300D01*
X101500Y220300D02*X102100Y220900D01*
X101500Y220300D02*Y219100D01*
X102100Y218500D01*
X103300D01*
X103900Y219100D01*
X101500Y217300D02*X102100Y216700D01*
X103300D01*
X103900Y217300D01*
Y220900D02*Y217300D01*
X105940Y218500D02*X107740D01*
X105340Y219100D02*X105940Y218500D01*
X105340Y220300D02*Y219100D01*
Y220300D02*X105940Y220900D01*
X107140D01*
X107740Y220300D01*
X105340Y219700D02*X107740D01*
Y220300D02*Y219700D01*
X109780Y220300D02*Y218500D01*
Y220300D02*X110380Y220900D01*
X111580D01*
X109180D02*X109780Y220300D01*
X113620Y222100D02*Y221500D01*
Y220300D02*Y217300D01*
X113020Y216700D02*X113620Y217300D01*
X114820Y220900D02*Y219100D01*
X115420Y218500D01*
X116620D01*
X117220Y219100D01*
Y220900D02*Y219100D01*
X118660Y222100D02*Y221500D01*
Y220300D02*Y218500D01*
X120460Y220900D02*X122260D01*
X119860Y220300D02*X120460Y220900D01*
X119860Y220300D02*Y219100D01*
X120460Y218500D01*
X122260D01*
X124300D02*X126100D01*
X123700Y219100D02*X124300Y218500D01*
X123700Y220300D02*Y219100D01*
Y220300D02*X124300Y220900D01*
X125500D01*
X126100Y220300D01*
X123700Y219700D02*X126100D01*
Y220300D02*Y219700D01*
X127540Y218500D02*X128140D01*
X129580Y222100D02*Y221500D01*
Y220300D02*Y218500D01*
X131380Y220300D02*Y218500D01*
Y220300D02*X131980Y220900D01*
X132580D01*
X133180Y220300D01*
Y218500D01*
X130780Y220900D02*X131380Y220300D01*
X135220Y222700D02*Y218500D01*
Y222700D02*X135820Y223300D01*
X136420D01*
X134620Y220900D02*X135820D01*
X137620Y220300D02*Y219100D01*
Y220300D02*X138220Y220900D01*
X139420D01*
X140020Y220300D01*
Y219100D01*
X139420Y218500D02*X140020Y219100D01*
X138220Y218500D02*X139420D01*
X137620Y219100D02*X138220Y218500D01*
X70500Y232800D02*Y229200D01*
X71700Y228000D01*
X72900Y229200D01*
Y232800D02*Y229200D01*
X74940Y228000D02*X76740D01*
X74340Y228600D02*X74940Y228000D01*
X74340Y229800D02*Y228600D01*
Y229800D02*X74940Y230400D01*
X76140D01*
X76740Y229800D01*
X74340Y229200D02*X76740D01*
Y229800D02*Y229200D01*
X78780Y229800D02*Y228000D01*
Y229800D02*X79380Y230400D01*
X80580D01*
X78180D02*X78780Y229800D01*
X82620Y228000D02*X84420D01*
X85020Y228600D01*
X84420Y229200D02*X85020Y228600D01*
X82620Y229200D02*X84420D01*
X82020Y229800D02*X82620Y229200D01*
X82020Y229800D02*X82620Y230400D01*
X84420D01*
X85020Y229800D01*
X82020Y228600D02*X82620Y228000D01*
X86460Y231600D02*Y231000D01*
Y229800D02*Y228000D01*
X87660Y229800D02*Y228600D01*
Y229800D02*X88260Y230400D01*
X89460D01*
X90060Y229800D01*
Y228600D01*
X89460Y228000D02*X90060Y228600D01*
X88260Y228000D02*X89460D01*
X87660Y228600D02*X88260Y228000D01*
X92100Y229800D02*Y228000D01*
Y229800D02*X92700Y230400D01*
X93300D01*
X93900Y229800D01*
Y228000D01*
X91500Y230400D02*X92100Y229800D01*
X97500Y228600D02*X98100Y228000D01*
X97500Y232200D02*Y228600D01*
Y232200D02*X98100Y232800D01*
X99300D01*
X99900Y232200D01*
Y228600D01*
X99300Y228000D02*X99900Y228600D01*
X98100Y228000D02*X99300D01*
X97500Y229200D02*X99900Y231600D01*
X101340Y228000D02*X101940D01*
X103380Y228600D02*X103980Y228000D01*
X103380Y232200D02*Y228600D01*
Y232200D02*X103980Y232800D01*
X105180D01*
X105780Y232200D01*
Y228600D01*
X105180Y228000D02*X105780Y228600D01*
X103980Y228000D02*X105180D01*
X103380Y229200D02*X105780Y231600D01*
X109380Y232800D02*Y228000D01*
X111780D01*
X113220Y231600D02*Y231000D01*
Y229800D02*Y228000D01*
X115020Y230400D02*X116820D01*
X114420Y229800D02*X115020Y230400D01*
X114420Y229800D02*Y228600D01*
X115020Y228000D01*
X116820D01*
X118860D02*X120660D01*
X118260Y228600D02*X118860Y228000D01*
X118260Y229800D02*Y228600D01*
Y229800D02*X118860Y230400D01*
X120060D01*
X120660Y229800D01*
X118260Y229200D02*X120660D01*
Y229800D02*Y229200D01*
X122700Y229800D02*Y228000D01*
Y229800D02*X123300Y230400D01*
X123900D01*
X124500Y229800D01*
Y228000D01*
X122100Y230400D02*X122700Y229800D01*
X126540Y230400D02*X128340D01*
X125940Y229800D02*X126540Y230400D01*
X125940Y229800D02*Y228600D01*
X126540Y228000D01*
X128340D01*
X130380D02*X132180D01*
X129780Y228600D02*X130380Y228000D01*
X129780Y229800D02*Y228600D01*
Y229800D02*X130380Y230400D01*
X131580D01*
X132180Y229800D01*
X129780Y229200D02*X132180D01*
Y229800D02*Y229200D01*
X136380Y230400D02*X138180D01*
X135780Y229800D02*X136380Y230400D01*
X135780Y229800D02*Y228600D01*
X136380Y228000D01*
X138180D01*
X140220Y230400D02*X142020D01*
X139620Y229800D02*X140220Y230400D01*
X139620Y229800D02*Y228600D01*
X140220Y228000D01*
X142020D01*
X143460Y230400D02*X145860D01*
X147300Y232800D02*Y228000D01*
Y228600D02*X147900Y228000D01*
X149100D01*
X149700Y228600D01*
Y229800D02*Y228600D01*
X149100Y230400D02*X149700Y229800D01*
X147900Y230400D02*X149100D01*
X147300Y229800D02*X147900Y230400D01*
X151140D02*Y228600D01*
X151740Y228000D01*
X153540Y230400D02*Y226800D01*
X152940Y226200D02*X153540Y226800D01*
X151740Y226200D02*X152940D01*
X151140Y226800D02*X151740Y226200D01*
Y228000D02*X152940D01*
X153540Y228600D01*
X154980Y230400D02*X157380D01*
X159420Y228000D02*X161220D01*
X161820Y228600D01*
X161220Y229200D02*X161820Y228600D01*
X159420Y229200D02*X161220D01*
X158820Y229800D02*X159420Y229200D01*
X158820Y229800D02*X159420Y230400D01*
X161220D01*
X161820Y229800D01*
X158820Y228600D02*X159420Y228000D01*
X165060Y230400D02*X165660Y229800D01*
X163860Y230400D02*X165060D01*
X163260Y229800D02*X163860Y230400D01*
X163260Y229800D02*Y228600D01*
X163860Y228000D01*
X165660Y230400D02*Y228600D01*
X166260Y228000D01*
X163860D02*X165060D01*
X165660Y228600D01*
X75500Y241300D02*Y236500D01*
Y238900D02*X77900Y241300D01*
X75500Y238900D02*X77900Y236500D01*
X79340D02*X79940D01*
X83540Y241300D02*Y236500D01*
X85340Y238300D01*
X87140Y236500D01*
Y241300D02*Y236500D01*
X88580D02*X89180D01*
X95180Y241300D02*X95780Y240700D01*
X93380Y241300D02*X95180D01*
X92780Y240700D02*X93380Y241300D01*
X92780Y240700D02*Y239500D01*
X93380Y238900D01*
X95180D01*
X95780Y238300D01*
Y237100D01*
X95180Y236500D02*X95780Y237100D01*
X93380Y236500D02*X95180D01*
X92780Y237100D02*X93380Y236500D01*
X99020Y238900D02*X99620Y238300D01*
X97820Y238900D02*X99020D01*
X97220Y238300D02*X97820Y238900D01*
X97220Y238300D02*Y237100D01*
X97820Y236500D01*
X99620Y238900D02*Y237100D01*
X100220Y236500D01*
X97820D02*X99020D01*
X99620Y237100D01*
X102260Y238300D02*Y236500D01*
Y238300D02*X102860Y238900D01*
X104060D01*
X101660D02*X102260Y238300D01*
X105500Y241300D02*Y236500D01*
Y238300D02*X107300Y236500D01*
X105500Y238300D02*X106700Y239500D01*
X108740Y240100D02*Y239500D01*
Y238300D02*Y236500D01*
X110540D02*X112340D01*
X109940Y237100D02*X110540Y236500D01*
X109940Y238300D02*Y237100D01*
Y238300D02*X110540Y238900D01*
X111740D01*
X112340Y238300D01*
X109940Y237700D02*X112340D01*
Y238300D02*Y237700D01*
X114380Y236500D02*X116180D01*
X116780Y237100D01*
X116180Y237700D02*X116780Y237100D01*
X114380Y237700D02*X116180D01*
X113780Y238300D02*X114380Y237700D01*
X113780Y238300D02*X114380Y238900D01*
X116180D01*
X116780Y238300D01*
X113780Y237100D02*X114380Y236500D01*
X120380Y240700D02*X120980Y241300D01*
X122780D01*
X123380Y240700D01*
Y239500D01*
X120380Y236500D02*X123380Y239500D01*
X120380Y236500D02*X123380D01*
X124820Y240700D02*X125420Y241300D01*
X126620D01*
X127220Y240700D01*
Y237100D01*
X126620Y236500D02*X127220Y237100D01*
X125420Y236500D02*X126620D01*
X124820Y237100D02*X125420Y236500D01*
Y238900D02*X127220D01*
X128660Y237100D02*X132260Y240700D01*
X134300Y236500D02*X135500D01*
X134900Y241300D02*Y236500D01*
X133700Y240100D02*X134900Y241300D01*
X136940Y237100D02*X137540Y236500D01*
X136940Y240700D02*Y237100D01*
Y240700D02*X137540Y241300D01*
X138740D01*
X139340Y240700D01*
Y237100D01*
X138740Y236500D02*X139340Y237100D01*
X137540Y236500D02*X138740D01*
X136940Y237700D02*X139340Y240100D01*
X140780Y237100D02*X144380Y240700D01*
X145820D02*X146420Y241300D01*
X148220D01*
X148820Y240700D01*
Y239500D01*
X145820Y236500D02*X148820Y239500D01*
X145820Y236500D02*X148820D01*
X150260Y237100D02*X150860Y236500D01*
X150260Y240700D02*Y237100D01*
Y240700D02*X150860Y241300D01*
X152060D01*
X152660Y240700D01*
Y237100D01*
X152060Y236500D02*X152660Y237100D01*
X150860Y236500D02*X152060D01*
X150260Y237700D02*X152660Y240100D01*
X154700Y236500D02*X155900D01*
X155300Y241300D02*Y236500D01*
X154100Y240100D02*X155300Y241300D01*
X157340Y238900D02*X159740Y241300D01*
X157340Y238900D02*X160340D01*
X159740Y241300D02*Y236500D01*
X78000Y248700D02*Y244500D01*
Y248700D02*X78600Y249300D01*
X80400D01*
X81000Y248700D01*
Y244500D01*
X78000Y246900D02*X81000D01*
X82440Y249300D02*Y245700D01*
X83640Y244500D01*
X84840Y245700D01*
Y249300D02*Y245700D01*
X86280Y249300D02*X88680D01*
X89280Y248700D01*
Y247500D01*
X88680Y246900D02*X89280Y247500D01*
X86880Y246900D02*X88680D01*
X86880Y249300D02*Y244500D01*
Y246900D02*X89280Y244500D01*
X95280Y249300D02*X95880Y248700D01*
X93480Y249300D02*X95280D01*
X92880Y248700D02*X93480Y249300D01*
X92880Y248700D02*Y247500D01*
X93480Y246900D01*
X95280D01*
X95880Y246300D01*
Y245100D01*
X95280Y244500D02*X95880Y245100D01*
X93480Y244500D02*X95280D01*
X92880Y245100D02*X93480Y244500D01*
X97920D02*X99720D01*
X97320Y245100D02*X97920Y244500D01*
X97320Y246300D02*Y245100D01*
Y246300D02*X97920Y246900D01*
X99120D01*
X99720Y246300D01*
X97320Y245700D02*X99720D01*
Y246300D02*Y245700D01*
X101760Y246300D02*Y244500D01*
Y246300D02*X102360Y246900D01*
X103560D01*
X101160D02*X101760Y246300D01*
X105000Y248100D02*Y247500D01*
Y246300D02*Y244500D01*
X108000Y246900D02*X108600Y246300D01*
X106800Y246900D02*X108000D01*
X106200Y246300D02*X106800Y246900D01*
X106200Y246300D02*Y245100D01*
X106800Y244500D01*
X108600Y246900D02*Y245100D01*
X109200Y244500D01*
X106800D02*X108000D01*
X108600Y245100D01*
X110640Y249300D02*Y245100D01*
X111240Y244500D01*
X115200Y249300D02*Y244500D01*
X114600Y249300D02*X117000D01*
X117600Y248700D01*
Y247500D01*
X117000Y246900D02*X117600Y247500D01*
X115200Y246900D02*X117000D01*
X119640Y246300D02*Y244500D01*
Y246300D02*X120240Y246900D01*
X121440D01*
X119040D02*X119640Y246300D01*
X122880D02*Y245100D01*
Y246300D02*X123480Y246900D01*
X124680D01*
X125280Y246300D01*
Y245100D01*
X124680Y244500D02*X125280Y245100D01*
X123480Y244500D02*X124680D01*
X122880Y245100D02*X123480Y244500D01*
X128520Y246900D02*X129120Y246300D01*
X127320Y246900D02*X128520D01*
X126720Y246300D02*X127320Y246900D01*
X126720Y246300D02*Y245100D01*
X127320Y244500D01*
X128520D01*
X129120Y245100D01*
X126720Y243300D02*X127320Y242700D01*
X128520D01*
X129120Y243300D01*
Y246900D02*Y243300D01*
X131160Y246300D02*Y244500D01*
Y246300D02*X131760Y246900D01*
X132960D01*
X130560D02*X131160Y246300D01*
X136200Y246900D02*X136800Y246300D01*
X135000Y246900D02*X136200D01*
X134400Y246300D02*X135000Y246900D01*
X134400Y246300D02*Y245100D01*
X135000Y244500D01*
X136800Y246900D02*Y245100D01*
X137400Y244500D01*
X135000D02*X136200D01*
X136800Y245100D01*
X139440Y246300D02*Y244500D01*
Y246300D02*X140040Y246900D01*
X140640D01*
X141240Y246300D01*
Y244500D01*
Y246300D02*X141840Y246900D01*
X142440D01*
X143040Y246300D01*
Y244500D01*
X138840Y246900D02*X139440Y246300D01*
X145080D02*Y244500D01*
Y246300D02*X145680Y246900D01*
X146280D01*
X146880Y246300D01*
Y244500D01*
Y246300D02*X147480Y246900D01*
X148080D01*
X148680Y246300D01*
Y244500D01*
X144480Y246900D02*X145080Y246300D01*
X150720Y244500D02*X152520D01*
X150120Y245100D02*X150720Y244500D01*
X150120Y246300D02*Y245100D01*
Y246300D02*X150720Y246900D01*
X151920D01*
X152520Y246300D01*
X150120Y245700D02*X152520D01*
Y246300D02*Y245700D01*
X154560Y246300D02*Y244500D01*
Y246300D02*X155160Y246900D01*
X156360D01*
X153960D02*X154560Y246300D01*
X44500Y168000D02*Y164000D01*
X44000Y168000D02*X46000D01*
X46500Y167500D01*
Y166500D01*
X46000Y166000D02*X46500Y166500D01*
X44500Y166000D02*X46000D01*
X47700Y165500D02*Y164500D01*
Y165500D02*X48200Y166000D01*
X49200D01*
X49700Y165500D01*
Y164500D01*
X49200Y164000D02*X49700Y164500D01*
X48200Y164000D02*X49200D01*
X47700Y164500D02*X48200Y164000D01*
X50900Y166000D02*Y164500D01*
X51400Y164000D01*
X51900D01*
X52400Y164500D01*
Y166000D02*Y164500D01*
X52900Y164000D01*
X53400D01*
X53900Y164500D01*
Y166000D02*Y164500D01*
X55600Y164000D02*X57100D01*
X55100Y164500D02*X55600Y164000D01*
X55100Y165500D02*Y164500D01*
Y165500D02*X55600Y166000D01*
X56600D01*
X57100Y165500D01*
X55100Y165000D02*X57100D01*
Y165500D02*Y165000D01*
X58800Y165500D02*Y164000D01*
Y165500D02*X59300Y166000D01*
X60300D01*
X58300D02*X58800Y165500D01*
X64000Y191000D02*X64500Y190500D01*
X62500Y191000D02*X64000D01*
X62000Y190500D02*X62500Y191000D01*
X62000Y190500D02*Y187500D01*
X62500Y187000D01*
X64000D01*
X64500Y187500D01*
Y188500D02*Y187500D01*
X64000Y189000D02*X64500Y188500D01*
X63000Y189000D02*X64000D01*
X66200Y188500D02*Y187000D01*
Y188500D02*X66700Y189000D01*
X67200D01*
X67700Y188500D01*
Y187000D01*
X65700Y189000D02*X66200Y188500D01*
X70900Y191000D02*Y187000D01*
X70400D02*X70900Y187500D01*
X69400Y187000D02*X70400D01*
X68900Y187500D02*X69400Y187000D01*
X68900Y188500D02*Y187500D01*
Y188500D02*X69400Y189000D01*
X70400D01*
X70900Y188500D01*
X132500Y167000D02*Y163000D01*
X132000Y167000D02*X134000D01*
X134500Y166500D01*
Y165500D01*
X134000Y165000D02*X134500Y165500D01*
X132500Y165000D02*X134000D01*
X137200D02*X137700Y164500D01*
X136200Y165000D02*X137200D01*
X135700Y164500D02*X136200Y165000D01*
X135700Y164500D02*Y163500D01*
X136200Y163000D01*
X137700Y165000D02*Y163500D01*
X138200Y163000D01*
X136200D02*X137200D01*
X137700Y163500D01*
X139900Y163000D02*X141400D01*
X141900Y163500D01*
X141400Y164000D02*X141900Y163500D01*
X139900Y164000D02*X141400D01*
X139400Y164500D02*X139900Y164000D01*
X139400Y164500D02*X139900Y165000D01*
X141400D01*
X141900Y164500D01*
X139400Y163500D02*X139900Y163000D01*
X143600D02*X145100D01*
X145600Y163500D01*
X145100Y164000D02*X145600Y163500D01*
X143600Y164000D02*X145100D01*
X143100Y164500D02*X143600Y164000D01*
X143100Y164500D02*X143600Y165000D01*
X145100D01*
X145600Y164500D01*
X143100Y163500D02*X143600Y163000D01*
X147300Y167000D02*Y163500D01*
X147800Y163000D01*
X146800Y165500D02*X147800D01*
X148800Y167000D02*Y163000D01*
Y164500D02*X149300Y165000D01*
X150300D01*
X150800Y164500D01*
Y163000D01*
X152500Y164500D02*Y163000D01*
Y164500D02*X153000Y165000D01*
X154000D01*
X152000D02*X152500Y164500D01*
X155200D02*Y163500D01*
Y164500D02*X155700Y165000D01*
X156700D01*
X157200Y164500D01*
Y163500D01*
X156700Y163000D02*X157200Y163500D01*
X155700Y163000D02*X156700D01*
X155200Y163500D02*X155700Y163000D01*
X158400Y165000D02*Y163500D01*
X158900Y163000D01*
X159900D01*
X160400Y163500D01*
Y165000D02*Y163500D01*
X163100Y165000D02*X163600Y164500D01*
X162100Y165000D02*X163100D01*
X161600Y164500D02*X162100Y165000D01*
X161600Y164500D02*Y163500D01*
X162100Y163000D01*
X163100D01*
X163600Y163500D01*
X161600Y162000D02*X162100Y161500D01*
X163100D01*
X163600Y162000D01*
Y165000D02*Y162000D01*
X164800Y167000D02*Y163000D01*
Y164500D02*X165300Y165000D01*
X166300D01*
X166800Y164500D01*
Y163000D01*
X185000Y365000D02*X187000D01*
X187500Y364500D01*
Y363500D01*
X187000Y363000D02*X187500Y363500D01*
X185500Y363000D02*X187000D01*
X185500Y365000D02*Y361000D01*
Y363000D02*X187500Y361000D01*
X189200D02*X190700D01*
X188700Y361500D02*X189200Y361000D01*
X188700Y362500D02*Y361500D01*
Y362500D02*X189200Y363000D01*
X190200D01*
X190700Y362500D01*
X188700Y362000D02*X190700D01*
Y362500D02*Y362000D01*
X192400Y361000D02*X193900D01*
X194400Y361500D01*
X193900Y362000D02*X194400Y361500D01*
X192400Y362000D02*X193900D01*
X191900Y362500D02*X192400Y362000D01*
X191900Y362500D02*X192400Y363000D01*
X193900D01*
X194400Y362500D01*
X191900Y361500D02*X192400Y361000D01*
X196100D02*X197600D01*
X195600Y361500D02*X196100Y361000D01*
X195600Y362500D02*Y361500D01*
Y362500D02*X196100Y363000D01*
X197100D01*
X197600Y362500D01*
X195600Y362000D02*X197600D01*
Y362500D02*Y362000D01*
X199300Y365000D02*Y361500D01*
X199800Y361000D01*
X198800Y363500D02*X199800D01*
X223500D02*Y359500D01*
Y363500D02*X225500D01*
X223500Y361500D02*X225000D01*
X226700Y362500D02*Y362000D01*
Y361000D02*Y359500D01*
X228200Y361000D02*Y359500D01*
Y361000D02*X228700Y361500D01*
X229700D01*
X227700D02*X228200Y361000D01*
X231400D02*Y359500D01*
Y361000D02*X231900Y361500D01*
X232400D01*
X232900Y361000D01*
Y359500D01*
Y361000D02*X233400Y361500D01*
X233900D01*
X234400Y361000D01*
Y359500D01*
X230900Y361500D02*X231400Y361000D01*
X235600Y361500D02*Y360000D01*
X236100Y359500D01*
X236600D01*
X237100Y360000D01*
Y361500D02*Y360000D01*
X237600Y359500D01*
X238100D01*
X238600Y360000D01*
Y361500D02*Y360000D01*
X241300Y361500D02*X241800Y361000D01*
X240300Y361500D02*X241300D01*
X239800Y361000D02*X240300Y361500D01*
X239800Y361000D02*Y360000D01*
X240300Y359500D01*
X241800Y361500D02*Y360000D01*
X242300Y359500D01*
X240300D02*X241300D01*
X241800Y360000D01*
X244000Y361000D02*Y359500D01*
Y361000D02*X244500Y361500D01*
X245500D01*
X243500D02*X244000Y361000D01*
X247200Y359500D02*X248700D01*
X246700Y360000D02*X247200Y359500D01*
X246700Y361000D02*Y360000D01*
Y361000D02*X247200Y361500D01*
X248200D01*
X248700Y361000D01*
X246700Y360500D02*X248700D01*
Y361000D02*Y360500D01*
X225000Y357500D02*Y354000D01*
X225500Y353500D01*
X226500D01*
X227000Y354000D01*
Y357500D02*Y354000D01*
X228700Y355000D02*Y352000D01*
X228200Y355500D02*X228700Y355000D01*
X229200Y355500D01*
X230200D01*
X230700Y355000D01*
Y354000D01*
X230200Y353500D02*X230700Y354000D01*
X229200Y353500D02*X230200D01*
X228700Y354000D02*X229200Y353500D01*
X233400Y355500D02*X233900Y355000D01*
X232400Y355500D02*X233400D01*
X231900Y355000D02*X232400Y355500D01*
X231900Y355000D02*Y354000D01*
X232400Y353500D01*
X233400D01*
X233900Y354000D01*
X231900Y352500D02*X232400Y352000D01*
X233400D01*
X233900Y352500D01*
Y355500D02*Y352500D01*
X235600Y355000D02*Y353500D01*
Y355000D02*X236100Y355500D01*
X237100D01*
X235100D02*X235600Y355000D01*
X239800Y355500D02*X240300Y355000D01*
X238800Y355500D02*X239800D01*
X238300Y355000D02*X238800Y355500D01*
X238300Y355000D02*Y354000D01*
X238800Y353500D01*
X240300Y355500D02*Y354000D01*
X240800Y353500D01*
X238800D02*X239800D01*
X240300Y354000D01*
X244000Y357500D02*Y353500D01*
X243500D02*X244000Y354000D01*
X242500Y353500D02*X243500D01*
X242000Y354000D02*X242500Y353500D01*
X242000Y355000D02*Y354000D01*
Y355000D02*X242500Y355500D01*
X243500D01*
X244000Y355000D01*
X245700Y353500D02*X247200D01*
X245200Y354000D02*X245700Y353500D01*
X245200Y355000D02*Y354000D01*
Y355000D02*X245700Y355500D01*
X246700D01*
X247200Y355000D01*
X245200Y354500D02*X247200D01*
Y355000D02*Y354500D01*
X335000Y200000D02*Y196000D01*
X334500Y200000D02*X336500D01*
X337000Y199500D01*
Y198500D01*
X336500Y198000D02*X337000Y198500D01*
X335000Y198000D02*X336500D01*
X338700Y196000D02*X340200D01*
X338200Y196500D02*X338700Y196000D01*
X338200Y199500D02*Y196500D01*
Y199500D02*X338700Y200000D01*
X340200D01*
X280500Y269500D02*Y265500D01*
Y269500D02*Y269000D01*
X283000Y266500D01*
Y269500D02*Y265500D01*
X284200Y267000D02*Y266000D01*
Y267000D02*X284700Y267500D01*
X285700D01*
X286200Y267000D01*
Y266000D01*
X285700Y265500D02*X286200Y266000D01*
X284700Y265500D02*X285700D01*
X284200Y266000D02*X284700Y265500D01*
X287900Y267000D02*Y265500D01*
Y267000D02*X288400Y267500D01*
X289400D01*
X287400D02*X287900Y267000D01*
X291100D02*Y265500D01*
Y267000D02*X291600Y267500D01*
X292100D01*
X292600Y267000D01*
Y265500D01*
Y267000D02*X293100Y267500D01*
X293600D01*
X294100Y267000D01*
Y265500D01*
X290600Y267500D02*X291100Y267000D01*
X296800Y267500D02*X297300Y267000D01*
X295800Y267500D02*X296800D01*
X295300Y267000D02*X295800Y267500D01*
X295300Y267000D02*Y266000D01*
X295800Y265500D01*
X297300Y267500D02*Y266000D01*
X297800Y265500D01*
X295800D02*X296800D01*
X297300Y266000D01*
X299000Y269500D02*Y266000D01*
X299500Y265500D01*
X278500Y262500D02*Y259500D01*
Y262500D02*X279000Y263000D01*
X280000D01*
X280500Y262500D01*
Y259500D01*
X280000Y259000D02*X280500Y259500D01*
X279000Y259000D02*X280000D01*
X278500Y259500D02*X279000Y259000D01*
X282200Y260500D02*Y257500D01*
X281700Y261000D02*X282200Y260500D01*
X282700Y261000D01*
X283700D01*
X284200Y260500D01*
Y259500D01*
X283700Y259000D02*X284200Y259500D01*
X282700Y259000D02*X283700D01*
X282200Y259500D02*X282700Y259000D01*
X285900D02*X287400D01*
X285400Y259500D02*X285900Y259000D01*
X285400Y260500D02*Y259500D01*
Y260500D02*X285900Y261000D01*
X286900D01*
X287400Y260500D01*
X285400Y260000D02*X287400D01*
Y260500D02*Y260000D01*
X289100Y260500D02*Y259000D01*
Y260500D02*X289600Y261000D01*
X290600D01*
X288600D02*X289100Y260500D01*
X293300Y261000D02*X293800Y260500D01*
X292300Y261000D02*X293300D01*
X291800Y260500D02*X292300Y261000D01*
X291800Y260500D02*Y259500D01*
X292300Y259000D01*
X293800Y261000D02*Y259500D01*
X294300Y259000D01*
X292300D02*X293300D01*
X293800Y259500D01*
X296000Y263000D02*Y259500D01*
X296500Y259000D01*
X295500Y261500D02*X296500D01*
X297500Y262000D02*Y261500D01*
Y260500D02*Y259000D01*
X298500Y260500D02*Y259500D01*
Y260500D02*X299000Y261000D01*
X300000D01*
X300500Y260500D01*
Y259500D01*
X300000Y259000D02*X300500Y259500D01*
X299000Y259000D02*X300000D01*
X298500Y259500D02*X299000Y259000D01*
X302200Y260500D02*Y259000D01*
Y260500D02*X302700Y261000D01*
X303200D01*
X303700Y260500D01*
Y259000D01*
X301700Y261000D02*X302200Y260500D01*
G54D117*X241500Y213500D02*X261500D01*
Y203500D01*
X241500D01*
Y213500D01*
X231500Y208500D02*X241500D01*
X261500D02*X271500D01*
X191500Y213500D02*X211500D01*
Y203500D01*
X191500D01*
Y213500D01*
X181500Y208500D02*X191500D01*
X211500D02*X221500D01*
G54D118*X240700Y183500D02*G75*G03X240700Y183500I11800J0D01*G01*
X238700D02*G75*G03X238700Y183500I13800J0D01*G01*
X190700D02*G75*G03X190700Y183500I11800J0D01*G01*
X188700D02*G75*G03X188700Y183500I13800J0D01*G01*
X178500Y146000D02*Y154000D01*
X196500Y146000D02*X178500D01*
X196500Y154000D02*Y146000D01*
X178500Y154000D02*X196500D01*
X305500Y146500D02*Y154500D01*
X323500Y146500D02*X305500D01*
X323500Y154500D02*Y146500D01*
X305500Y154500D02*X323500D01*
X224705Y108767D02*X250295D01*
X242422D02*Y92035D01*
X250296D01*
Y108766D02*X250295Y108767D01*
X224705Y92035D02*X232579D01*
Y108767D01*
X224705Y92035D02*Y142232D01*
X250296Y92035D02*Y142231D01*
X250295Y142232D01*
X224705D02*X250295D01*
X268465Y139391D02*G75*G03X268465Y139391I14142J-14142D01*G01*
X199000Y129500D02*X213000D01*
X198929Y129571D02*G75*G03X213071Y129571I7071J-7071D01*G01*
X195524Y134741D02*Y141259D01*
Y138000D02*X193250D01*
X195524Y141259D02*X212476D01*
Y134741D02*Y141259D01*
Y138000D02*X214750D01*
X195524Y134741D02*X212476D01*
X198524D02*Y141259D01*
X199024Y134741D02*Y141259D01*
X199524Y134741D02*Y141259D01*
X199500Y109500D02*X213500D01*
X199429Y109571D02*G75*G03X213571Y109571I7071J-7071D01*G01*
G54D117*X209000Y89500D02*X229000D01*
Y79500D01*
X209000D02*X229000D01*
X209000Y89500D02*Y79500D01*
X199000Y84500D02*X209000D01*
X229000D02*X239000D01*
G54D118*X182000Y83500D02*X182500D01*
X182000D02*Y63500D01*
X182500D01*
X191500D02*X192000D01*
Y83500D02*Y63500D01*
X191500Y83500D02*X192000D01*
X275500Y101000D02*Y97000D01*
X273500Y99000D02*X277500D01*
X275500Y73000D02*Y69000D01*
Y95000D02*G75*G03X275500Y95000I0J-10000D01*G01*
X200500Y75500D02*Y35500D01*
X240500D01*
Y75500D01*
X200500D02*X215500D01*
X225500D02*X240500D01*
X215500D02*G75*G03X225500Y75500I5000J0D01*G01*
G54D117*X252500Y63500D02*Y43500D01*
X242500D02*X252500D01*
X242500Y63500D02*Y43500D01*
Y63500D02*X252500D01*
X247500Y73500D02*Y63500D01*
Y43500D02*Y33500D01*
X205500Y28000D02*X225500D01*
Y18000D01*
X205500D01*
Y28000D01*
X195500Y23000D02*X205500D01*
X225500D02*X235500D01*
X205500Y15000D02*X225500D01*
Y5000D01*
X205500D01*
Y15000D01*
X195500Y10000D02*X205500D01*
X225500D02*X235500D01*
G54D118*X291241Y78524D02*X297759D01*
X294500D02*Y76250D01*
X291241Y95476D02*Y78524D01*
Y95476D02*X297759D01*
X294500Y97750D02*Y95476D01*
X297759D02*Y78524D01*
X291241Y81524D02*X297759D01*
X291241Y82024D02*X297759D01*
X291241Y82524D02*X297759D01*
G54D116*X312000Y57200D02*Y700D01*
X278000Y57200D02*X312000D01*
X278000D02*Y700D01*
X312000D01*
X307000Y4200D02*Y700D01*
X283000Y4200D02*Y700D01*
Y30000D02*X307000D01*
X283000Y29900D02*Y26700D01*
X307000Y29900D02*Y26700D01*
Y23200D02*Y20200D01*
X283000Y23200D02*Y20200D01*
Y16700D02*Y13700D01*
X307000Y16700D02*Y13700D01*
Y10200D02*Y7200D01*
X283000Y10200D02*Y7200D01*
X291500Y30000D02*Y6800D01*
X298500Y30000D02*Y6500D01*
X305500Y45000D02*X304500Y44000D01*
X294500Y50500D02*Y39500D01*
X300000Y38000D02*Y32500D01*
X297000Y38500D02*X297500D01*
X299500Y48500D02*X306000D01*
Y41500D01*
X302500Y45000D02*X305500D01*
X302500D02*Y38000D01*
X309500D01*
X312000Y40500D01*
X305500Y45000D02*X304500Y46000D01*
X295500Y50500D02*Y39500D01*
X300000Y32500D02*X297000Y31000D01*
X299500Y43500D02*Y42500D01*
X295500Y49500D02*X296500D01*
X293500D02*X294500D01*
X292000D02*X292500D01*
X290500D02*X291000D01*
X290500D02*Y48500D01*
Y47500D02*Y46500D01*
Y45500D02*Y44500D01*
Y43500D02*Y42500D01*
Y41500D02*Y40500D01*
Y39500D02*Y38500D01*
X299500Y45500D02*Y44500D01*
Y39500D02*Y38500D01*
Y41500D02*Y40500D01*
X297500Y49500D02*X298000D01*
X299000D02*X299500D01*
Y48500D01*
Y47500D02*Y46500D01*
X292500Y38500D02*X293000D01*
X298000Y47000D02*Y40000D01*
X295000Y3200D02*G75*G03X298500Y6700I0J3500D01*G01*
X291500Y7200D02*G75*G03X295500Y3200I4000J0D01*G01*
X294500Y39500D02*G75*G03X295000Y39000I500J0D01*G01*
Y39002D02*G75*G03X295500Y39502I0J500D01*G01*
X300000Y33000D02*G75*G03X299500Y32500I0J-500D01*G01*
Y32501D02*G75*G03X300001Y32000I501J0D01*G01*
X300000Y38000D02*G75*G03X299000Y39000I-1000J0D01*G01*
X300500Y32500D02*G75*G03X300000Y33000I-500J0D01*G01*
X299999Y32000D02*G75*G03X300500Y32501I0J501D01*G01*
X299500Y48501D02*G75*G03X298000Y47001I0J-1500D01*G01*
Y40000D02*G75*G03X299000Y39000I1000J0D01*G01*
G54D118*X331000Y46000D02*Y6000D01*
X371000D01*
Y46000D01*
X331000D02*X346000D01*
X356000D02*X371000D01*
X346000D02*G75*G03X356000Y46000I5000J0D01*G01*
X330000Y135500D02*Y95500D01*
X370000D01*
Y135500D01*
X330000D02*X345000D01*
X355000D02*X370000D01*
X345000D02*G75*G03X355000Y135500I5000J0D01*G01*
G54D117*X385000Y125500D02*Y105500D01*
X375000D02*X385000D01*
X375000Y125500D02*Y105500D01*
Y125500D02*X385000D01*
X380000Y135500D02*Y125500D01*
Y105500D02*Y95500D01*
G54D118*X319500Y90500D02*X320000D01*
Y110500D02*Y90500D01*
X319500Y110500D02*X320000D01*
X310000D02*X310500D01*
X310000D02*Y90500D01*
X310500D01*
G54D117*X340500Y140500D02*X360500D01*
X340500Y150500D02*Y140500D01*
Y150500D02*X360500D01*
Y140500D01*
Y145500D02*X370500D01*
X330500D02*X340500D01*
X341500Y87000D02*X361500D01*
Y77000D01*
X341500D01*
Y87000D01*
X331500Y82000D02*X341500D01*
X361500D02*X371500D01*
X341000Y61000D02*X361000D01*
Y51000D01*
X341000D01*
Y61000D01*
X331000Y56000D02*X341000D01*
X361000D02*X371000D01*
G54D118*X297500Y71000D02*X301500D01*
X299500Y73000D02*Y69000D01*
X325500Y71000D02*X329500D01*
X303500D02*G75*G03X303500Y71000I10000J0D01*G01*
X136700Y183500D02*G75*G03X136700Y183500I11800J0D01*G01*
X134700D02*G75*G03X134700Y183500I13800J0D01*G01*
G54D117*X138500Y213500D02*X158500D01*
Y203500D01*
X138500D01*
Y213500D01*
X128500Y208500D02*X138500D01*
X158500D02*X168500D01*
G54D118*X142500Y142500D02*X146500D01*
X144500Y144500D02*Y140500D01*
X170500Y142500D02*X174500D01*
X148500D02*G75*G03X148500Y142500I10000J0D01*G01*
G54D116*X182000Y57200D02*Y700D01*
X148000Y57200D02*X182000D01*
X148000D02*Y700D01*
X182000D01*
X177000Y4200D02*Y700D01*
X153000Y4200D02*Y700D01*
Y30000D02*X177000D01*
X153000Y29900D02*Y26700D01*
X177000Y29900D02*Y26700D01*
Y23200D02*Y20200D01*
X153000Y23200D02*Y20200D01*
Y16700D02*Y13700D01*
X177000Y16700D02*Y13700D01*
Y10200D02*Y7200D01*
X153000Y10200D02*Y7200D01*
X161500Y30000D02*Y6800D01*
X168500Y30000D02*Y6500D01*
X175500Y45000D02*X174500Y44000D01*
X164500Y50500D02*Y39500D01*
X170000Y38000D02*Y32500D01*
X167000Y38500D02*X167500D01*
X169500Y48500D02*X176000D01*
Y41500D01*
X172500Y45000D02*X175500D01*
X172500D02*Y38000D01*
X179500D01*
X182000Y40500D01*
X175500Y45000D02*X174500Y46000D01*
X165500Y50500D02*Y39500D01*
X170000Y32500D02*X167000Y31000D01*
X169500Y43500D02*Y42500D01*
X165500Y49500D02*X166500D01*
X163500D02*X164500D01*
X162000D02*X162500D01*
X160500D02*X161000D01*
X160500D02*Y48500D01*
Y47500D02*Y46500D01*
Y45500D02*Y44500D01*
Y43500D02*Y42500D01*
Y41500D02*Y40500D01*
Y39500D02*Y38500D01*
X169500Y45500D02*Y44500D01*
Y39500D02*Y38500D01*
Y41500D02*Y40500D01*
X167500Y49500D02*X168000D01*
X169000D02*X169500D01*
Y48500D01*
Y47500D02*Y46500D01*
X162500Y38500D02*X163000D01*
X168000Y47000D02*Y40000D01*
X165000Y3200D02*G75*G03X168500Y6700I0J3500D01*G01*
X161500Y7200D02*G75*G03X165500Y3200I4000J0D01*G01*
X164500Y39500D02*G75*G03X165000Y39000I500J0D01*G01*
Y39002D02*G75*G03X165500Y39502I0J500D01*G01*
X170000Y33000D02*G75*G03X169500Y32500I0J-500D01*G01*
Y32501D02*G75*G03X170001Y32000I501J0D01*G01*
X170000Y38000D02*G75*G03X169000Y39000I-1000J0D01*G01*
X170500Y32500D02*G75*G03X170000Y33000I-500J0D01*G01*
X169999Y32000D02*G75*G03X170500Y32501I0J501D01*G01*
X169500Y48501D02*G75*G03X168000Y47001I0J-1500D01*G01*
Y40000D02*G75*G03X169000Y39000I1000J0D01*G01*
G54D118*X155500Y57000D02*Y53000D01*
X153500Y55000D02*X157500D01*
X155500Y85000D02*Y81000D01*
Y59000D02*G75*G03X155500Y59000I0J10000D01*G01*
X187500Y102000D02*X188000D01*
Y122000D02*Y102000D01*
X187500Y122000D02*X188000D01*
X178000D02*X178500D01*
X178000D02*Y102000D01*
X178500D01*
X135000Y110000D02*G75*G03X135000Y110000I20000J0D01*G01*
G54D117*X278500Y315500D02*X298500D01*
Y305500D01*
X278500D01*
Y315500D01*
X268500Y310500D02*X278500D01*
X298500D02*X308500D01*
X278500Y326500D02*X298500D01*
Y316500D01*
X278500D01*
Y326500D01*
X268500Y321500D02*X278500D01*
X298500D02*X308500D01*
G54D118*X280500Y282500D02*X300500D01*
X280500D02*Y272500D01*
X300500D01*
Y282500D02*Y272500D01*
X290500Y282500D02*Y272500D01*
X300500D01*
G54D117*X278500Y304500D02*X298500D01*
Y294500D01*
X278500D01*
Y304500D01*
X268500Y299500D02*X278500D01*
X298500D02*X308500D01*
G54D118*X192500Y359000D02*G75*G03X192500Y359000I0J-10000D01*G01*
X179500Y296000D02*Y295500D01*
X199500D01*
Y296000D02*Y295500D01*
Y305500D02*Y305000D01*
X179500Y305500D02*X199500D01*
X179500D02*Y305000D01*
X180000Y268000D02*Y267500D01*
X200000D01*
Y268000D02*Y267500D01*
Y277500D02*Y277000D01*
X180000Y277500D02*X200000D01*
X180000D02*Y277000D01*
X179500Y292500D02*X199500D01*
X179500Y282500D02*X199500D01*
X179500Y292500D02*G75*G03X179500Y282500I0J-5000D01*G01*
X199500D02*G75*G03X199500Y292500I0J5000D01*G01*
X179500Y313000D02*Y312500D01*
X199500D01*
Y313000D02*Y312500D01*
Y322500D02*Y322000D01*
X179500Y322500D02*X199500D01*
X179500D02*Y322000D01*
X265000Y361000D02*X315000D01*
X265000D02*Y341000D01*
X315000D01*
Y361000D02*Y341000D01*
X305000Y361000D02*Y351000D01*
X315000D01*
G54D117*X180500Y335500D02*X200500D01*
Y325500D01*
X180500D01*
Y335500D01*
X170500Y330500D02*X180500D01*
X200500D02*X210500D01*
G54D118*X333500Y241000D02*X341500D01*
X333500D02*Y203000D01*
X341500D01*
Y241000D02*Y203000D01*
X333000Y324500D02*Y266500D01*
Y324500D02*X341000D01*
Y266500D01*
X333000D02*X341000D01*
X215500Y335500D02*Y235500D01*
X255500D01*
Y335500D01*
X215500D02*X230500D01*
X240500D02*X255500D01*
X230500D02*G75*G03X240500Y335500I5000J0D01*G01*
X226500Y350500D02*X246500D01*
X226500D02*Y340500D01*
X246500D01*
Y350500D02*Y340500D01*
X236500Y350500D02*Y340500D01*
X246500D01*
X281500Y231500D02*X282000D01*
Y251500D02*Y231500D01*
X281500Y251500D02*X282000D01*
X272000D02*X272500D01*
X272000D02*Y231500D01*
X272500D01*
X44500Y335500D02*Y255500D01*
X84500D01*
Y335500D01*
X44500D02*X59500D01*
X69500D02*X84500D01*
X59500D02*G75*G03X69500Y335500I5000J0D01*G01*
X24000Y305500D02*Y301500D01*
X22000Y303500D02*X26000D01*
X24000Y277500D02*Y273500D01*
X24000Y299500D02*G75*G03X24000Y299500I0J-10000D01*G01*
X98500Y318000D02*X99000D01*
Y338000D02*Y318000D01*
X98500Y338000D02*X99000D01*
X89000D02*X89500D01*
X89000D02*Y318000D01*
X89500D01*
X118500Y335500D02*Y265500D01*
X158500D01*
Y335500D01*
X118500D02*X133500D01*
X143500D02*X158500D01*
X133500D02*G75*G03X143500Y335500I5000J0D01*G01*
X147000Y354500D02*Y355000D01*
X127000D01*
Y354500D01*
Y345500D02*Y345000D01*
X147000D01*
Y345500D01*
X24000Y341500D02*Y337500D01*
X22000Y339500D02*X26000D01*
X24000Y313500D02*Y309500D01*
X24000Y335500D02*G75*G03X24000Y335500I0J-10000D01*G01*
X81500Y365500D02*Y361500D01*
X79500Y363500D02*X83500D01*
X81500Y337500D02*Y333500D01*
Y359500D02*G75*G03X81500Y359500I0J-10000D01*G01*
X49500Y337500D02*Y333500D01*
X47500Y335500D02*X51500D01*
X49500Y365500D02*Y361500D01*
Y339500D02*G75*G03X49500Y339500I0J10000D01*G01*
X42500Y177500D02*Y185500D01*
X60500Y177500D02*X42500D01*
X60500Y185500D02*Y177500D01*
X42500Y185500D02*X60500D01*
X78500Y166000D02*Y162000D01*
X76500Y164000D02*X80500D01*
X78500Y194000D02*Y190000D01*
Y168000D02*G75*G03X78500Y168000I0J10000D01*G01*
X91500Y193000D02*X92000D01*
X91500D02*Y173000D01*
X92000D01*
X101000D02*X101500D01*
Y193000D02*Y173000D01*
X101000Y193000D02*X101500D01*
X14500Y201000D02*X22500D01*
Y239000D02*Y201000D01*
X14500Y239000D02*X22500D01*
X14500D02*Y201000D01*
X36700Y69900D02*X40700D01*
X38700Y71900D02*Y67900D01*
X64700Y69900D02*X68700D01*
X42700D02*G75*G03X42700Y69900I10000J0D01*G01*
G54D116*X52200Y57100D02*Y600D01*
X18200Y57100D02*X52200D01*
X18200D02*Y600D01*
X52200D01*
X47200Y4100D02*Y600D01*
X23200Y4100D02*Y600D01*
Y29900D02*X47200D01*
X23200Y29800D02*Y26600D01*
X47200Y29800D02*Y26600D01*
Y23100D02*Y20100D01*
X23200Y23100D02*Y20100D01*
Y16600D02*Y13600D01*
X47200Y16600D02*Y13600D01*
Y10100D02*Y7100D01*
X23200Y10100D02*Y7100D01*
X31700Y29900D02*Y6700D01*
X38700Y29900D02*Y6400D01*
X45700Y44900D02*X44700Y43900D01*
X34700Y50400D02*Y39400D01*
X40200Y37900D02*Y32400D01*
X37200Y38400D02*X37700D01*
X39700Y48400D02*X46200D01*
Y41400D01*
X42700Y44900D02*X45700D01*
X42700D02*Y37900D01*
X49700D01*
X52200Y40400D01*
X45700Y44900D02*X44700Y45900D01*
X35700Y50400D02*Y39400D01*
X40200Y32400D02*X37200Y30900D01*
X39700Y43400D02*Y42400D01*
X35700Y49400D02*X36700D01*
X33700D02*X34700D01*
X32200D02*X32700D01*
X30700D02*X31200D01*
X30700D02*Y48400D01*
Y47400D02*Y46400D01*
Y45400D02*Y44400D01*
Y43400D02*Y42400D01*
Y41400D02*Y40400D01*
Y39400D02*Y38400D01*
X39700Y45400D02*Y44400D01*
Y39400D02*Y38400D01*
Y41400D02*Y40400D01*
X37700Y49400D02*X38200D01*
X39200D02*X39700D01*
Y48400D01*
Y47400D02*Y46400D01*
X32700Y38400D02*X33200D01*
X38200Y46900D02*Y39900D01*
X35200Y3100D02*G75*G03X38700Y6600I0J3500D01*G01*
X31700Y7100D02*G75*G03X35700Y3100I4000J0D01*G01*
X34700Y39400D02*G75*G03X35200Y38900I500J0D01*G01*
Y38902D02*G75*G03X35700Y39402I0J500D01*G01*
X40200Y32900D02*G75*G03X39700Y32400I0J-500D01*G01*
Y32401D02*G75*G03X40201Y31900I501J0D01*G01*
X40200Y37900D02*G75*G03X39200Y38900I-1000J0D01*G01*
X40700Y32400D02*G75*G03X40200Y32900I-500J0D01*G01*
X40199Y31900D02*G75*G03X40700Y32401I0J501D01*G01*
X39700Y48401D02*G75*G03X38200Y46901I0J-1500D01*G01*
Y39900D02*G75*G03X39200Y38900I1000J0D01*G01*
G54D118*X46200Y145900D02*Y153900D01*
X64200Y145900D02*X46200D01*
X64200Y153900D02*Y145900D01*
X46200Y153900D02*X64200D01*
X8497Y139081D02*G75*G03X8497Y139081I14142J-14142D01*G01*
X16100Y100900D02*Y96900D01*
X14100Y98900D02*X18100D01*
X16100Y72900D02*Y68900D01*
X16100Y94900D02*G75*G03X16100Y94900I0J-10000D01*G01*
X31441Y78324D02*X37959D01*
X34700D02*Y76050D01*
X31441Y95276D02*Y78324D01*
Y95276D02*X37959D01*
X34700Y97550D02*Y95276D01*
X37959D02*Y78324D01*
X31441Y81324D02*X37959D01*
X31441Y81824D02*X37959D01*
X31441Y82324D02*X37959D01*
X59700Y89900D02*X60200D01*
Y109900D02*Y89900D01*
X59700Y109900D02*X60200D01*
X50200D02*X50700D01*
X50200D02*Y89900D01*
X50700D01*
X70200Y134900D02*Y94900D01*
X110200D01*
Y134900D01*
X70200D02*X85200D01*
X95200D02*X110200D01*
X85200D02*G75*G03X95200Y134900I5000J0D01*G01*
G54D117*X125200Y124900D02*Y104900D01*
X115200D02*X125200D01*
X115200Y124900D02*Y104900D01*
Y124900D02*X125200D01*
X120200Y134900D02*Y124900D01*
Y104900D02*Y94900D01*
X80200Y59900D02*X100200D01*
Y49900D01*
X80200D01*
Y59900D01*
X70200Y54900D02*X80200D01*
X100200D02*X110200D01*
X80200Y87400D02*X100200D01*
Y77400D01*
X80200D02*X100200D01*
X80200Y87400D02*Y77400D01*
X70200Y82400D02*X80200D01*
X100200D02*X110200D01*
G54D116*X280500Y311500D02*X282500D01*
X283000Y311000D01*
Y310000D01*
X282500Y309500D02*X283000Y310000D01*
X281000Y309500D02*X282500D01*
X281000Y311500D02*Y307500D01*
Y309500D02*X283000Y307500D01*
X284200Y311500D02*X286200D01*
X284200D02*Y309500D01*
X284700Y310000D01*
X285700D01*
X286200Y309500D01*
Y308000D01*
X285700Y307500D02*X286200Y308000D01*
X284700Y307500D02*X285700D01*
X284200Y308000D02*X284700Y307500D01*
X231500Y322500D02*Y319000D01*
X232000Y318500D01*
X233000D01*
X233500Y319000D01*
Y322500D02*Y319000D01*
X235200Y318500D02*X236200D01*
X235700Y322500D02*Y318500D01*
X234700Y321500D02*X235700Y322500D01*
X280500D02*X282500D01*
X283000Y322000D01*
Y321000D01*
X282500Y320500D02*X283000Y321000D01*
X281000Y320500D02*X282500D01*
X281000Y322500D02*Y318500D01*
Y320500D02*X283000Y318500D01*
X285700Y322500D02*X286200Y322000D01*
X284700Y322500D02*X285700D01*
X284200Y322000D02*X284700Y322500D01*
X284200Y322000D02*Y319000D01*
X284700Y318500D01*
X285700Y320500D02*X286200Y320000D01*
X284200Y320500D02*X285700D01*
X284700Y318500D02*X285700D01*
X286200Y319000D01*
Y320000D02*Y319000D01*
X218000Y351500D02*X219500D01*
Y348000D01*
X219000Y347500D02*X219500Y348000D01*
X218500Y347500D02*X219000D01*
X218000Y348000D02*X218500Y347500D01*
X221200D02*X222200D01*
X221700Y351500D02*Y347500D01*
X220700Y350500D02*X221700Y351500D01*
X280500Y300500D02*X282500D01*
X283000Y300000D01*
Y299000D01*
X282500Y298500D02*X283000Y299000D01*
X281000Y298500D02*X282500D01*
X281000Y300500D02*Y296500D01*
Y298500D02*X283000Y296500D01*
X284200Y298500D02*X286200Y300500D01*
X284200Y298500D02*X286700D01*
X286200Y300500D02*Y296500D01*
X208500Y354000D02*X209000Y353500D01*
X207000Y354000D02*X208500D01*
X206500Y353500D02*X207000Y354000D01*
X206500Y353500D02*Y352500D01*
X207000Y352000D01*
X208500D01*
X209000Y351500D01*
Y350500D01*
X208500Y350000D02*X209000Y350500D01*
X207000Y350000D02*X208500D01*
X206500Y350500D02*X207000Y350000D01*
X210700D02*X211700D01*
X211200Y354000D02*Y350000D01*
X210200Y353000D02*X211200Y354000D01*
X205750Y296000D02*X208000D01*
X205000Y296750D02*X205750Y296000D01*
X205000Y301250D02*Y296750D01*
Y301250D02*X205750Y302000D01*
X208000D01*
X210550Y296000D02*X212050D01*
X211300Y302000D02*Y296000D01*
X209800Y300500D02*X211300Y302000D01*
X205250Y268000D02*X207500D01*
X204500Y268750D02*X205250Y268000D01*
X204500Y273250D02*Y268750D01*
Y273250D02*X205250Y274000D01*
X207500D01*
X209300Y273250D02*X210050Y274000D01*
X212300D01*
X213050Y273250D01*
Y271750D01*
X209300Y268000D02*X213050Y271750D01*
X209300Y268000D02*X213050D01*
X207500Y289500D02*Y289000D01*
X210000Y286500D01*
Y285500D01*
X207500Y286500D02*Y285500D01*
Y286500D02*X210000Y289000D01*
Y289500D02*Y289000D01*
X211700Y285500D02*X212700D01*
X212200Y289500D02*Y285500D01*
X211200Y288500D02*X212200Y289500D01*
X210000Y322000D02*X212250D01*
X213000Y321250D02*X212250Y322000D01*
X213000Y321250D02*Y316750D01*
X212250Y316000D01*
X210000D02*X212250D01*
X208200Y322000D02*X204450Y318250D01*
Y316000D01*
X208200D01*
X58500Y322500D02*Y319000D01*
X59000Y318500D01*
X60000D01*
X60500Y319000D01*
Y322500D02*Y319000D01*
X61700Y322000D02*X62200Y322500D01*
X63700D01*
X64200Y322000D01*
Y321000D01*
X61700Y318500D02*X64200Y321000D01*
X61700Y318500D02*X64200D01*
X28500Y308500D02*X30000D01*
X28000Y309000D02*X28500Y308500D01*
X28000Y312000D02*Y309000D01*
Y312000D02*X28500Y312500D01*
X30000D01*
X31200Y312000D02*X31700Y312500D01*
X32700D01*
X33200Y312000D01*
Y309000D01*
X32700Y308500D02*X33200Y309000D01*
X31700Y308500D02*X32700D01*
X31200Y309000D02*X31700Y308500D01*
Y310500D02*X33200D01*
X62500Y347000D02*X64000D01*
X62000Y347500D02*X62500Y347000D01*
X62000Y350500D02*Y347500D01*
Y350500D02*X62500Y351000D01*
X64000D01*
X65200D02*X67200D01*
X65200D02*Y349000D01*
X65700Y349500D01*
X66700D01*
X67200Y349000D01*
Y347500D01*
X66700Y347000D02*X67200Y347500D01*
X65700Y347000D02*X66700D01*
X65200Y347500D02*X65700Y347000D01*
X287500Y289000D02*X289000D01*
Y285500D01*
X288500Y285000D02*X289000Y285500D01*
X288000Y285000D02*X288500D01*
X287500Y285500D02*X288000Y285000D01*
X290200Y288500D02*X290700Y289000D01*
X292200D01*
X292700Y288500D01*
Y287500D01*
X290200Y285000D02*X292700Y287500D01*
X290200Y285000D02*X292700D01*
X284500Y248250D02*Y246000D01*
X285250Y249000D02*X284500Y248250D01*
X285250Y249000D02*X289750D01*
X290500Y248250D01*
Y246000D01*
X284500Y243450D02*Y241950D01*
Y242700D02*X290500D01*
X289000Y244200D02*X290500Y242700D01*
X289750Y240150D02*X290500Y239400D01*
Y237150D01*
X289750Y236400D01*
X288250D02*X289750D01*
X284500Y240150D02*X288250Y236400D01*
X284500Y240150D02*Y236400D01*
X94500Y348000D02*X96000D01*
X94000Y348500D02*X94500Y348000D01*
X94000Y351500D02*Y348500D01*
Y351500D02*X94500Y352000D01*
X96000D01*
X98700D02*X99200Y351500D01*
X97700Y352000D02*X98700D01*
X97200Y351500D02*X97700Y352000D01*
X97200Y351500D02*Y348500D01*
X97700Y348000D01*
X98700Y350000D02*X99200Y349500D01*
X97200Y350000D02*X98700D01*
X97700Y348000D02*X98700D01*
X99200Y348500D01*
Y349500D02*Y348500D01*
X182500Y331500D02*X184500D01*
X185000Y331000D01*
Y330000D01*
X184500Y329500D02*X185000Y330000D01*
X183000Y329500D02*X184500D01*
X183000Y331500D02*Y327500D01*
Y329500D02*X185000Y327500D01*
X186200D02*X188700Y330000D01*
Y331500D02*Y330000D01*
X186200Y331500D02*X188700D01*
X134500Y320500D02*Y317000D01*
X135000Y316500D01*
X136000D01*
X136500Y317000D01*
Y320500D02*Y317000D01*
X137700Y320000D02*X138200Y320500D01*
X139200D01*
X139700Y320000D01*
Y317000D01*
X139200Y316500D02*X139700Y317000D01*
X138200Y316500D02*X139200D01*
X137700Y317000D02*X138200Y316500D01*
Y318500D02*X139700D01*
X101500Y331750D02*Y329500D01*
X102250Y332500D02*X101500Y331750D01*
X102250Y332500D02*X106750D01*
X107500Y331750D01*
Y329500D01*
X101500Y326950D02*Y325450D01*
Y326200D02*X107500D01*
X106000Y327700D02*X107500Y326200D01*
X102250Y323650D02*X101500Y322900D01*
X102250Y323650D02*X106750D01*
X107500Y322900D01*
Y321400D01*
X106750Y320650D01*
X102250D02*X106750D01*
X101500Y321400D02*X102250Y320650D01*
X101500Y322900D02*Y321400D01*
X103000Y323650D02*X106000Y320650D01*
X109250Y347500D02*X111500D01*
X108500Y348250D02*X109250Y347500D01*
X108500Y352750D02*Y348250D01*
Y352750D02*X109250Y353500D01*
X111500D01*
X114050Y347500D02*X115550D01*
X114800Y353500D02*Y347500D01*
X113300Y352000D02*X114800Y353500D01*
X118100Y347500D02*X119600D01*
X118850Y353500D02*Y347500D01*
X117350Y352000D02*X118850Y353500D01*
X236000Y201500D02*X238000D01*
X238500Y201000D01*
Y200000D01*
X238000Y199500D02*X238500Y200000D01*
X236500Y199500D02*X238000D01*
X236500Y201500D02*Y197500D01*
Y199500D02*X238500Y197500D01*
X239700Y201000D02*X240200Y201500D01*
X241200D01*
X241700Y201000D01*
Y198000D01*
X241200Y197500D02*X241700Y198000D01*
X240200Y197500D02*X241200D01*
X239700Y198000D02*X240200Y197500D01*
Y199500D02*X241700D01*
X185500Y201500D02*X187500D01*
X188000Y201000D01*
Y200000D01*
X187500Y199500D02*X188000Y200000D01*
X186000Y199500D02*X187500D01*
X186000Y201500D02*Y197500D01*
Y199500D02*X188000Y197500D01*
X189200Y201000D02*X189700Y201500D01*
X191200D01*
X191700Y201000D01*
Y200000D01*
X189200Y197500D02*X191700Y200000D01*
X189200Y197500D02*X191700D01*
X251500Y179000D02*Y175000D01*
X253000Y179000D02*X253500Y178500D01*
Y175500D01*
X253000Y175000D02*X253500Y175500D01*
X251000Y175000D02*X253000D01*
X251000Y179000D02*X253000D01*
X254700Y178500D02*X255200Y179000D01*
X256200D01*
X256700Y178500D01*
Y175500D01*
X256200Y175000D02*X256700Y175500D01*
X255200Y175000D02*X256200D01*
X254700Y175500D02*X255200Y175000D01*
Y177000D02*X256700D01*
X201000Y179500D02*Y175500D01*
X202500Y179500D02*X203000Y179000D01*
Y176000D01*
X202500Y175500D02*X203000Y176000D01*
X200500Y175500D02*X202500D01*
X200500Y179500D02*X202500D01*
X204200Y179000D02*X204700Y179500D01*
X206200D01*
X206700Y179000D01*
Y178000D01*
X204200Y175500D02*X206700Y178000D01*
X204200Y175500D02*X206700D01*
X302000Y336500D02*Y332500D01*
X304500Y336500D02*Y332500D01*
X302000Y334500D02*X304500D01*
X306200Y332500D02*X307200D01*
X306700Y336500D02*Y332500D01*
X305700Y335500D02*X306700Y336500D01*
X342500Y237000D02*X346500D01*
X342500Y234500D02*X346500D01*
X344500Y237000D02*Y234500D01*
Y233300D02*X346500Y231300D01*
X344500Y233300D02*Y230800D01*
X342500Y231300D02*X346500D01*
X328000Y270500D02*X332000D01*
X328000Y273000D02*X332000D01*
X330000D02*Y270500D01*
X328000Y276200D02*Y274200D01*
X330000D01*
X329500Y274700D01*
Y275700D02*Y274700D01*
Y275700D02*X330000Y276200D01*
X331500D01*
X332000Y275700D02*X331500Y276200D01*
X332000Y275700D02*Y274700D01*
X331500Y274200D02*X332000Y274700D01*
X310000Y155500D02*X311500D01*
X309500Y156000D02*X310000Y155500D01*
X309500Y159000D02*Y156000D01*
Y159000D02*X310000Y159500D01*
X311500D01*
X312700Y159000D02*Y156000D01*
Y159000D02*X313200Y159500D01*
X314200D01*
X314700Y159000D01*
Y156000D01*
X314200Y155500D02*X314700Y156000D01*
X313200Y155500D02*X314200D01*
X312700Y156000D02*X313200Y155500D01*
X315900Y159500D02*Y155500D01*
Y159500D02*Y159000D01*
X318400Y156500D01*
Y159500D02*Y155500D01*
X319600Y159500D02*Y155500D01*
Y159500D02*Y159000D01*
X322100Y156500D01*
Y159500D02*Y155500D01*
X323300Y159000D02*X323800Y159500D01*
X325300D01*
X325800Y159000D01*
Y158000D01*
X323300Y155500D02*X325800Y158000D01*
X323300Y155500D02*X325800D01*
X134000Y201500D02*X136000D01*
X136500Y201000D01*
Y200000D01*
X136000Y199500D02*X136500Y200000D01*
X134500Y199500D02*X136000D01*
X134500Y201500D02*Y197500D01*
Y199500D02*X136500Y197500D01*
X138200D02*X139200D01*
X138700Y201500D02*Y197500D01*
X137700Y200500D02*X138700Y201500D01*
X30500Y272500D02*X32000D01*
X30000Y273000D02*X30500Y272500D01*
X30000Y276000D02*Y273000D01*
Y276000D02*X30500Y276500D01*
X32000D01*
X33200Y274500D02*X35200Y276500D01*
X33200Y274500D02*X35700D01*
X35200Y276500D02*Y272500D01*
X46500Y190500D02*Y186500D01*
X49000Y190500D02*Y186500D01*
X46500Y188500D02*X49000D01*
X50200Y190000D02*X50700Y190500D01*
X52200D01*
X52700Y190000D01*
Y189000D01*
X50200Y186500D02*X52700Y189000D01*
X50200Y186500D02*X52700D01*
X85000Y193500D02*Y192000D01*
X84500Y191500D02*X85000Y192000D01*
X81500Y191500D02*X84500D01*
X81500D02*X81000Y192000D01*
Y193500D02*Y192000D01*
X85000Y194700D02*X83000Y196700D01*
X81500D02*X83000D01*
X81000Y196200D02*X81500Y196700D01*
X81000Y196200D02*Y195200D01*
X81500Y194700D02*X81000Y195200D01*
X81500Y194700D02*X82500D01*
X83000Y195200D01*
Y196700D02*Y195200D01*
X105500Y185750D02*Y183500D01*
X106250Y186500D02*X105500Y185750D01*
X106250Y186500D02*X110750D01*
X111500Y185750D01*
Y183500D01*
X106250Y181700D02*X105500Y180950D01*
X106250Y181700D02*X107750D01*
X108500Y180950D01*
Y179450D01*
X107750Y178700D01*
X106250D02*X107750D01*
X105500Y179450D02*X106250Y178700D01*
X105500Y180950D02*Y179450D01*
X109250Y181700D02*X108500Y180950D01*
X109250Y181700D02*X110750D01*
X111500Y180950D01*
Y179450D01*
X110750Y178700D01*
X109250D02*X110750D01*
X108500Y179450D02*X109250Y178700D01*
X9500Y205000D02*X13500D01*
X9500Y207500D02*X13500D01*
X11500D02*Y205000D01*
X10000Y208700D02*X9500Y209200D01*
Y210200D02*Y209200D01*
Y210200D02*X10000Y210700D01*
X13000D01*
X13500Y210200D02*X13000Y210700D01*
X13500Y210200D02*Y209200D01*
X13000Y208700D02*X13500Y209200D01*
X11500Y210700D02*Y209200D01*
X3800Y147600D02*Y143600D01*
X5800D01*
X7500D02*X8500D01*
X8000Y147600D02*Y143600D01*
X7000Y146600D02*X8000Y147600D01*
X43200Y74900D02*X44700D01*
X42700Y75400D02*X43200Y74900D01*
X42700Y78400D02*Y75400D01*
Y78400D02*X43200Y78900D01*
X44700D01*
X45900Y78400D02*X46400Y78900D01*
X47400D01*
X47900Y78400D01*
Y75400D01*
X47400Y74900D02*X47900Y75400D01*
X46400Y74900D02*X47400D01*
X45900Y75400D02*X46400Y74900D01*
Y76900D02*X47900D01*
X19700Y55400D02*Y53900D01*
X20200Y55900D02*X19700Y55400D01*
X20200Y55900D02*X23200D01*
X23700Y55400D01*
Y53900D01*
X20200Y52700D02*X23200D01*
X23700Y52200D01*
Y51200D01*
X23200Y50700D01*
X20200D02*X23200D01*
X19700Y51200D02*X20200Y50700D01*
X19700Y52200D02*Y51200D01*
X20200Y52700D02*X19700Y52200D01*
Y49500D02*X23700D01*
X23200D02*X23700D01*
X23200D02*X20700Y47000D01*
X19700D02*X23700D01*
X19700Y45800D02*X23700D01*
X23200D02*X23700D01*
X23200D02*X20700Y43300D01*
X19700D02*X23700D01*
X19700Y41600D02*Y40600D01*
Y41100D02*X23700D01*
X22700Y42100D02*X23700Y41100D01*
X21100Y94400D02*Y92900D01*
X21600Y94900D02*X21100Y94400D01*
X21600Y94900D02*X24600D01*
X25100Y94400D01*
Y92900D01*
X21100Y91200D02*Y90200D01*
Y90700D02*X25100D01*
X24100Y91700D02*X25100Y90700D01*
X70200Y58900D02*X72200D01*
X72700Y58400D01*
Y57400D01*
X72200Y56900D02*X72700Y57400D01*
X70700Y56900D02*X72200D01*
X70700Y58900D02*Y54900D01*
Y56900D02*X72700Y54900D01*
X73900Y58400D02*X74400Y58900D01*
X75900D01*
X76400Y58400D01*
Y57400D01*
X73900Y54900D02*X76400Y57400D01*
X73900Y54900D02*X76400D01*
X70200Y86400D02*X72200D01*
X72700Y85900D01*
Y84900D01*
X72200Y84400D02*X72700Y84900D01*
X70700Y84400D02*X72200D01*
X70700Y86400D02*Y82400D01*
Y84400D02*X72700Y82400D01*
X73900Y85900D02*X74400Y86400D01*
X75400D01*
X75900Y85900D01*
Y82900D01*
X75400Y82400D02*X75900Y82900D01*
X74400Y82400D02*X75400D01*
X73900Y82900D02*X74400Y82400D01*
Y84400D02*X75900D01*
X25441Y78824D02*X29441D01*
X25441Y80324D02*X25941Y80824D01*
X28941D01*
X29441Y80324D02*X28941Y80824D01*
X29441Y80324D02*Y78324D01*
X25441Y80324D02*Y78324D01*
X29441Y83524D02*Y82524D01*
X25441Y83024D02*X29441D01*
X26441Y82024D02*X25441Y83024D01*
X45900Y155000D02*X47400D01*
X45400Y155500D02*X45900Y155000D01*
X45400Y158500D02*Y155500D01*
Y158500D02*X45900Y159000D01*
X47400D01*
X48600Y158500D02*Y155500D01*
Y158500D02*X49100Y159000D01*
X50100D01*
X50600Y158500D01*
Y155500D01*
X50100Y155000D02*X50600Y155500D01*
X49100Y155000D02*X50100D01*
X48600Y155500D02*X49100Y155000D01*
X51800Y159000D02*Y155000D01*
Y159000D02*Y158500D01*
X54300Y156000D01*
Y159000D02*Y155000D01*
X55500Y159000D02*Y155000D01*
Y159000D02*Y158500D01*
X58000Y156000D01*
Y159000D02*Y155000D01*
X59200Y158500D02*X59700Y159000D01*
X61200D01*
X61700Y158500D01*
Y157500D01*
X59200Y155000D02*X61700Y157500D01*
X59200Y155000D02*X61700D01*
X50700Y122650D02*Y120400D01*
X51450Y123400D02*X50700Y122650D01*
X51450Y123400D02*X55950D01*
X56700Y122650D01*
Y120400D01*
X55950Y118600D02*X56700Y117850D01*
Y115600D01*
X55950Y114850D01*
X54450D02*X55950D01*
X50700Y118600D02*X54450Y114850D01*
X50700Y118600D02*Y114850D01*
X65700Y134900D02*X69200D01*
X65700D02*X65200Y134400D01*
Y133400D01*
X65700Y132900D01*
X69200D01*
X65200Y131200D02*Y130200D01*
Y130700D02*X69200D01*
X68200Y131700D02*X69200Y130700D01*
X124200Y134900D02*Y132900D01*
X123700Y132400D01*
X122700D02*X123700D01*
X122200Y132900D02*X122700Y132400D01*
X122200Y134400D02*Y132900D01*
X120200Y134400D02*X124200D01*
X122200D02*X120200Y132400D01*
Y130700D02*Y129700D01*
Y130200D02*X124200D01*
X123200Y131200D02*X124200Y130200D01*
X149500Y55500D02*Y54000D01*
X150000Y56000D02*X149500Y55500D01*
X150000Y56000D02*X153000D01*
X153500Y55500D01*
Y54000D01*
X150000Y52800D02*X153000D01*
X153500Y52300D01*
Y51300D01*
X153000Y50800D01*
X150000D02*X153000D01*
X149500Y51300D02*X150000Y50800D01*
X149500Y52300D02*Y51300D01*
X150000Y52800D02*X149500Y52300D01*
Y49600D02*X153500D01*
X153000D02*X153500D01*
X153000D02*X150500Y47100D01*
X149500D02*X153500D01*
X149500Y45900D02*X153500D01*
X153000D02*X153500D01*
X153000D02*X150500Y43400D01*
X149500D02*X153500D01*
X149500Y41700D02*Y40700D01*
Y41200D02*X153500D01*
X152500Y42200D02*X153500Y41200D01*
X150500Y61000D02*Y59500D01*
X150000Y59000D02*X150500Y59500D01*
X147000Y59000D02*X150000D01*
X147000D02*X146500Y59500D01*
Y61000D02*Y59500D01*
X147000Y62200D02*X146500Y62700D01*
Y63700D02*Y62700D01*
Y63700D02*X147000Y64200D01*
X150000D01*
X150500Y63700D02*X150000Y64200D01*
X150500Y63700D02*Y62700D01*
X150000Y62200D02*X150500Y62700D01*
X148500Y64200D02*Y62700D01*
X133899Y119000D02*Y115000D01*
X135899D01*
X137599D02*X138599D01*
X138099Y119000D02*Y115000D01*
X137099Y118000D02*X138099Y119000D01*
X147500Y179000D02*Y175000D01*
X149000Y179000D02*X149500Y178500D01*
Y175500D01*
X149000Y175000D02*X149500Y175500D01*
X147000Y175000D02*X149000D01*
X147000Y179000D02*X149000D01*
X151200Y175000D02*X152200D01*
X151700Y179000D02*Y175000D01*
X150700Y178000D02*X151700Y179000D01*
X251689Y130622D02*Y127622D01*
Y130622D02*X252189Y131122D01*
X253189D01*
X253689Y130622D01*
Y127622D01*
X253189Y127122D02*X253689Y127622D01*
X252189Y127122D02*X253189D01*
X251689Y127622D02*X252189Y127122D01*
X252689Y128122D02*X253689Y127122D01*
X254889Y130622D02*X255389Y131122D01*
X256389D01*
X256889Y130622D01*
Y127622D01*
X256389Y127122D02*X256889Y127622D01*
X255389Y127122D02*X256389D01*
X254889Y127622D02*X255389Y127122D01*
Y129122D02*X256889D01*
X190500Y130500D02*Y127500D01*
Y130500D02*X191000Y131000D01*
X192000D01*
X192500Y130500D01*
Y127500D01*
X192000Y127000D02*X192500Y127500D01*
X191000Y127000D02*X192000D01*
X190500Y127500D02*X191000Y127000D01*
X191500Y128000D02*X192500Y127000D01*
X193700Y130500D02*X194200Y131000D01*
X195700D01*
X196200Y130500D01*
Y129500D01*
X193700Y127000D02*X196200Y129500D01*
X193700Y127000D02*X196200D01*
X192500Y111000D02*Y108000D01*
Y111000D02*X193000Y111500D01*
X194000D01*
X194500Y111000D01*
Y108000D01*
X194000Y107500D02*X194500Y108000D01*
X193000Y107500D02*X194000D01*
X192500Y108000D02*X193000Y107500D01*
X193500Y108500D02*X194500Y107500D01*
X196200D02*X197200D01*
X196700Y111500D02*Y107500D01*
X195700Y110500D02*X196700Y111500D01*
X178500Y155000D02*X180000D01*
X178000Y155500D02*X178500Y155000D01*
X178000Y158500D02*Y155500D01*
Y158500D02*X178500Y159000D01*
X180000D01*
X181200Y158500D02*Y155500D01*
Y158500D02*X181700Y159000D01*
X182700D01*
X183200Y158500D01*
Y155500D01*
X182700Y155000D02*X183200Y155500D01*
X181700Y155000D02*X182700D01*
X181200Y155500D02*X181700Y155000D01*
X184400Y159000D02*Y155000D01*
Y159000D02*Y158500D01*
X186900Y156000D01*
Y159000D02*Y155000D01*
X188100Y159000D02*Y155000D01*
Y159000D02*Y158500D01*
X190600Y156000D01*
Y159000D02*Y155000D01*
X191800Y158500D02*X192300Y159000D01*
X193800D01*
X194300Y158500D01*
Y157500D01*
X191800Y155000D02*X194300Y157500D01*
X191800Y155000D02*X194300D01*
X199024Y147259D02*Y143259D01*
X200524Y147259D02*X201024Y146759D01*
Y143759D01*
X200524Y143259D02*X201024Y143759D01*
X198524Y143259D02*X200524D01*
X198524Y147259D02*X200524D01*
X202724Y143259D02*X203724D01*
X203224Y147259D02*Y143259D01*
X202224Y146259D02*X203224Y147259D01*
X178500Y134750D02*Y132500D01*
X179250Y135500D02*X178500Y134750D01*
X179250Y135500D02*X183750D01*
X184500Y134750D01*
Y132500D01*
X181500Y130700D02*X184500Y127700D01*
X181500Y130700D02*Y126950D01*
X178500Y127700D02*X184500D01*
X149000Y147500D02*X150500D01*
X148500Y148000D02*X149000Y147500D01*
X148500Y151000D02*Y148000D01*
Y151000D02*X149000Y151500D01*
X150500D01*
X152200Y147500D02*X153200D01*
X152700Y151500D02*Y147500D01*
X151700Y150500D02*X152700Y151500D01*
X262000Y144500D02*Y140500D01*
X264000D01*
X265700D02*X266700D01*
X266200Y144500D02*Y140500D01*
X265200Y143500D02*X266200Y144500D01*
X196000Y75500D02*X199500D01*
X196000D02*X195500Y75000D01*
Y74000D01*
X196000Y73500D01*
X199500D01*
X195500Y71800D02*Y70800D01*
Y71300D02*X199500D01*
X198500Y72300D02*X199500Y71300D01*
X191500Y53000D02*Y50750D01*
X190750Y50000D02*X191500Y50750D01*
X186250Y50000D02*X190750D01*
X186250D02*X185500Y50750D01*
Y53000D02*Y50750D01*
X186250Y54800D02*X185500Y55550D01*
Y57800D02*Y55550D01*
Y57800D02*X186250Y58550D01*
X187750D01*
X191500Y54800D02*X187750Y58550D01*
X191500D02*Y54800D01*
X184500Y33000D02*X186500D01*
X187000Y32500D01*
Y31500D01*
X186500Y31000D02*X187000Y31500D01*
X185000Y31000D02*X186500D01*
X185000Y33000D02*Y29000D01*
Y31000D02*X187000Y29000D01*
X188200Y32500D02*X188700Y33000D01*
X189700D01*
X190200Y32500D01*
Y29500D01*
X189700Y29000D02*X190200Y29500D01*
X188700Y29000D02*X189700D01*
X188200Y29500D02*X188700Y29000D01*
Y31000D02*X190200D01*
X184000Y17000D02*X186000D01*
X186500Y16500D01*
Y15500D01*
X186000Y15000D02*X186500Y15500D01*
X184500Y15000D02*X186000D01*
X184500Y17000D02*Y13000D01*
Y15000D02*X186500Y13000D01*
X187700Y16500D02*X188200Y17000D01*
X189700D01*
X190200Y16500D01*
Y15500D01*
X187700Y13000D02*X190200Y15500D01*
X187700Y13000D02*X190200D01*
X215000Y95000D02*X217000D01*
X217500Y94500D01*
Y93500D01*
X217000Y93000D02*X217500Y93500D01*
X215500Y93000D02*X217000D01*
X215500Y95000D02*Y91000D01*
Y93000D02*X217500Y91000D01*
X218700Y93000D02*X220700Y95000D01*
X218700Y93000D02*X221200D01*
X220700Y95000D02*Y91000D01*
X251500Y28500D02*Y26500D01*
X251000Y26000D01*
X250000D02*X251000D01*
X249500Y26500D02*X250000Y26000D01*
X249500Y28000D02*Y26500D01*
X247500Y28000D02*X251500D01*
X249500D02*X247500Y26000D01*
Y24300D02*Y23300D01*
Y23800D02*X251500D01*
X250500Y24800D02*X251500Y23800D01*
X279500Y55500D02*Y54000D01*
X280000Y56000D02*X279500Y55500D01*
X280000Y56000D02*X283000D01*
X283500Y55500D01*
Y54000D01*
X280000Y52800D02*X283000D01*
X283500Y52300D01*
Y51300D01*
X283000Y50800D01*
X280000D02*X283000D01*
X279500Y51300D02*X280000Y50800D01*
X279500Y52300D02*Y51300D01*
X280000Y52800D02*X279500Y52300D01*
Y49600D02*X283500D01*
X283000D02*X283500D01*
X283000D02*X280500Y47100D01*
X279500D02*X283500D01*
X279500Y45900D02*X283500D01*
X283000D02*X283500D01*
X283000D02*X280500Y43400D01*
X279500D02*X283500D01*
X279500Y41700D02*Y40700D01*
Y41200D02*X283500D01*
X282500Y42200D02*X283500Y41200D01*
X324500Y103000D02*X328000D01*
X324500D02*X324000Y102500D01*
Y101500D01*
X324500Y101000D01*
X328000D01*
X324000Y99300D02*Y98300D01*
Y98800D02*X328000D01*
X327000Y99800D02*X328000Y98800D01*
X384000Y135500D02*Y133500D01*
X383500Y133000D01*
X382500D02*X383500D01*
X382000Y133500D02*X382500Y133000D01*
X382000Y135000D02*Y133500D01*
X380000Y135000D02*X384000D01*
X382000D02*X380000Y133000D01*
X382000Y131800D02*X384000Y129800D01*
X382000Y131800D02*Y129300D01*
X380000Y129800D02*X384000D01*
X310500Y123250D02*Y121000D01*
X311250Y124000D02*X310500Y123250D01*
X311250Y124000D02*X315750D01*
X316500Y123250D01*
Y121000D01*
X315750Y119200D02*X316500Y118450D01*
Y116200D01*
X315750Y115450D01*
X314250D02*X315750D01*
X310500Y119200D02*X314250Y115450D01*
X310500Y119200D02*Y115450D01*
X280500Y94500D02*Y93000D01*
X281000Y95000D02*X280500Y94500D01*
X281000Y95000D02*X284000D01*
X284500Y94500D01*
Y93000D01*
X280500Y91300D02*Y90300D01*
Y90800D02*X284500D01*
X283500Y91800D02*X284500Y90800D01*
X304000Y76000D02*X305500D01*
X303500Y76500D02*X304000Y76000D01*
X303500Y79500D02*Y76500D01*
Y79500D02*X304000Y80000D01*
X305500D01*
X306700Y79500D02*X307200Y80000D01*
X308200D01*
X308700Y79500D01*
Y76500D01*
X308200Y76000D02*X308700Y76500D01*
X307200Y76000D02*X308200D01*
X306700Y76500D02*X307200Y76000D01*
Y78000D02*X308700D01*
X285241Y79024D02*X289241D01*
X285241Y80524D02*X285741Y81024D01*
X288741D01*
X289241Y80524D02*X288741Y81024D01*
X289241Y80524D02*Y78524D01*
X285241Y80524D02*Y78524D01*
X289241Y83724D02*Y82724D01*
X285241Y83224D02*X289241D01*
X286241Y82224D02*X285241Y83224D01*
X368500Y141500D02*X370500D01*
X368500D02*X368000Y142000D01*
Y143000D02*Y142000D01*
X368500Y143500D02*X368000Y143000D01*
X368500Y143500D02*X370000D01*
Y145500D02*Y141500D01*
Y143500D02*X368000Y145500D01*
X366800Y142000D02*X366300Y141500D01*
X364800D02*X366300D01*
X364800D02*X364300Y142000D01*
Y143000D02*Y142000D01*
X366800Y145500D02*X364300Y143000D01*
Y145500D02*X366800D01*
X326500Y46000D02*X330000D01*
X326500D02*X326000Y45500D01*
Y44500D01*
X326500Y44000D01*
X330000D01*
X329500Y42800D02*X330000Y42300D01*
Y40800D01*
X329500Y40300D01*
X328500D02*X329500D01*
X326000Y42800D02*X328500Y40300D01*
X326000Y42800D02*Y40300D01*
X331500Y86000D02*X333500D01*
X334000Y85500D01*
Y84500D01*
X333500Y84000D02*X334000Y84500D01*
X332000Y84000D02*X333500D01*
X332000Y86000D02*Y82000D01*
Y84000D02*X334000Y82000D01*
X335700D02*X336700D01*
X336200Y86000D02*Y82000D01*
X335200Y85000D02*X336200Y86000D01*
X331000Y60000D02*X333000D01*
X333500Y59500D01*
Y58500D01*
X333000Y58000D02*X333500Y58500D01*
X331500Y58000D02*X333000D01*
X331500Y60000D02*Y56000D01*
Y58000D02*X333500Y56000D01*
X334700Y59500D02*X335200Y60000D01*
X336200D01*
X336700Y59500D01*
Y56500D01*
X336200Y56000D02*X336700Y56500D01*
X335200Y56000D02*X336200D01*
X334700Y56500D02*X335200Y56000D01*
Y58000D02*X336700D01*
M02*
