G04 start of page 9 for group -4079 idx -4079 *
G04 Title: (unknown), topsilk *
G04 Creator: pcb 20110918 *
G04 CreationDate: Wed 29 Oct 2014 08:53:53 GMT UTC *
G04 For: ksarkies *
G04 Format: Gerber/RS-274X *
G04 PCB-Dimensions: 350000 210000 *
G04 PCB-Coordinate-Origin: lower left *
%MOIN*%
%FSLAX25Y25*%
%LNTOPSILK*%
%ADD79C,0.0200*%
%ADD78C,0.0100*%
%ADD77C,0.0060*%
%ADD76C,0.0001*%
G54D76*G36*
X56977Y87514D02*X59554D01*
X59637Y87482D01*
X59684Y87406D01*
X59733Y87167D01*
X59777Y86945D01*
X60168Y84813D01*
X60215Y84725D01*
X60298Y84667D01*
X60401Y84623D01*
X61191Y84352D01*
X61941Y83994D01*
X61947D01*
X62034Y83956D01*
X62131Y83942D01*
X62229Y83973D01*
X64002Y85192D01*
X64193Y85317D01*
X64394Y85453D01*
X64480Y85478D01*
X64562Y85442D01*
X64893Y85112D01*
X65397Y84612D01*
X65555Y84449D01*
X66054Y83951D01*
X66216Y83794D01*
X66384Y83620D01*
X66423Y83535D01*
X66401Y83446D01*
X66265Y83245D01*
X66136Y83055D01*
X64947Y81319D01*
X64915Y81227D01*
X64930Y81130D01*
X64975Y81031D01*
X65658Y79425D01*
X65695Y79334D01*
X65758Y79256D01*
X65848Y79209D01*
X67887Y78828D01*
X68111Y78785D01*
X68354Y78742D01*
X68429Y78695D01*
X68458Y78612D01*
Y76035D01*
X68429Y75946D01*
X68354Y75899D01*
X68111Y75856D01*
X67887Y75813D01*
X65908Y75444D01*
X65820Y75396D01*
X65766Y75313D01*
X65738Y75253D01*
Y75242D01*
X65023Y73469D01*
X65018Y73457D01*
X65001Y73414D01*
X64984Y73313D01*
X65012Y73219D01*
X66141Y71587D01*
X66265Y71396D01*
X66406Y71195D01*
X66425Y71109D01*
X66384Y71027D01*
X66216Y70848D01*
X66054Y70691D01*
X64736Y69373D01*
X64562Y69205D01*
X64480Y69164D01*
X64394Y69182D01*
X64193Y69324D01*
X64002Y69448D01*
X62408Y70545D01*
X62309Y70574D01*
X62212Y70555D01*
X61881Y70371D01*
X61687Y70262D01*
X61340Y70084D01*
X61255Y70078D01*
X61193Y70138D01*
X61047Y70495D01*
X60959Y70702D01*
X59576Y74060D01*
X59488Y74266D01*
X59391Y74499D01*
X59387Y74594D01*
X59440Y74667D01*
X59663Y74798D01*
X59804Y74906D01*
X60340Y75352D01*
X60755Y75916D01*
X61022Y76575D01*
X61116Y77305D01*
X61058Y77880D01*
X60893Y78414D01*
X60630Y78899D01*
X60281Y79321D01*
X59861Y79670D01*
X59377Y79934D01*
X58843Y80099D01*
X58269Y80157D01*
X57694Y80099D01*
X57159Y79934D01*
X56676Y79670D01*
X56254Y79321D01*
X55906Y78899D01*
X55644Y78414D01*
X55479Y77880D01*
X55420Y77305D01*
X55513Y76575D01*
X55780Y75916D01*
X56194Y75352D01*
X56733Y74906D01*
X56869Y74798D01*
X57091Y74667D01*
X57145Y74594D01*
X57140Y74499D01*
X57043Y74266D01*
X56955Y74060D01*
X55572Y70702D01*
X55486Y70495D01*
X55338Y70138D01*
X55277Y70078D01*
X55193Y70084D01*
X54851Y70262D01*
X54650Y70371D01*
X54319Y70555D01*
X54220Y70574D01*
X54123Y70545D01*
X52529Y69448D01*
X52344Y69324D01*
X52138Y69182D01*
X52051Y69164D01*
X51969Y69205D01*
X51795Y69373D01*
X51638Y69535D01*
X51140Y70034D01*
X50977Y70192D01*
X50477Y70691D01*
X50315Y70848D01*
X50147Y71027D01*
X50108Y71109D01*
X50130Y71195D01*
X50266Y71396D01*
X50397Y71587D01*
X51519Y73219D01*
X51547Y73313D01*
X51530Y73414D01*
X51508Y73474D01*
X50798Y75248D01*
X50765Y75313D01*
X50711Y75396D01*
X50625Y75444D01*
X48644Y75813D01*
X48422Y75856D01*
X48183Y75899D01*
X48104Y75949D01*
X48075Y76035D01*
Y78612D01*
X48104Y78695D01*
X48183Y78742D01*
X48422Y78791D01*
X48644Y78828D01*
X50684Y79209D01*
X50773Y79256D01*
X50836Y79339D01*
X50873Y79425D01*
X51562Y81031D01*
X51601Y81130D01*
X51618Y81227D01*
X51590Y81319D01*
X50397Y83060D01*
X50266Y83245D01*
X50130Y83446D01*
X50108Y83535D01*
X50147Y83620D01*
X50315Y83794D01*
X50477Y83951D01*
X51969Y85442D01*
X52051Y85478D01*
X52138Y85459D01*
X52344Y85323D01*
X52529Y85192D01*
X54302Y83973D01*
X54400Y83944D01*
X54498Y83962D01*
X54584Y83994D01*
X54595Y83999D01*
X55341Y84353D01*
X56131Y84628D01*
X56234Y84667D01*
X56318Y84725D01*
X56363Y84813D01*
X56761Y86945D01*
X56798Y87167D01*
X56847Y87406D01*
X56894Y87482D01*
X56977Y87514D01*
G37*
G54D77*X186500Y7000D02*Y3000D01*
X186000Y7000D02*X188000D01*
X188500Y6500D01*
Y5500D01*
X188000Y5000D02*X188500Y5500D01*
X186500Y5000D02*X188000D01*
X190200Y4500D02*Y3000D01*
Y4500D02*X190700Y5000D01*
X191700D01*
X189700D02*X190200Y4500D01*
X192900D02*Y3500D01*
Y4500D02*X193400Y5000D01*
X194400D01*
X194900Y4500D01*
Y3500D01*
X194400Y3000D02*X194900Y3500D01*
X193400Y3000D02*X194400D01*
X192900Y3500D02*X193400Y3000D01*
X197600Y5000D02*X198100Y4500D01*
X196600Y5000D02*X197600D01*
X196100Y4500D02*X196600Y5000D01*
X196100Y4500D02*Y3500D01*
X196600Y3000D01*
X197600D01*
X198100Y3500D01*
X196100Y2000D02*X196600Y1500D01*
X197600D01*
X198100Y2000D01*
Y5000D02*Y2000D01*
X199800Y4500D02*Y3000D01*
Y4500D02*X200300Y5000D01*
X201300D01*
X199300D02*X199800Y4500D01*
X204000Y5000D02*X204500Y4500D01*
X203000Y5000D02*X204000D01*
X202500Y4500D02*X203000Y5000D01*
X202500Y4500D02*Y3500D01*
X203000Y3000D01*
X204500Y5000D02*Y3500D01*
X205000Y3000D01*
X203000D02*X204000D01*
X204500Y3500D01*
X206700Y4500D02*Y3000D01*
Y4500D02*X207200Y5000D01*
X207700D01*
X208200Y4500D01*
Y3000D01*
Y4500D02*X208700Y5000D01*
X209200D01*
X209700Y4500D01*
Y3000D01*
X206200Y5000D02*X206700Y4500D01*
X212700Y7000D02*Y3000D01*
Y7000D02*X214200Y5500D01*
X215700Y7000D01*
Y3000D01*
X216900Y4500D02*Y3500D01*
Y4500D02*X217400Y5000D01*
X218400D01*
X218900Y4500D01*
Y3500D01*
X218400Y3000D02*X218900Y3500D01*
X217400Y3000D02*X218400D01*
X216900Y3500D02*X217400Y3000D01*
X222100Y7000D02*Y3000D01*
X221600D02*X222100Y3500D01*
X220600Y3000D02*X221600D01*
X220100Y3500D02*X220600Y3000D01*
X220100Y4500D02*Y3500D01*
Y4500D02*X220600Y5000D01*
X221600D01*
X222100Y4500D01*
X223800Y3000D02*X225300D01*
X223300Y3500D02*X223800Y3000D01*
X223300Y4500D02*Y3500D01*
Y4500D02*X223800Y5000D01*
X224800D01*
X225300Y4500D01*
X223300Y4000D02*X225300D01*
Y4500D02*Y4000D01*
X238000Y7000D02*X239000D01*
X238500D02*Y3000D01*
X238000D02*X239000D01*
X240700Y4500D02*Y3000D01*
Y4500D02*X241200Y5000D01*
X241700D01*
X242200Y4500D01*
Y3000D01*
X240200Y5000D02*X240700Y4500D01*
X245700Y7000D02*Y3000D01*
X245200Y7000D02*X247200D01*
X247700Y6500D01*
Y5500D01*
X247200Y5000D02*X247700Y5500D01*
X245700Y5000D02*X247200D01*
X249400Y4500D02*Y3000D01*
Y4500D02*X249900Y5000D01*
X250900D01*
X248900D02*X249400Y4500D01*
X252100D02*Y3500D01*
Y4500D02*X252600Y5000D01*
X253600D01*
X254100Y4500D01*
Y3500D01*
X253600Y3000D02*X254100Y3500D01*
X252600Y3000D02*X253600D01*
X252100Y3500D02*X252600Y3000D01*
X256800Y5000D02*X257300Y4500D01*
X255800Y5000D02*X256800D01*
X255300Y4500D02*X255800Y5000D01*
X255300Y4500D02*Y3500D01*
X255800Y3000D01*
X256800D01*
X257300Y3500D01*
X255300Y2000D02*X255800Y1500D01*
X256800D01*
X257300Y2000D01*
Y5000D02*Y2000D01*
X259000Y4500D02*Y3000D01*
Y4500D02*X259500Y5000D01*
X260500D01*
X258500D02*X259000Y4500D01*
X262200Y3000D02*X263700D01*
X261700Y3500D02*X262200Y3000D01*
X261700Y4500D02*Y3500D01*
Y4500D02*X262200Y5000D01*
X263200D01*
X263700Y4500D01*
X261700Y4000D02*X263700D01*
Y4500D02*Y4000D01*
X265400Y3000D02*X266900D01*
X267400Y3500D01*
X266900Y4000D02*X267400Y3500D01*
X265400Y4000D02*X266900D01*
X264900Y4500D02*X265400Y4000D01*
X264900Y4500D02*X265400Y5000D01*
X266900D01*
X267400Y4500D01*
X264900Y3500D02*X265400Y3000D01*
X269100D02*X270600D01*
X271100Y3500D01*
X270600Y4000D02*X271100Y3500D01*
X269100Y4000D02*X270600D01*
X268600Y4500D02*X269100Y4000D01*
X268600Y4500D02*X269100Y5000D01*
X270600D01*
X271100Y4500D01*
X268600Y3500D02*X269100Y3000D01*
X77500Y60900D02*Y59100D01*
X78100Y58500D01*
X78700D01*
X79300Y59100D01*
Y60900D02*Y59100D01*
X79900Y58500D01*
X80500D01*
X81100Y59100D01*
Y60900D02*Y59100D01*
X82540Y60900D02*Y59100D01*
X83140Y58500D01*
X83740D01*
X84340Y59100D01*
Y60900D02*Y59100D01*
X84940Y58500D01*
X85540D01*
X86140Y59100D01*
Y60900D02*Y59100D01*
X87580Y60900D02*Y59100D01*
X88180Y58500D01*
X88780D01*
X89380Y59100D01*
Y60900D02*Y59100D01*
X89980Y58500D01*
X90580D01*
X91180Y59100D01*
Y60900D02*Y59100D01*
X92620Y58500D02*X93220D01*
X95260Y62100D02*Y61500D01*
Y60300D02*Y57300D01*
X94660Y56700D02*X95260Y57300D01*
X96460Y62100D02*Y61500D01*
Y60300D02*Y58500D01*
X99460Y60900D02*X100060Y60300D01*
X98260Y60900D02*X99460D01*
X97660Y60300D02*X98260Y60900D01*
X97660Y60300D02*Y59100D01*
X98260Y58500D01*
X99460D01*
X100060Y59100D01*
X97660Y57300D02*X98260Y56700D01*
X99460D01*
X100060Y57300D01*
Y60900D02*Y57300D01*
X103300Y60900D02*X103900Y60300D01*
X102100Y60900D02*X103300D01*
X101500Y60300D02*X102100Y60900D01*
X101500Y60300D02*Y59100D01*
X102100Y58500D01*
X103300D01*
X103900Y59100D01*
X101500Y57300D02*X102100Y56700D01*
X103300D01*
X103900Y57300D01*
Y60900D02*Y57300D01*
X105940Y58500D02*X107740D01*
X105340Y59100D02*X105940Y58500D01*
X105340Y60300D02*Y59100D01*
Y60300D02*X105940Y60900D01*
X107140D01*
X107740Y60300D01*
X105340Y59700D02*X107740D01*
Y60300D02*Y59700D01*
X109780Y60300D02*Y58500D01*
Y60300D02*X110380Y60900D01*
X111580D01*
X109180D02*X109780Y60300D01*
X113620Y62100D02*Y61500D01*
Y60300D02*Y57300D01*
X113020Y56700D02*X113620Y57300D01*
X114820Y60900D02*Y59100D01*
X115420Y58500D01*
X116620D01*
X117220Y59100D01*
Y60900D02*Y59100D01*
X118660Y62100D02*Y61500D01*
Y60300D02*Y58500D01*
X120460Y60900D02*X122260D01*
X119860Y60300D02*X120460Y60900D01*
X119860Y60300D02*Y59100D01*
X120460Y58500D01*
X122260D01*
X124300D02*X126100D01*
X123700Y59100D02*X124300Y58500D01*
X123700Y60300D02*Y59100D01*
Y60300D02*X124300Y60900D01*
X125500D01*
X126100Y60300D01*
X123700Y59700D02*X126100D01*
Y60300D02*Y59700D01*
X127540Y58500D02*X128140D01*
X129580Y62100D02*Y61500D01*
Y60300D02*Y58500D01*
X131380Y60300D02*Y58500D01*
Y60300D02*X131980Y60900D01*
X132580D01*
X133180Y60300D01*
Y58500D01*
X130780Y60900D02*X131380Y60300D01*
X135220Y62700D02*Y58500D01*
Y62700D02*X135820Y63300D01*
X136420D01*
X134620Y60900D02*X135820D01*
X137620Y60300D02*Y59100D01*
Y60300D02*X138220Y60900D01*
X139420D01*
X140020Y60300D01*
Y59100D01*
X139420Y58500D02*X140020Y59100D01*
X138220Y58500D02*X139420D01*
X137620Y59100D02*X138220Y58500D01*
X70500Y72800D02*Y69200D01*
X71700Y68000D01*
X72900Y69200D01*
Y72800D02*Y69200D01*
X74940Y68000D02*X76740D01*
X74340Y68600D02*X74940Y68000D01*
X74340Y69800D02*Y68600D01*
Y69800D02*X74940Y70400D01*
X76140D01*
X76740Y69800D01*
X74340Y69200D02*X76740D01*
Y69800D02*Y69200D01*
X78780Y69800D02*Y68000D01*
Y69800D02*X79380Y70400D01*
X80580D01*
X78180D02*X78780Y69800D01*
X82620Y68000D02*X84420D01*
X85020Y68600D01*
X84420Y69200D02*X85020Y68600D01*
X82620Y69200D02*X84420D01*
X82020Y69800D02*X82620Y69200D01*
X82020Y69800D02*X82620Y70400D01*
X84420D01*
X85020Y69800D01*
X82020Y68600D02*X82620Y68000D01*
X86460Y71600D02*Y71000D01*
Y69800D02*Y68000D01*
X87660Y69800D02*Y68600D01*
Y69800D02*X88260Y70400D01*
X89460D01*
X90060Y69800D01*
Y68600D01*
X89460Y68000D02*X90060Y68600D01*
X88260Y68000D02*X89460D01*
X87660Y68600D02*X88260Y68000D01*
X92100Y69800D02*Y68000D01*
Y69800D02*X92700Y70400D01*
X93300D01*
X93900Y69800D01*
Y68000D01*
X91500Y70400D02*X92100Y69800D01*
X97500Y68600D02*X98100Y68000D01*
X97500Y72200D02*Y68600D01*
Y72200D02*X98100Y72800D01*
X99300D01*
X99900Y72200D01*
Y68600D01*
X99300Y68000D02*X99900Y68600D01*
X98100Y68000D02*X99300D01*
X97500Y69200D02*X99900Y71600D01*
X101340Y68000D02*X101940D01*
X103380Y68600D02*X103980Y68000D01*
X103380Y72200D02*Y68600D01*
Y72200D02*X103980Y72800D01*
X105180D01*
X105780Y72200D01*
Y68600D01*
X105180Y68000D02*X105780Y68600D01*
X103980Y68000D02*X105180D01*
X103380Y69200D02*X105780Y71600D01*
X109380Y72800D02*Y68000D01*
X111780D01*
X113220Y71600D02*Y71000D01*
Y69800D02*Y68000D01*
X115020Y70400D02*X116820D01*
X114420Y69800D02*X115020Y70400D01*
X114420Y69800D02*Y68600D01*
X115020Y68000D01*
X116820D01*
X118860D02*X120660D01*
X118260Y68600D02*X118860Y68000D01*
X118260Y69800D02*Y68600D01*
Y69800D02*X118860Y70400D01*
X120060D01*
X120660Y69800D01*
X118260Y69200D02*X120660D01*
Y69800D02*Y69200D01*
X122700Y69800D02*Y68000D01*
Y69800D02*X123300Y70400D01*
X123900D01*
X124500Y69800D01*
Y68000D01*
X122100Y70400D02*X122700Y69800D01*
X126540Y70400D02*X128340D01*
X125940Y69800D02*X126540Y70400D01*
X125940Y69800D02*Y68600D01*
X126540Y68000D01*
X128340D01*
X130380D02*X132180D01*
X129780Y68600D02*X130380Y68000D01*
X129780Y69800D02*Y68600D01*
Y69800D02*X130380Y70400D01*
X131580D01*
X132180Y69800D01*
X129780Y69200D02*X132180D01*
Y69800D02*Y69200D01*
X136380Y70400D02*X138180D01*
X135780Y69800D02*X136380Y70400D01*
X135780Y69800D02*Y68600D01*
X136380Y68000D01*
X138180D01*
X140220Y70400D02*X142020D01*
X139620Y69800D02*X140220Y70400D01*
X139620Y69800D02*Y68600D01*
X140220Y68000D01*
X142020D01*
X143460Y70400D02*X145860D01*
X147300Y72800D02*Y68000D01*
Y68600D02*X147900Y68000D01*
X149100D01*
X149700Y68600D01*
Y69800D02*Y68600D01*
X149100Y70400D02*X149700Y69800D01*
X147900Y70400D02*X149100D01*
X147300Y69800D02*X147900Y70400D01*
X151140D02*Y68600D01*
X151740Y68000D01*
X153540Y70400D02*Y66800D01*
X152940Y66200D02*X153540Y66800D01*
X151740Y66200D02*X152940D01*
X151140Y66800D02*X151740Y66200D01*
Y68000D02*X152940D01*
X153540Y68600D01*
X154980Y70400D02*X157380D01*
X159420Y68000D02*X161220D01*
X161820Y68600D01*
X161220Y69200D02*X161820Y68600D01*
X159420Y69200D02*X161220D01*
X158820Y69800D02*X159420Y69200D01*
X158820Y69800D02*X159420Y70400D01*
X161220D01*
X161820Y69800D01*
X158820Y68600D02*X159420Y68000D01*
X165060Y70400D02*X165660Y69800D01*
X163860Y70400D02*X165060D01*
X163260Y69800D02*X163860Y70400D01*
X163260Y69800D02*Y68600D01*
X163860Y68000D01*
X165660Y70400D02*Y68600D01*
X166260Y68000D01*
X163860D02*X165060D01*
X165660Y68600D01*
X75500Y81300D02*Y76500D01*
Y78900D02*X77900Y81300D01*
X75500Y78900D02*X77900Y76500D01*
X79340D02*X79940D01*
X83540Y81300D02*Y76500D01*
X85340Y78300D01*
X87140Y76500D01*
Y81300D02*Y76500D01*
X88580D02*X89180D01*
X95180Y81300D02*X95780Y80700D01*
X93380Y81300D02*X95180D01*
X92780Y80700D02*X93380Y81300D01*
X92780Y80700D02*Y79500D01*
X93380Y78900D01*
X95180D01*
X95780Y78300D01*
Y77100D01*
X95180Y76500D02*X95780Y77100D01*
X93380Y76500D02*X95180D01*
X92780Y77100D02*X93380Y76500D01*
X99020Y78900D02*X99620Y78300D01*
X97820Y78900D02*X99020D01*
X97220Y78300D02*X97820Y78900D01*
X97220Y78300D02*Y77100D01*
X97820Y76500D01*
X99620Y78900D02*Y77100D01*
X100220Y76500D01*
X97820D02*X99020D01*
X99620Y77100D01*
X102260Y78300D02*Y76500D01*
Y78300D02*X102860Y78900D01*
X104060D01*
X101660D02*X102260Y78300D01*
X105500Y81300D02*Y76500D01*
Y78300D02*X107300Y76500D01*
X105500Y78300D02*X106700Y79500D01*
X108740Y80100D02*Y79500D01*
Y78300D02*Y76500D01*
X110540D02*X112340D01*
X109940Y77100D02*X110540Y76500D01*
X109940Y78300D02*Y77100D01*
Y78300D02*X110540Y78900D01*
X111740D01*
X112340Y78300D01*
X109940Y77700D02*X112340D01*
Y78300D02*Y77700D01*
X114380Y76500D02*X116180D01*
X116780Y77100D01*
X116180Y77700D02*X116780Y77100D01*
X114380Y77700D02*X116180D01*
X113780Y78300D02*X114380Y77700D01*
X113780Y78300D02*X114380Y78900D01*
X116180D01*
X116780Y78300D01*
X113780Y77100D02*X114380Y76500D01*
X120380Y80700D02*X120980Y81300D01*
X122780D01*
X123380Y80700D01*
Y79500D01*
X120380Y76500D02*X123380Y79500D01*
X120380Y76500D02*X123380D01*
X124820Y80700D02*X125420Y81300D01*
X126620D01*
X127220Y80700D01*
Y77100D01*
X126620Y76500D02*X127220Y77100D01*
X125420Y76500D02*X126620D01*
X124820Y77100D02*X125420Y76500D01*
Y78900D02*X127220D01*
X128660Y77100D02*X132260Y80700D01*
X134300Y76500D02*X135500D01*
X134900Y81300D02*Y76500D01*
X133700Y80100D02*X134900Y81300D01*
X136940Y77100D02*X137540Y76500D01*
X136940Y80700D02*Y77100D01*
Y80700D02*X137540Y81300D01*
X138740D01*
X139340Y80700D01*
Y77100D01*
X138740Y76500D02*X139340Y77100D01*
X137540Y76500D02*X138740D01*
X136940Y77700D02*X139340Y80100D01*
X140780Y77100D02*X144380Y80700D01*
X145820D02*X146420Y81300D01*
X148220D01*
X148820Y80700D01*
Y79500D01*
X145820Y76500D02*X148820Y79500D01*
X145820Y76500D02*X148820D01*
X150260Y77100D02*X150860Y76500D01*
X150260Y80700D02*Y77100D01*
Y80700D02*X150860Y81300D01*
X152060D01*
X152660Y80700D01*
Y77100D01*
X152060Y76500D02*X152660Y77100D01*
X150860Y76500D02*X152060D01*
X150260Y77700D02*X152660Y80100D01*
X154700Y76500D02*X155900D01*
X155300Y81300D02*Y76500D01*
X154100Y80100D02*X155300Y81300D01*
X157340Y78900D02*X159740Y81300D01*
X157340Y78900D02*X160340D01*
X159740Y81300D02*Y76500D01*
X78000Y88700D02*Y84500D01*
Y88700D02*X78600Y89300D01*
X80400D01*
X81000Y88700D01*
Y84500D01*
X78000Y86900D02*X81000D01*
X82440Y89300D02*Y85700D01*
X83640Y84500D01*
X84840Y85700D01*
Y89300D02*Y85700D01*
X86280Y89300D02*X88680D01*
X89280Y88700D01*
Y87500D01*
X88680Y86900D02*X89280Y87500D01*
X86880Y86900D02*X88680D01*
X86880Y89300D02*Y84500D01*
Y86900D02*X89280Y84500D01*
X95280Y89300D02*X95880Y88700D01*
X93480Y89300D02*X95280D01*
X92880Y88700D02*X93480Y89300D01*
X92880Y88700D02*Y87500D01*
X93480Y86900D01*
X95280D01*
X95880Y86300D01*
Y85100D01*
X95280Y84500D02*X95880Y85100D01*
X93480Y84500D02*X95280D01*
X92880Y85100D02*X93480Y84500D01*
X97920D02*X99720D01*
X97320Y85100D02*X97920Y84500D01*
X97320Y86300D02*Y85100D01*
Y86300D02*X97920Y86900D01*
X99120D01*
X99720Y86300D01*
X97320Y85700D02*X99720D01*
Y86300D02*Y85700D01*
X101760Y86300D02*Y84500D01*
Y86300D02*X102360Y86900D01*
X103560D01*
X101160D02*X101760Y86300D01*
X105000Y88100D02*Y87500D01*
Y86300D02*Y84500D01*
X108000Y86900D02*X108600Y86300D01*
X106800Y86900D02*X108000D01*
X106200Y86300D02*X106800Y86900D01*
X106200Y86300D02*Y85100D01*
X106800Y84500D01*
X108600Y86900D02*Y85100D01*
X109200Y84500D01*
X106800D02*X108000D01*
X108600Y85100D01*
X110640Y89300D02*Y85100D01*
X111240Y84500D01*
X115200Y89300D02*Y84500D01*
X114600Y89300D02*X117000D01*
X117600Y88700D01*
Y87500D01*
X117000Y86900D02*X117600Y87500D01*
X115200Y86900D02*X117000D01*
X119640Y86300D02*Y84500D01*
Y86300D02*X120240Y86900D01*
X121440D01*
X119040D02*X119640Y86300D01*
X122880D02*Y85100D01*
Y86300D02*X123480Y86900D01*
X124680D01*
X125280Y86300D01*
Y85100D01*
X124680Y84500D02*X125280Y85100D01*
X123480Y84500D02*X124680D01*
X122880Y85100D02*X123480Y84500D01*
X128520Y86900D02*X129120Y86300D01*
X127320Y86900D02*X128520D01*
X126720Y86300D02*X127320Y86900D01*
X126720Y86300D02*Y85100D01*
X127320Y84500D01*
X128520D01*
X129120Y85100D01*
X126720Y83300D02*X127320Y82700D01*
X128520D01*
X129120Y83300D01*
Y86900D02*Y83300D01*
X131160Y86300D02*Y84500D01*
Y86300D02*X131760Y86900D01*
X132960D01*
X130560D02*X131160Y86300D01*
X136200Y86900D02*X136800Y86300D01*
X135000Y86900D02*X136200D01*
X134400Y86300D02*X135000Y86900D01*
X134400Y86300D02*Y85100D01*
X135000Y84500D01*
X136800Y86900D02*Y85100D01*
X137400Y84500D01*
X135000D02*X136200D01*
X136800Y85100D01*
X139440Y86300D02*Y84500D01*
Y86300D02*X140040Y86900D01*
X140640D01*
X141240Y86300D01*
Y84500D01*
Y86300D02*X141840Y86900D01*
X142440D01*
X143040Y86300D01*
Y84500D01*
X138840Y86900D02*X139440Y86300D01*
X145080D02*Y84500D01*
Y86300D02*X145680Y86900D01*
X146280D01*
X146880Y86300D01*
Y84500D01*
Y86300D02*X147480Y86900D01*
X148080D01*
X148680Y86300D01*
Y84500D01*
X144480Y86900D02*X145080Y86300D01*
X150720Y84500D02*X152520D01*
X150120Y85100D02*X150720Y84500D01*
X150120Y86300D02*Y85100D01*
Y86300D02*X150720Y86900D01*
X151920D01*
X152520Y86300D01*
X150120Y85700D02*X152520D01*
Y86300D02*Y85700D01*
X154560Y86300D02*Y84500D01*
Y86300D02*X155160Y86900D01*
X156360D01*
X153960D02*X154560Y86300D01*
X44500Y8000D02*Y4000D01*
X44000Y8000D02*X46000D01*
X46500Y7500D01*
Y6500D01*
X46000Y6000D02*X46500Y6500D01*
X44500Y6000D02*X46000D01*
X47700Y5500D02*Y4500D01*
Y5500D02*X48200Y6000D01*
X49200D01*
X49700Y5500D01*
Y4500D01*
X49200Y4000D02*X49700Y4500D01*
X48200Y4000D02*X49200D01*
X47700Y4500D02*X48200Y4000D01*
X50900Y6000D02*Y4500D01*
X51400Y4000D01*
X51900D01*
X52400Y4500D01*
Y6000D02*Y4500D01*
X52900Y4000D01*
X53400D01*
X53900Y4500D01*
Y6000D02*Y4500D01*
X55600Y4000D02*X57100D01*
X55100Y4500D02*X55600Y4000D01*
X55100Y5500D02*Y4500D01*
Y5500D02*X55600Y6000D01*
X56600D01*
X57100Y5500D01*
X55100Y5000D02*X57100D01*
Y5500D02*Y5000D01*
X58800Y5500D02*Y4000D01*
Y5500D02*X59300Y6000D01*
X60300D01*
X58300D02*X58800Y5500D01*
X64000Y31000D02*X64500Y30500D01*
X62500Y31000D02*X64000D01*
X62000Y30500D02*X62500Y31000D01*
X62000Y30500D02*Y27500D01*
X62500Y27000D01*
X64000D01*
X64500Y27500D01*
Y28500D02*Y27500D01*
X64000Y29000D02*X64500Y28500D01*
X63000Y29000D02*X64000D01*
X66200Y28500D02*Y27000D01*
Y28500D02*X66700Y29000D01*
X67200D01*
X67700Y28500D01*
Y27000D01*
X65700Y29000D02*X66200Y28500D01*
X70900Y31000D02*Y27000D01*
X70400D02*X70900Y27500D01*
X69400Y27000D02*X70400D01*
X68900Y27500D02*X69400Y27000D01*
X68900Y28500D02*Y27500D01*
Y28500D02*X69400Y29000D01*
X70400D01*
X70900Y28500D01*
X33500D02*X35500D01*
X34500Y29500D02*Y27500D01*
X36700Y30500D02*X38700D01*
X36700D02*Y28500D01*
X37200Y29000D01*
X38200D01*
X38700Y28500D01*
Y27000D01*
X38200Y26500D02*X38700Y27000D01*
X37200Y26500D02*X38200D01*
X36700Y27000D02*X37200Y26500D01*
X39900Y30500D02*Y27500D01*
X40900Y26500D01*
X41900Y27500D01*
Y30500D02*Y27500D01*
X132500Y7000D02*Y3000D01*
X132000Y7000D02*X134000D01*
X134500Y6500D01*
Y5500D01*
X134000Y5000D02*X134500Y5500D01*
X132500Y5000D02*X134000D01*
X137200D02*X137700Y4500D01*
X136200Y5000D02*X137200D01*
X135700Y4500D02*X136200Y5000D01*
X135700Y4500D02*Y3500D01*
X136200Y3000D01*
X137700Y5000D02*Y3500D01*
X138200Y3000D01*
X136200D02*X137200D01*
X137700Y3500D01*
X139900Y3000D02*X141400D01*
X141900Y3500D01*
X141400Y4000D02*X141900Y3500D01*
X139900Y4000D02*X141400D01*
X139400Y4500D02*X139900Y4000D01*
X139400Y4500D02*X139900Y5000D01*
X141400D01*
X141900Y4500D01*
X139400Y3500D02*X139900Y3000D01*
X143600D02*X145100D01*
X145600Y3500D01*
X145100Y4000D02*X145600Y3500D01*
X143600Y4000D02*X145100D01*
X143100Y4500D02*X143600Y4000D01*
X143100Y4500D02*X143600Y5000D01*
X145100D01*
X145600Y4500D01*
X143100Y3500D02*X143600Y3000D01*
X147300Y7000D02*Y3500D01*
X147800Y3000D01*
X146800Y5500D02*X147800D01*
X148800Y7000D02*Y3000D01*
Y4500D02*X149300Y5000D01*
X150300D01*
X150800Y4500D01*
Y3000D01*
X152500Y4500D02*Y3000D01*
Y4500D02*X153000Y5000D01*
X154000D01*
X152000D02*X152500Y4500D01*
X155200D02*Y3500D01*
Y4500D02*X155700Y5000D01*
X156700D01*
X157200Y4500D01*
Y3500D01*
X156700Y3000D02*X157200Y3500D01*
X155700Y3000D02*X156700D01*
X155200Y3500D02*X155700Y3000D01*
X158400Y5000D02*Y3500D01*
X158900Y3000D01*
X159900D01*
X160400Y3500D01*
Y5000D02*Y3500D01*
X163100Y5000D02*X163600Y4500D01*
X162100Y5000D02*X163100D01*
X161600Y4500D02*X162100Y5000D01*
X161600Y4500D02*Y3500D01*
X162100Y3000D01*
X163100D01*
X163600Y3500D01*
X161600Y2000D02*X162100Y1500D01*
X163100D01*
X163600Y2000D01*
Y5000D02*Y2000D01*
X164800Y7000D02*Y3000D01*
Y4500D02*X165300Y5000D01*
X166300D01*
X166800Y4500D01*
Y3000D01*
X185000Y205000D02*X187000D01*
X187500Y204500D01*
Y203500D01*
X187000Y203000D02*X187500Y203500D01*
X185500Y203000D02*X187000D01*
X185500Y205000D02*Y201000D01*
Y203000D02*X187500Y201000D01*
X189200D02*X190700D01*
X188700Y201500D02*X189200Y201000D01*
X188700Y202500D02*Y201500D01*
Y202500D02*X189200Y203000D01*
X190200D01*
X190700Y202500D01*
X188700Y202000D02*X190700D01*
Y202500D02*Y202000D01*
X192400Y201000D02*X193900D01*
X194400Y201500D01*
X193900Y202000D02*X194400Y201500D01*
X192400Y202000D02*X193900D01*
X191900Y202500D02*X192400Y202000D01*
X191900Y202500D02*X192400Y203000D01*
X193900D01*
X194400Y202500D01*
X191900Y201500D02*X192400Y201000D01*
X196100D02*X197600D01*
X195600Y201500D02*X196100Y201000D01*
X195600Y202500D02*Y201500D01*
Y202500D02*X196100Y203000D01*
X197100D01*
X197600Y202500D01*
X195600Y202000D02*X197600D01*
Y202500D02*Y202000D01*
X199300Y205000D02*Y201500D01*
X199800Y201000D01*
X198800Y203500D02*X199800D01*
X223500D02*Y199500D01*
Y203500D02*X225500D01*
X223500Y201500D02*X225000D01*
X226700Y202500D02*Y202000D01*
Y201000D02*Y199500D01*
X228200Y201000D02*Y199500D01*
Y201000D02*X228700Y201500D01*
X229700D01*
X227700D02*X228200Y201000D01*
X231400D02*Y199500D01*
Y201000D02*X231900Y201500D01*
X232400D01*
X232900Y201000D01*
Y199500D01*
Y201000D02*X233400Y201500D01*
X233900D01*
X234400Y201000D01*
Y199500D01*
X230900Y201500D02*X231400Y201000D01*
X235600Y201500D02*Y200000D01*
X236100Y199500D01*
X236600D01*
X237100Y200000D01*
Y201500D02*Y200000D01*
X237600Y199500D01*
X238100D01*
X238600Y200000D01*
Y201500D02*Y200000D01*
X241300Y201500D02*X241800Y201000D01*
X240300Y201500D02*X241300D01*
X239800Y201000D02*X240300Y201500D01*
X239800Y201000D02*Y200000D01*
X240300Y199500D01*
X241800Y201500D02*Y200000D01*
X242300Y199500D01*
X240300D02*X241300D01*
X241800Y200000D01*
X244000Y201000D02*Y199500D01*
Y201000D02*X244500Y201500D01*
X245500D01*
X243500D02*X244000Y201000D01*
X247200Y199500D02*X248700D01*
X246700Y200000D02*X247200Y199500D01*
X246700Y201000D02*Y200000D01*
Y201000D02*X247200Y201500D01*
X248200D01*
X248700Y201000D01*
X246700Y200500D02*X248700D01*
Y201000D02*Y200500D01*
X225000Y197500D02*Y194000D01*
X225500Y193500D01*
X226500D01*
X227000Y194000D01*
Y197500D02*Y194000D01*
X228700Y195000D02*Y192000D01*
X228200Y195500D02*X228700Y195000D01*
X229200Y195500D01*
X230200D01*
X230700Y195000D01*
Y194000D01*
X230200Y193500D02*X230700Y194000D01*
X229200Y193500D02*X230200D01*
X228700Y194000D02*X229200Y193500D01*
X233400Y195500D02*X233900Y195000D01*
X232400Y195500D02*X233400D01*
X231900Y195000D02*X232400Y195500D01*
X231900Y195000D02*Y194000D01*
X232400Y193500D01*
X233400D01*
X233900Y194000D01*
X231900Y192500D02*X232400Y192000D01*
X233400D01*
X233900Y192500D01*
Y195500D02*Y192500D01*
X235600Y195000D02*Y193500D01*
Y195000D02*X236100Y195500D01*
X237100D01*
X235100D02*X235600Y195000D01*
X239800Y195500D02*X240300Y195000D01*
X238800Y195500D02*X239800D01*
X238300Y195000D02*X238800Y195500D01*
X238300Y195000D02*Y194000D01*
X238800Y193500D01*
X240300Y195500D02*Y194000D01*
X240800Y193500D01*
X238800D02*X239800D01*
X240300Y194000D01*
X244000Y197500D02*Y193500D01*
X243500D02*X244000Y194000D01*
X242500Y193500D02*X243500D01*
X242000Y194000D02*X242500Y193500D01*
X242000Y195000D02*Y194000D01*
Y195000D02*X242500Y195500D01*
X243500D01*
X244000Y195000D01*
X245700Y193500D02*X247200D01*
X245200Y194000D02*X245700Y193500D01*
X245200Y195000D02*Y194000D01*
Y195000D02*X245700Y195500D01*
X246700D01*
X247200Y195000D01*
X245200Y194500D02*X247200D01*
Y195000D02*Y194500D01*
X9000Y38500D02*X11000D01*
X10000D02*Y34500D01*
X13700Y36500D02*X14200Y36000D01*
X12700Y36500D02*X13700D01*
X12200Y36000D02*X12700Y36500D01*
X12200Y36000D02*Y35000D01*
X12700Y34500D01*
X14200Y36500D02*Y35000D01*
X14700Y34500D01*
X12700D02*X13700D01*
X14200Y35000D01*
X16400Y36000D02*Y34500D01*
Y36000D02*X16900Y36500D01*
X17900D01*
X15900D02*X16400Y36000D01*
X20600Y36500D02*X21100Y36000D01*
X19600Y36500D02*X20600D01*
X19100Y36000D02*X19600Y36500D01*
X19100Y36000D02*Y35000D01*
X19600Y34500D01*
X20600D01*
X21100Y35000D01*
X19100Y33500D02*X19600Y33000D01*
X20600D01*
X21100Y33500D01*
Y36500D02*Y33500D01*
X22800Y34500D02*X24300D01*
X22300Y35000D02*X22800Y34500D01*
X22300Y36000D02*Y35000D01*
Y36000D02*X22800Y36500D01*
X23800D01*
X24300Y36000D01*
X22300Y35500D02*X24300D01*
Y36000D02*Y35500D01*
X26000Y38500D02*Y35000D01*
X26500Y34500D01*
X25500Y37000D02*X26500D01*
X335000Y40000D02*Y36000D01*
X334500Y40000D02*X336500D01*
X337000Y39500D01*
Y38500D01*
X336500Y38000D02*X337000Y38500D01*
X335000Y38000D02*X336500D01*
X338700Y36000D02*X340200D01*
X338200Y36500D02*X338700Y36000D01*
X338200Y39500D02*Y36500D01*
Y39500D02*X338700Y40000D01*
X340200D01*
X280500Y109500D02*Y105500D01*
Y109500D02*Y109000D01*
X283000Y106500D01*
Y109500D02*Y105500D01*
X284200Y107000D02*Y106000D01*
Y107000D02*X284700Y107500D01*
X285700D01*
X286200Y107000D01*
Y106000D01*
X285700Y105500D02*X286200Y106000D01*
X284700Y105500D02*X285700D01*
X284200Y106000D02*X284700Y105500D01*
X287900Y107000D02*Y105500D01*
Y107000D02*X288400Y107500D01*
X289400D01*
X287400D02*X287900Y107000D01*
X291100D02*Y105500D01*
Y107000D02*X291600Y107500D01*
X292100D01*
X292600Y107000D01*
Y105500D01*
Y107000D02*X293100Y107500D01*
X293600D01*
X294100Y107000D01*
Y105500D01*
X290600Y107500D02*X291100Y107000D01*
X296800Y107500D02*X297300Y107000D01*
X295800Y107500D02*X296800D01*
X295300Y107000D02*X295800Y107500D01*
X295300Y107000D02*Y106000D01*
X295800Y105500D01*
X297300Y107500D02*Y106000D01*
X297800Y105500D01*
X295800D02*X296800D01*
X297300Y106000D01*
X299000Y109500D02*Y106000D01*
X299500Y105500D01*
X278500Y102500D02*Y99500D01*
Y102500D02*X279000Y103000D01*
X280000D01*
X280500Y102500D01*
Y99500D01*
X280000Y99000D02*X280500Y99500D01*
X279000Y99000D02*X280000D01*
X278500Y99500D02*X279000Y99000D01*
X282200Y100500D02*Y97500D01*
X281700Y101000D02*X282200Y100500D01*
X282700Y101000D01*
X283700D01*
X284200Y100500D01*
Y99500D01*
X283700Y99000D02*X284200Y99500D01*
X282700Y99000D02*X283700D01*
X282200Y99500D02*X282700Y99000D01*
X285900D02*X287400D01*
X285400Y99500D02*X285900Y99000D01*
X285400Y100500D02*Y99500D01*
Y100500D02*X285900Y101000D01*
X286900D01*
X287400Y100500D01*
X285400Y100000D02*X287400D01*
Y100500D02*Y100000D01*
X289100Y100500D02*Y99000D01*
Y100500D02*X289600Y101000D01*
X290600D01*
X288600D02*X289100Y100500D01*
X293300Y101000D02*X293800Y100500D01*
X292300Y101000D02*X293300D01*
X291800Y100500D02*X292300Y101000D01*
X291800Y100500D02*Y99500D01*
X292300Y99000D01*
X293800Y101000D02*Y99500D01*
X294300Y99000D01*
X292300D02*X293300D01*
X293800Y99500D01*
X296000Y103000D02*Y99500D01*
X296500Y99000D01*
X295500Y101500D02*X296500D01*
X297500Y102000D02*Y101500D01*
Y100500D02*Y99000D01*
X298500Y100500D02*Y99500D01*
Y100500D02*X299000Y101000D01*
X300000D01*
X300500Y100500D01*
Y99500D01*
X300000Y99000D02*X300500Y99500D01*
X299000Y99000D02*X300000D01*
X298500Y99500D02*X299000Y99000D01*
X302200Y100500D02*Y99000D01*
Y100500D02*X302700Y101000D01*
X303200D01*
X303700Y100500D01*
Y99000D01*
X301700Y101000D02*X302200Y100500D01*
G54D78*X136700Y23500D02*G75*G03X136700Y23500I11800J0D01*G01*
X134700D02*G75*G03X134700Y23500I13800J0D01*G01*
G54D79*X138500Y53500D02*X158500D01*
Y43500D01*
X138500D01*
Y53500D01*
X128500Y48500D02*X138500D01*
X158500D02*X168500D01*
G54D78*X42500Y17500D02*Y25500D01*
X60500Y17500D02*X42500D01*
X60500Y25500D02*Y17500D01*
X42500Y25500D02*X60500D01*
X78500Y6000D02*Y2000D01*
X76500Y4000D02*X80500D01*
X78500Y34000D02*Y30000D01*
Y8000D02*G75*G03X78500Y8000I0J10000D01*G01*
X91500Y33000D02*X92000D01*
X91500D02*Y13000D01*
X92000D01*
X101000D02*X101500D01*
Y33000D02*Y13000D01*
X101000Y33000D02*X101500D01*
X14500Y41000D02*X22500D01*
Y79000D02*Y41000D01*
X14500Y79000D02*X22500D01*
X14500D02*Y41000D01*
G54D79*X241500Y53500D02*X261500D01*
Y43500D01*
X241500D01*
Y53500D01*
X231500Y48500D02*X241500D01*
X261500D02*X271500D01*
X191500Y53500D02*X211500D01*
Y43500D01*
X191500D01*
Y53500D01*
X181500Y48500D02*X191500D01*
X211500D02*X221500D01*
G54D78*X240700Y23500D02*G75*G03X240700Y23500I11800J0D01*G01*
X238700D02*G75*G03X238700Y23500I13800J0D01*G01*
X190700D02*G75*G03X190700Y23500I11800J0D01*G01*
X188700D02*G75*G03X188700Y23500I13800J0D01*G01*
G54D79*X278500Y155500D02*X298500D01*
Y145500D01*
X278500D01*
Y155500D01*
X268500Y150500D02*X278500D01*
X298500D02*X308500D01*
X278500Y166500D02*X298500D01*
Y156500D01*
X278500D01*
Y166500D01*
X268500Y161500D02*X278500D01*
X298500D02*X308500D01*
G54D78*X280500Y122500D02*X300500D01*
X280500D02*Y112500D01*
X300500D01*
Y122500D02*Y112500D01*
X290500Y122500D02*Y112500D01*
X300500D01*
G54D79*X278500Y144500D02*X298500D01*
Y134500D01*
X278500D01*
Y144500D01*
X268500Y139500D02*X278500D01*
X298500D02*X308500D01*
G54D78*X192500Y199000D02*G75*G03X192500Y199000I0J-10000D01*G01*
X179500Y136000D02*Y135500D01*
X199500D01*
Y136000D02*Y135500D01*
Y145500D02*Y145000D01*
X179500Y145500D02*X199500D01*
X179500D02*Y145000D01*
X180000Y108000D02*Y107500D01*
X200000D01*
Y108000D02*Y107500D01*
Y117500D02*Y117000D01*
X180000Y117500D02*X200000D01*
X180000D02*Y117000D01*
X179500Y132500D02*X199500D01*
X179500Y122500D02*X199500D01*
X179500Y132500D02*G75*G03X179500Y122500I0J-5000D01*G01*
X199500D02*G75*G03X199500Y132500I0J5000D01*G01*
X179500Y153000D02*Y152500D01*
X199500D01*
Y153000D02*Y152500D01*
Y162500D02*Y162000D01*
X179500Y162500D02*X199500D01*
X179500D02*Y162000D01*
X265000Y201000D02*X315000D01*
X265000D02*Y181000D01*
X315000D01*
Y201000D02*Y181000D01*
X305000Y201000D02*Y191000D01*
X315000D01*
G54D79*X180500Y175500D02*X200500D01*
Y165500D01*
X180500D01*
Y175500D01*
X170500Y170500D02*X180500D01*
X200500D02*X210500D01*
G54D78*X333500Y81000D02*X341500D01*
X333500D02*Y43000D01*
X341500D01*
Y81000D02*Y43000D01*
X333000Y164500D02*Y106500D01*
Y164500D02*X341000D01*
Y106500D01*
X333000D02*X341000D01*
X215500Y175500D02*Y75500D01*
X255500D01*
Y175500D01*
X215500D02*X230500D01*
X240500D02*X255500D01*
X230500D02*G75*G03X240500Y175500I5000J0D01*G01*
X226500Y190500D02*X246500D01*
X226500D02*Y180500D01*
X246500D01*
Y190500D02*Y180500D01*
X236500Y190500D02*Y180500D01*
X246500D01*
X281500Y71500D02*X282000D01*
Y91500D02*Y71500D01*
X281500Y91500D02*X282000D01*
X272000D02*X272500D01*
X272000D02*Y71500D01*
X272500D01*
X44500Y175500D02*Y95500D01*
X84500D01*
Y175500D01*
X44500D02*X59500D01*
X69500D02*X84500D01*
X59500D02*G75*G03X69500Y175500I5000J0D01*G01*
X24000Y145500D02*Y141500D01*
X22000Y143500D02*X26000D01*
X24000Y117500D02*Y113500D01*
X24000Y139500D02*G75*G03X24000Y139500I0J-10000D01*G01*
X98500Y158000D02*X99000D01*
Y178000D02*Y158000D01*
X98500Y178000D02*X99000D01*
X89000D02*X89500D01*
X89000D02*Y158000D01*
X89500D01*
X118500Y175500D02*Y105500D01*
X158500D01*
Y175500D01*
X118500D02*X133500D01*
X143500D02*X158500D01*
X133500D02*G75*G03X143500Y175500I5000J0D01*G01*
X147000Y194500D02*Y195000D01*
X127000D01*
Y194500D01*
Y185500D02*Y185000D01*
X147000D01*
Y185500D01*
X24000Y181500D02*Y177500D01*
X22000Y179500D02*X26000D01*
X24000Y153500D02*Y149500D01*
X24000Y175500D02*G75*G03X24000Y175500I0J-10000D01*G01*
X81500Y205500D02*Y201500D01*
X79500Y203500D02*X83500D01*
X81500Y177500D02*Y173500D01*
Y199500D02*G75*G03X81500Y199500I0J-10000D01*G01*
X49500Y177500D02*Y173500D01*
X47500Y175500D02*X51500D01*
X49500Y205500D02*Y201500D01*
Y179500D02*G75*G03X49500Y179500I0J10000D01*G01*
G54D77*X280500Y151500D02*X282500D01*
X283000Y151000D01*
Y150000D01*
X282500Y149500D02*X283000Y150000D01*
X281000Y149500D02*X282500D01*
X281000Y151500D02*Y147500D01*
Y149500D02*X283000Y147500D01*
X284200Y151500D02*X286200D01*
X284200D02*Y149500D01*
X284700Y150000D01*
X285700D01*
X286200Y149500D01*
Y148000D01*
X285700Y147500D02*X286200Y148000D01*
X284700Y147500D02*X285700D01*
X284200Y148000D02*X284700Y147500D01*
X231500Y162500D02*Y159000D01*
X232000Y158500D01*
X233000D01*
X233500Y159000D01*
Y162500D02*Y159000D01*
X235200Y158500D02*X236200D01*
X235700Y162500D02*Y158500D01*
X234700Y161500D02*X235700Y162500D01*
X280500D02*X282500D01*
X283000Y162000D01*
Y161000D01*
X282500Y160500D02*X283000Y161000D01*
X281000Y160500D02*X282500D01*
X281000Y162500D02*Y158500D01*
Y160500D02*X283000Y158500D01*
X285700Y162500D02*X286200Y162000D01*
X284700Y162500D02*X285700D01*
X284200Y162000D02*X284700Y162500D01*
X284200Y162000D02*Y159000D01*
X284700Y158500D01*
X285700Y160500D02*X286200Y160000D01*
X284200Y160500D02*X285700D01*
X284700Y158500D02*X285700D01*
X286200Y159000D01*
Y160000D02*Y159000D01*
X218000Y191500D02*X219500D01*
Y188000D01*
X219000Y187500D02*X219500Y188000D01*
X218500Y187500D02*X219000D01*
X218000Y188000D02*X218500Y187500D01*
X221200D02*X222200D01*
X221700Y191500D02*Y187500D01*
X220700Y190500D02*X221700Y191500D01*
X280500Y140500D02*X282500D01*
X283000Y140000D01*
Y139000D01*
X282500Y138500D02*X283000Y139000D01*
X281000Y138500D02*X282500D01*
X281000Y140500D02*Y136500D01*
Y138500D02*X283000Y136500D01*
X284200Y138500D02*X286200Y140500D01*
X284200Y138500D02*X286700D01*
X286200Y140500D02*Y136500D01*
X208500Y194000D02*X209000Y193500D01*
X207000Y194000D02*X208500D01*
X206500Y193500D02*X207000Y194000D01*
X206500Y193500D02*Y192500D01*
X207000Y192000D01*
X208500D01*
X209000Y191500D01*
Y190500D01*
X208500Y190000D02*X209000Y190500D01*
X207000Y190000D02*X208500D01*
X206500Y190500D02*X207000Y190000D01*
X210700D02*X211700D01*
X211200Y194000D02*Y190000D01*
X210200Y193000D02*X211200Y194000D01*
X205750Y136000D02*X208000D01*
X205000Y136750D02*X205750Y136000D01*
X205000Y141250D02*Y136750D01*
Y141250D02*X205750Y142000D01*
X208000D01*
X210550Y136000D02*X212050D01*
X211300Y142000D02*Y136000D01*
X209800Y140500D02*X211300Y142000D01*
X205250Y108000D02*X207500D01*
X204500Y108750D02*X205250Y108000D01*
X204500Y113250D02*Y108750D01*
Y113250D02*X205250Y114000D01*
X207500D01*
X209300Y113250D02*X210050Y114000D01*
X212300D01*
X213050Y113250D01*
Y111750D01*
X209300Y108000D02*X213050Y111750D01*
X209300Y108000D02*X213050D01*
X207500Y129500D02*Y129000D01*
X210000Y126500D01*
Y125500D01*
X207500Y126500D02*Y125500D01*
Y126500D02*X210000Y129000D01*
Y129500D02*Y129000D01*
X211700Y125500D02*X212700D01*
X212200Y129500D02*Y125500D01*
X211200Y128500D02*X212200Y129500D01*
X210000Y162000D02*X212250D01*
X213000Y161250D02*X212250Y162000D01*
X213000Y161250D02*Y156750D01*
X212250Y156000D01*
X210000D02*X212250D01*
X208200Y162000D02*X204450Y158250D01*
Y156000D01*
X208200D01*
X58500Y162500D02*Y159000D01*
X59000Y158500D01*
X60000D01*
X60500Y159000D01*
Y162500D02*Y159000D01*
X61700Y162000D02*X62200Y162500D01*
X63700D01*
X64200Y162000D01*
Y161000D01*
X61700Y158500D02*X64200Y161000D01*
X61700Y158500D02*X64200D01*
X28500Y148500D02*X30000D01*
X28000Y149000D02*X28500Y148500D01*
X28000Y152000D02*Y149000D01*
Y152000D02*X28500Y152500D01*
X30000D01*
X31200Y152000D02*X31700Y152500D01*
X32700D01*
X33200Y152000D01*
Y149000D01*
X32700Y148500D02*X33200Y149000D01*
X31700Y148500D02*X32700D01*
X31200Y149000D02*X31700Y148500D01*
Y150500D02*X33200D01*
X62500Y187000D02*X64000D01*
X62000Y187500D02*X62500Y187000D01*
X62000Y190500D02*Y187500D01*
Y190500D02*X62500Y191000D01*
X64000D01*
X65200D02*X67200D01*
X65200D02*Y189000D01*
X65700Y189500D01*
X66700D01*
X67200Y189000D01*
Y187500D01*
X66700Y187000D02*X67200Y187500D01*
X65700Y187000D02*X66700D01*
X65200Y187500D02*X65700Y187000D01*
X287500Y129000D02*X289000D01*
Y125500D01*
X288500Y125000D02*X289000Y125500D01*
X288000Y125000D02*X288500D01*
X287500Y125500D02*X288000Y125000D01*
X290200Y128500D02*X290700Y129000D01*
X292200D01*
X292700Y128500D01*
Y127500D01*
X290200Y125000D02*X292700Y127500D01*
X290200Y125000D02*X292700D01*
X284500Y88250D02*Y86000D01*
X285250Y89000D02*X284500Y88250D01*
X285250Y89000D02*X289750D01*
X290500Y88250D01*
Y86000D01*
X284500Y83450D02*Y81950D01*
Y82700D02*X290500D01*
X289000Y84200D02*X290500Y82700D01*
X289750Y80150D02*X290500Y79400D01*
Y77150D01*
X289750Y76400D01*
X288250D02*X289750D01*
X284500Y80150D02*X288250Y76400D01*
X284500Y80150D02*Y76400D01*
X94500Y188000D02*X96000D01*
X94000Y188500D02*X94500Y188000D01*
X94000Y191500D02*Y188500D01*
Y191500D02*X94500Y192000D01*
X96000D01*
X98700D02*X99200Y191500D01*
X97700Y192000D02*X98700D01*
X97200Y191500D02*X97700Y192000D01*
X97200Y191500D02*Y188500D01*
X97700Y188000D01*
X98700Y190000D02*X99200Y189500D01*
X97200Y190000D02*X98700D01*
X97700Y188000D02*X98700D01*
X99200Y188500D01*
Y189500D02*Y188500D01*
X182500Y171500D02*X184500D01*
X185000Y171000D01*
Y170000D01*
X184500Y169500D02*X185000Y170000D01*
X183000Y169500D02*X184500D01*
X183000Y171500D02*Y167500D01*
Y169500D02*X185000Y167500D01*
X186200D02*X188700Y170000D01*
Y171500D02*Y170000D01*
X186200Y171500D02*X188700D01*
X134500Y160500D02*Y157000D01*
X135000Y156500D01*
X136000D01*
X136500Y157000D01*
Y160500D02*Y157000D01*
X137700Y160000D02*X138200Y160500D01*
X139200D01*
X139700Y160000D01*
Y157000D01*
X139200Y156500D02*X139700Y157000D01*
X138200Y156500D02*X139200D01*
X137700Y157000D02*X138200Y156500D01*
Y158500D02*X139700D01*
X101500Y171750D02*Y169500D01*
X102250Y172500D02*X101500Y171750D01*
X102250Y172500D02*X106750D01*
X107500Y171750D01*
Y169500D01*
X101500Y166950D02*Y165450D01*
Y166200D02*X107500D01*
X106000Y167700D02*X107500Y166200D01*
X102250Y163650D02*X101500Y162900D01*
X102250Y163650D02*X106750D01*
X107500Y162900D01*
Y161400D01*
X106750Y160650D01*
X102250D02*X106750D01*
X101500Y161400D02*X102250Y160650D01*
X101500Y162900D02*Y161400D01*
X103000Y163650D02*X106000Y160650D01*
X109250Y187500D02*X111500D01*
X108500Y188250D02*X109250Y187500D01*
X108500Y192750D02*Y188250D01*
Y192750D02*X109250Y193500D01*
X111500D01*
X114050Y187500D02*X115550D01*
X114800Y193500D02*Y187500D01*
X113300Y192000D02*X114800Y193500D01*
X118100Y187500D02*X119600D01*
X118850Y193500D02*Y187500D01*
X117350Y192000D02*X118850Y193500D01*
X236000Y41500D02*X238000D01*
X238500Y41000D01*
Y40000D01*
X238000Y39500D02*X238500Y40000D01*
X236500Y39500D02*X238000D01*
X236500Y41500D02*Y37500D01*
Y39500D02*X238500Y37500D01*
X239700Y41000D02*X240200Y41500D01*
X241200D01*
X241700Y41000D01*
Y38000D01*
X241200Y37500D02*X241700Y38000D01*
X240200Y37500D02*X241200D01*
X239700Y38000D02*X240200Y37500D01*
Y39500D02*X241700D01*
X185500Y41500D02*X187500D01*
X188000Y41000D01*
Y40000D01*
X187500Y39500D02*X188000Y40000D01*
X186000Y39500D02*X187500D01*
X186000Y41500D02*Y37500D01*
Y39500D02*X188000Y37500D01*
X189200Y41000D02*X189700Y41500D01*
X191200D01*
X191700Y41000D01*
Y40000D01*
X189200Y37500D02*X191700Y40000D01*
X189200Y37500D02*X191700D01*
X251500Y19000D02*Y15000D01*
X253000Y19000D02*X253500Y18500D01*
Y15500D01*
X253000Y15000D02*X253500Y15500D01*
X251000Y15000D02*X253000D01*
X251000Y19000D02*X253000D01*
X254700Y18500D02*X255200Y19000D01*
X256200D01*
X256700Y18500D01*
Y15500D01*
X256200Y15000D02*X256700Y15500D01*
X255200Y15000D02*X256200D01*
X254700Y15500D02*X255200Y15000D01*
Y17000D02*X256700D01*
X201000Y19500D02*Y15500D01*
X202500Y19500D02*X203000Y19000D01*
Y16000D01*
X202500Y15500D02*X203000Y16000D01*
X200500Y15500D02*X202500D01*
X200500Y19500D02*X202500D01*
X204200Y19000D02*X204700Y19500D01*
X206200D01*
X206700Y19000D01*
Y18000D01*
X204200Y15500D02*X206700Y18000D01*
X204200Y15500D02*X206700D01*
X302000Y176500D02*Y172500D01*
X304500Y176500D02*Y172500D01*
X302000Y174500D02*X304500D01*
X306200Y172500D02*X307200D01*
X306700Y176500D02*Y172500D01*
X305700Y175500D02*X306700Y176500D01*
X147500Y19000D02*Y15000D01*
X149000Y19000D02*X149500Y18500D01*
Y15500D01*
X149000Y15000D02*X149500Y15500D01*
X147000Y15000D02*X149000D01*
X147000Y19000D02*X149000D01*
X151200Y15000D02*X152200D01*
X151700Y19000D02*Y15000D01*
X150700Y18000D02*X151700Y19000D01*
X342500Y77000D02*X346500D01*
X342500Y74500D02*X346500D01*
X344500Y77000D02*Y74500D01*
Y73300D02*X346500Y71300D01*
X344500Y73300D02*Y70800D01*
X342500Y71300D02*X346500D01*
X328000Y110500D02*X332000D01*
X328000Y113000D02*X332000D01*
X330000D02*Y110500D01*
X328000Y116200D02*Y114200D01*
X330000D01*
X329500Y114700D01*
Y115700D02*Y114700D01*
Y115700D02*X330000Y116200D01*
X331500D01*
X332000Y115700D02*X331500Y116200D01*
X332000Y115700D02*Y114700D01*
X331500Y114200D02*X332000Y114700D01*
X134000Y41500D02*X136000D01*
X136500Y41000D01*
Y40000D01*
X136000Y39500D02*X136500Y40000D01*
X134500Y39500D02*X136000D01*
X134500Y41500D02*Y37500D01*
Y39500D02*X136500Y37500D01*
X138200D02*X139200D01*
X138700Y41500D02*Y37500D01*
X137700Y40500D02*X138700Y41500D01*
X30500Y112500D02*X32000D01*
X30000Y113000D02*X30500Y112500D01*
X30000Y116000D02*Y113000D01*
Y116000D02*X30500Y116500D01*
X32000D01*
X33200Y114500D02*X35200Y116500D01*
X33200Y114500D02*X35700D01*
X35200Y116500D02*Y112500D01*
X46500Y30500D02*Y26500D01*
X49000Y30500D02*Y26500D01*
X46500Y28500D02*X49000D01*
X50200Y30000D02*X50700Y30500D01*
X52200D01*
X52700Y30000D01*
Y29000D01*
X50200Y26500D02*X52700Y29000D01*
X50200Y26500D02*X52700D01*
X85000Y33500D02*Y32000D01*
X84500Y31500D02*X85000Y32000D01*
X81500Y31500D02*X84500D01*
X81500D02*X81000Y32000D01*
Y33500D02*Y32000D01*
X85000Y34700D02*X83000Y36700D01*
X81500D02*X83000D01*
X81000Y36200D02*X81500Y36700D01*
X81000Y36200D02*Y35200D01*
X81500Y34700D02*X81000Y35200D01*
X81500Y34700D02*X82500D01*
X83000Y35200D01*
Y36700D02*Y35200D01*
X105500Y25750D02*Y23500D01*
X106250Y26500D02*X105500Y25750D01*
X106250Y26500D02*X110750D01*
X111500Y25750D01*
Y23500D01*
X106250Y21700D02*X105500Y20950D01*
X106250Y21700D02*X107750D01*
X108500Y20950D01*
Y19450D01*
X107750Y18700D01*
X106250D02*X107750D01*
X105500Y19450D02*X106250Y18700D01*
X105500Y20950D02*Y19450D01*
X109250Y21700D02*X108500Y20950D01*
X109250Y21700D02*X110750D01*
X111500Y20950D01*
Y19450D01*
X110750Y18700D01*
X109250D02*X110750D01*
X108500Y19450D02*X109250Y18700D01*
X9500Y45000D02*X13500D01*
X9500Y47500D02*X13500D01*
X11500D02*Y45000D01*
X10000Y48700D02*X9500Y49200D01*
Y50200D02*Y49200D01*
Y50200D02*X10000Y50700D01*
X13000D01*
X13500Y50200D02*X13000Y50700D01*
X13500Y50200D02*Y49200D01*
X13000Y48700D02*X13500Y49200D01*
X11500Y50700D02*Y49200D01*
M02*
