M48
INCH
T60C0.038
T59C0.043
T58C0.040
T57C0.044
T56C0.114
T55C0.035
T54C0.030
T53C0.038
T52C0.028
%
T52
X022050Y033050
X022050Y032050
X022050Y031050
X022050Y030050
X022050Y029050
X025050Y031050
X025050Y032050
X025050Y033050
X022050Y028050
X025050Y028050
X025050Y029050
X025050Y030050
X019950Y028750
X033550Y013050
X033550Y012050
X033550Y011050
X033550Y010050
X036550Y010050
X036550Y011050
X036550Y012050
X036550Y013050
X022050Y027050
X025050Y027050
X012350Y027050
X015350Y027050
X022050Y026050
X025050Y026050
X022050Y025050
X022050Y024050
X025050Y024050
X025050Y025050
X015350Y030050
X015350Y031050
X017950Y028750
X015350Y028050
X015350Y029050
X015350Y032050
X015350Y033050
X012350Y033050
X012350Y032050
X012350Y031050
X012350Y030050
X012350Y029050
X012350Y028050
X007950Y027050
X007950Y028050
X007950Y029050
X007950Y030050
X004950Y033050
X004950Y032050
X004950Y031050
X007950Y031050
X007950Y032050
X007950Y033050
X004950Y030050
X004950Y029050
X004950Y028050
X004950Y027050
X004950Y026050
X007950Y026050
X007500Y013060
X007500Y012060
X007500Y011060
X007500Y010060
X010500Y010060
X010500Y011060
X010500Y012060
X010500Y013060
X020550Y013060
X020550Y012060
X020550Y011060
X020550Y010060
X023550Y010060
X023550Y011060
X023550Y012060
X023550Y013060
X033650Y004100
X033650Y003100
X033650Y002100
X033650Y001100
X036650Y001100
X036650Y002100
X036650Y003100
X036650Y004100
T54
X019250Y035400
X019250Y034400
X027604Y013232
X029018Y011818
X008150Y035450
X008150Y034450
X004950Y034450
X004950Y035450
X002400Y033050
X002400Y032050
X002400Y029450
X002400Y028450
X007100Y017350
X007100Y018350
X001537Y013271
X002951Y011857
X004750Y007060
X005750Y007060
X001590Y009060
X001590Y008060
X014587Y013271
X017800Y007060
X018800Y007060
X014640Y008060
X014640Y009060
X016001Y011857
X027600Y009000
X027600Y008000
X030900Y007100
X031900Y007100
T55
X019950Y031750
X027700Y023150
X027700Y025150
X031550Y011050
X018000Y027250
X020000Y027250
X017950Y030050
X019950Y030050
X017950Y031750
X014700Y035000
X012700Y035000
X009400Y031800
X009400Y033800
X009050Y019300
X009050Y017300
X005500Y011060
X005500Y009060
X018550Y009060
X018550Y011060
X031550Y009050
T53
X026850Y031050
X026850Y032150
X026850Y029950
X023150Y034550
X021050Y033050
X030850Y031050
X030850Y032150
X029550Y027750
X028550Y027750
X030850Y029950
X031500Y035500
X031500Y034500
X030500Y035500
X030500Y034500
X029500Y035500
X029500Y034500
X028500Y035500
X028500Y034500
X027500Y035500
X027500Y034500
X033750Y023700
X033750Y022700
X033750Y021700
X033750Y020700
X033700Y027050
X033700Y028050
X033700Y029050
X033700Y030050
X033700Y031050
X033700Y032050
X031000Y015050
X032000Y015050
X033100Y014550
X038050Y013550
X038050Y009550
X037100Y014550
X018150Y020850
X012850Y020850
X016850Y020850
X023150Y020850
X027150Y020850
X022150Y020850
X024150Y034550
X017050Y033050
X001850Y021500
X001850Y022500
X001850Y023500
X003400Y018200
X004400Y018200
X001850Y020500
X005000Y015060
X006000Y015060
X007000Y005560
X007000Y008310
X012000Y009560
X012000Y013560
X011000Y005560
X011000Y008310
X018050Y015060
X019050Y015060
X025050Y013560
X025050Y009560
X020050Y005560
X020050Y008310
X024050Y005560
X024050Y008310
X037150Y005600
X033200Y008200
X033150Y005600
X037200Y008200
T60
X003500Y005460
X005400Y004250
X003500Y003060
X016550Y005460
X018450Y004250
X016550Y003060
X029550Y005400
X031450Y004190
X029550Y003000
T58
X029500Y010200
X003500Y010310
X003500Y007310
X016550Y007310
X016550Y010310
X029500Y007200
T59
X024750Y018350
X025750Y018350
X014350Y018350
X015350Y018350
X019750Y018350
X020750Y018350
T57
X027050Y015050
X001000Y015060
X001000Y001060
X012000Y015060
X014050Y015060
X012000Y001060
X014050Y001060
X025050Y015060
X025050Y001060
X027050Y001050
X038050Y001050
X038050Y015050
T56
X033500Y017700
X033500Y035500
X001500Y035700
X001500Y017700
M30
