G04 start of page 2 for group 0 idx 0 *
G04 Title: (unknown), top *
G04 Creator: pcb 20110918 *
G04 CreationDate: Fri 24 Oct 2014 23:07:07 GMT UTC *
G04 For: ksarkies *
G04 Format: Gerber/RS-274X *
G04 PCB-Dimensions: 390000 370000 *
G04 PCB-Coordinate-Origin: lower left *
%MOIN*%
%FSLAX25Y25*%
%LNTOP*%
%ADD27C,0.0950*%
%ADD26C,0.0900*%
%ADD25C,0.0650*%
%ADD24C,0.1650*%
%ADD23C,0.0700*%
%ADD22C,0.0680*%
%ADD21C,0.0800*%
%ADD20C,0.0001*%
%ADD19C,0.0250*%
%ADD18C,0.0450*%
%ADD17C,0.0350*%
%ADD16C,0.0500*%
%ADD15C,0.0600*%
%ADD14C,0.0400*%
%ADD13C,0.0550*%
%ADD12C,0.0100*%
%ADD11C,0.0300*%
G54D11*X337000Y270500D02*X336500D01*
G54D12*X220500Y310500D02*X221000D01*
X210500Y330500D02*Y329000D01*
X179500Y319000D02*X180000Y318500D01*
X81500Y354500D02*X82000Y354000D01*
X190500D02*X192500D01*
X190500Y351500D02*Y354000D01*
X192500Y352000D02*X190500Y351500D01*
X193000Y354000D02*X190500D01*
X193000D02*X192000Y353000D01*
X192500Y352000D01*
X220000Y240500D02*X220500D01*
X24000Y284500D02*Y284000D01*
X180000Y272500D02*X178500D01*
X24000Y284500D02*X26000D01*
X47500Y290500D02*X49500D01*
X222000Y240500D02*X220000D01*
X196999Y183500D02*X197500D01*
X271500Y195500D02*Y208500D01*
X257500Y183500D02*X271500Y195500D01*
G54D13*X43500Y182000D02*Y210500D01*
X18500Y236500D01*
G54D14*X50000Y150600D02*X30858D01*
X15368Y132710D01*
G54D12*X16100Y133442D01*
G54D15*X169500Y260000D02*X133000D01*
G54D12*X149000Y270500D02*X153500D01*
X143500Y290500D02*X149000Y270500D01*
X185500Y252500D02*X68070Y252526D01*
X184000Y250500D02*X58500D01*
G54D15*X131500Y260000D02*X123500Y270500D01*
G54D12*X88500Y286000D02*Y276000D01*
X79500Y270500D01*
Y290500D02*X88500Y286000D01*
X79500Y260500D02*X112500Y287500D01*
X123500Y290500D02*X143500D01*
X149000Y300500D02*X153500D01*
X144500Y320500D02*X149000Y300500D01*
G54D16*X146500Y349500D02*X173000D01*
X179000Y343500D01*
G54D12*X123500Y310500D02*Y300500D01*
Y320500D02*X144500D01*
X112500Y319500D02*X123500Y330500D01*
X112500Y287500D02*Y319500D01*
G54D15*X169500Y260500D02*X178500Y272500D01*
G54D12*X56000Y315500D02*Y287000D01*
X24000Y284500D02*X26000D01*
X36000Y290500D02*X49500D01*
X45000Y297000D02*X49500Y300500D01*
X32000Y297000D02*X45000D01*
X32000D02*X26500Y294500D01*
X24000D02*X26500D01*
X36000Y290500D02*X26000Y284500D01*
X56000Y287000D02*X50000Y281000D01*
X68000Y252500D02*X49500Y270500D01*
X58500Y250500D02*X49500Y259500D01*
X45000Y316500D02*X49500Y310500D01*
X31500Y316500D02*X45000D01*
X28000Y318500D02*X31500Y316500D01*
X24000Y320500D02*X28000Y318500D01*
X24000Y330500D02*X49500D01*
X65500Y333500D02*Y321000D01*
X56000Y315500D01*
X78500Y344000D02*X65500Y333500D01*
X81500Y344500D02*X78500Y344000D01*
X50000Y344500D02*X57000Y337500D01*
Y327500D01*
X49500Y320000D01*
G54D11*X325500Y344000D02*Y331500D01*
X315000Y355000D02*X325500Y344000D01*
X308000Y363000D02*X315000Y355000D01*
X336500Y320500D02*X325500Y331500D01*
G54D12*X327500Y280500D02*X337000D01*
X308500Y299500D02*X327500Y280500D01*
X328500Y290500D02*X337000D01*
X308500Y321500D02*X315500D01*
X336500Y300500D01*
G54D11*X344500Y314500D02*Y242000D01*
G54D15*X303000Y231000D02*X328000Y270500D01*
G54D13*X336500D01*
G54D17*X338500Y236500D02*X344500Y242500D01*
G54D11*X336500Y320500D02*X344500Y314500D01*
G54D12*X337500Y216500D02*X329000Y221000D01*
X329500Y223500D02*X333500D01*
X337000Y227000D01*
G54D11*X250500Y347000D02*X265500Y363000D01*
X308000D01*
X250500Y330500D02*Y347000D01*
G54D12*X285000Y355000D02*X289500Y352000D01*
X280000Y350500D02*Y325000D01*
X275000Y355000D02*X280000Y350500D01*
X272500Y290500D02*X250500D01*
X285500Y277500D02*X272500Y290500D01*
X245000Y285000D02*X250500Y280500D01*
X280000Y325000D02*X308500Y299500D01*
X258500Y321500D02*X268500D01*
X258500D02*X254500Y320500D01*
X250500D02*X254500D01*
X250500Y310500D02*X268500D01*
X258000Y299500D02*X268500D01*
X254500Y300500D02*X258000Y299500D01*
X250500Y300500D02*X254500D01*
X289500Y352000D02*Y327500D01*
G54D15*X230500Y231000D02*X303500D01*
G54D12*X215000Y223500D02*X329500D01*
G54D13*X222000Y240500D02*X229500Y231500D01*
G54D15*X212500Y240500D02*X220000D01*
X180000Y272500D02*X212500Y240500D01*
G54D12*X214000Y221000D02*X184000Y250500D01*
X215000Y223500D02*X185500Y252500D01*
X329000Y221000D02*X214000D01*
X168500Y194000D02*Y208500D01*
X153500Y183500D02*X168500Y194000D01*
X247500Y186500D02*Y183500D01*
X225000Y344000D02*X229000Y345500D01*
X221500Y193500D02*Y208500D01*
X207500Y183500D02*X221500Y193500D01*
X213000Y285000D02*X208500Y280500D01*
X173500Y310500D02*X153500Y290500D01*
X213000Y285000D02*X245000D01*
X153500Y280500D02*X208500D01*
X221000Y310500D02*X173500D01*
X328500Y290500D02*X289500Y327500D01*
G54D13*X179500Y343500D02*Y319000D01*
G54D16*Y343500D02*X190500Y351500D01*
G54D12*X192500Y344000D02*X191500D01*
X220500Y330500D02*X210500D01*
Y329000D02*X200000Y318500D01*
X225000Y344000D02*X191500D01*
X229000Y345500D02*X231500D01*
Y341500D02*X220500Y330500D01*
X231500Y345500D02*Y341500D01*
G54D14*X16100Y133442D02*X15900Y90600D01*
G54D12*X37500D01*
G54D14*X35000Y54600D02*Y58100D01*
X53500Y76600D01*
G54D12*X37500Y90600D02*X45000Y83100D01*
X70000D01*
G54D14*X53500Y76600D02*X81000D01*
G54D12*X55000Y110600D02*X75000D01*
G54D18*X52500Y120600D02*X35000Y103100D01*
G54D14*X52500Y120600D02*X30242Y119300D01*
G54D12*X52311Y120411D01*
G54D14*X52600Y120700D02*X74900D01*
G54D12*X75000Y120600D01*
G54D14*X81000Y76600D02*X95000Y90600D01*
Y100600D01*
X105000Y110600D01*
G54D12*Y100600D02*Y88100D01*
X110000Y83100D01*
G54D14*X120000Y135600D02*X110000D01*
X105000Y130600D02*X75000D01*
X180500Y150600D02*X161358D01*
X145868Y132710D01*
G54D12*X146600Y133442D01*
G54D14*X110000Y135600D02*X105000Y130600D01*
Y120600D01*
G54D12*X110000Y83100D02*Y55600D01*
G54D14*X105000Y110600D02*X120000Y95600D01*
X146600Y133442D02*X146400Y90600D01*
G54D12*X168000D01*
G54D14*X165500Y54600D02*Y58100D01*
X184000Y76600D01*
G54D12*X168000Y90600D02*X175500Y83100D01*
X200500D01*
G54D14*X184000Y76600D02*X211500D01*
X225500Y90600D01*
Y100600D01*
X235500Y110600D01*
X250500Y95600D01*
G54D12*X235500Y100600D02*Y88100D01*
X240500Y83100D01*
G54D14*X235500Y130600D02*Y120600D01*
G54D12*X240500Y83100D02*Y55600D01*
X185500Y110600D02*X205500D01*
G54D18*X183000Y120600D02*X165500Y103100D01*
G54D14*X183000Y120600D02*X160742Y119300D01*
G54D12*X182811Y120411D01*
G54D14*X183100Y120700D02*X205400D01*
G54D12*X205500Y120600D01*
G54D14*X250500Y135600D02*X240500D01*
X235500Y130600D01*
X205500D01*
X335500Y130500D02*X365500D01*
X380500Y135500D02*X370500D01*
X365500Y130500D01*
X310000Y150500D02*X295503D01*
G54D12*X313500Y143500D02*X320000Y150000D01*
X298500Y143500D02*X313500D01*
X335500Y110500D02*X315500D01*
G54D14*X335500Y120500D02*X310500D01*
X295000Y102000D01*
X290178Y118178D02*X315322Y120678D01*
X295680Y150680D02*X277784Y132500D01*
G54D12*X285000Y131500D02*X298500Y143500D01*
G54D14*X320000Y150500D02*X331500Y145500D01*
X365500Y130500D02*Y120500D01*
Y110500D02*X380500Y95500D01*
X347500Y92500D02*X365500Y110500D01*
G54D19*X380500Y95500D02*X381000Y50000D01*
G54D12*X365000Y63500D02*Y101000D01*
X356500Y56000D02*X371500D01*
X371645Y55645D02*X364995Y63495D01*
G54D19*X381000Y50000D02*X365500Y40500D01*
G54D12*X295500Y54000D02*Y55000D01*
G54D14*X327500Y92500D01*
G54D12*X293500Y46000D02*X285000Y55000D01*
G54D14*X327500Y92500D02*X347500D01*
G54D12*X285000Y55000D02*Y131500D01*
G54D14*X276036Y132320D02*X276000Y90000D01*
G54D12*X328500Y21000D02*X302000Y46000D01*
X293500D01*
X332000Y82000D02*X331500Y36000D01*
X336500Y31000D01*
Y21000D02*X328500D01*
X336500Y41000D02*X341500D01*
X356500Y56000D01*
G54D20*G36*
X217500Y333500D02*Y327500D01*
X223500D01*
Y333500D01*
X217500D01*
G37*
G54D15*X220500Y320500D03*
Y310500D03*
Y300500D03*
Y290500D03*
G54D20*G36*
X265100Y313900D02*Y307100D01*
X271900D01*
Y313900D01*
X265100D01*
G37*
G54D15*X250500Y310500D03*
Y320500D03*
Y330500D03*
G54D20*G36*
X265100Y324900D02*Y318100D01*
X271900D01*
Y324900D01*
X265100D01*
G37*
G36*
Y302900D02*Y296100D01*
X271900D01*
Y302900D01*
X265100D01*
G37*
G54D15*X220500Y280500D03*
X250500D03*
Y290500D03*
Y300500D03*
X231500Y345500D03*
G54D20*G36*
X189500Y357000D02*Y351000D01*
X195500D01*
Y357000D01*
X189500D01*
G37*
G54D15*X192500Y344000D03*
X199500Y287500D03*
G54D21*Y317500D03*
G54D22*X210500Y330500D03*
X308500Y310500D03*
Y321500D03*
G54D20*G36*
X292500Y280500D02*Y274500D01*
X298500D01*
Y280500D01*
X292500D01*
G37*
G54D15*X285500Y277500D03*
G54D22*X308500Y299500D03*
G54D20*G36*
X312000Y358000D02*Y352000D01*
X318000D01*
Y358000D01*
X312000D01*
G37*
G54D15*X315000Y345000D03*
X305000Y355000D03*
Y345000D03*
X295000Y355000D03*
Y345000D03*
X285000Y355000D03*
Y345000D03*
X275000Y355000D03*
Y345000D03*
G54D21*X277000Y231500D03*
Y251500D03*
G54D20*G36*
X334000Y240500D02*Y233500D01*
X341000D01*
Y240500D01*
X334000D01*
G37*
G54D23*X337500Y227000D03*
Y217000D03*
Y207000D03*
G54D24*X335000Y177000D03*
G54D20*G36*
X333500Y274000D02*Y267000D01*
X340500D01*
Y274000D01*
X333500D01*
G37*
G54D23*X337000Y280500D03*
Y290500D03*
Y300500D03*
Y310500D03*
Y320500D03*
G54D24*X335000Y355000D03*
G54D20*G36*
X306500Y154000D02*Y147000D01*
X313500D01*
Y154000D01*
X306500D01*
G37*
G54D23*X320000Y150500D03*
G54D22*X331000Y145500D03*
G54D15*X270500Y150500D03*
G54D20*G36*
X332500Y133500D02*Y127500D01*
X338500D01*
Y133500D01*
X332500D01*
G37*
G36*
X377100Y138900D02*Y132100D01*
X383900D01*
Y138900D01*
X377100D01*
G37*
G36*
X273036Y135320D02*Y129320D01*
X279036D01*
Y135320D01*
X273036D01*
G37*
G54D15*X335500Y120500D03*
Y110500D03*
G54D21*X315500D03*
G54D23*X295000Y102000D03*
G54D15*X290178Y118178D03*
X335500Y100500D03*
G54D22*X380500Y95500D03*
G54D15*X365500Y100500D03*
Y110500D03*
Y120500D03*
Y130500D03*
G54D20*G36*
X367600Y148900D02*Y142100D01*
X374400D01*
Y148900D01*
X367600D01*
G37*
G54D15*X220500Y270500D03*
X250500D03*
G54D21*X180000Y272500D03*
X200000D03*
G54D15*X123500Y270500D03*
X153500D03*
X220500Y260500D03*
X250500D03*
X220500Y250500D03*
Y240500D03*
X250500D03*
Y250500D03*
G54D20*G36*
X178100Y211900D02*Y205100D01*
X184900D01*
Y211900D01*
X178100D01*
G37*
G36*
X125100D02*Y205100D01*
X131900D01*
Y211900D01*
X125100D01*
G37*
G54D22*X168500Y208500D03*
G54D20*G36*
X228100Y211900D02*Y205100D01*
X234900D01*
Y211900D01*
X228100D01*
G37*
G54D22*X271500Y208500D03*
X221500D03*
G54D20*G36*
X244250Y186750D02*Y180250D01*
X250750D01*
Y186750D01*
X244250D01*
G37*
G54D25*X257500Y183500D03*
G54D20*G36*
X140250Y186750D02*Y180250D01*
X146750D01*
Y186750D01*
X140250D01*
G37*
G54D25*X153500Y183500D03*
G54D20*G36*
X194250Y186750D02*Y180250D01*
X200750D01*
Y186750D01*
X194250D01*
G37*
G54D25*X207500Y183500D03*
G54D20*G36*
X238500Y348500D02*Y342500D01*
X244500D01*
Y348500D01*
X238500D01*
G37*
G54D21*X179500Y300500D03*
X199500D03*
G54D15*X153500D03*
Y310500D03*
G54D20*G36*
X176500Y290500D02*Y284500D01*
X182500D01*
Y290500D01*
X176500D01*
G37*
G54D15*X153500Y280500D03*
Y290500D03*
G54D20*G36*
X167100Y333900D02*Y327100D01*
X173900D01*
Y333900D01*
X167100D01*
G37*
G54D15*X153500Y320500D03*
Y330500D03*
G54D21*X179500Y317500D03*
G54D20*G36*
X120500Y333500D02*Y327500D01*
X126500D01*
Y333500D01*
X120500D01*
G37*
G54D21*X147000Y350000D03*
X127000D03*
G54D15*X123500Y320500D03*
Y310500D03*
Y300500D03*
Y290500D03*
Y280500D03*
X79500Y270500D03*
Y280500D03*
Y290500D03*
Y300500D03*
G54D20*G36*
X78500Y357500D02*Y351500D01*
X84500D01*
Y357500D01*
X78500D01*
G37*
G54D15*X81500Y344500D03*
G54D20*G36*
X46500Y333500D02*Y327500D01*
X52500D01*
Y333500D01*
X46500D01*
G37*
G54D15*X49500Y320500D03*
Y310500D03*
X79500D03*
Y320500D03*
Y330500D03*
G54D20*G36*
X46500Y347500D02*Y341500D01*
X52500D01*
Y347500D01*
X46500D01*
G37*
G54D15*X49500Y354500D03*
Y300500D03*
Y290500D03*
Y280500D03*
Y270500D03*
Y260500D03*
G54D20*G36*
X21000Y333500D02*Y327500D01*
X27000D01*
Y333500D01*
X21000D01*
G37*
G54D15*X24000Y320500D03*
G54D20*G36*
X21000Y297500D02*Y291500D01*
X27000D01*
Y297500D01*
X21000D01*
G37*
G54D15*X24000Y284500D03*
G54D21*X94000Y318000D03*
Y338000D03*
G54D24*X15000Y357000D03*
G54D15*X79500Y260500D03*
G54D20*G36*
X68000Y176500D02*Y170500D01*
X74000D01*
Y176500D01*
X68000D01*
G37*
G54D15*X71000Y183500D03*
G54D21*X90500Y193000D03*
Y173000D03*
G54D23*X18500Y215000D03*
Y225000D03*
Y235000D03*
G54D20*G36*
X30500Y185500D02*Y178500D01*
X37500D01*
Y185500D01*
X30500D01*
G37*
G54D23*X44000Y182000D03*
G54D20*G36*
X15000Y208500D02*Y201500D01*
X22000D01*
Y208500D01*
X15000D01*
G37*
G36*
X12368Y135710D02*Y129710D01*
X18368D01*
Y135710D01*
X12368D01*
G37*
G54D15*X10000Y150600D03*
G54D23*X35000Y103100D03*
G54D15*X29510Y118568D03*
G54D20*G36*
X46500Y154100D02*Y147100D01*
X53500D01*
Y154100D01*
X46500D01*
G37*
G54D23*X60000Y150600D03*
G54D21*X55000Y110600D03*
G54D20*G36*
X72000Y133600D02*Y127600D01*
X78000D01*
Y133600D01*
X72000D01*
G37*
G54D15*X75000Y120600D03*
Y110600D03*
G54D24*X15000Y177000D03*
G54D20*G36*
X44500Y73600D02*Y67600D01*
X50500D01*
Y73600D01*
X44500D01*
G37*
G54D21*X55000Y90600D03*
G54D15*X57500Y70600D03*
G54D26*X35000Y54600D03*
X54000Y42500D03*
X35000Y30600D03*
G54D20*G36*
X32000Y76100D02*Y70100D01*
X38000D01*
Y76100D01*
X32000D01*
G37*
G36*
X12900Y93600D02*Y87600D01*
X18900D01*
Y93600D01*
X12900D01*
G37*
G54D15*X15900Y80600D03*
X10000Y10600D03*
G54D20*G36*
X66600Y59000D02*Y52200D01*
X73400D01*
Y59000D01*
X66600D01*
G37*
G36*
Y86500D02*Y79700D01*
X73400D01*
Y86500D01*
X66600D01*
G37*
G54D15*X75000Y100600D03*
X105000D03*
G54D22*X120000Y95600D03*
G54D15*X105000Y110600D03*
Y120600D03*
Y130600D03*
G54D20*G36*
X116600Y139000D02*Y132200D01*
X123400D01*
Y139000D01*
X116600D01*
G37*
G54D15*X120000Y150600D03*
G54D20*G36*
X142868Y135710D02*Y129710D01*
X148868D01*
Y135710D01*
X142868D01*
G37*
G54D15*X140500Y150600D03*
G54D22*X110000Y55600D03*
Y83100D03*
G54D15*X120000Y10600D03*
G54D20*G36*
X175000Y73600D02*Y67600D01*
X181000D01*
Y73600D01*
X175000D01*
G37*
G54D15*X188000Y70600D03*
G54D26*X165500Y54600D03*
X184500Y42500D03*
X165500Y30600D03*
G54D20*G36*
X162500Y76100D02*Y70100D01*
X168500D01*
Y76100D01*
X162500D01*
G37*
G54D15*X146400Y80600D03*
X140500Y10600D03*
G54D20*G36*
X177000Y154100D02*Y147100D01*
X184000D01*
Y154100D01*
X177000D01*
G37*
G54D23*X190500Y150600D03*
G54D20*G36*
X202500Y133600D02*Y127600D01*
X208500D01*
Y133600D01*
X202500D01*
G37*
G54D15*X205500Y120600D03*
Y110600D03*
Y100600D03*
G54D21*X185500Y90600D03*
G54D20*G36*
X143400Y93600D02*Y87600D01*
X149400D01*
Y93600D01*
X143400D01*
G37*
G54D21*X185500Y110600D03*
G54D23*X165500Y103100D03*
G54D15*X160010Y118568D03*
X235500Y100600D03*
Y110600D03*
Y120600D03*
Y130600D03*
G54D20*G36*
X247100Y139000D02*Y132200D01*
X253900D01*
Y139000D01*
X247100D01*
G37*
G54D15*X250500Y150600D03*
G54D22*Y95600D03*
G54D20*G36*
X197100Y59000D02*Y52200D01*
X203900D01*
Y59000D01*
X197100D01*
G37*
G36*
Y86500D02*Y79700D01*
X203900D01*
Y86500D01*
X197100D01*
G37*
G54D22*X240500Y55600D03*
Y83100D03*
G54D15*X250500Y10600D03*
G54D20*G36*
X273000Y93000D02*Y87000D01*
X279000D01*
Y93000D01*
X273000D01*
G37*
G54D15*X276000Y80000D03*
X270500Y10500D03*
G54D26*X295500Y54000D03*
G54D27*X314500Y41900D03*
X295500Y30000D03*
G54D20*G36*
X333500Y44000D02*Y38000D01*
X339500D01*
Y44000D01*
X333500D01*
G37*
G54D15*X336500Y31000D03*
Y21000D03*
Y11000D03*
X366500D03*
Y21000D03*
Y31000D03*
X380500Y10500D03*
X366500Y41000D03*
G54D22*X371500Y56000D03*
G54D20*G36*
X328600Y85400D02*Y78600D01*
X335400D01*
Y85400D01*
X328600D01*
G37*
G36*
X328100Y59400D02*Y52600D01*
X334900D01*
Y59400D01*
X328100D01*
G37*
G54D22*X372000Y82000D03*
G54D21*X315500Y90500D03*
G54D20*G36*
X291750Y75250D02*Y68750D01*
X298250D01*
Y75250D01*
X291750D01*
G37*
G36*
X306000Y74000D02*Y68000D01*
X312000D01*
Y74000D01*
X306000D01*
G37*
G54D15*X319000Y71000D03*
X380500Y150500D03*
M02*
