M48
INCH
T92C0.042
T91C0.028
T90C0.040
T89C0.044
T88C0.043
T87C0.035
T86C0.030
T85C0.114
T84C0.038
T83C0.028
%
T83
X022050Y033050
X022050Y032050
X022050Y031050
X022050Y030050
X022050Y029050
X025050Y031050
X025050Y032050
X025050Y033050
X022050Y028050
X025050Y028050
X025050Y029050
X025050Y030050
X017950Y028750
X019950Y028750
X022050Y027050
X025050Y027050
X012350Y027050
X015350Y027050
X022050Y026050
X025050Y026050
X022050Y025050
X022050Y024050
X025050Y024050
X025050Y025050
X004950Y027050
X004950Y026050
X007950Y026050
X007950Y027050
X004950Y031050
X004950Y030050
X004950Y029050
X004950Y028050
X007950Y028050
X007950Y029050
X007950Y030050
X007950Y031050
X007950Y032050
X007950Y033050
X012350Y033050
X012350Y032050
X012350Y031050
X012350Y030050
X012350Y029050
X012350Y028050
X015350Y028050
X015350Y029050
X015350Y030050
X015350Y031050
X015350Y032050
X015350Y033050
X004950Y033050
X004950Y032050
X007520Y012990
X010520Y012990
X007520Y011990
X007520Y010990
X007520Y009990
X010520Y009990
X010520Y010990
X010520Y011990
X020550Y007050
X020550Y006050
X020550Y005050
X023550Y007050
X020550Y004050
X023550Y005050
X023550Y006050
X023550Y004050
X033500Y013050
X036500Y013050
X033500Y012050
X036500Y012050
X036500Y010050
X036500Y011050
X033500Y011050
X033500Y010050
X033600Y004100
X033600Y003100
X033600Y002100
X033600Y001100
X036600Y001100
X036600Y002100
X036600Y003100
X036600Y004100
T91
X005420Y004180
X003520Y002990
X003520Y005390
X016500Y005400
X018400Y004190
X016500Y003000
X029500Y005400
X031400Y004190
X029500Y003000
T86
X019250Y035400
X019250Y034400
X008150Y035450
X008150Y034450
X002400Y033050
X002400Y032050
X002400Y029450
X002400Y028450
X004950Y034450
X004950Y035450
X001557Y013201
X001610Y008990
X001610Y007990
X002971Y011787
X007850Y017300
X007850Y018300
X005770Y006990
X004770Y006990
X027554Y013232
X028968Y011818
X027550Y009000
X027550Y008000
X015550Y006400
X015550Y007400
X015350Y014250
X016350Y014250
X014500Y011000
X016500Y011000
X030850Y007100
X031850Y007100
T87
X017950Y030050
X019950Y030050
X017950Y031750
X019950Y031750
X027700Y023150
X027700Y025150
X018000Y027250
X020000Y027250
X009650Y019300
X009650Y017300
X009400Y031800
X009400Y033800
X012700Y035000
X014700Y035000
X005520Y008990
X005520Y010990
X018700Y008350
X018700Y006350
X018300Y010200
X018300Y012200
X031500Y009050
X031500Y011050
T84
X026850Y031050
X026850Y032150
X027000Y035600
X027000Y034600
X026850Y029950
X030850Y031050
X030850Y032150
X030850Y029950
X031000Y035600
X031000Y034600
X030000Y035600
X030000Y034600
X029000Y035600
X029000Y034600
X028000Y035600
X028000Y034600
X024150Y034550
X023150Y034550
X021050Y033050
X028550Y027750
X029550Y027750
X033700Y027050
X033700Y028050
X033700Y029050
X033700Y030050
X033700Y031050
X033700Y032050
X033750Y023700
X033750Y022700
X033750Y021700
X033750Y020700
X030950Y015050
X031950Y015050
X018150Y020850
X012850Y020850
X016850Y020850
X023150Y020850
X027150Y020850
X022150Y020850
X017050Y033050
X001850Y020500
X001850Y021500
X001850Y022500
X001850Y023500
X004650Y018150
X005650Y018150
X005020Y014990
X006020Y014990
X012020Y013490
X012020Y009490
X011020Y005490
X011020Y008240
X007020Y005490
X007020Y008240
X019900Y008450
X023900Y008450
X024750Y007350
X018250Y015000
X019250Y015000
X019550Y002300
X019550Y001000
X024750Y003350
X023550Y002300
X023550Y001000
X038000Y013550
X038000Y009550
X037150Y008200
X033150Y008200
X037050Y014550
X033050Y014550
X033100Y005600
X037100Y005600
T90
X003470Y010180
X003470Y007180
X018900Y013800
X021900Y013800
X029450Y010200
X029450Y007200
T92
X021600Y012250
X020600Y012250
X021650Y010250
X019600Y012250
X020650Y010250
X019650Y010250
T88
X024750Y018350
X025750Y018350
X014350Y018350
X015350Y018350
X019750Y018350
X020750Y018350
T89
X001020Y014990
X012020Y014990
X012020Y000990
X001020Y000990
X025000Y015050
X027000Y015050
X014000Y015050
X014000Y001050
X025000Y001050
X027000Y001050
X038000Y015050
X038000Y001050
T85
X033500Y035500
X033500Y017500
X001500Y035300
X001500Y017700
M30
