G04 start of page 9 for group -4079 idx -4079 *
G04 Title: (unknown), topsilk *
G04 Creator: pcb 20110918 *
G04 CreationDate: Fri 24 Oct 2014 08:24:34 GMT UTC *
G04 For: ksarkies *
G04 Format: Gerber/RS-274X *
G04 PCB-Dimensions: 390000 370000 *
G04 PCB-Coordinate-Origin: lower left *
%MOIN*%
%FSLAX25Y25*%
%LNTOPSILK*%
%ADD107C,0.0100*%
%ADD106C,0.0200*%
%ADD105C,0.0060*%
%ADD104C,0.0001*%
G54D104*G36*
X56977Y247514D02*X59554D01*
X59637Y247482D01*
X59684Y247406D01*
X59733Y247167D01*
X59777Y246945D01*
X60168Y244813D01*
X60215Y244725D01*
X60298Y244667D01*
X60401Y244623D01*
X61191Y244352D01*
X61941Y243994D01*
X61947D01*
X62034Y243956D01*
X62131Y243942D01*
X62229Y243973D01*
X64002Y245192D01*
X64193Y245317D01*
X64394Y245453D01*
X64480Y245478D01*
X64562Y245442D01*
X64893Y245112D01*
X65397Y244612D01*
X65555Y244449D01*
X66054Y243951D01*
X66216Y243794D01*
X66384Y243620D01*
X66423Y243535D01*
X66401Y243446D01*
X66265Y243245D01*
X66136Y243055D01*
X64947Y241319D01*
X64915Y241227D01*
X64930Y241130D01*
X64975Y241031D01*
X65658Y239425D01*
X65695Y239334D01*
X65758Y239256D01*
X65848Y239209D01*
X67887Y238828D01*
X68111Y238785D01*
X68354Y238742D01*
X68429Y238695D01*
X68458Y238612D01*
Y236035D01*
X68429Y235946D01*
X68354Y235899D01*
X68111Y235856D01*
X67887Y235813D01*
X65908Y235444D01*
X65820Y235396D01*
X65766Y235313D01*
X65738Y235253D01*
Y235242D01*
X65023Y233469D01*
X65018Y233457D01*
X65001Y233414D01*
X64984Y233313D01*
X65012Y233219D01*
X66141Y231587D01*
X66265Y231396D01*
X66406Y231195D01*
X66425Y231109D01*
X66384Y231027D01*
X66216Y230848D01*
X66054Y230691D01*
X64736Y229373D01*
X64562Y229205D01*
X64480Y229164D01*
X64394Y229182D01*
X64193Y229324D01*
X64002Y229448D01*
X62408Y230545D01*
X62309Y230574D01*
X62212Y230555D01*
X61881Y230371D01*
X61687Y230262D01*
X61340Y230084D01*
X61255Y230078D01*
X61193Y230138D01*
X61047Y230495D01*
X60959Y230702D01*
X59576Y234060D01*
X59488Y234266D01*
X59391Y234499D01*
X59387Y234594D01*
X59440Y234667D01*
X59663Y234798D01*
X59804Y234906D01*
X60340Y235352D01*
X60755Y235916D01*
X61022Y236575D01*
X61116Y237305D01*
X61058Y237880D01*
X60893Y238414D01*
X60630Y238899D01*
X60281Y239321D01*
X59861Y239670D01*
X59377Y239934D01*
X58843Y240099D01*
X58269Y240157D01*
X57694Y240099D01*
X57159Y239934D01*
X56676Y239670D01*
X56254Y239321D01*
X55906Y238899D01*
X55644Y238414D01*
X55479Y237880D01*
X55420Y237305D01*
X55513Y236575D01*
X55780Y235916D01*
X56194Y235352D01*
X56733Y234906D01*
X56869Y234798D01*
X57091Y234667D01*
X57145Y234594D01*
X57140Y234499D01*
X57043Y234266D01*
X56955Y234060D01*
X55572Y230702D01*
X55486Y230495D01*
X55338Y230138D01*
X55277Y230078D01*
X55193Y230084D01*
X54851Y230262D01*
X54650Y230371D01*
X54319Y230555D01*
X54220Y230574D01*
X54123Y230545D01*
X52529Y229448D01*
X52344Y229324D01*
X52138Y229182D01*
X52051Y229164D01*
X51969Y229205D01*
X51795Y229373D01*
X51638Y229535D01*
X51140Y230034D01*
X50977Y230192D01*
X50477Y230691D01*
X50315Y230848D01*
X50147Y231027D01*
X50108Y231109D01*
X50130Y231195D01*
X50266Y231396D01*
X50397Y231587D01*
X51519Y233219D01*
X51547Y233313D01*
X51530Y233414D01*
X51508Y233474D01*
X50798Y235248D01*
X50765Y235313D01*
X50711Y235396D01*
X50625Y235444D01*
X48644Y235813D01*
X48422Y235856D01*
X48183Y235899D01*
X48104Y235949D01*
X48075Y236035D01*
Y238612D01*
X48104Y238695D01*
X48183Y238742D01*
X48422Y238791D01*
X48644Y238828D01*
X50684Y239209D01*
X50773Y239256D01*
X50836Y239339D01*
X50873Y239425D01*
X51562Y241031D01*
X51601Y241130D01*
X51618Y241227D01*
X51590Y241319D01*
X50397Y243060D01*
X50266Y243245D01*
X50130Y243446D01*
X50108Y243535D01*
X50147Y243620D01*
X50315Y243794D01*
X50477Y243951D01*
X51969Y245442D01*
X52051Y245478D01*
X52138Y245459D01*
X52344Y245323D01*
X52529Y245192D01*
X54302Y243973D01*
X54400Y243944D01*
X54498Y243962D01*
X54584Y243994D01*
X54595Y243999D01*
X55341Y244353D01*
X56131Y244628D01*
X56234Y244667D01*
X56318Y244725D01*
X56363Y244813D01*
X56761Y246945D01*
X56798Y247167D01*
X56847Y247406D01*
X56894Y247482D01*
X56977Y247514D01*
G37*
G36*
X84977Y21114D02*X87554D01*
X87637Y21082D01*
X87684Y21006D01*
X87733Y20767D01*
X87777Y20545D01*
X88168Y18413D01*
X88215Y18325D01*
X88298Y18267D01*
X88401Y18223D01*
X89191Y17952D01*
X89941Y17594D01*
X89947D01*
X90034Y17556D01*
X90131Y17542D01*
X90229Y17573D01*
X92002Y18792D01*
X92193Y18917D01*
X92394Y19053D01*
X92480Y19078D01*
X92562Y19042D01*
X92893Y18712D01*
X93397Y18212D01*
X93555Y18049D01*
X94054Y17551D01*
X94216Y17394D01*
X94384Y17220D01*
X94423Y17135D01*
X94401Y17046D01*
X94265Y16845D01*
X94136Y16655D01*
X92947Y14919D01*
X92915Y14827D01*
X92930Y14730D01*
X92975Y14631D01*
X93658Y13025D01*
X93695Y12934D01*
X93758Y12856D01*
X93848Y12809D01*
X95887Y12428D01*
X96111Y12385D01*
X96354Y12342D01*
X96429Y12295D01*
X96458Y12212D01*
Y9635D01*
X96429Y9546D01*
X96354Y9499D01*
X96111Y9456D01*
X95887Y9413D01*
X93908Y9044D01*
X93820Y8996D01*
X93766Y8913D01*
X93738Y8853D01*
Y8842D01*
X93023Y7069D01*
X93018Y7057D01*
X93001Y7014D01*
X92984Y6913D01*
X93012Y6819D01*
X94141Y5187D01*
X94265Y4996D01*
X94406Y4795D01*
X94425Y4709D01*
X94384Y4627D01*
X94216Y4448D01*
X94054Y4291D01*
X92736Y2973D01*
X92562Y2805D01*
X92480Y2764D01*
X92394Y2782D01*
X92193Y2924D01*
X92002Y3048D01*
X90408Y4145D01*
X90309Y4174D01*
X90212Y4155D01*
X89881Y3971D01*
X89687Y3862D01*
X89340Y3684D01*
X89255Y3678D01*
X89193Y3738D01*
X89047Y4095D01*
X88959Y4302D01*
X87576Y7660D01*
X87488Y7866D01*
X87391Y8099D01*
X87387Y8194D01*
X87440Y8267D01*
X87663Y8398D01*
X87804Y8506D01*
X88340Y8952D01*
X88755Y9516D01*
X89022Y10175D01*
X89116Y10905D01*
X89058Y11480D01*
X88893Y12014D01*
X88630Y12499D01*
X88281Y12921D01*
X87861Y13270D01*
X87377Y13534D01*
X86843Y13699D01*
X86269Y13757D01*
X85694Y13699D01*
X85159Y13534D01*
X84676Y13270D01*
X84254Y12921D01*
X83906Y12499D01*
X83644Y12014D01*
X83479Y11480D01*
X83420Y10905D01*
X83513Y10175D01*
X83780Y9516D01*
X84194Y8952D01*
X84733Y8506D01*
X84869Y8398D01*
X85091Y8267D01*
X85145Y8194D01*
X85140Y8099D01*
X85043Y7866D01*
X84955Y7660D01*
X83572Y4302D01*
X83486Y4095D01*
X83338Y3738D01*
X83277Y3678D01*
X83193Y3684D01*
X82851Y3862D01*
X82650Y3971D01*
X82319Y4155D01*
X82220Y4174D01*
X82123Y4145D01*
X80529Y3048D01*
X80344Y2924D01*
X80138Y2782D01*
X80051Y2764D01*
X79969Y2805D01*
X79795Y2973D01*
X79638Y3135D01*
X79140Y3634D01*
X78977Y3792D01*
X78477Y4291D01*
X78315Y4448D01*
X78147Y4627D01*
X78108Y4709D01*
X78130Y4795D01*
X78266Y4996D01*
X78397Y5187D01*
X79519Y6819D01*
X79547Y6913D01*
X79530Y7014D01*
X79508Y7074D01*
X78798Y8848D01*
X78765Y8913D01*
X78711Y8996D01*
X78625Y9044D01*
X76644Y9413D01*
X76422Y9456D01*
X76183Y9499D01*
X76104Y9549D01*
X76075Y9635D01*
Y12212D01*
X76104Y12295D01*
X76183Y12342D01*
X76422Y12391D01*
X76644Y12428D01*
X78684Y12809D01*
X78773Y12856D01*
X78836Y12939D01*
X78873Y13025D01*
X79562Y14631D01*
X79601Y14730D01*
X79618Y14827D01*
X79590Y14919D01*
X78397Y16660D01*
X78266Y16845D01*
X78130Y17046D01*
X78108Y17135D01*
X78147Y17220D01*
X78315Y17394D01*
X78477Y17551D01*
X79969Y19042D01*
X80051Y19078D01*
X80138Y19059D01*
X80344Y18923D01*
X80529Y18792D01*
X82302Y17573D01*
X82400Y17544D01*
X82498Y17562D01*
X82584Y17594D01*
X82595Y17599D01*
X83341Y17953D01*
X84131Y18228D01*
X84234Y18267D01*
X84318Y18325D01*
X84363Y18413D01*
X84761Y20545D01*
X84798Y20767D01*
X84847Y21006D01*
X84894Y21082D01*
X84977Y21114D01*
G37*
G36*
X215477D02*X218054D01*
X218137Y21082D01*
X218184Y21006D01*
X218233Y20767D01*
X218277Y20545D01*
X218668Y18413D01*
X218715Y18325D01*
X218798Y18267D01*
X218901Y18223D01*
X219691Y17952D01*
X220441Y17594D01*
X220447D01*
X220534Y17556D01*
X220631Y17542D01*
X220729Y17573D01*
X222502Y18792D01*
X222693Y18917D01*
X222894Y19053D01*
X222980Y19078D01*
X223062Y19042D01*
X223393Y18712D01*
X223897Y18212D01*
X224055Y18049D01*
X224554Y17551D01*
X224716Y17394D01*
X224884Y17220D01*
X224923Y17135D01*
X224901Y17046D01*
X224765Y16845D01*
X224636Y16655D01*
X223447Y14919D01*
X223415Y14827D01*
X223430Y14730D01*
X223475Y14631D01*
X224158Y13025D01*
X224195Y12934D01*
X224258Y12856D01*
X224348Y12809D01*
X226387Y12428D01*
X226611Y12385D01*
X226854Y12342D01*
X226929Y12295D01*
X226958Y12212D01*
Y9635D01*
X226929Y9546D01*
X226854Y9499D01*
X226611Y9456D01*
X226387Y9413D01*
X224408Y9044D01*
X224320Y8996D01*
X224266Y8913D01*
X224238Y8853D01*
Y8842D01*
X223523Y7069D01*
X223518Y7057D01*
X223501Y7014D01*
X223484Y6913D01*
X223512Y6819D01*
X224641Y5187D01*
X224765Y4996D01*
X224906Y4795D01*
X224925Y4709D01*
X224884Y4627D01*
X224716Y4448D01*
X224554Y4291D01*
X223236Y2973D01*
X223062Y2805D01*
X222980Y2764D01*
X222894Y2782D01*
X222693Y2924D01*
X222502Y3048D01*
X220908Y4145D01*
X220809Y4174D01*
X220712Y4155D01*
X220381Y3971D01*
X220187Y3862D01*
X219840Y3684D01*
X219755Y3678D01*
X219693Y3738D01*
X219547Y4095D01*
X219459Y4302D01*
X218076Y7660D01*
X217988Y7866D01*
X217891Y8099D01*
X217887Y8194D01*
X217940Y8267D01*
X218163Y8398D01*
X218304Y8506D01*
X218840Y8952D01*
X219255Y9516D01*
X219522Y10175D01*
X219616Y10905D01*
X219558Y11480D01*
X219393Y12014D01*
X219130Y12499D01*
X218781Y12921D01*
X218361Y13270D01*
X217877Y13534D01*
X217343Y13699D01*
X216769Y13757D01*
X216194Y13699D01*
X215659Y13534D01*
X215176Y13270D01*
X214754Y12921D01*
X214406Y12499D01*
X214144Y12014D01*
X213979Y11480D01*
X213920Y10905D01*
X214013Y10175D01*
X214280Y9516D01*
X214694Y8952D01*
X215233Y8506D01*
X215369Y8398D01*
X215591Y8267D01*
X215645Y8194D01*
X215640Y8099D01*
X215543Y7866D01*
X215455Y7660D01*
X214072Y4302D01*
X213986Y4095D01*
X213838Y3738D01*
X213777Y3678D01*
X213693Y3684D01*
X213351Y3862D01*
X213150Y3971D01*
X212819Y4155D01*
X212720Y4174D01*
X212623Y4145D01*
X211029Y3048D01*
X210844Y2924D01*
X210638Y2782D01*
X210551Y2764D01*
X210469Y2805D01*
X210295Y2973D01*
X210138Y3135D01*
X209640Y3634D01*
X209477Y3792D01*
X208977Y4291D01*
X208815Y4448D01*
X208647Y4627D01*
X208608Y4709D01*
X208630Y4795D01*
X208766Y4996D01*
X208897Y5187D01*
X210019Y6819D01*
X210047Y6913D01*
X210030Y7014D01*
X210008Y7074D01*
X209298Y8848D01*
X209265Y8913D01*
X209211Y8996D01*
X209125Y9044D01*
X207144Y9413D01*
X206922Y9456D01*
X206683Y9499D01*
X206604Y9549D01*
X206575Y9635D01*
Y12212D01*
X206604Y12295D01*
X206683Y12342D01*
X206922Y12391D01*
X207144Y12428D01*
X209184Y12809D01*
X209273Y12856D01*
X209336Y12939D01*
X209373Y13025D01*
X210062Y14631D01*
X210101Y14730D01*
X210118Y14827D01*
X210090Y14919D01*
X208897Y16660D01*
X208766Y16845D01*
X208630Y17046D01*
X208608Y17135D01*
X208647Y17220D01*
X208815Y17394D01*
X208977Y17551D01*
X210469Y19042D01*
X210551Y19078D01*
X210638Y19059D01*
X210844Y18923D01*
X211029Y18792D01*
X212802Y17573D01*
X212900Y17544D01*
X212998Y17562D01*
X213084Y17594D01*
X213095Y17599D01*
X213841Y17953D01*
X214631Y18228D01*
X214734Y18267D01*
X214818Y18325D01*
X214863Y18413D01*
X215261Y20545D01*
X215298Y20767D01*
X215347Y21006D01*
X215394Y21082D01*
X215477Y21114D01*
G37*
G54D105*X77500Y220900D02*Y219100D01*
X78100Y218500D01*
X78700D01*
X79300Y219100D01*
Y220900D02*Y219100D01*
X79900Y218500D01*
X80500D01*
X81100Y219100D01*
Y220900D02*Y219100D01*
X82540Y220900D02*Y219100D01*
X83140Y218500D01*
X83740D01*
X84340Y219100D01*
Y220900D02*Y219100D01*
X84940Y218500D01*
X85540D01*
X86140Y219100D01*
Y220900D02*Y219100D01*
X87580Y220900D02*Y219100D01*
X88180Y218500D01*
X88780D01*
X89380Y219100D01*
Y220900D02*Y219100D01*
X89980Y218500D01*
X90580D01*
X91180Y219100D01*
Y220900D02*Y219100D01*
X92620Y218500D02*X93220D01*
X95260Y222100D02*Y221500D01*
Y220300D02*Y217300D01*
X94660Y216700D02*X95260Y217300D01*
X96460Y222100D02*Y221500D01*
Y220300D02*Y218500D01*
X99460Y220900D02*X100060Y220300D01*
X98260Y220900D02*X99460D01*
X97660Y220300D02*X98260Y220900D01*
X97660Y220300D02*Y219100D01*
X98260Y218500D01*
X99460D01*
X100060Y219100D01*
X97660Y217300D02*X98260Y216700D01*
X99460D01*
X100060Y217300D01*
Y220900D02*Y217300D01*
X103300Y220900D02*X103900Y220300D01*
X102100Y220900D02*X103300D01*
X101500Y220300D02*X102100Y220900D01*
X101500Y220300D02*Y219100D01*
X102100Y218500D01*
X103300D01*
X103900Y219100D01*
X101500Y217300D02*X102100Y216700D01*
X103300D01*
X103900Y217300D01*
Y220900D02*Y217300D01*
X105940Y218500D02*X107740D01*
X105340Y219100D02*X105940Y218500D01*
X105340Y220300D02*Y219100D01*
Y220300D02*X105940Y220900D01*
X107140D01*
X107740Y220300D01*
X105340Y219700D02*X107740D01*
Y220300D02*Y219700D01*
X109780Y220300D02*Y218500D01*
Y220300D02*X110380Y220900D01*
X111580D01*
X109180D02*X109780Y220300D01*
X113620Y222100D02*Y221500D01*
Y220300D02*Y217300D01*
X113020Y216700D02*X113620Y217300D01*
X114820Y220900D02*Y219100D01*
X115420Y218500D01*
X116620D01*
X117220Y219100D01*
Y220900D02*Y219100D01*
X118660Y222100D02*Y221500D01*
Y220300D02*Y218500D01*
X120460Y220900D02*X122260D01*
X119860Y220300D02*X120460Y220900D01*
X119860Y220300D02*Y219100D01*
X120460Y218500D01*
X122260D01*
X124300D02*X126100D01*
X123700Y219100D02*X124300Y218500D01*
X123700Y220300D02*Y219100D01*
Y220300D02*X124300Y220900D01*
X125500D01*
X126100Y220300D01*
X123700Y219700D02*X126100D01*
Y220300D02*Y219700D01*
X127540Y218500D02*X128140D01*
X129580Y222100D02*Y221500D01*
Y220300D02*Y218500D01*
X131380Y220300D02*Y218500D01*
Y220300D02*X131980Y220900D01*
X132580D01*
X133180Y220300D01*
Y218500D01*
X130780Y220900D02*X131380Y220300D01*
X135220Y222700D02*Y218500D01*
Y222700D02*X135820Y223300D01*
X136420D01*
X134620Y220900D02*X135820D01*
X137620Y220300D02*Y219100D01*
Y220300D02*X138220Y220900D01*
X139420D01*
X140020Y220300D01*
Y219100D01*
X139420Y218500D02*X140020Y219100D01*
X138220Y218500D02*X139420D01*
X137620Y219100D02*X138220Y218500D01*
X70500Y232800D02*Y229200D01*
X71700Y228000D01*
X72900Y229200D01*
Y232800D02*Y229200D01*
X74940Y228000D02*X76740D01*
X74340Y228600D02*X74940Y228000D01*
X74340Y229800D02*Y228600D01*
Y229800D02*X74940Y230400D01*
X76140D01*
X76740Y229800D01*
X74340Y229200D02*X76740D01*
Y229800D02*Y229200D01*
X78780Y229800D02*Y228000D01*
Y229800D02*X79380Y230400D01*
X80580D01*
X78180D02*X78780Y229800D01*
X82620Y228000D02*X84420D01*
X85020Y228600D01*
X84420Y229200D02*X85020Y228600D01*
X82620Y229200D02*X84420D01*
X82020Y229800D02*X82620Y229200D01*
X82020Y229800D02*X82620Y230400D01*
X84420D01*
X85020Y229800D01*
X82020Y228600D02*X82620Y228000D01*
X86460Y231600D02*Y231000D01*
Y229800D02*Y228000D01*
X87660Y229800D02*Y228600D01*
Y229800D02*X88260Y230400D01*
X89460D01*
X90060Y229800D01*
Y228600D01*
X89460Y228000D02*X90060Y228600D01*
X88260Y228000D02*X89460D01*
X87660Y228600D02*X88260Y228000D01*
X92100Y229800D02*Y228000D01*
Y229800D02*X92700Y230400D01*
X93300D01*
X93900Y229800D01*
Y228000D01*
X91500Y230400D02*X92100Y229800D01*
X97500Y228600D02*X98100Y228000D01*
X97500Y232200D02*Y228600D01*
Y232200D02*X98100Y232800D01*
X99300D01*
X99900Y232200D01*
Y228600D01*
X99300Y228000D02*X99900Y228600D01*
X98100Y228000D02*X99300D01*
X97500Y229200D02*X99900Y231600D01*
X101340Y228000D02*X101940D01*
X103380Y228600D02*X103980Y228000D01*
X103380Y232200D02*Y228600D01*
Y232200D02*X103980Y232800D01*
X105180D01*
X105780Y232200D01*
Y228600D01*
X105180Y228000D02*X105780Y228600D01*
X103980Y228000D02*X105180D01*
X103380Y229200D02*X105780Y231600D01*
X109380Y232800D02*Y228000D01*
X111780D01*
X113220Y231600D02*Y231000D01*
Y229800D02*Y228000D01*
X115020Y230400D02*X116820D01*
X114420Y229800D02*X115020Y230400D01*
X114420Y229800D02*Y228600D01*
X115020Y228000D01*
X116820D01*
X118860D02*X120660D01*
X118260Y228600D02*X118860Y228000D01*
X118260Y229800D02*Y228600D01*
Y229800D02*X118860Y230400D01*
X120060D01*
X120660Y229800D01*
X118260Y229200D02*X120660D01*
Y229800D02*Y229200D01*
X122700Y229800D02*Y228000D01*
Y229800D02*X123300Y230400D01*
X123900D01*
X124500Y229800D01*
Y228000D01*
X122100Y230400D02*X122700Y229800D01*
X126540Y230400D02*X128340D01*
X125940Y229800D02*X126540Y230400D01*
X125940Y229800D02*Y228600D01*
X126540Y228000D01*
X128340D01*
X130380D02*X132180D01*
X129780Y228600D02*X130380Y228000D01*
X129780Y229800D02*Y228600D01*
Y229800D02*X130380Y230400D01*
X131580D01*
X132180Y229800D01*
X129780Y229200D02*X132180D01*
Y229800D02*Y229200D01*
X136380Y230400D02*X138180D01*
X135780Y229800D02*X136380Y230400D01*
X135780Y229800D02*Y228600D01*
X136380Y228000D01*
X138180D01*
X140220Y230400D02*X142020D01*
X139620Y229800D02*X140220Y230400D01*
X139620Y229800D02*Y228600D01*
X140220Y228000D01*
X142020D01*
X143460Y230400D02*X145860D01*
X147300Y232800D02*Y228000D01*
Y228600D02*X147900Y228000D01*
X149100D01*
X149700Y228600D01*
Y229800D02*Y228600D01*
X149100Y230400D02*X149700Y229800D01*
X147900Y230400D02*X149100D01*
X147300Y229800D02*X147900Y230400D01*
X151140D02*Y228600D01*
X151740Y228000D01*
X153540Y230400D02*Y226800D01*
X152940Y226200D02*X153540Y226800D01*
X151740Y226200D02*X152940D01*
X151140Y226800D02*X151740Y226200D01*
Y228000D02*X152940D01*
X153540Y228600D01*
X154980Y230400D02*X157380D01*
X159420Y228000D02*X161220D01*
X161820Y228600D01*
X161220Y229200D02*X161820Y228600D01*
X159420Y229200D02*X161220D01*
X158820Y229800D02*X159420Y229200D01*
X158820Y229800D02*X159420Y230400D01*
X161220D01*
X161820Y229800D01*
X158820Y228600D02*X159420Y228000D01*
X165060Y230400D02*X165660Y229800D01*
X163860Y230400D02*X165060D01*
X163260Y229800D02*X163860Y230400D01*
X163260Y229800D02*Y228600D01*
X163860Y228000D01*
X165660Y230400D02*Y228600D01*
X166260Y228000D01*
X163860D02*X165060D01*
X165660Y228600D01*
X75500Y241300D02*Y236500D01*
Y238900D02*X77900Y241300D01*
X75500Y238900D02*X77900Y236500D01*
X79340D02*X79940D01*
X83540Y241300D02*Y236500D01*
X85340Y238300D01*
X87140Y236500D01*
Y241300D02*Y236500D01*
X88580D02*X89180D01*
X95180Y241300D02*X95780Y240700D01*
X93380Y241300D02*X95180D01*
X92780Y240700D02*X93380Y241300D01*
X92780Y240700D02*Y239500D01*
X93380Y238900D01*
X95180D01*
X95780Y238300D01*
Y237100D01*
X95180Y236500D02*X95780Y237100D01*
X93380Y236500D02*X95180D01*
X92780Y237100D02*X93380Y236500D01*
X99020Y238900D02*X99620Y238300D01*
X97820Y238900D02*X99020D01*
X97220Y238300D02*X97820Y238900D01*
X97220Y238300D02*Y237100D01*
X97820Y236500D01*
X99620Y238900D02*Y237100D01*
X100220Y236500D01*
X97820D02*X99020D01*
X99620Y237100D01*
X102260Y238300D02*Y236500D01*
Y238300D02*X102860Y238900D01*
X104060D01*
X101660D02*X102260Y238300D01*
X105500Y241300D02*Y236500D01*
Y238300D02*X107300Y236500D01*
X105500Y238300D02*X106700Y239500D01*
X108740Y240100D02*Y239500D01*
Y238300D02*Y236500D01*
X110540D02*X112340D01*
X109940Y237100D02*X110540Y236500D01*
X109940Y238300D02*Y237100D01*
Y238300D02*X110540Y238900D01*
X111740D01*
X112340Y238300D01*
X109940Y237700D02*X112340D01*
Y238300D02*Y237700D01*
X114380Y236500D02*X116180D01*
X116780Y237100D01*
X116180Y237700D02*X116780Y237100D01*
X114380Y237700D02*X116180D01*
X113780Y238300D02*X114380Y237700D01*
X113780Y238300D02*X114380Y238900D01*
X116180D01*
X116780Y238300D01*
X113780Y237100D02*X114380Y236500D01*
X120380Y240700D02*X120980Y241300D01*
X122780D01*
X123380Y240700D01*
Y239500D01*
X120380Y236500D02*X123380Y239500D01*
X120380Y236500D02*X123380D01*
X124820Y240700D02*X125420Y241300D01*
X126620D01*
X127220Y240700D01*
Y237100D01*
X126620Y236500D02*X127220Y237100D01*
X125420Y236500D02*X126620D01*
X124820Y237100D02*X125420Y236500D01*
Y238900D02*X127220D01*
X128660Y237100D02*X132260Y240700D01*
X134300Y236500D02*X135500D01*
X134900Y241300D02*Y236500D01*
X133700Y240100D02*X134900Y241300D01*
X136940Y237100D02*X137540Y236500D01*
X136940Y240700D02*Y237100D01*
Y240700D02*X137540Y241300D01*
X138740D01*
X139340Y240700D01*
Y237100D01*
X138740Y236500D02*X139340Y237100D01*
X137540Y236500D02*X138740D01*
X136940Y237700D02*X139340Y240100D01*
X140780Y237100D02*X144380Y240700D01*
X145820D02*X146420Y241300D01*
X148220D01*
X148820Y240700D01*
Y239500D01*
X145820Y236500D02*X148820Y239500D01*
X145820Y236500D02*X148820D01*
X150260Y237100D02*X150860Y236500D01*
X150260Y240700D02*Y237100D01*
Y240700D02*X150860Y241300D01*
X152060D01*
X152660Y240700D01*
Y237100D01*
X152060Y236500D02*X152660Y237100D01*
X150860Y236500D02*X152060D01*
X150260Y237700D02*X152660Y240100D01*
X154700Y236500D02*X155900D01*
X155300Y241300D02*Y236500D01*
X154100Y240100D02*X155300Y241300D01*
X157340Y238900D02*X159740Y241300D01*
X157340Y238900D02*X160340D01*
X159740Y241300D02*Y236500D01*
X78000Y248700D02*Y244500D01*
Y248700D02*X78600Y249300D01*
X80400D01*
X81000Y248700D01*
Y244500D01*
X78000Y246900D02*X81000D01*
X82440Y249300D02*Y245700D01*
X83640Y244500D01*
X84840Y245700D01*
Y249300D02*Y245700D01*
X86280Y249300D02*X88680D01*
X89280Y248700D01*
Y247500D01*
X88680Y246900D02*X89280Y247500D01*
X86880Y246900D02*X88680D01*
X86880Y249300D02*Y244500D01*
Y246900D02*X89280Y244500D01*
X95280Y249300D02*X95880Y248700D01*
X93480Y249300D02*X95280D01*
X92880Y248700D02*X93480Y249300D01*
X92880Y248700D02*Y247500D01*
X93480Y246900D01*
X95280D01*
X95880Y246300D01*
Y245100D01*
X95280Y244500D02*X95880Y245100D01*
X93480Y244500D02*X95280D01*
X92880Y245100D02*X93480Y244500D01*
X97920D02*X99720D01*
X97320Y245100D02*X97920Y244500D01*
X97320Y246300D02*Y245100D01*
Y246300D02*X97920Y246900D01*
X99120D01*
X99720Y246300D01*
X97320Y245700D02*X99720D01*
Y246300D02*Y245700D01*
X101760Y246300D02*Y244500D01*
Y246300D02*X102360Y246900D01*
X103560D01*
X101160D02*X101760Y246300D01*
X105000Y248100D02*Y247500D01*
Y246300D02*Y244500D01*
X108000Y246900D02*X108600Y246300D01*
X106800Y246900D02*X108000D01*
X106200Y246300D02*X106800Y246900D01*
X106200Y246300D02*Y245100D01*
X106800Y244500D01*
X108600Y246900D02*Y245100D01*
X109200Y244500D01*
X106800D02*X108000D01*
X108600Y245100D01*
X110640Y249300D02*Y245100D01*
X111240Y244500D01*
X115200Y249300D02*Y244500D01*
X114600Y249300D02*X117000D01*
X117600Y248700D01*
Y247500D01*
X117000Y246900D02*X117600Y247500D01*
X115200Y246900D02*X117000D01*
X119640Y246300D02*Y244500D01*
Y246300D02*X120240Y246900D01*
X121440D01*
X119040D02*X119640Y246300D01*
X122880D02*Y245100D01*
Y246300D02*X123480Y246900D01*
X124680D01*
X125280Y246300D01*
Y245100D01*
X124680Y244500D02*X125280Y245100D01*
X123480Y244500D02*X124680D01*
X122880Y245100D02*X123480Y244500D01*
X128520Y246900D02*X129120Y246300D01*
X127320Y246900D02*X128520D01*
X126720Y246300D02*X127320Y246900D01*
X126720Y246300D02*Y245100D01*
X127320Y244500D01*
X128520D01*
X129120Y245100D01*
X126720Y243300D02*X127320Y242700D01*
X128520D01*
X129120Y243300D01*
Y246900D02*Y243300D01*
X131160Y246300D02*Y244500D01*
Y246300D02*X131760Y246900D01*
X132960D01*
X130560D02*X131160Y246300D01*
X136200Y246900D02*X136800Y246300D01*
X135000Y246900D02*X136200D01*
X134400Y246300D02*X135000Y246900D01*
X134400Y246300D02*Y245100D01*
X135000Y244500D01*
X136800Y246900D02*Y245100D01*
X137400Y244500D01*
X135000D02*X136200D01*
X136800Y245100D01*
X139440Y246300D02*Y244500D01*
Y246300D02*X140040Y246900D01*
X140640D01*
X141240Y246300D01*
Y244500D01*
Y246300D02*X141840Y246900D01*
X142440D01*
X143040Y246300D01*
Y244500D01*
X138840Y246900D02*X139440Y246300D01*
X145080D02*Y244500D01*
Y246300D02*X145680Y246900D01*
X146280D01*
X146880Y246300D01*
Y244500D01*
Y246300D02*X147480Y246900D01*
X148080D01*
X148680Y246300D01*
Y244500D01*
X144480Y246900D02*X145080Y246300D01*
X150720Y244500D02*X152520D01*
X150120Y245100D02*X150720Y244500D01*
X150120Y246300D02*Y245100D01*
Y246300D02*X150720Y246900D01*
X151920D01*
X152520Y246300D01*
X150120Y245700D02*X152520D01*
Y246300D02*Y245700D01*
X154560Y246300D02*Y244500D01*
Y246300D02*X155160Y246900D01*
X156360D01*
X153960D02*X154560Y246300D01*
X26000Y168500D02*Y164500D01*
X25500Y168500D02*X27500D01*
X28000Y168000D01*
Y167000D01*
X27500Y166500D02*X28000Y167000D01*
X26000Y166500D02*X27500D01*
X29200Y166000D02*Y165000D01*
Y166000D02*X29700Y166500D01*
X30700D01*
X31200Y166000D01*
Y165000D01*
X30700Y164500D02*X31200Y165000D01*
X29700Y164500D02*X30700D01*
X29200Y165000D02*X29700Y164500D01*
X32400Y166500D02*Y165000D01*
X32900Y164500D01*
X33400D01*
X33900Y165000D01*
Y166500D02*Y165000D01*
X34400Y164500D01*
X34900D01*
X35400Y165000D01*
Y166500D02*Y165000D01*
X37100Y164500D02*X38600D01*
X36600Y165000D02*X37100Y164500D01*
X36600Y166000D02*Y165000D01*
Y166000D02*X37100Y166500D01*
X38100D01*
X38600Y166000D01*
X36600Y165500D02*X38600D01*
Y166000D02*Y165500D01*
X40300Y166000D02*Y164500D01*
Y166000D02*X40800Y166500D01*
X41800D01*
X39800D02*X40300Y166000D01*
X51500Y190000D02*X52000Y189500D01*
X50000Y190000D02*X51500D01*
X49500Y189500D02*X50000Y190000D01*
X49500Y189500D02*Y186500D01*
X50000Y186000D01*
X51500D01*
X52000Y186500D01*
Y187500D02*Y186500D01*
X51500Y188000D02*X52000Y187500D01*
X50500Y188000D02*X51500D01*
X53700Y187500D02*Y186000D01*
Y187500D02*X54200Y188000D01*
X54700D01*
X55200Y187500D01*
Y186000D01*
X53200Y188000D02*X53700Y187500D01*
X58400Y190000D02*Y186000D01*
X57900D02*X58400Y186500D01*
X56900Y186000D02*X57900D01*
X56400Y186500D02*X56900Y186000D01*
X56400Y187500D02*Y186500D01*
Y187500D02*X56900Y188000D01*
X57900D01*
X58400Y187500D01*
X132500Y167000D02*Y163000D01*
X132000Y167000D02*X134000D01*
X134500Y166500D01*
Y165500D01*
X134000Y165000D02*X134500Y165500D01*
X132500Y165000D02*X134000D01*
X137200D02*X137700Y164500D01*
X136200Y165000D02*X137200D01*
X135700Y164500D02*X136200Y165000D01*
X135700Y164500D02*Y163500D01*
X136200Y163000D01*
X137700Y165000D02*Y163500D01*
X138200Y163000D01*
X136200D02*X137200D01*
X137700Y163500D01*
X139900Y163000D02*X141400D01*
X141900Y163500D01*
X141400Y164000D02*X141900Y163500D01*
X139900Y164000D02*X141400D01*
X139400Y164500D02*X139900Y164000D01*
X139400Y164500D02*X139900Y165000D01*
X141400D01*
X141900Y164500D01*
X139400Y163500D02*X139900Y163000D01*
X143600D02*X145100D01*
X145600Y163500D01*
X145100Y164000D02*X145600Y163500D01*
X143600Y164000D02*X145100D01*
X143100Y164500D02*X143600Y164000D01*
X143100Y164500D02*X143600Y165000D01*
X145100D01*
X145600Y164500D01*
X143100Y163500D02*X143600Y163000D01*
X147300Y167000D02*Y163500D01*
X147800Y163000D01*
X146800Y165500D02*X147800D01*
X148800Y167000D02*Y163000D01*
Y164500D02*X149300Y165000D01*
X150300D01*
X150800Y164500D01*
Y163000D01*
X152500Y164500D02*Y163000D01*
Y164500D02*X153000Y165000D01*
X154000D01*
X152000D02*X152500Y164500D01*
X155200D02*Y163500D01*
Y164500D02*X155700Y165000D01*
X156700D01*
X157200Y164500D01*
Y163500D01*
X156700Y163000D02*X157200Y163500D01*
X155700Y163000D02*X156700D01*
X155200Y163500D02*X155700Y163000D01*
X158400Y165000D02*Y163500D01*
X158900Y163000D01*
X159900D01*
X160400Y163500D01*
Y165000D02*Y163500D01*
X163100Y165000D02*X163600Y164500D01*
X162100Y165000D02*X163100D01*
X161600Y164500D02*X162100Y165000D01*
X161600Y164500D02*Y163500D01*
X162100Y163000D01*
X163100D01*
X163600Y163500D01*
X161600Y162000D02*X162100Y161500D01*
X163100D01*
X163600Y162000D01*
Y165000D02*Y162000D01*
X164800Y167000D02*Y163000D01*
Y164500D02*X165300Y165000D01*
X166300D01*
X166800Y164500D01*
Y163000D01*
X64500Y42600D02*X66500D01*
X67000Y43100D01*
Y44100D02*Y43100D01*
X66500Y44600D02*X67000Y44100D01*
X65000Y44600D02*X66500D01*
X65000Y46600D02*Y42600D01*
X64500Y46600D02*X66500D01*
X67000Y46100D01*
Y45100D01*
X66500Y44600D02*X67000Y45100D01*
X68200Y44600D02*Y43100D01*
X68700Y42600D01*
X69700D01*
X70200Y43100D01*
Y44600D02*Y43100D01*
X71900Y44600D02*X73400D01*
X71400Y44100D02*X71900Y44600D01*
X71400Y44100D02*Y43100D01*
X71900Y42600D01*
X73400D01*
X74600Y46600D02*Y42600D01*
Y44100D02*X76100Y42600D01*
X74600Y44100D02*X75600Y45100D01*
X79600Y42600D02*X81100D01*
X79100Y43100D02*X79600Y42600D01*
X79100Y46100D02*Y43100D01*
Y46100D02*X79600Y46600D01*
X81100D01*
X82300Y44100D02*Y43100D01*
Y44100D02*X82800Y44600D01*
X83800D01*
X84300Y44100D01*
Y43100D01*
X83800Y42600D02*X84300Y43100D01*
X82800Y42600D02*X83800D01*
X82300Y43100D02*X82800Y42600D01*
X86000Y44100D02*Y42600D01*
Y44100D02*X86500Y44600D01*
X87000D01*
X87500Y44100D01*
Y42600D01*
X85500Y44600D02*X86000Y44100D01*
X88700Y44600D02*Y43600D01*
X89700Y42600D01*
X90700Y43600D01*
Y44600D02*Y43600D01*
X92400Y42600D02*X93900D01*
X91900Y43100D02*X92400Y42600D01*
X91900Y44100D02*Y43100D01*
Y44100D02*X92400Y44600D01*
X93400D01*
X93900Y44100D01*
X91900Y43600D02*X93900D01*
Y44100D02*Y43600D01*
X95600Y44100D02*Y42600D01*
Y44100D02*X96100Y44600D01*
X97100D01*
X95100D02*X95600Y44100D01*
X98800Y46600D02*Y43100D01*
X99300Y42600D01*
X98300Y45100D02*X99300D01*
X100800Y42600D02*X102300D01*
X100300Y43100D02*X100800Y42600D01*
X100300Y44100D02*Y43100D01*
Y44100D02*X100800Y44600D01*
X101800D01*
X102300Y44100D01*
X100300Y43600D02*X102300D01*
Y44100D02*Y43600D01*
X104000Y44100D02*Y42600D01*
Y44100D02*X104500Y44600D01*
X105500D01*
X103500D02*X104000Y44100D01*
X108500Y42600D02*X110500D01*
X111000Y43100D01*
Y44100D02*Y43100D01*
X110500Y44600D02*X111000Y44100D01*
X109000Y44600D02*X110500D01*
X109000Y46600D02*Y42600D01*
X108500Y46600D02*X110500D01*
X111000Y46100D01*
Y45100D01*
X110500Y44600D02*X111000Y45100D01*
X113700Y44600D02*X114200Y44100D01*
X112700Y44600D02*X113700D01*
X112200Y44100D02*X112700Y44600D01*
X112200Y44100D02*Y43100D01*
X112700Y42600D01*
X114200Y44600D02*Y43100D01*
X114700Y42600D01*
X112700D02*X113700D01*
X114200Y43100D01*
X116400Y42600D02*X117900D01*
X118400Y43100D01*
X117900Y43600D02*X118400Y43100D01*
X116400Y43600D02*X117900D01*
X115900Y44100D02*X116400Y43600D01*
X115900Y44100D02*X116400Y44600D01*
X117900D01*
X118400Y44100D01*
X115900Y43100D02*X116400Y42600D01*
X119600Y45600D02*Y45100D01*
Y44100D02*Y42600D01*
X121100Y44600D02*X122600D01*
X120600Y44100D02*X121100Y44600D01*
X120600Y44100D02*Y43100D01*
X121100Y42600D01*
X122600D01*
X56500Y39600D02*Y35600D01*
Y37600D02*X58500Y39600D01*
X56500Y37600D02*X58500Y35600D01*
X59700D02*X60200D01*
X63200Y39600D02*Y35600D01*
X64700Y37100D01*
X66200Y35600D01*
Y39600D02*Y35600D01*
X67400D02*X67900D01*
X72900Y39600D02*X73400Y39100D01*
X71400Y39600D02*X72900D01*
X70900Y39100D02*X71400Y39600D01*
X70900Y39100D02*Y38100D01*
X71400Y37600D01*
X72900D01*
X73400Y37100D01*
Y36100D01*
X72900Y35600D02*X73400Y36100D01*
X71400Y35600D02*X72900D01*
X70900Y36100D02*X71400Y35600D01*
X76100Y37600D02*X76600Y37100D01*
X75100Y37600D02*X76100D01*
X74600Y37100D02*X75100Y37600D01*
X74600Y37100D02*Y36100D01*
X75100Y35600D01*
X76600Y37600D02*Y36100D01*
X77100Y35600D01*
X75100D02*X76100D01*
X76600Y36100D01*
X78800Y37100D02*Y35600D01*
Y37100D02*X79300Y37600D01*
X80300D01*
X78300D02*X78800Y37100D01*
X81500Y39600D02*Y35600D01*
Y37100D02*X83000Y35600D01*
X81500Y37100D02*X82500Y38100D01*
X84200Y38600D02*Y38100D01*
Y37100D02*Y35600D01*
X85700D02*X87200D01*
X85200Y36100D02*X85700Y35600D01*
X85200Y37100D02*Y36100D01*
Y37100D02*X85700Y37600D01*
X86700D01*
X87200Y37100D01*
X85200Y36600D02*X87200D01*
Y37100D02*Y36600D01*
X88900Y35600D02*X90400D01*
X90900Y36100D01*
X90400Y36600D02*X90900Y36100D01*
X88900Y36600D02*X90400D01*
X88400Y37100D02*X88900Y36600D01*
X88400Y37100D02*X88900Y37600D01*
X90400D01*
X90900Y37100D01*
X88400Y36100D02*X88900Y35600D01*
X93900Y39100D02*X94400Y39600D01*
X95900D01*
X96400Y39100D01*
Y38100D01*
X93900Y35600D02*X96400Y38100D01*
X93900Y35600D02*X96400D01*
X97600Y37600D02*X99600Y39600D01*
X97600Y37600D02*X100100D01*
X99600Y39600D02*Y35600D01*
X101300Y36100D02*X104300Y39100D01*
X106000Y35600D02*X107000D01*
X106500Y39600D02*Y35600D01*
X105500Y38600D02*X106500Y39600D01*
X108200Y36100D02*X108700Y35600D01*
X108200Y39100D02*Y36100D01*
Y39100D02*X108700Y39600D01*
X109700D01*
X110200Y39100D01*
Y36100D01*
X109700Y35600D02*X110200Y36100D01*
X108700Y35600D02*X109700D01*
X108200Y36600D02*X110200Y38600D01*
X111400Y36100D02*X114400Y39100D01*
X115600D02*X116100Y39600D01*
X117600D01*
X118100Y39100D01*
Y38100D01*
X115600Y35600D02*X118100Y38100D01*
X115600Y35600D02*X118100D01*
X119300Y36100D02*X119800Y35600D01*
X119300Y39100D02*Y36100D01*
Y39100D02*X119800Y39600D01*
X120800D01*
X121300Y39100D01*
Y36100D01*
X120800Y35600D02*X121300Y36100D01*
X119800Y35600D02*X120800D01*
X119300Y36600D02*X121300Y38600D01*
X123000Y35600D02*X124000D01*
X123500Y39600D02*Y35600D01*
X122500Y38600D02*X123500Y39600D01*
X125200Y37600D02*X127200Y39600D01*
X125200Y37600D02*X127700D01*
X127200Y39600D02*Y35600D01*
X72000Y33600D02*Y30600D01*
X73000Y29600D01*
X74000Y30600D01*
Y33600D02*Y30600D01*
X75700Y29600D02*X77200D01*
X75200Y30100D02*X75700Y29600D01*
X75200Y31100D02*Y30100D01*
Y31100D02*X75700Y31600D01*
X76700D01*
X77200Y31100D01*
X75200Y30600D02*X77200D01*
Y31100D02*Y30600D01*
X78900Y31100D02*Y29600D01*
Y31100D02*X79400Y31600D01*
X80400D01*
X78400D02*X78900Y31100D01*
X82100Y29600D02*X83600D01*
X84100Y30100D01*
X83600Y30600D02*X84100Y30100D01*
X82100Y30600D02*X83600D01*
X81600Y31100D02*X82100Y30600D01*
X81600Y31100D02*X82100Y31600D01*
X83600D01*
X84100Y31100D01*
X81600Y30100D02*X82100Y29600D01*
X85300Y32600D02*Y32100D01*
Y31100D02*Y29600D01*
X86300Y31100D02*Y30100D01*
Y31100D02*X86800Y31600D01*
X87800D01*
X88300Y31100D01*
Y30100D01*
X87800Y29600D02*X88300Y30100D01*
X86800Y29600D02*X87800D01*
X86300Y30100D02*X86800Y29600D01*
X90000Y31100D02*Y29600D01*
Y31100D02*X90500Y31600D01*
X91000D01*
X91500Y31100D01*
Y29600D01*
X89500Y31600D02*X90000Y31100D01*
X94500Y30100D02*X95000Y29600D01*
X94500Y33100D02*Y30100D01*
Y33100D02*X95000Y33600D01*
X96000D01*
X96500Y33100D01*
Y30100D01*
X96000Y29600D02*X96500Y30100D01*
X95000Y29600D02*X96000D01*
X94500Y30600D02*X96500Y32600D01*
X97700Y29600D02*X98200D01*
X99400Y30100D02*X99900Y29600D01*
X99400Y33100D02*Y30100D01*
Y33100D02*X99900Y33600D01*
X100900D01*
X101400Y33100D01*
Y30100D01*
X100900Y29600D02*X101400Y30100D01*
X99900Y29600D02*X100900D01*
X99400Y30600D02*X101400Y32600D01*
X63500Y26600D02*Y22600D01*
X65500D01*
X66700Y25600D02*Y25100D01*
Y24100D02*Y22600D01*
X68200Y24600D02*X69700D01*
X67700Y24100D02*X68200Y24600D01*
X67700Y24100D02*Y23100D01*
X68200Y22600D01*
X69700D01*
X71400D02*X72900D01*
X70900Y23100D02*X71400Y22600D01*
X70900Y24100D02*Y23100D01*
Y24100D02*X71400Y24600D01*
X72400D01*
X72900Y24100D01*
X70900Y23600D02*X72900D01*
Y24100D02*Y23600D01*
X74600Y24100D02*Y22600D01*
Y24100D02*X75100Y24600D01*
X75600D01*
X76100Y24100D01*
Y22600D01*
X74100Y24600D02*X74600Y24100D01*
X77800Y24600D02*X79300D01*
X77300Y24100D02*X77800Y24600D01*
X77300Y24100D02*Y23100D01*
X77800Y22600D01*
X79300D01*
X81000D02*X82500D01*
X80500Y23100D02*X81000Y22600D01*
X80500Y24100D02*Y23100D01*
Y24100D02*X81000Y24600D01*
X82000D01*
X82500Y24100D01*
X80500Y23600D02*X82500D01*
Y24100D02*Y23600D01*
X86000Y24600D02*X87500D01*
X85500Y24100D02*X86000Y24600D01*
X85500Y24100D02*Y23100D01*
X86000Y22600D01*
X87500D01*
X89200Y24600D02*X90700D01*
X88700Y24100D02*X89200Y24600D01*
X88700Y24100D02*Y23100D01*
X89200Y22600D01*
X90700D01*
X91900Y24600D02*X93900D01*
X95100Y26600D02*Y22600D01*
Y23100D02*X95600Y22600D01*
X96600D01*
X97100Y23100D01*
Y24100D02*Y23100D01*
X96600Y24600D02*X97100Y24100D01*
X95600Y24600D02*X96600D01*
X95100Y24100D02*X95600Y24600D01*
X98300D02*Y23100D01*
X98800Y22600D01*
X100300Y24600D02*Y21600D01*
X99800Y21100D02*X100300Y21600D01*
X98800Y21100D02*X99800D01*
X98300Y21600D02*X98800Y21100D01*
Y22600D02*X99800D01*
X100300Y23100D01*
X101500Y24600D02*X103500D01*
X105200Y22600D02*X106700D01*
X107200Y23100D01*
X106700Y23600D02*X107200Y23100D01*
X105200Y23600D02*X106700D01*
X104700Y24100D02*X105200Y23600D01*
X104700Y24100D02*X105200Y24600D01*
X106700D01*
X107200Y24100D01*
X104700Y23100D02*X105200Y22600D01*
X109900Y24600D02*X110400Y24100D01*
X108900Y24600D02*X109900D01*
X108400Y24100D02*X108900Y24600D01*
X108400Y24100D02*Y23100D01*
X108900Y22600D01*
X110400Y24600D02*Y23100D01*
X110900Y22600D01*
X108900D02*X109900D01*
X110400Y23100D01*
X9000Y198500D02*X11000D01*
X10000D02*Y194500D01*
X13700Y196500D02*X14200Y196000D01*
X12700Y196500D02*X13700D01*
X12200Y196000D02*X12700Y196500D01*
X12200Y196000D02*Y195000D01*
X12700Y194500D01*
X14200Y196500D02*Y195000D01*
X14700Y194500D01*
X12700D02*X13700D01*
X14200Y195000D01*
X16400Y196000D02*Y194500D01*
Y196000D02*X16900Y196500D01*
X17900D01*
X15900D02*X16400Y196000D01*
X20600Y196500D02*X21100Y196000D01*
X19600Y196500D02*X20600D01*
X19100Y196000D02*X19600Y196500D01*
X19100Y196000D02*Y195000D01*
X19600Y194500D01*
X20600D01*
X21100Y195000D01*
X19100Y193500D02*X19600Y193000D01*
X20600D01*
X21100Y193500D01*
Y196500D02*Y193500D01*
X22800Y194500D02*X24300D01*
X22300Y195000D02*X22800Y194500D01*
X22300Y196000D02*Y195000D01*
Y196000D02*X22800Y196500D01*
X23800D01*
X24300Y196000D01*
X22300Y195500D02*X24300D01*
Y196000D02*Y195500D01*
X26000Y198500D02*Y195000D01*
X26500Y194500D01*
X25500Y197000D02*X26500D01*
X195000Y42600D02*X197000D01*
X197500Y43100D01*
Y44100D02*Y43100D01*
X197000Y44600D02*X197500Y44100D01*
X195500Y44600D02*X197000D01*
X195500Y46600D02*Y42600D01*
X195000Y46600D02*X197000D01*
X197500Y46100D01*
Y45100D01*
X197000Y44600D02*X197500Y45100D01*
X198700Y44600D02*Y43100D01*
X199200Y42600D01*
X200200D01*
X200700Y43100D01*
Y44600D02*Y43100D01*
X202400Y44600D02*X203900D01*
X201900Y44100D02*X202400Y44600D01*
X201900Y44100D02*Y43100D01*
X202400Y42600D01*
X203900D01*
X205100Y46600D02*Y42600D01*
Y44100D02*X206600Y42600D01*
X205100Y44100D02*X206100Y45100D01*
X210100Y42600D02*X211600D01*
X209600Y43100D02*X210100Y42600D01*
X209600Y46100D02*Y43100D01*
Y46100D02*X210100Y46600D01*
X211600D01*
X212800Y44100D02*Y43100D01*
Y44100D02*X213300Y44600D01*
X214300D01*
X214800Y44100D01*
Y43100D01*
X214300Y42600D02*X214800Y43100D01*
X213300Y42600D02*X214300D01*
X212800Y43100D02*X213300Y42600D01*
X216500Y44100D02*Y42600D01*
Y44100D02*X217000Y44600D01*
X217500D01*
X218000Y44100D01*
Y42600D01*
X216000Y44600D02*X216500Y44100D01*
X219200Y44600D02*Y43600D01*
X220200Y42600D01*
X221200Y43600D01*
Y44600D02*Y43600D01*
X222900Y42600D02*X224400D01*
X222400Y43100D02*X222900Y42600D01*
X222400Y44100D02*Y43100D01*
Y44100D02*X222900Y44600D01*
X223900D01*
X224400Y44100D01*
X222400Y43600D02*X224400D01*
Y44100D02*Y43600D01*
X226100Y44100D02*Y42600D01*
Y44100D02*X226600Y44600D01*
X227600D01*
X225600D02*X226100Y44100D01*
X229300Y46600D02*Y43100D01*
X229800Y42600D01*
X228800Y45100D02*X229800D01*
X231300Y42600D02*X232800D01*
X230800Y43100D02*X231300Y42600D01*
X230800Y44100D02*Y43100D01*
Y44100D02*X231300Y44600D01*
X232300D01*
X232800Y44100D01*
X230800Y43600D02*X232800D01*
Y44100D02*Y43600D01*
X234500Y44100D02*Y42600D01*
Y44100D02*X235000Y44600D01*
X236000D01*
X234000D02*X234500Y44100D01*
X239000Y42600D02*X241000D01*
X241500Y43100D01*
Y44100D02*Y43100D01*
X241000Y44600D02*X241500Y44100D01*
X239500Y44600D02*X241000D01*
X239500Y46600D02*Y42600D01*
X239000Y46600D02*X241000D01*
X241500Y46100D01*
Y45100D01*
X241000Y44600D02*X241500Y45100D01*
X244200Y44600D02*X244700Y44100D01*
X243200Y44600D02*X244200D01*
X242700Y44100D02*X243200Y44600D01*
X242700Y44100D02*Y43100D01*
X243200Y42600D01*
X244700Y44600D02*Y43100D01*
X245200Y42600D01*
X243200D02*X244200D01*
X244700Y43100D01*
X246900Y42600D02*X248400D01*
X248900Y43100D01*
X248400Y43600D02*X248900Y43100D01*
X246900Y43600D02*X248400D01*
X246400Y44100D02*X246900Y43600D01*
X246400Y44100D02*X246900Y44600D01*
X248400D01*
X248900Y44100D01*
X246400Y43100D02*X246900Y42600D01*
X250100Y45600D02*Y45100D01*
Y44100D02*Y42600D01*
X251600Y44600D02*X253100D01*
X251100Y44100D02*X251600Y44600D01*
X251100Y44100D02*Y43100D01*
X251600Y42600D01*
X253100D01*
X187000Y39600D02*Y35600D01*
Y37600D02*X189000Y39600D01*
X187000Y37600D02*X189000Y35600D01*
X190200D02*X190700D01*
X193700Y39600D02*Y35600D01*
X195200Y37100D01*
X196700Y35600D01*
Y39600D02*Y35600D01*
X197900D02*X198400D01*
X203400Y39600D02*X203900Y39100D01*
X201900Y39600D02*X203400D01*
X201400Y39100D02*X201900Y39600D01*
X201400Y39100D02*Y38100D01*
X201900Y37600D01*
X203400D01*
X203900Y37100D01*
Y36100D01*
X203400Y35600D02*X203900Y36100D01*
X201900Y35600D02*X203400D01*
X201400Y36100D02*X201900Y35600D01*
X206600Y37600D02*X207100Y37100D01*
X205600Y37600D02*X206600D01*
X205100Y37100D02*X205600Y37600D01*
X205100Y37100D02*Y36100D01*
X205600Y35600D01*
X207100Y37600D02*Y36100D01*
X207600Y35600D01*
X205600D02*X206600D01*
X207100Y36100D01*
X209300Y37100D02*Y35600D01*
Y37100D02*X209800Y37600D01*
X210800D01*
X208800D02*X209300Y37100D01*
X212000Y39600D02*Y35600D01*
Y37100D02*X213500Y35600D01*
X212000Y37100D02*X213000Y38100D01*
X214700Y38600D02*Y38100D01*
Y37100D02*Y35600D01*
X216200D02*X217700D01*
X215700Y36100D02*X216200Y35600D01*
X215700Y37100D02*Y36100D01*
Y37100D02*X216200Y37600D01*
X217200D01*
X217700Y37100D01*
X215700Y36600D02*X217700D01*
Y37100D02*Y36600D01*
X219400Y35600D02*X220900D01*
X221400Y36100D01*
X220900Y36600D02*X221400Y36100D01*
X219400Y36600D02*X220900D01*
X218900Y37100D02*X219400Y36600D01*
X218900Y37100D02*X219400Y37600D01*
X220900D01*
X221400Y37100D01*
X218900Y36100D02*X219400Y35600D01*
X224400Y39100D02*X224900Y39600D01*
X226400D01*
X226900Y39100D01*
Y38100D01*
X224400Y35600D02*X226900Y38100D01*
X224400Y35600D02*X226900D01*
X228100Y37600D02*X230100Y39600D01*
X228100Y37600D02*X230600D01*
X230100Y39600D02*Y35600D01*
X231800Y36100D02*X234800Y39100D01*
X236500Y35600D02*X237500D01*
X237000Y39600D02*Y35600D01*
X236000Y38600D02*X237000Y39600D01*
X238700Y36100D02*X239200Y35600D01*
X238700Y39100D02*Y36100D01*
Y39100D02*X239200Y39600D01*
X240200D01*
X240700Y39100D01*
Y36100D01*
X240200Y35600D02*X240700Y36100D01*
X239200Y35600D02*X240200D01*
X238700Y36600D02*X240700Y38600D01*
X241900Y36100D02*X244900Y39100D01*
X246100D02*X246600Y39600D01*
X248100D01*
X248600Y39100D01*
Y38100D01*
X246100Y35600D02*X248600Y38100D01*
X246100Y35600D02*X248600D01*
X249800Y36100D02*X250300Y35600D01*
X249800Y39100D02*Y36100D01*
Y39100D02*X250300Y39600D01*
X251300D01*
X251800Y39100D01*
Y36100D01*
X251300Y35600D02*X251800Y36100D01*
X250300Y35600D02*X251300D01*
X249800Y36600D02*X251800Y38600D01*
X253500Y35600D02*X254500D01*
X254000Y39600D02*Y35600D01*
X253000Y38600D02*X254000Y39600D01*
X255700Y37600D02*X257700Y39600D01*
X255700Y37600D02*X258200D01*
X257700Y39600D02*Y35600D01*
X202500Y33600D02*Y30600D01*
X203500Y29600D01*
X204500Y30600D01*
Y33600D02*Y30600D01*
X206200Y29600D02*X207700D01*
X205700Y30100D02*X206200Y29600D01*
X205700Y31100D02*Y30100D01*
Y31100D02*X206200Y31600D01*
X207200D01*
X207700Y31100D01*
X205700Y30600D02*X207700D01*
Y31100D02*Y30600D01*
X209400Y31100D02*Y29600D01*
Y31100D02*X209900Y31600D01*
X210900D01*
X208900D02*X209400Y31100D01*
X212600Y29600D02*X214100D01*
X214600Y30100D01*
X214100Y30600D02*X214600Y30100D01*
X212600Y30600D02*X214100D01*
X212100Y31100D02*X212600Y30600D01*
X212100Y31100D02*X212600Y31600D01*
X214100D01*
X214600Y31100D01*
X212100Y30100D02*X212600Y29600D01*
X215800Y32600D02*Y32100D01*
Y31100D02*Y29600D01*
X216800Y31100D02*Y30100D01*
Y31100D02*X217300Y31600D01*
X218300D01*
X218800Y31100D01*
Y30100D01*
X218300Y29600D02*X218800Y30100D01*
X217300Y29600D02*X218300D01*
X216800Y30100D02*X217300Y29600D01*
X220500Y31100D02*Y29600D01*
Y31100D02*X221000Y31600D01*
X221500D01*
X222000Y31100D01*
Y29600D01*
X220000Y31600D02*X220500Y31100D01*
X225000Y30100D02*X225500Y29600D01*
X225000Y33100D02*Y30100D01*
Y33100D02*X225500Y33600D01*
X226500D01*
X227000Y33100D01*
Y30100D01*
X226500Y29600D02*X227000Y30100D01*
X225500Y29600D02*X226500D01*
X225000Y30600D02*X227000Y32600D01*
X228200Y29600D02*X228700D01*
X229900Y30100D02*X230400Y29600D01*
X229900Y33100D02*Y30100D01*
Y33100D02*X230400Y33600D01*
X231400D01*
X231900Y33100D01*
Y30100D01*
X231400Y29600D02*X231900Y30100D01*
X230400Y29600D02*X231400D01*
X229900Y30600D02*X231900Y32600D01*
X194000Y26600D02*Y22600D01*
X196000D01*
X197200Y25600D02*Y25100D01*
Y24100D02*Y22600D01*
X198700Y24600D02*X200200D01*
X198200Y24100D02*X198700Y24600D01*
X198200Y24100D02*Y23100D01*
X198700Y22600D01*
X200200D01*
X201900D02*X203400D01*
X201400Y23100D02*X201900Y22600D01*
X201400Y24100D02*Y23100D01*
Y24100D02*X201900Y24600D01*
X202900D01*
X203400Y24100D01*
X201400Y23600D02*X203400D01*
Y24100D02*Y23600D01*
X205100Y24100D02*Y22600D01*
Y24100D02*X205600Y24600D01*
X206100D01*
X206600Y24100D01*
Y22600D01*
X204600Y24600D02*X205100Y24100D01*
X208300Y24600D02*X209800D01*
X207800Y24100D02*X208300Y24600D01*
X207800Y24100D02*Y23100D01*
X208300Y22600D01*
X209800D01*
X211500D02*X213000D01*
X211000Y23100D02*X211500Y22600D01*
X211000Y24100D02*Y23100D01*
Y24100D02*X211500Y24600D01*
X212500D01*
X213000Y24100D01*
X211000Y23600D02*X213000D01*
Y24100D02*Y23600D01*
X216500Y24600D02*X218000D01*
X216000Y24100D02*X216500Y24600D01*
X216000Y24100D02*Y23100D01*
X216500Y22600D01*
X218000D01*
X219700Y24600D02*X221200D01*
X219200Y24100D02*X219700Y24600D01*
X219200Y24100D02*Y23100D01*
X219700Y22600D01*
X221200D01*
X222400Y24600D02*X224400D01*
X225600Y26600D02*Y22600D01*
Y23100D02*X226100Y22600D01*
X227100D01*
X227600Y23100D01*
Y24100D02*Y23100D01*
X227100Y24600D02*X227600Y24100D01*
X226100Y24600D02*X227100D01*
X225600Y24100D02*X226100Y24600D01*
X228800D02*Y23100D01*
X229300Y22600D01*
X230800Y24600D02*Y21600D01*
X230300Y21100D02*X230800Y21600D01*
X229300Y21100D02*X230300D01*
X228800Y21600D02*X229300Y21100D01*
Y22600D02*X230300D01*
X230800Y23100D01*
X232000Y24600D02*X234000D01*
X235700Y22600D02*X237200D01*
X237700Y23100D01*
X237200Y23600D02*X237700Y23100D01*
X235700Y23600D02*X237200D01*
X235200Y24100D02*X235700Y23600D01*
X235200Y24100D02*X235700Y24600D01*
X237200D01*
X237700Y24100D01*
X235200Y23100D02*X235700Y22600D01*
X240400Y24600D02*X240900Y24100D01*
X239400Y24600D02*X240400D01*
X238900Y24100D02*X239400Y24600D01*
X238900Y24100D02*Y23100D01*
X239400Y22600D01*
X240900Y24600D02*Y23100D01*
X241400Y22600D01*
X239400D02*X240400D01*
X240900Y23100D01*
X262700Y6900D02*X266700D01*
X264700D02*X262700Y8900D01*
X264700Y6900D02*X266700Y8900D01*
Y10600D02*Y10100D01*
X262700Y13600D02*X266700D01*
X265200Y15100D01*
X266700Y16600D01*
X262700D02*X266700D01*
Y18300D02*Y17800D01*
X262700Y23300D02*X263200Y23800D01*
X262700Y23300D02*Y21800D01*
X263200Y21300D02*X262700Y21800D01*
X263200Y21300D02*X264200D01*
X264700Y21800D01*
Y23300D02*Y21800D01*
Y23300D02*X265200Y23800D01*
X266200D01*
X266700Y23300D02*X266200Y23800D01*
X266700Y23300D02*Y21800D01*
X266200Y21300D02*X266700Y21800D01*
X264700Y26500D02*X265200Y27000D01*
X264700Y26500D02*Y25500D01*
X265200Y25000D02*X264700Y25500D01*
X265200Y25000D02*X266200D01*
X266700Y25500D01*
X264700Y27000D02*X266200D01*
X266700Y27500D01*
Y26500D02*Y25500D01*
Y26500D02*X266200Y27000D01*
X265200Y29200D02*X266700D01*
X265200D02*X264700Y29700D01*
Y30700D02*Y29700D01*
Y28700D02*X265200Y29200D01*
X262700Y31900D02*X266700D01*
X265200D02*X266700Y33400D01*
X265200Y31900D02*X264200Y32900D01*
X263700Y34600D02*X264200D01*
X265200D02*X266700D01*
Y37600D02*Y36100D01*
X266200Y35600D02*X266700Y36100D01*
X265200Y35600D02*X266200D01*
X265200D02*X264700Y36100D01*
Y37100D02*Y36100D01*
Y37100D02*X265200Y37600D01*
X265700D02*Y35600D01*
X265200Y37600D02*X265700D01*
X266700Y40800D02*Y39300D01*
Y40800D02*X266200Y41300D01*
X265700Y40800D02*X266200Y41300D01*
X265700Y40800D02*Y39300D01*
X265200Y38800D02*X265700Y39300D01*
X265200Y38800D02*X264700Y39300D01*
Y40800D02*Y39300D01*
Y40800D02*X265200Y41300D01*
X266200Y38800D02*X266700Y39300D01*
X263200Y44300D02*X262700Y44800D01*
Y46300D02*Y44800D01*
Y46300D02*X263200Y46800D01*
X264200D01*
X266700Y44300D02*X264200Y46800D01*
X266700D02*Y44300D01*
X264700Y48000D02*X262700Y50000D01*
X264700Y50500D02*Y48000D01*
X262700Y50000D02*X266700D01*
X266200Y51700D02*X263200Y54700D01*
X266700Y57400D02*Y56400D01*
X262700Y56900D02*X266700D01*
X263700Y55900D02*X262700Y56900D01*
X266200Y58600D02*X266700Y59100D01*
X263200Y58600D02*X266200D01*
X263200D02*X262700Y59100D01*
Y60100D02*Y59100D01*
Y60100D02*X263200Y60600D01*
X266200D01*
X266700Y60100D02*X266200Y60600D01*
X266700Y60100D02*Y59100D01*
X265700Y58600D02*X263700Y60600D01*
X266200Y61800D02*X263200Y64800D01*
Y66000D02*X262700Y66500D01*
Y68000D02*Y66500D01*
Y68000D02*X263200Y68500D01*
X264200D01*
X266700Y66000D02*X264200Y68500D01*
X266700D02*Y66000D01*
X266200Y69700D02*X266700Y70200D01*
X263200Y69700D02*X266200D01*
X263200D02*X262700Y70200D01*
Y71200D02*Y70200D01*
Y71200D02*X263200Y71700D01*
X266200D01*
X266700Y71200D02*X266200Y71700D01*
X266700Y71200D02*Y70200D01*
X265700Y69700D02*X263700Y71700D01*
X266700Y74400D02*Y73400D01*
X262700Y73900D02*X266700D01*
X263700Y72900D02*X262700Y73900D01*
X264700Y75600D02*X262700Y77600D01*
X264700Y78100D02*Y75600D01*
X262700Y77600D02*X266700D01*
X20000Y188000D02*X22000D01*
X21000Y189000D02*Y187000D01*
X23200Y190000D02*X25200D01*
X23200D02*Y188000D01*
X23700Y188500D01*
X24700D01*
X25200Y188000D01*
Y186500D01*
X24700Y186000D02*X25200Y186500D01*
X23700Y186000D02*X24700D01*
X23200Y186500D02*X23700Y186000D01*
X26400Y190000D02*Y187000D01*
X27400Y186000D01*
X28400Y187000D01*
Y190000D02*Y187000D01*
X186500Y167000D02*Y163000D01*
X186000Y167000D02*X188000D01*
X188500Y166500D01*
Y165500D01*
X188000Y165000D02*X188500Y165500D01*
X186500Y165000D02*X188000D01*
X190200Y164500D02*Y163000D01*
Y164500D02*X190700Y165000D01*
X191700D01*
X189700D02*X190200Y164500D01*
X192900D02*Y163500D01*
Y164500D02*X193400Y165000D01*
X194400D01*
X194900Y164500D01*
Y163500D01*
X194400Y163000D02*X194900Y163500D01*
X193400Y163000D02*X194400D01*
X192900Y163500D02*X193400Y163000D01*
X197600Y165000D02*X198100Y164500D01*
X196600Y165000D02*X197600D01*
X196100Y164500D02*X196600Y165000D01*
X196100Y164500D02*Y163500D01*
X196600Y163000D01*
X197600D01*
X198100Y163500D01*
X196100Y162000D02*X196600Y161500D01*
X197600D01*
X198100Y162000D01*
Y165000D02*Y162000D01*
X199800Y164500D02*Y163000D01*
Y164500D02*X200300Y165000D01*
X201300D01*
X199300D02*X199800Y164500D01*
X204000Y165000D02*X204500Y164500D01*
X203000Y165000D02*X204000D01*
X202500Y164500D02*X203000Y165000D01*
X202500Y164500D02*Y163500D01*
X203000Y163000D01*
X204500Y165000D02*Y163500D01*
X205000Y163000D01*
X203000D02*X204000D01*
X204500Y163500D01*
X206700Y164500D02*Y163000D01*
Y164500D02*X207200Y165000D01*
X207700D01*
X208200Y164500D01*
Y163000D01*
Y164500D02*X208700Y165000D01*
X209200D01*
X209700Y164500D01*
Y163000D01*
X206200Y165000D02*X206700Y164500D01*
X212700Y167000D02*Y163000D01*
Y167000D02*X214200Y165500D01*
X215700Y167000D01*
Y163000D01*
X216900Y164500D02*Y163500D01*
Y164500D02*X217400Y165000D01*
X218400D01*
X218900Y164500D01*
Y163500D01*
X218400Y163000D02*X218900Y163500D01*
X217400Y163000D02*X218400D01*
X216900Y163500D02*X217400Y163000D01*
X222100Y167000D02*Y163000D01*
X221600D02*X222100Y163500D01*
X220600Y163000D02*X221600D01*
X220100Y163500D02*X220600Y163000D01*
X220100Y164500D02*Y163500D01*
Y164500D02*X220600Y165000D01*
X221600D01*
X222100Y164500D01*
X223800Y163000D02*X225300D01*
X223300Y163500D02*X223800Y163000D01*
X223300Y164500D02*Y163500D01*
Y164500D02*X223800Y165000D01*
X224800D01*
X225300Y164500D01*
X223300Y164000D02*X225300D01*
Y164500D02*Y164000D01*
X238000Y167000D02*X239000D01*
X238500D02*Y163000D01*
X238000D02*X239000D01*
X240700Y164500D02*Y163000D01*
Y164500D02*X241200Y165000D01*
X241700D01*
X242200Y164500D01*
Y163000D01*
X240200Y165000D02*X240700Y164500D01*
X245700Y167000D02*Y163000D01*
X245200Y167000D02*X247200D01*
X247700Y166500D01*
Y165500D01*
X247200Y165000D02*X247700Y165500D01*
X245700Y165000D02*X247200D01*
X249400Y164500D02*Y163000D01*
Y164500D02*X249900Y165000D01*
X250900D01*
X248900D02*X249400Y164500D01*
X252100D02*Y163500D01*
Y164500D02*X252600Y165000D01*
X253600D01*
X254100Y164500D01*
Y163500D01*
X253600Y163000D02*X254100Y163500D01*
X252600Y163000D02*X253600D01*
X252100Y163500D02*X252600Y163000D01*
X256800Y165000D02*X257300Y164500D01*
X255800Y165000D02*X256800D01*
X255300Y164500D02*X255800Y165000D01*
X255300Y164500D02*Y163500D01*
X255800Y163000D01*
X256800D01*
X257300Y163500D01*
X255300Y162000D02*X255800Y161500D01*
X256800D01*
X257300Y162000D01*
Y165000D02*Y162000D01*
X259000Y164500D02*Y163000D01*
Y164500D02*X259500Y165000D01*
X260500D01*
X258500D02*X259000Y164500D01*
X262200Y163000D02*X263700D01*
X261700Y163500D02*X262200Y163000D01*
X261700Y164500D02*Y163500D01*
Y164500D02*X262200Y165000D01*
X263200D01*
X263700Y164500D01*
X261700Y164000D02*X263700D01*
Y164500D02*Y164000D01*
X265400Y163000D02*X266900D01*
X267400Y163500D01*
X266900Y164000D02*X267400Y163500D01*
X265400Y164000D02*X266900D01*
X264900Y164500D02*X265400Y164000D01*
X264900Y164500D02*X265400Y165000D01*
X266900D01*
X267400Y164500D01*
X264900Y163500D02*X265400Y163000D01*
X269100D02*X270600D01*
X271100Y163500D01*
X270600Y164000D02*X271100Y163500D01*
X269100Y164000D02*X270600D01*
X268600Y164500D02*X269100Y164000D01*
X268600Y164500D02*X269100Y165000D01*
X270600D01*
X271100Y164500D01*
X268600Y163500D02*X269100Y163000D01*
X335000Y200000D02*Y196000D01*
X334500Y200000D02*X336500D01*
X337000Y199500D01*
Y198500D01*
X336500Y198000D02*X337000Y198500D01*
X335000Y198000D02*X336500D01*
X338700Y196000D02*X340200D01*
X338200Y196500D02*X338700Y196000D01*
X338200Y199500D02*Y196500D01*
Y199500D02*X338700Y200000D01*
X340200D01*
X280500Y269500D02*Y265500D01*
Y269500D02*Y269000D01*
X283000Y266500D01*
Y269500D02*Y265500D01*
X284200Y267000D02*Y266000D01*
Y267000D02*X284700Y267500D01*
X285700D01*
X286200Y267000D01*
Y266000D01*
X285700Y265500D02*X286200Y266000D01*
X284700Y265500D02*X285700D01*
X284200Y266000D02*X284700Y265500D01*
X287900Y267000D02*Y265500D01*
Y267000D02*X288400Y267500D01*
X289400D01*
X287400D02*X287900Y267000D01*
X291100D02*Y265500D01*
Y267000D02*X291600Y267500D01*
X292100D01*
X292600Y267000D01*
Y265500D01*
Y267000D02*X293100Y267500D01*
X293600D01*
X294100Y267000D01*
Y265500D01*
X290600Y267500D02*X291100Y267000D01*
X296800Y267500D02*X297300Y267000D01*
X295800Y267500D02*X296800D01*
X295300Y267000D02*X295800Y267500D01*
X295300Y267000D02*Y266000D01*
X295800Y265500D01*
X297300Y267500D02*Y266000D01*
X297800Y265500D01*
X295800D02*X296800D01*
X297300Y266000D01*
X299000Y269500D02*Y266000D01*
X299500Y265500D01*
X278500Y262500D02*Y259500D01*
Y262500D02*X279000Y263000D01*
X280000D01*
X280500Y262500D01*
Y259500D01*
X280000Y259000D02*X280500Y259500D01*
X279000Y259000D02*X280000D01*
X278500Y259500D02*X279000Y259000D01*
X282200Y260500D02*Y257500D01*
X281700Y261000D02*X282200Y260500D01*
X282700Y261000D01*
X283700D01*
X284200Y260500D01*
Y259500D01*
X283700Y259000D02*X284200Y259500D01*
X282700Y259000D02*X283700D01*
X282200Y259500D02*X282700Y259000D01*
X285900D02*X287400D01*
X285400Y259500D02*X285900Y259000D01*
X285400Y260500D02*Y259500D01*
Y260500D02*X285900Y261000D01*
X286900D01*
X287400Y260500D01*
X285400Y260000D02*X287400D01*
Y260500D02*Y260000D01*
X289100Y260500D02*Y259000D01*
Y260500D02*X289600Y261000D01*
X290600D01*
X288600D02*X289100Y260500D01*
X293300Y261000D02*X293800Y260500D01*
X292300Y261000D02*X293300D01*
X291800Y260500D02*X292300Y261000D01*
X291800Y260500D02*Y259500D01*
X292300Y259000D01*
X293800Y261000D02*Y259500D01*
X294300Y259000D01*
X292300D02*X293300D01*
X293800Y259500D01*
X296000Y263000D02*Y259500D01*
X296500Y259000D01*
X295500Y261500D02*X296500D01*
X297500Y262000D02*Y261500D01*
Y260500D02*Y259000D01*
X298500Y260500D02*Y259500D01*
Y260500D02*X299000Y261000D01*
X300000D01*
X300500Y260500D01*
Y259500D01*
X300000Y259000D02*X300500Y259500D01*
X299000Y259000D02*X300000D01*
X298500Y259500D02*X299000Y259000D01*
X302200Y260500D02*Y259000D01*
Y260500D02*X302700Y261000D01*
X303200D01*
X303700Y260500D01*
Y259000D01*
X301700Y261000D02*X302200Y260500D01*
X334800Y71300D02*Y67300D01*
X336800D01*
X338000Y69300D02*X339500D01*
X338000Y67300D02*X340000D01*
X338000Y71300D02*Y67300D01*
Y71300D02*X340000D01*
X341700D02*Y67300D01*
X343200Y71300D02*X343700Y70800D01*
Y67800D01*
X343200Y67300D02*X343700Y67800D01*
X341200Y67300D02*X343200D01*
X341200Y71300D02*X343200D01*
X347200D02*Y67300D01*
X348700Y71300D02*X349200Y70800D01*
Y67800D01*
X348700Y67300D02*X349200Y67800D01*
X346700Y67300D02*X348700D01*
X346700Y71300D02*X348700D01*
X350900Y68800D02*Y67300D01*
Y68800D02*X351400Y69300D01*
X352400D01*
X350400D02*X350900Y68800D01*
X353600Y70300D02*Y69800D01*
Y68800D02*Y67300D01*
X354600Y69300D02*Y68300D01*
X355600Y67300D01*
X356600Y68300D01*
Y69300D02*Y68300D01*
X358300Y67300D02*X359800D01*
X357800Y67800D02*X358300Y67300D01*
X357800Y68800D02*Y67800D01*
Y68800D02*X358300Y69300D01*
X359300D01*
X359800Y68800D01*
X357800Y68300D02*X359800D01*
Y68800D02*Y68300D01*
X361500Y68800D02*Y67300D01*
Y68800D02*X362000Y69300D01*
X363000D01*
X361000D02*X361500Y68800D01*
X185000Y365000D02*X187000D01*
X187500Y364500D01*
Y363500D01*
X187000Y363000D02*X187500Y363500D01*
X185500Y363000D02*X187000D01*
X185500Y365000D02*Y361000D01*
Y363000D02*X187500Y361000D01*
X189200D02*X190700D01*
X188700Y361500D02*X189200Y361000D01*
X188700Y362500D02*Y361500D01*
Y362500D02*X189200Y363000D01*
X190200D01*
X190700Y362500D01*
X188700Y362000D02*X190700D01*
Y362500D02*Y362000D01*
X192400Y361000D02*X193900D01*
X194400Y361500D01*
X193900Y362000D02*X194400Y361500D01*
X192400Y362000D02*X193900D01*
X191900Y362500D02*X192400Y362000D01*
X191900Y362500D02*X192400Y363000D01*
X193900D01*
X194400Y362500D01*
X191900Y361500D02*X192400Y361000D01*
X196100D02*X197600D01*
X195600Y361500D02*X196100Y361000D01*
X195600Y362500D02*Y361500D01*
Y362500D02*X196100Y363000D01*
X197100D01*
X197600Y362500D01*
X195600Y362000D02*X197600D01*
Y362500D02*Y362000D01*
X199300Y365000D02*Y361500D01*
X199800Y361000D01*
X198800Y363500D02*X199800D01*
X223500D02*Y359500D01*
Y363500D02*X225500D01*
X223500Y361500D02*X225000D01*
X226700Y362500D02*Y362000D01*
Y361000D02*Y359500D01*
X228200Y361000D02*Y359500D01*
Y361000D02*X228700Y361500D01*
X229700D01*
X227700D02*X228200Y361000D01*
X231400D02*Y359500D01*
Y361000D02*X231900Y361500D01*
X232400D01*
X232900Y361000D01*
Y359500D01*
Y361000D02*X233400Y361500D01*
X233900D01*
X234400Y361000D01*
Y359500D01*
X230900Y361500D02*X231400Y361000D01*
X235600Y361500D02*Y360000D01*
X236100Y359500D01*
X236600D01*
X237100Y360000D01*
Y361500D02*Y360000D01*
X237600Y359500D01*
X238100D01*
X238600Y360000D01*
Y361500D02*Y360000D01*
X241300Y361500D02*X241800Y361000D01*
X240300Y361500D02*X241300D01*
X239800Y361000D02*X240300Y361500D01*
X239800Y361000D02*Y360000D01*
X240300Y359500D01*
X241800Y361500D02*Y360000D01*
X242300Y359500D01*
X240300D02*X241300D01*
X241800Y360000D01*
X244000Y361000D02*Y359500D01*
Y361000D02*X244500Y361500D01*
X245500D01*
X243500D02*X244000Y361000D01*
X247200Y359500D02*X248700D01*
X246700Y360000D02*X247200Y359500D01*
X246700Y361000D02*Y360000D01*
Y361000D02*X247200Y361500D01*
X248200D01*
X248700Y361000D01*
X246700Y360500D02*X248700D01*
Y361000D02*Y360500D01*
X225000Y357500D02*Y354000D01*
X225500Y353500D01*
X226500D01*
X227000Y354000D01*
Y357500D02*Y354000D01*
X228700Y355000D02*Y352000D01*
X228200Y355500D02*X228700Y355000D01*
X229200Y355500D01*
X230200D01*
X230700Y355000D01*
Y354000D01*
X230200Y353500D02*X230700Y354000D01*
X229200Y353500D02*X230200D01*
X228700Y354000D02*X229200Y353500D01*
X233400Y355500D02*X233900Y355000D01*
X232400Y355500D02*X233400D01*
X231900Y355000D02*X232400Y355500D01*
X231900Y355000D02*Y354000D01*
X232400Y353500D01*
X233400D01*
X233900Y354000D01*
X231900Y352500D02*X232400Y352000D01*
X233400D01*
X233900Y352500D01*
Y355500D02*Y352500D01*
X235600Y355000D02*Y353500D01*
Y355000D02*X236100Y355500D01*
X237100D01*
X235100D02*X235600Y355000D01*
X239800Y355500D02*X240300Y355000D01*
X238800Y355500D02*X239800D01*
X238300Y355000D02*X238800Y355500D01*
X238300Y355000D02*Y354000D01*
X238800Y353500D01*
X240300Y355500D02*Y354000D01*
X240800Y353500D01*
X238800D02*X239800D01*
X240300Y354000D01*
X244000Y357500D02*Y353500D01*
X243500D02*X244000Y354000D01*
X242500Y353500D02*X243500D01*
X242000Y354000D02*X242500Y353500D01*
X242000Y355000D02*Y354000D01*
Y355000D02*X242500Y355500D01*
X243500D01*
X244000Y355000D01*
X245700Y353500D02*X247200D01*
X245200Y354000D02*X245700Y353500D01*
X245200Y355000D02*Y354000D01*
Y355000D02*X245700Y355500D01*
X246700D01*
X247200Y355000D01*
X245200Y354500D02*X247200D01*
Y355000D02*Y354500D01*
X382700Y3800D02*X385700D01*
X386700Y4800D01*
X385700Y5800D01*
X382700D02*X385700D01*
X386700Y9000D02*Y7500D01*
X386200Y7000D02*X386700Y7500D01*
X385200Y7000D02*X386200D01*
X385200D02*X384700Y7500D01*
Y8500D02*Y7500D01*
Y8500D02*X385200Y9000D01*
X385700D02*Y7000D01*
X385200Y9000D02*X385700D01*
X385200Y10700D02*X386700D01*
X385200D02*X384700Y11200D01*
Y12200D02*Y11200D01*
Y10200D02*X385200Y10700D01*
X386700Y15400D02*Y13900D01*
Y15400D02*X386200Y15900D01*
X385700Y15400D02*X386200Y15900D01*
X385700Y15400D02*Y13900D01*
X385200Y13400D02*X385700Y13900D01*
X385200Y13400D02*X384700Y13900D01*
Y15400D02*Y13900D01*
Y15400D02*X385200Y15900D01*
X386200Y13400D02*X386700Y13900D01*
X383700Y17100D02*X384200D01*
X385200D02*X386700D01*
X385200Y18100D02*X386200D01*
X385200D02*X384700Y18600D01*
Y19600D02*Y18600D01*
Y19600D02*X385200Y20100D01*
X386200D01*
X386700Y19600D02*X386200Y20100D01*
X386700Y19600D02*Y18600D01*
X386200Y18100D02*X386700Y18600D01*
X385200Y21800D02*X386700D01*
X385200D02*X384700Y22300D01*
Y22800D02*Y22300D01*
Y22800D02*X385200Y23300D01*
X386700D01*
X384700Y21300D02*X385200Y21800D01*
X386200Y26300D02*X386700Y26800D01*
X383200Y26300D02*X386200D01*
X383200D02*X382700Y26800D01*
Y27800D02*Y26800D01*
Y27800D02*X383200Y28300D01*
X386200D01*
X386700Y27800D02*X386200Y28300D01*
X386700Y27800D02*Y26800D01*
X385700Y26300D02*X383700Y28300D01*
X386700Y30000D02*Y29500D01*
X386200Y31200D02*X386700Y31700D01*
X383200Y31200D02*X386200D01*
X383200D02*X382700Y31700D01*
Y32700D02*Y31700D01*
Y32700D02*X383200Y33200D01*
X386200D01*
X386700Y32700D02*X386200Y33200D01*
X386700Y32700D02*Y31700D01*
X385700Y31200D02*X383700Y33200D01*
X382700Y36200D02*X386700D01*
Y38200D02*Y36200D01*
X383700Y39400D02*X384200D01*
X385200D02*X386700D01*
X384700Y42400D02*Y40900D01*
X385200Y40400D02*X384700Y40900D01*
X385200Y40400D02*X386200D01*
X386700Y40900D01*
Y42400D02*Y40900D01*
Y45600D02*Y44100D01*
X386200Y43600D02*X386700Y44100D01*
X385200Y43600D02*X386200D01*
X385200D02*X384700Y44100D01*
Y45100D02*Y44100D01*
Y45100D02*X385200Y45600D01*
X385700D02*Y43600D01*
X385200Y45600D02*X385700D01*
X385200Y47300D02*X386700D01*
X385200D02*X384700Y47800D01*
Y48300D02*Y47800D01*
Y48300D02*X385200Y48800D01*
X386700D01*
X384700Y46800D02*X385200Y47300D01*
X384700Y52000D02*Y50500D01*
X385200Y50000D02*X384700Y50500D01*
X385200Y50000D02*X386200D01*
X386700Y50500D01*
Y52000D02*Y50500D01*
Y55200D02*Y53700D01*
X386200Y53200D02*X386700Y53700D01*
X385200Y53200D02*X386200D01*
X385200D02*X384700Y53700D01*
Y54700D02*Y53700D01*
Y54700D02*X385200Y55200D01*
X385700D02*Y53200D01*
X385200Y55200D02*X385700D01*
X384700Y60200D02*Y58700D01*
X385200Y58200D02*X384700Y58700D01*
X385200Y58200D02*X386200D01*
X386700Y58700D01*
Y60200D02*Y58700D01*
X384700Y63400D02*Y61900D01*
X385200Y61400D02*X384700Y61900D01*
X385200Y61400D02*X386200D01*
X386700Y61900D01*
Y63400D02*Y61900D01*
X384700Y66600D02*Y64600D01*
X382700Y67800D02*X386700D01*
X386200D02*X386700Y68300D01*
Y69300D02*Y68300D01*
Y69300D02*X386200Y69800D01*
X385200D02*X386200D01*
X384700Y69300D02*X385200Y69800D01*
X384700Y69300D02*Y68300D01*
X385200Y67800D02*X384700Y68300D01*
Y71000D02*X386200D01*
X386700Y71500D01*
X384700Y73000D02*X387700D01*
X388200Y72500D02*X387700Y73000D01*
X388200Y72500D02*Y71500D01*
X387700Y71000D02*X388200Y71500D01*
X386700Y72500D02*Y71500D01*
Y72500D02*X386200Y73000D01*
X384700Y76200D02*Y74200D01*
X386700Y79400D02*Y77900D01*
Y79400D02*X386200Y79900D01*
X385700Y79400D02*X386200Y79900D01*
X385700Y79400D02*Y77900D01*
X385200Y77400D02*X385700Y77900D01*
X385200Y77400D02*X384700Y77900D01*
Y79400D02*Y77900D01*
Y79400D02*X385200Y79900D01*
X386200Y77400D02*X386700Y77900D01*
X384700Y82600D02*X385200Y83100D01*
X384700Y82600D02*Y81600D01*
X385200Y81100D02*X384700Y81600D01*
X385200Y81100D02*X386200D01*
X386700Y81600D01*
X384700Y83100D02*X386200D01*
X386700Y83600D01*
Y82600D02*Y81600D01*
Y82600D02*X386200Y83100D01*
G54D106*X241500Y213500D02*X261500D01*
Y203500D01*
X241500D01*
Y213500D01*
X231500Y208500D02*X241500D01*
X261500D02*X271500D01*
X191500Y213500D02*X211500D01*
Y203500D01*
X191500D01*
Y213500D01*
X181500Y208500D02*X191500D01*
X211500D02*X221500D01*
G54D107*X240700Y183500D02*G75*G03X240700Y183500I11800J0D01*G01*
X238700D02*G75*G03X238700Y183500I13800J0D01*G01*
X190700D02*G75*G03X190700Y183500I11800J0D01*G01*
X188700D02*G75*G03X188700Y183500I13800J0D01*G01*
X306000Y146500D02*Y154500D01*
X324000Y146500D02*X306000D01*
X324000Y154500D02*Y146500D01*
X306000Y154500D02*X324000D01*
X36500Y70600D02*X40500D01*
X38500Y72600D02*Y68600D01*
X64500Y70600D02*X68500D01*
X42500D02*G75*G03X42500Y70600I10000J0D01*G01*
G54D105*X52000Y57800D02*Y1300D01*
X18000Y57800D02*X52000D01*
X18000D02*Y1300D01*
X52000D01*
X47000Y4800D02*Y1300D01*
X23000Y4800D02*Y1300D01*
Y30600D02*X47000D01*
X23000Y30500D02*Y27300D01*
X47000Y30500D02*Y27300D01*
Y23800D02*Y20800D01*
X23000Y23800D02*Y20800D01*
Y17300D02*Y14300D01*
X47000Y17300D02*Y14300D01*
Y10800D02*Y7800D01*
X23000Y10800D02*Y7800D01*
X31500Y30600D02*Y7400D01*
X38500Y30600D02*Y7100D01*
X45500Y45600D02*X44500Y44600D01*
X34500Y51100D02*Y40100D01*
X40000Y38600D02*Y33100D01*
X37000Y39100D02*X37500D01*
X39500Y49100D02*X46000D01*
Y42100D01*
X42500Y45600D02*X45500D01*
X42500D02*Y38600D01*
X49500D01*
X52000Y41100D01*
X45500Y45600D02*X44500Y46600D01*
X35500Y51100D02*Y40100D01*
X40000Y33100D02*X37000Y31600D01*
X39500Y44100D02*Y43100D01*
X35500Y50100D02*X36500D01*
X33500D02*X34500D01*
X32000D02*X32500D01*
X30500D02*X31000D01*
X30500D02*Y49100D01*
Y48100D02*Y47100D01*
Y46100D02*Y45100D01*
Y44100D02*Y43100D01*
Y42100D02*Y41100D01*
Y40100D02*Y39100D01*
X39500Y46100D02*Y45100D01*
Y40100D02*Y39100D01*
Y42100D02*Y41100D01*
X37500Y50100D02*X38000D01*
X39000D02*X39500D01*
Y49100D01*
Y48100D02*Y47100D01*
X32500Y39100D02*X33000D01*
X38000Y47600D02*Y40600D01*
X35000Y3800D02*G75*G03X38500Y7300I0J3500D01*G01*
X31500Y7800D02*G75*G03X35500Y3800I4000J0D01*G01*
X34500Y40100D02*G75*G03X35000Y39600I500J0D01*G01*
Y39602D02*G75*G03X35500Y40102I0J500D01*G01*
X40000Y33600D02*G75*G03X39500Y33100I0J-500D01*G01*
Y33101D02*G75*G03X40001Y32600I501J0D01*G01*
X40000Y38600D02*G75*G03X39000Y39600I-1000J0D01*G01*
X40500Y33100D02*G75*G03X40000Y33600I-500J0D01*G01*
X39999Y32600D02*G75*G03X40500Y33101I0J501D01*G01*
X39500Y49101D02*G75*G03X38000Y47601I0J-1500D01*G01*
Y40600D02*G75*G03X39000Y39600I1000J0D01*G01*
G54D107*X59500Y90600D02*X60000D01*
Y110600D02*Y90600D01*
X59500Y110600D02*X60000D01*
X50000D02*X50500D01*
X50000D02*Y90600D01*
X50500D01*
X35000Y83100D02*Y73100D01*
Y103100D02*Y93100D01*
Y83100D02*X30000Y93100D01*
X40000D01*
X35000Y83100D01*
X30000D02*X40000D01*
X8297Y139781D02*G75*G03X8297Y139781I14142J-14142D01*G01*
X70000Y135600D02*Y95600D01*
X110000D01*
Y135600D01*
X70000D02*X85000D01*
X95000D02*X110000D01*
X85000D02*G75*G03X95000Y135600I5000J0D01*G01*
G54D106*X125000Y125600D02*Y105600D01*
X115000D02*X125000D01*
X115000Y125600D02*Y105600D01*
Y125600D02*X125000D01*
X120000Y135600D02*Y125600D01*
Y105600D02*Y95600D01*
G54D107*X15900Y101600D02*Y97600D01*
X13900Y99600D02*X17900D01*
X15900Y73600D02*Y69600D01*
X15900Y95600D02*G75*G03X15900Y95600I0J-10000D01*G01*
G54D106*X80000Y60600D02*X100000D01*
Y50600D01*
X80000D01*
Y60600D01*
X70000Y55600D02*X80000D01*
X100000D02*X110000D01*
X80000Y88100D02*X100000D01*
Y78100D01*
X80000D02*X100000D01*
X80000Y88100D02*Y78100D01*
X70000Y83100D02*X80000D01*
X100000D02*X110000D01*
G54D107*X30000Y178000D02*Y186000D01*
X48000Y178000D02*X30000D01*
X48000Y186000D02*Y178000D01*
X30000Y186000D02*X48000D01*
X167000Y70600D02*X171000D01*
X169000Y72600D02*Y68600D01*
X195000Y70600D02*X199000D01*
X173000D02*G75*G03X173000Y70600I10000J0D01*G01*
X190000Y90600D02*X190500D01*
Y110600D02*Y90600D01*
X190000Y110600D02*X190500D01*
X180500D02*X181000D01*
X180500D02*Y90600D01*
X181000D01*
X165500Y83100D02*Y73100D01*
Y103100D02*Y93100D01*
Y83100D02*X160500Y93100D01*
X170500D01*
X165500Y83100D01*
X160500D02*X170500D01*
X146400Y101600D02*Y97600D01*
X144400Y99600D02*X148400D01*
X146400Y73600D02*Y69600D01*
Y95600D02*G75*G03X146400Y95600I0J-10000D01*G01*
X138797Y139781D02*G75*G03X138797Y139781I14142J-14142D01*G01*
X200500Y135600D02*Y95600D01*
X240500D01*
Y135600D01*
X200500D02*X215500D01*
X225500D02*X240500D01*
X215500D02*G75*G03X225500Y135600I5000J0D01*G01*
G54D106*X255500Y125600D02*Y105600D01*
X245500D02*X255500D01*
X245500Y125600D02*Y105600D01*
Y125600D02*X255500D01*
X250500Y135600D02*Y125600D01*
Y105600D02*Y95600D01*
X210500Y60600D02*X230500D01*
Y50600D01*
X210500D01*
Y60600D01*
X200500Y55600D02*X210500D01*
X230500D02*X240500D01*
X210500Y88100D02*X230500D01*
Y78100D01*
X210500D02*X230500D01*
X210500Y88100D02*Y78100D01*
X200500Y83100D02*X210500D01*
X230500D02*X240500D01*
G54D105*X182500Y57800D02*Y1300D01*
X148500Y57800D02*X182500D01*
X148500D02*Y1300D01*
X182500D01*
X177500Y4800D02*Y1300D01*
X153500Y4800D02*Y1300D01*
Y30600D02*X177500D01*
X153500Y30500D02*Y27300D01*
X177500Y30500D02*Y27300D01*
Y23800D02*Y20800D01*
X153500Y23800D02*Y20800D01*
Y17300D02*Y14300D01*
X177500Y17300D02*Y14300D01*
Y10800D02*Y7800D01*
X153500Y10800D02*Y7800D01*
X162000Y30600D02*Y7400D01*
X169000Y30600D02*Y7100D01*
X176000Y45600D02*X175000Y44600D01*
X165000Y51100D02*Y40100D01*
X170500Y38600D02*Y33100D01*
X167500Y39100D02*X168000D01*
X170000Y49100D02*X176500D01*
Y42100D01*
X173000Y45600D02*X176000D01*
X173000D02*Y38600D01*
X180000D01*
X182500Y41100D01*
X176000Y45600D02*X175000Y46600D01*
X166000Y51100D02*Y40100D01*
X170500Y33100D02*X167500Y31600D01*
X170000Y44100D02*Y43100D01*
X166000Y50100D02*X167000D01*
X164000D02*X165000D01*
X162500D02*X163000D01*
X161000D02*X161500D01*
X161000D02*Y49100D01*
Y48100D02*Y47100D01*
Y46100D02*Y45100D01*
Y44100D02*Y43100D01*
Y42100D02*Y41100D01*
Y40100D02*Y39100D01*
X170000Y46100D02*Y45100D01*
Y40100D02*Y39100D01*
Y42100D02*Y41100D01*
X168000Y50100D02*X168500D01*
X169500D02*X170000D01*
Y49100D01*
Y48100D02*Y47100D01*
X163000Y39100D02*X163500D01*
X168500Y47600D02*Y40600D01*
X165500Y3800D02*G75*G03X169000Y7300I0J3500D01*G01*
X162000Y7800D02*G75*G03X166000Y3800I4000J0D01*G01*
X165000Y40100D02*G75*G03X165500Y39600I500J0D01*G01*
Y39602D02*G75*G03X166000Y40102I0J500D01*G01*
X170500Y33600D02*G75*G03X170000Y33100I0J-500D01*G01*
Y33101D02*G75*G03X170501Y32600I501J0D01*G01*
X170500Y38600D02*G75*G03X169500Y39600I-1000J0D01*G01*
X171000Y33100D02*G75*G03X170500Y33600I-500J0D01*G01*
X170499Y32600D02*G75*G03X171000Y33101I0J501D01*G01*
X170000Y49101D02*G75*G03X168500Y47601I0J-1500D01*G01*
Y40600D02*G75*G03X169500Y39600I1000J0D01*G01*
X312500Y57200D02*Y700D01*
X278500Y57200D02*X312500D01*
X278500D02*Y700D01*
X312500D01*
X307500Y4200D02*Y700D01*
X283500Y4200D02*Y700D01*
Y30000D02*X307500D01*
X283500Y29900D02*Y26700D01*
X307500Y29900D02*Y26700D01*
Y23200D02*Y20200D01*
X283500Y23200D02*Y20200D01*
Y16700D02*Y13700D01*
X307500Y16700D02*Y13700D01*
Y10200D02*Y7200D01*
X283500Y10200D02*Y7200D01*
X292000Y30000D02*Y6800D01*
X299000Y30000D02*Y6500D01*
X306000Y45000D02*X305000Y44000D01*
X295000Y50500D02*Y39500D01*
X300500Y38000D02*Y32500D01*
X297500Y38500D02*X298000D01*
X300000Y48500D02*X306500D01*
Y41500D01*
X303000Y45000D02*X306000D01*
X303000D02*Y38000D01*
X310000D01*
X312500Y40500D01*
X306000Y45000D02*X305000Y46000D01*
X296000Y50500D02*Y39500D01*
X300500Y32500D02*X297500Y31000D01*
X300000Y43500D02*Y42500D01*
X296000Y49500D02*X297000D01*
X294000D02*X295000D01*
X292500D02*X293000D01*
X291000D02*X291500D01*
X291000D02*Y48500D01*
Y47500D02*Y46500D01*
Y45500D02*Y44500D01*
Y43500D02*Y42500D01*
Y41500D02*Y40500D01*
Y39500D02*Y38500D01*
X300000Y45500D02*Y44500D01*
Y39500D02*Y38500D01*
Y41500D02*Y40500D01*
X298000Y49500D02*X298500D01*
X299500D02*X300000D01*
Y48500D01*
Y47500D02*Y46500D01*
X293000Y38500D02*X293500D01*
X298500Y47000D02*Y40000D01*
X295500Y3200D02*G75*G03X299000Y6700I0J3500D01*G01*
X292000Y7200D02*G75*G03X296000Y3200I4000J0D01*G01*
X295000Y39500D02*G75*G03X295500Y39000I500J0D01*G01*
Y39002D02*G75*G03X296000Y39502I0J500D01*G01*
X300500Y33000D02*G75*G03X300000Y32500I0J-500D01*G01*
Y32501D02*G75*G03X300501Y32000I501J0D01*G01*
X300500Y38000D02*G75*G03X299500Y39000I-1000J0D01*G01*
X301000Y32500D02*G75*G03X300500Y33000I-500J0D01*G01*
X300499Y32000D02*G75*G03X301000Y32501I0J501D01*G01*
X300000Y48501D02*G75*G03X298500Y47001I0J-1500D01*G01*
Y40000D02*G75*G03X299500Y39000I1000J0D01*G01*
G54D107*X295000Y82000D02*Y72000D01*
Y102000D02*Y92000D01*
Y82000D02*X290000Y92000D01*
X300000D01*
X295000Y82000D01*
X290000D02*X300000D01*
X276000Y101000D02*Y97000D01*
X274000Y99000D02*X278000D01*
X276000Y73000D02*Y69000D01*
Y95000D02*G75*G03X276000Y95000I0J-10000D01*G01*
X298000Y71000D02*X302000D01*
X300000Y73000D02*Y69000D01*
X326000Y71000D02*X330000D01*
X304000D02*G75*G03X304000Y71000I10000J0D01*G01*
X330500Y135500D02*Y95500D01*
X370500D01*
Y135500D01*
X330500D02*X345500D01*
X355500D02*X370500D01*
X345500D02*G75*G03X355500Y135500I5000J0D01*G01*
G54D106*X385500Y125500D02*Y105500D01*
X375500D02*X385500D01*
X375500Y125500D02*Y105500D01*
Y125500D02*X385500D01*
X380500Y135500D02*Y125500D01*
Y105500D02*Y95500D01*
G54D107*X320000Y90500D02*X320500D01*
Y110500D02*Y90500D01*
X320000Y110500D02*X320500D01*
X310500D02*X311000D01*
X310500D02*Y90500D01*
X311000D01*
X268965Y139391D02*G75*G03X268965Y139391I14142J-14142D01*G01*
G54D106*X341000Y140500D02*X361000D01*
X341000Y150500D02*Y140500D01*
Y150500D02*X361000D01*
Y140500D01*
Y145500D02*X371000D01*
X331000D02*X341000D01*
G54D107*X331500Y46000D02*Y6000D01*
X371500D01*
Y46000D01*
X331500D02*X346500D01*
X356500D02*X371500D01*
X346500D02*G75*G03X356500Y46000I5000J0D01*G01*
G54D106*X341500Y61000D02*X361500D01*
Y51000D01*
X341500D01*
Y61000D01*
X331500Y56000D02*X341500D01*
X361500D02*X371500D01*
X342000Y87000D02*X362000D01*
Y77000D01*
X342000D01*
Y87000D01*
X332000Y82000D02*X342000D01*
X362000D02*X372000D01*
X138500Y213500D02*X158500D01*
Y203500D01*
X138500D01*
Y213500D01*
X128500Y208500D02*X138500D01*
X158500D02*X168500D01*
G54D107*X44500Y335500D02*Y255500D01*
X84500D01*
Y335500D01*
X44500D02*X59500D01*
X69500D02*X84500D01*
X59500D02*G75*G03X69500Y335500I5000J0D01*G01*
X24000Y341500D02*Y337500D01*
X22000Y339500D02*X26000D01*
X24000Y313500D02*Y309500D01*
X24000Y335500D02*G75*G03X24000Y335500I0J-10000D01*G01*
Y305500D02*Y301500D01*
X22000Y303500D02*X26000D01*
X24000Y277500D02*Y273500D01*
X24000Y299500D02*G75*G03X24000Y299500I0J-10000D01*G01*
X81500Y365500D02*Y361500D01*
X79500Y363500D02*X83500D01*
X81500Y337500D02*Y333500D01*
Y359500D02*G75*G03X81500Y359500I0J-10000D01*G01*
X49500Y337500D02*Y333500D01*
X47500Y335500D02*X51500D01*
X49500Y365500D02*Y361500D01*
Y339500D02*G75*G03X49500Y339500I0J10000D01*G01*
X98500Y318000D02*X99000D01*
Y338000D02*Y318000D01*
X98500Y338000D02*X99000D01*
X89000D02*X89500D01*
X89000D02*Y318000D01*
X89500D01*
X118500Y335500D02*Y265500D01*
X158500D01*
Y335500D01*
X118500D02*X133500D01*
X143500D02*X158500D01*
X133500D02*G75*G03X143500Y335500I5000J0D01*G01*
X147000Y354500D02*Y355000D01*
X127000D01*
Y354500D01*
Y345500D02*Y345000D01*
X147000D01*
Y345500D01*
G54D106*X278500Y315500D02*X298500D01*
Y305500D01*
X278500D01*
Y315500D01*
X268500Y310500D02*X278500D01*
X298500D02*X308500D01*
X278500Y326500D02*X298500D01*
Y316500D01*
X278500D01*
Y326500D01*
X268500Y321500D02*X278500D01*
X298500D02*X308500D01*
G54D107*X280500Y282500D02*X300500D01*
X280500D02*Y272500D01*
X300500D01*
Y282500D02*Y272500D01*
X290500Y282500D02*Y272500D01*
X300500D01*
G54D106*X278500Y304500D02*X298500D01*
Y294500D01*
X278500D01*
Y304500D01*
X268500Y299500D02*X278500D01*
X298500D02*X308500D01*
G54D107*X192500Y359000D02*G75*G03X192500Y359000I0J-10000D01*G01*
X179500Y296000D02*Y295500D01*
X199500D01*
Y296000D02*Y295500D01*
Y305500D02*Y305000D01*
X179500Y305500D02*X199500D01*
X179500D02*Y305000D01*
X180000Y268000D02*Y267500D01*
X200000D01*
Y268000D02*Y267500D01*
Y277500D02*Y277000D01*
X180000Y277500D02*X200000D01*
X180000D02*Y277000D01*
X179500Y292500D02*X199500D01*
X179500Y282500D02*X199500D01*
X179500Y292500D02*G75*G03X179500Y282500I0J-5000D01*G01*
X199500D02*G75*G03X199500Y292500I0J5000D01*G01*
X179500Y313000D02*Y312500D01*
X199500D01*
Y313000D02*Y312500D01*
Y322500D02*Y322000D01*
X179500Y322500D02*X199500D01*
X179500D02*Y322000D01*
X270000Y360000D02*X320000D01*
X270000D02*Y340000D01*
X320000D01*
Y360000D02*Y340000D01*
X310000Y360000D02*Y350000D01*
X320000D01*
G54D106*X180500Y335500D02*X200500D01*
Y325500D01*
X180500D01*
Y335500D01*
X170500Y330500D02*X180500D01*
X200500D02*X210500D01*
G54D107*X333500Y241000D02*X341500D01*
X333500D02*Y203000D01*
X341500D01*
Y241000D02*Y203000D01*
X333000Y324500D02*Y266500D01*
Y324500D02*X341000D01*
Y266500D01*
X333000D02*X341000D01*
X215500Y335500D02*Y235500D01*
X255500D01*
Y335500D01*
X215500D02*X230500D01*
X240500D02*X255500D01*
X230500D02*G75*G03X240500Y335500I5000J0D01*G01*
X226500Y350500D02*X246500D01*
X226500D02*Y340500D01*
X246500D01*
Y350500D02*Y340500D01*
X236500Y350500D02*Y340500D01*
X246500D01*
X281500Y231500D02*X282000D01*
Y251500D02*Y231500D01*
X281500Y251500D02*X282000D01*
X272000D02*X272500D01*
X272000D02*Y231500D01*
X272500D01*
X136700Y183500D02*G75*G03X136700Y183500I11800J0D01*G01*
X134700D02*G75*G03X134700Y183500I13800J0D01*G01*
X176500Y146600D02*Y154600D01*
X194500Y146600D02*X176500D01*
X194500Y154600D02*Y146600D01*
X176500Y154600D02*X194500D01*
X14500Y201000D02*X22500D01*
Y239000D02*Y201000D01*
X14500Y239000D02*X22500D01*
X14500D02*Y201000D01*
X71000Y166500D02*Y162500D01*
X69000Y164500D02*X73000D01*
X71000Y194500D02*Y190500D01*
Y168500D02*G75*G03X71000Y168500I0J10000D01*G01*
X85500Y193000D02*X86000D01*
X85500D02*Y173000D01*
X86000D01*
X95000D02*X95500D01*
Y193000D02*Y173000D01*
X95000Y193000D02*X95500D01*
X46000Y146600D02*Y154600D01*
X64000Y146600D02*X46000D01*
X64000Y154600D02*Y146600D01*
X46000Y154600D02*X64000D01*
G54D105*X280500Y311500D02*X282500D01*
X283000Y311000D01*
Y310000D01*
X282500Y309500D02*X283000Y310000D01*
X281000Y309500D02*X282500D01*
X281000Y311500D02*Y307500D01*
Y309500D02*X283000Y307500D01*
X284200Y311500D02*X286200D01*
X284200D02*Y309500D01*
X284700Y310000D01*
X285700D01*
X286200Y309500D01*
Y308000D01*
X285700Y307500D02*X286200Y308000D01*
X284700Y307500D02*X285700D01*
X284200Y308000D02*X284700Y307500D01*
X231500Y322500D02*Y319000D01*
X232000Y318500D01*
X233000D01*
X233500Y319000D01*
Y322500D02*Y319000D01*
X235200Y318500D02*X236200D01*
X235700Y322500D02*Y318500D01*
X234700Y321500D02*X235700Y322500D01*
X280500D02*X282500D01*
X283000Y322000D01*
Y321000D01*
X282500Y320500D02*X283000Y321000D01*
X281000Y320500D02*X282500D01*
X281000Y322500D02*Y318500D01*
Y320500D02*X283000Y318500D01*
X285700Y322500D02*X286200Y322000D01*
X284700Y322500D02*X285700D01*
X284200Y322000D02*X284700Y322500D01*
X284200Y322000D02*Y319000D01*
X284700Y318500D01*
X285700Y320500D02*X286200Y320000D01*
X284200Y320500D02*X285700D01*
X284700Y318500D02*X285700D01*
X286200Y319000D01*
Y320000D02*Y319000D01*
X218000Y351500D02*X219500D01*
Y348000D01*
X219000Y347500D02*X219500Y348000D01*
X218500Y347500D02*X219000D01*
X218000Y348000D02*X218500Y347500D01*
X221200D02*X222200D01*
X221700Y351500D02*Y347500D01*
X220700Y350500D02*X221700Y351500D01*
X280500Y300500D02*X282500D01*
X283000Y300000D01*
Y299000D01*
X282500Y298500D02*X283000Y299000D01*
X281000Y298500D02*X282500D01*
X281000Y300500D02*Y296500D01*
Y298500D02*X283000Y296500D01*
X284200Y298500D02*X286200Y300500D01*
X284200Y298500D02*X286700D01*
X286200Y300500D02*Y296500D01*
X208500Y354000D02*X209000Y353500D01*
X207000Y354000D02*X208500D01*
X206500Y353500D02*X207000Y354000D01*
X206500Y353500D02*Y352500D01*
X207000Y352000D01*
X208500D01*
X209000Y351500D01*
Y350500D01*
X208500Y350000D02*X209000Y350500D01*
X207000Y350000D02*X208500D01*
X206500Y350500D02*X207000Y350000D01*
X210700D02*X211700D01*
X211200Y354000D02*Y350000D01*
X210200Y353000D02*X211200Y354000D01*
X205750Y296000D02*X208000D01*
X205000Y296750D02*X205750Y296000D01*
X205000Y301250D02*Y296750D01*
Y301250D02*X205750Y302000D01*
X208000D01*
X210550Y296000D02*X212050D01*
X211300Y302000D02*Y296000D01*
X209800Y300500D02*X211300Y302000D01*
X205250Y268000D02*X207500D01*
X204500Y268750D02*X205250Y268000D01*
X204500Y273250D02*Y268750D01*
Y273250D02*X205250Y274000D01*
X207500D01*
X209300Y273250D02*X210050Y274000D01*
X212300D01*
X213050Y273250D01*
Y271750D01*
X209300Y268000D02*X213050Y271750D01*
X209300Y268000D02*X213050D01*
X207500Y289500D02*Y289000D01*
X210000Y286500D01*
Y285500D01*
X207500Y286500D02*Y285500D01*
Y286500D02*X210000Y289000D01*
Y289500D02*Y289000D01*
X211700Y285500D02*X212700D01*
X212200Y289500D02*Y285500D01*
X211200Y288500D02*X212200Y289500D01*
X58500Y322500D02*Y319000D01*
X59000Y318500D01*
X60000D01*
X60500Y319000D01*
Y322500D02*Y319000D01*
X61700Y322000D02*X62200Y322500D01*
X63700D01*
X64200Y322000D01*
Y321000D01*
X61700Y318500D02*X64200Y321000D01*
X61700Y318500D02*X64200D01*
X28500Y308500D02*X30000D01*
X28000Y309000D02*X28500Y308500D01*
X28000Y312000D02*Y309000D01*
Y312000D02*X28500Y312500D01*
X30000D01*
X31200Y312000D02*X31700Y312500D01*
X32700D01*
X33200Y312000D01*
Y309000D01*
X32700Y308500D02*X33200Y309000D01*
X31700Y308500D02*X32700D01*
X31200Y309000D02*X31700Y308500D01*
Y310500D02*X33200D01*
X62500Y347000D02*X64000D01*
X62000Y347500D02*X62500Y347000D01*
X62000Y350500D02*Y347500D01*
Y350500D02*X62500Y351000D01*
X64000D01*
X65200D02*X67200D01*
X65200D02*Y349000D01*
X65700Y349500D01*
X66700D01*
X67200Y349000D01*
Y347500D01*
X66700Y347000D02*X67200Y347500D01*
X65700Y347000D02*X66700D01*
X65200Y347500D02*X65700Y347000D01*
X210000Y322000D02*X212250D01*
X213000Y321250D02*X212250Y322000D01*
X213000Y321250D02*Y316750D01*
X212250Y316000D01*
X210000D02*X212250D01*
X208200Y322000D02*X204450Y318250D01*
Y316000D01*
X208200D01*
X287500Y289000D02*X289000D01*
Y285500D01*
X288500Y285000D02*X289000Y285500D01*
X288000Y285000D02*X288500D01*
X287500Y285500D02*X288000Y285000D01*
X290200Y288500D02*X290700Y289000D01*
X292200D01*
X292700Y288500D01*
Y287500D01*
X290200Y285000D02*X292700Y287500D01*
X290200Y285000D02*X292700D01*
X284500Y248250D02*Y246000D01*
X285250Y249000D02*X284500Y248250D01*
X285250Y249000D02*X289750D01*
X290500Y248250D01*
Y246000D01*
X284500Y243450D02*Y241950D01*
Y242700D02*X290500D01*
X289000Y244200D02*X290500Y242700D01*
X289750Y240150D02*X290500Y239400D01*
Y237150D01*
X289750Y236400D01*
X288250D02*X289750D01*
X284500Y240150D02*X288250Y236400D01*
X284500Y240150D02*Y236400D01*
X94500Y348000D02*X96000D01*
X94000Y348500D02*X94500Y348000D01*
X94000Y351500D02*Y348500D01*
Y351500D02*X94500Y352000D01*
X96000D01*
X98700D02*X99200Y351500D01*
X97700Y352000D02*X98700D01*
X97200Y351500D02*X97700Y352000D01*
X97200Y351500D02*Y348500D01*
X97700Y348000D01*
X98700Y350000D02*X99200Y349500D01*
X97200Y350000D02*X98700D01*
X97700Y348000D02*X98700D01*
X99200Y348500D01*
Y349500D02*Y348500D01*
X182500Y331500D02*X184500D01*
X185000Y331000D01*
Y330000D01*
X184500Y329500D02*X185000Y330000D01*
X183000Y329500D02*X184500D01*
X183000Y331500D02*Y327500D01*
Y329500D02*X185000Y327500D01*
X186200D02*X188700Y330000D01*
Y331500D02*Y330000D01*
X186200Y331500D02*X188700D01*
X134500Y320500D02*Y317000D01*
X135000Y316500D01*
X136000D01*
X136500Y317000D01*
Y320500D02*Y317000D01*
X137700Y320000D02*X138200Y320500D01*
X139200D01*
X139700Y320000D01*
Y317000D01*
X139200Y316500D02*X139700Y317000D01*
X138200Y316500D02*X139200D01*
X137700Y317000D02*X138200Y316500D01*
Y318500D02*X139700D01*
X101500Y331750D02*Y329500D01*
X102250Y332500D02*X101500Y331750D01*
X102250Y332500D02*X106750D01*
X107500Y331750D01*
Y329500D01*
X101500Y326950D02*Y325450D01*
Y326200D02*X107500D01*
X106000Y327700D02*X107500Y326200D01*
X102250Y323650D02*X101500Y322900D01*
X102250Y323650D02*X106750D01*
X107500Y322900D01*
Y321400D01*
X106750Y320650D01*
X102250D02*X106750D01*
X101500Y321400D02*X102250Y320650D01*
X101500Y322900D02*Y321400D01*
X103000Y323650D02*X106000Y320650D01*
X109250Y347500D02*X111500D01*
X108500Y348250D02*X109250Y347500D01*
X108500Y352750D02*Y348250D01*
Y352750D02*X109250Y353500D01*
X111500D01*
X114050Y347500D02*X115550D01*
X114800Y353500D02*Y347500D01*
X113300Y352000D02*X114800Y353500D01*
X118100Y347500D02*X119600D01*
X118850Y353500D02*Y347500D01*
X117350Y352000D02*X118850Y353500D01*
X236000Y201500D02*X238000D01*
X238500Y201000D01*
Y200000D01*
X238000Y199500D02*X238500Y200000D01*
X236500Y199500D02*X238000D01*
X236500Y201500D02*Y197500D01*
Y199500D02*X238500Y197500D01*
X239700Y201000D02*X240200Y201500D01*
X241200D01*
X241700Y201000D01*
Y198000D01*
X241200Y197500D02*X241700Y198000D01*
X240200Y197500D02*X241200D01*
X239700Y198000D02*X240200Y197500D01*
Y199500D02*X241700D01*
X185500Y201500D02*X187500D01*
X188000Y201000D01*
Y200000D01*
X187500Y199500D02*X188000Y200000D01*
X186000Y199500D02*X187500D01*
X186000Y201500D02*Y197500D01*
Y199500D02*X188000Y197500D01*
X189200Y201000D02*X189700Y201500D01*
X191200D01*
X191700Y201000D01*
Y200000D01*
X189200Y197500D02*X191700Y200000D01*
X189200Y197500D02*X191700D01*
X251500Y179000D02*Y175000D01*
X253000Y179000D02*X253500Y178500D01*
Y175500D01*
X253000Y175000D02*X253500Y175500D01*
X251000Y175000D02*X253000D01*
X251000Y179000D02*X253000D01*
X254700Y178500D02*X255200Y179000D01*
X256200D01*
X256700Y178500D01*
Y175500D01*
X256200Y175000D02*X256700Y175500D01*
X255200Y175000D02*X256200D01*
X254700Y175500D02*X255200Y175000D01*
Y177000D02*X256700D01*
X201000Y179500D02*Y175500D01*
X202500Y179500D02*X203000Y179000D01*
Y176000D01*
X202500Y175500D02*X203000Y176000D01*
X200500Y175500D02*X202500D01*
X200500Y179500D02*X202500D01*
X204200Y179000D02*X204700Y179500D01*
X206200D01*
X206700Y179000D01*
Y178000D01*
X204200Y175500D02*X206700Y178000D01*
X204200Y175500D02*X206700D01*
X147500Y179000D02*Y175000D01*
X149000Y179000D02*X149500Y178500D01*
Y175500D01*
X149000Y175000D02*X149500Y175500D01*
X147000Y175000D02*X149000D01*
X147000Y179000D02*X149000D01*
X151200Y175000D02*X152200D01*
X151700Y179000D02*Y175000D01*
X150700Y178000D02*X151700Y179000D01*
X181000Y155600D02*X182500D01*
X180500Y156100D02*X181000Y155600D01*
X180500Y159100D02*Y156100D01*
Y159100D02*X181000Y159600D01*
X182500D01*
X183700Y159100D02*Y156100D01*
Y159100D02*X184200Y159600D01*
X185200D01*
X185700Y159100D01*
Y156100D01*
X185200Y155600D02*X185700Y156100D01*
X184200Y155600D02*X185200D01*
X183700Y156100D02*X184200Y155600D01*
X186900Y159600D02*Y155600D01*
Y159600D02*Y159100D01*
X189400Y156600D01*
Y159600D02*Y155600D01*
X190600Y159600D02*Y155600D01*
Y159600D02*Y159100D01*
X193100Y156600D01*
Y159600D02*Y155600D01*
X194300Y159100D02*X194800Y159600D01*
X196300D01*
X196800Y159100D01*
Y158100D01*
X194300Y155600D02*X196800Y158100D01*
X194300Y155600D02*X196800D01*
X134000Y201500D02*X136000D01*
X136500Y201000D01*
Y200000D01*
X136000Y199500D02*X136500Y200000D01*
X134500Y199500D02*X136000D01*
X134500Y201500D02*Y197500D01*
Y199500D02*X136500Y197500D01*
X138200D02*X139200D01*
X138700Y201500D02*Y197500D01*
X137700Y200500D02*X138700Y201500D01*
X30500Y272500D02*X32000D01*
X30000Y273000D02*X30500Y272500D01*
X30000Y276000D02*Y273000D01*
Y276000D02*X30500Y276500D01*
X32000D01*
X33200Y274500D02*X35200Y276500D01*
X33200Y274500D02*X35700D01*
X35200Y276500D02*Y272500D01*
X65500Y191500D02*Y190000D01*
X65000Y189500D02*X65500Y190000D01*
X62000Y189500D02*X65000D01*
X62000D02*X61500Y190000D01*
Y191500D02*Y190000D01*
X65500Y192700D02*X63500Y194700D01*
X62000D02*X63500D01*
X61500Y194200D02*X62000Y194700D01*
X61500Y194200D02*Y193200D01*
X62000Y192700D02*X61500Y193200D01*
X62000Y192700D02*X63000D01*
X63500Y193200D01*
Y194700D02*Y193200D01*
X99500Y185750D02*Y183500D01*
X100250Y186500D02*X99500Y185750D01*
X100250Y186500D02*X104750D01*
X105500Y185750D01*
Y183500D01*
X100250Y181700D02*X99500Y180950D01*
X100250Y181700D02*X101750D01*
X102500Y180950D01*
Y179450D01*
X101750Y178700D01*
X100250D02*X101750D01*
X99500Y179450D02*X100250Y178700D01*
X99500Y180950D02*Y179450D01*
X103250Y181700D02*X102500Y180950D01*
X103250Y181700D02*X104750D01*
X105500Y180950D01*
Y179450D01*
X104750Y178700D01*
X103250D02*X104750D01*
X102500Y179450D02*X103250Y178700D01*
X34000Y191000D02*Y187000D01*
X36500Y191000D02*Y187000D01*
X34000Y189000D02*X36500D01*
X37700Y190500D02*X38200Y191000D01*
X39700D01*
X40200Y190500D01*
Y189500D01*
X37700Y187000D02*X40200Y189500D01*
X37700Y187000D02*X40200D01*
X9500Y205000D02*X13500D01*
X9500Y207500D02*X13500D01*
X11500D02*Y205000D01*
X10000Y208700D02*X9500Y209200D01*
Y210200D02*Y209200D01*
Y210200D02*X10000Y210700D01*
X13000D01*
X13500Y210200D02*X13000Y210700D01*
X13500Y210200D02*Y209200D01*
X13000Y208700D02*X13500Y209200D01*
X11500Y210700D02*Y209200D01*
X3600Y148300D02*Y144300D01*
X5600D01*
X7300D02*X8300D01*
X7800Y148300D02*Y144300D01*
X6800Y147300D02*X7800Y148300D01*
X50500Y155600D02*X52000D01*
X50000Y156100D02*X50500Y155600D01*
X50000Y159100D02*Y156100D01*
Y159100D02*X50500Y159600D01*
X52000D01*
X53200Y159100D02*Y156100D01*
Y159100D02*X53700Y159600D01*
X54700D01*
X55200Y159100D01*
Y156100D01*
X54700Y155600D02*X55200Y156100D01*
X53700Y155600D02*X54700D01*
X53200Y156100D02*X53700Y155600D01*
X56400Y159600D02*Y155600D01*
Y159600D02*Y159100D01*
X58900Y156600D01*
Y159600D02*Y155600D01*
X60100Y159600D02*Y155600D01*
Y159600D02*Y159100D01*
X62600Y156600D01*
Y159600D02*Y155600D01*
X63800Y159100D02*X64300Y159600D01*
X65800D01*
X66300Y159100D01*
Y158100D01*
X63800Y155600D02*X66300Y158100D01*
X63800Y155600D02*X66300D01*
X134100Y148300D02*Y144300D01*
X136100D01*
X137800D02*X138800D01*
X138300Y148300D02*Y144300D01*
X137300Y147300D02*X138300Y148300D01*
X43000Y75600D02*X44500D01*
X42500Y76100D02*X43000Y75600D01*
X42500Y79100D02*Y76100D01*
Y79100D02*X43000Y79600D01*
X44500D01*
X45700Y79100D02*X46200Y79600D01*
X47200D01*
X47700Y79100D01*
Y76100D01*
X47200Y75600D02*X47700Y76100D01*
X46200Y75600D02*X47200D01*
X45700Y76100D02*X46200Y75600D01*
Y77600D02*X47700D01*
X70000Y59600D02*X72000D01*
X72500Y59100D01*
Y58100D01*
X72000Y57600D02*X72500Y58100D01*
X70500Y57600D02*X72000D01*
X70500Y59600D02*Y55600D01*
Y57600D02*X72500Y55600D01*
X73700Y59100D02*X74200Y59600D01*
X75700D01*
X76200Y59100D01*
Y58100D01*
X73700Y55600D02*X76200Y58100D01*
X73700Y55600D02*X76200D01*
X70000Y87100D02*X72000D01*
X72500Y86600D01*
Y85600D01*
X72000Y85100D02*X72500Y85600D01*
X70500Y85100D02*X72000D01*
X70500Y87100D02*Y83100D01*
Y85100D02*X72500Y83100D01*
X73700Y86600D02*X74200Y87100D01*
X75200D01*
X75700Y86600D01*
Y83600D01*
X75200Y83100D02*X75700Y83600D01*
X74200Y83100D02*X75200D01*
X73700Y83600D02*X74200Y83100D01*
Y85100D02*X75700D01*
X19500Y56100D02*Y54600D01*
X20000Y56600D02*X19500Y56100D01*
X20000Y56600D02*X23000D01*
X23500Y56100D01*
Y54600D01*
X20000Y53400D02*X23000D01*
X23500Y52900D01*
Y51900D01*
X23000Y51400D01*
X20000D02*X23000D01*
X19500Y51900D02*X20000Y51400D01*
X19500Y52900D02*Y51900D01*
X20000Y53400D02*X19500Y52900D01*
Y50200D02*X23500D01*
X23000D02*X23500D01*
X23000D02*X20500Y47700D01*
X19500D02*X23500D01*
X19500Y46500D02*X23500D01*
X23000D02*X23500D01*
X23000D02*X20500Y44000D01*
X19500D02*X23500D01*
X19500Y42300D02*Y41300D01*
Y41800D02*X23500D01*
X22500Y42800D02*X23500Y41800D01*
X21000Y73600D02*X25000D01*
X21000Y75100D02*X21500Y75600D01*
X24500D01*
X25000Y75100D02*X24500Y75600D01*
X25000Y75100D02*Y73100D01*
X21000Y75100D02*Y73100D01*
X25000Y78300D02*Y77300D01*
X21000Y77800D02*X25000D01*
X22000Y76800D02*X21000Y77800D01*
X20900Y95100D02*Y93600D01*
X21400Y95600D02*X20900Y95100D01*
X21400Y95600D02*X24400D01*
X24900Y95100D01*
Y93600D01*
X20900Y91900D02*Y90900D01*
Y91400D02*X24900D01*
X23900Y92400D02*X24900Y91400D01*
X50500Y123350D02*Y121100D01*
X51250Y124100D02*X50500Y123350D01*
X51250Y124100D02*X55750D01*
X56500Y123350D01*
Y121100D01*
X55750Y119300D02*X56500Y118550D01*
Y116300D01*
X55750Y115550D01*
X54250D02*X55750D01*
X50500Y119300D02*X54250Y115550D01*
X50500Y119300D02*Y115550D01*
X65500Y135600D02*X69000D01*
X65500D02*X65000Y135100D01*
Y134100D01*
X65500Y133600D01*
X69000D01*
X65000Y131900D02*Y130900D01*
Y131400D02*X69000D01*
X68000Y132400D02*X69000Y131400D01*
X124000Y135600D02*Y133600D01*
X123500Y133100D01*
X122500D02*X123500D01*
X122000Y133600D02*X122500Y133100D01*
X122000Y135100D02*Y133600D01*
X120000Y135100D02*X124000D01*
X122000D02*X120000Y133100D01*
Y131400D02*Y130400D01*
Y130900D02*X124000D01*
X123000Y131900D02*X124000Y130900D01*
X181000Y123350D02*Y121100D01*
X181750Y124100D02*X181000Y123350D01*
X181750Y124100D02*X186250D01*
X187000Y123350D01*
Y121100D01*
X186250Y119300D02*X187000Y118550D01*
Y116300D01*
X186250Y115550D01*
X184750D02*X186250D01*
X181000Y119300D02*X184750Y115550D01*
X181000Y119300D02*Y115550D01*
X173500Y75600D02*X175000D01*
X173000Y76100D02*X173500Y75600D01*
X173000Y79100D02*Y76100D01*
Y79100D02*X173500Y79600D01*
X175000D01*
X176200Y79100D02*X176700Y79600D01*
X177700D01*
X178200Y79100D01*
Y76100D01*
X177700Y75600D02*X178200Y76100D01*
X176700Y75600D02*X177700D01*
X176200Y76100D02*X176700Y75600D01*
Y77600D02*X178200D01*
X150000Y56100D02*Y54600D01*
X150500Y56600D02*X150000Y56100D01*
X150500Y56600D02*X153500D01*
X154000Y56100D01*
Y54600D01*
X150500Y53400D02*X153500D01*
X154000Y52900D01*
Y51900D01*
X153500Y51400D01*
X150500D02*X153500D01*
X150000Y51900D02*X150500Y51400D01*
X150000Y52900D02*Y51900D01*
X150500Y53400D02*X150000Y52900D01*
Y50200D02*X154000D01*
X153500D02*X154000D01*
X153500D02*X151000Y47700D01*
X150000D02*X154000D01*
X150000Y46500D02*X154000D01*
X153500D02*X154000D01*
X153500D02*X151000Y44000D01*
X150000D02*X154000D01*
X150000Y42300D02*Y41300D01*
Y41800D02*X154000D01*
X153000Y42800D02*X154000Y41800D01*
X151500Y73600D02*X155500D01*
X151500Y75100D02*X152000Y75600D01*
X155000D01*
X155500Y75100D02*X155000Y75600D01*
X155500Y75100D02*Y73100D01*
X151500Y75100D02*Y73100D01*
X155500Y78300D02*Y77300D01*
X151500Y77800D02*X155500D01*
X152500Y76800D02*X151500Y77800D01*
X151400Y95100D02*Y93600D01*
X151900Y95600D02*X151400Y95100D01*
X151900Y95600D02*X154900D01*
X155400Y95100D01*
Y93600D01*
X151400Y91900D02*Y90900D01*
Y91400D02*X155400D01*
X154400Y92400D02*X155400Y91400D01*
X196000Y135600D02*X199500D01*
X196000D02*X195500Y135100D01*
Y134100D01*
X196000Y133600D01*
X199500D01*
X195500Y131900D02*Y130900D01*
Y131400D02*X199500D01*
X198500Y132400D02*X199500Y131400D01*
X200500Y59600D02*X202500D01*
X203000Y59100D01*
Y58100D01*
X202500Y57600D02*X203000Y58100D01*
X201000Y57600D02*X202500D01*
X201000Y59600D02*Y55600D01*
Y57600D02*X203000Y55600D01*
X204200Y59100D02*X204700Y59600D01*
X206200D01*
X206700Y59100D01*
Y58100D01*
X204200Y55600D02*X206700Y58100D01*
X204200Y55600D02*X206700D01*
X200500Y87100D02*X202500D01*
X203000Y86600D01*
Y85600D01*
X202500Y85100D02*X203000Y85600D01*
X201000Y85100D02*X202500D01*
X201000Y87100D02*Y83100D01*
Y85100D02*X203000Y83100D01*
X204200Y86600D02*X204700Y87100D01*
X205700D01*
X206200Y86600D01*
Y83600D01*
X205700Y83100D02*X206200Y83600D01*
X204700Y83100D02*X205700D01*
X204200Y83600D02*X204700Y83100D01*
Y85100D02*X206200D01*
X280000Y55500D02*Y54000D01*
X280500Y56000D02*X280000Y55500D01*
X280500Y56000D02*X283500D01*
X284000Y55500D01*
Y54000D01*
X280500Y52800D02*X283500D01*
X284000Y52300D01*
Y51300D01*
X283500Y50800D01*
X280500D02*X283500D01*
X280000Y51300D02*X280500Y50800D01*
X280000Y52300D02*Y51300D01*
X280500Y52800D02*X280000Y52300D01*
Y49600D02*X284000D01*
X283500D02*X284000D01*
X283500D02*X281000Y47100D01*
X280000D02*X284000D01*
X280000Y45900D02*X284000D01*
X283500D02*X284000D01*
X283500D02*X281000Y43400D01*
X280000D02*X284000D01*
X280000Y41700D02*Y40700D01*
Y41200D02*X284000D01*
X283000Y42200D02*X284000Y41200D01*
X281000Y72500D02*X285000D01*
X281000Y74000D02*X281500Y74500D01*
X284500D01*
X285000Y74000D02*X284500Y74500D01*
X285000Y74000D02*Y72000D01*
X281000Y74000D02*Y72000D01*
X285000Y77200D02*Y76200D01*
X281000Y76700D02*X285000D01*
X282000Y75700D02*X281000Y76700D01*
X327000Y46000D02*X330500D01*
X327000D02*X326500Y45500D01*
Y44500D01*
X327000Y44000D01*
X330500D01*
X330000Y42800D02*X330500Y42300D01*
Y40800D01*
X330000Y40300D01*
X329000D02*X330000D01*
X326500Y42800D02*X329000Y40300D01*
X326500Y42800D02*Y40300D01*
X332000Y86000D02*X334000D01*
X334500Y85500D01*
Y84500D01*
X334000Y84000D02*X334500Y84500D01*
X332500Y84000D02*X334000D01*
X332500Y86000D02*Y82000D01*
Y84000D02*X334500Y82000D01*
X336200D02*X337200D01*
X336700Y86000D02*Y82000D01*
X335700Y85000D02*X336700Y86000D01*
X331500Y60000D02*X333500D01*
X334000Y59500D01*
Y58500D01*
X333500Y58000D02*X334000Y58500D01*
X332000Y58000D02*X333500D01*
X332000Y60000D02*Y56000D01*
Y58000D02*X334000Y56000D01*
X335200Y59500D02*X335700Y60000D01*
X336700D01*
X337200Y59500D01*
Y56500D01*
X336700Y56000D02*X337200Y56500D01*
X335700Y56000D02*X336700D01*
X335200Y56500D02*X335700Y56000D01*
Y58000D02*X337200D01*
X304500Y76000D02*X306000D01*
X304000Y76500D02*X304500Y76000D01*
X304000Y79500D02*Y76500D01*
Y79500D02*X304500Y80000D01*
X306000D01*
X307200Y79500D02*X307700Y80000D01*
X308700D01*
X309200Y79500D01*
Y76500D01*
X308700Y76000D02*X309200Y76500D01*
X307700Y76000D02*X308700D01*
X307200Y76500D02*X307700Y76000D01*
Y78000D02*X309200D01*
X281000Y94500D02*Y93000D01*
X281500Y95000D02*X281000Y94500D01*
X281500Y95000D02*X284500D01*
X285000Y94500D01*
Y93000D01*
X281000Y91300D02*Y90300D01*
Y90800D02*X285000D01*
X284000Y91800D02*X285000Y90800D01*
X307000Y335500D02*Y331500D01*
X309500Y335500D02*Y331500D01*
X307000Y333500D02*X309500D01*
X311200Y331500D02*X312200D01*
X311700Y335500D02*Y331500D01*
X310700Y334500D02*X311700Y335500D01*
X311000Y123250D02*Y121000D01*
X311750Y124000D02*X311000Y123250D01*
X311750Y124000D02*X316250D01*
X317000Y123250D01*
Y121000D01*
X316250Y119200D02*X317000Y118450D01*
Y116200D01*
X316250Y115450D01*
X314750D02*X316250D01*
X311000Y119200D02*X314750Y115450D01*
X311000Y119200D02*Y115450D01*
X342500Y237000D02*X346500D01*
X342500Y234500D02*X346500D01*
X344500Y237000D02*Y234500D01*
Y233300D02*X346500Y231300D01*
X344500Y233300D02*Y230800D01*
X342500Y231300D02*X346500D01*
X328000Y270500D02*X332000D01*
X328000Y273000D02*X332000D01*
X330000D02*Y270500D01*
X328000Y276200D02*Y274200D01*
X330000D01*
X329500Y274700D01*
Y275700D02*Y274700D01*
Y275700D02*X330000Y276200D01*
X331500D01*
X332000Y275700D02*X331500Y276200D01*
X332000Y275700D02*Y274700D01*
X331500Y274200D02*X332000Y274700D01*
X254500Y135600D02*Y133600D01*
X254000Y133100D01*
X253000D02*X254000D01*
X252500Y133600D02*X253000Y133100D01*
X252500Y135100D02*Y133600D01*
X250500Y135100D02*X254500D01*
X252500D02*X250500Y133100D01*
Y131400D02*Y130400D01*
Y130900D02*X254500D01*
X253500Y131900D02*X254500Y130900D01*
X262500Y144500D02*Y140500D01*
X264500D01*
X266200D02*X267200D01*
X266700Y144500D02*Y140500D01*
X265700Y143500D02*X266700Y144500D01*
X310500Y155500D02*X312000D01*
X310000Y156000D02*X310500Y155500D01*
X310000Y159000D02*Y156000D01*
Y159000D02*X310500Y159500D01*
X312000D01*
X313200Y159000D02*Y156000D01*
Y159000D02*X313700Y159500D01*
X314700D01*
X315200Y159000D01*
Y156000D01*
X314700Y155500D02*X315200Y156000D01*
X313700Y155500D02*X314700D01*
X313200Y156000D02*X313700Y155500D01*
X316400Y159500D02*Y155500D01*
Y159500D02*Y159000D01*
X318900Y156500D01*
Y159500D02*Y155500D01*
X320100Y159500D02*Y155500D01*
Y159500D02*Y159000D01*
X322600Y156500D01*
Y159500D02*Y155500D01*
X323800Y159000D02*X324300Y159500D01*
X325800D01*
X326300Y159000D01*
Y158000D01*
X323800Y155500D02*X326300Y158000D01*
X323800Y155500D02*X326300D01*
X326000Y135500D02*X329500D01*
X326000D02*X325500Y135000D01*
Y134000D01*
X326000Y133500D01*
X329500D01*
X325500Y131800D02*Y130800D01*
Y131300D02*X329500D01*
X328500Y132300D02*X329500Y131300D01*
X384500Y135500D02*Y133500D01*
X384000Y133000D01*
X383000D02*X384000D01*
X382500Y133500D02*X383000Y133000D01*
X382500Y135000D02*Y133500D01*
X380500Y135000D02*X384500D01*
X382500D02*X380500Y133000D01*
X382500Y131800D02*X384500Y129800D01*
X382500Y131800D02*Y129300D01*
X380500Y129800D02*X384500D01*
X369000Y141500D02*X371000D01*
X369000D02*X368500Y142000D01*
Y143000D02*Y142000D01*
X369000Y143500D02*X368500Y143000D01*
X369000Y143500D02*X370500D01*
Y145500D02*Y141500D01*
Y143500D02*X368500Y145500D01*
X367300Y142000D02*X366800Y141500D01*
X365300D02*X366800D01*
X365300D02*X364800Y142000D01*
Y143000D02*Y142000D01*
X367300Y145500D02*X364800Y143000D01*
Y145500D02*X367300D01*
M02*
