G04 start of page 3 for group 1 idx 1 *
G04 Title: (unknown), ground *
G04 Creator: pcb 20110918 *
G04 CreationDate: Thu 23 Oct 2014 13:36:36 GMT UTC *
G04 For: ksarkies *
G04 Format: Gerber/RS-274X *
G04 PCB-Dimensions: 350000 210000 *
G04 PCB-Coordinate-Origin: lower left *
%MOIN*%
%FSLAX25Y25*%
%LNBOTTOM*%
%ADD93C,0.0430*%
%ADD92C,0.0280*%
%ADD91C,0.0380*%
%ADD90C,0.0700*%
%ADD89C,0.0650*%
%ADD88C,0.0680*%
%ADD87C,0.0600*%
%ADD86C,0.0800*%
%ADD85C,0.0001*%
%ADD84C,0.0350*%
%ADD83C,0.0300*%
%ADD82C,0.0100*%
G54D82*X287500Y185500D02*X293000Y179500D01*
X283000Y181000D02*X302500Y161500D01*
X277500Y185500D02*X283000Y181000D01*
X247500Y190000D02*X241500Y185500D01*
X284000Y190000D02*X247500D01*
X287500Y185500D02*X284000Y190000D01*
X293000Y179500D02*X306100Y166400D01*
G54D83*X262500Y158000D02*X243000Y178000D01*
G54D82*X220500Y160500D02*X216000Y165500D01*
G54D83*X178000Y178000D02*X243000D01*
G54D82*X231000Y52000D02*X236000Y57000D01*
X231000Y48000D02*Y52000D01*
X254000Y57000D02*X236000D01*
X258000Y61000D02*X254000Y57000D01*
G54D83*X328000Y56000D02*X337500Y46500D01*
G54D82*X245000Y85000D02*X208500D01*
G54D83*X242500Y31000D02*X205000D01*
X247500Y23500D02*X242500Y31000D01*
X247500Y26500D02*X263000Y39500D01*
X262500Y158000D02*X263000Y39500D01*
G54D82*X250500Y90500D02*X245000Y85000D01*
X258000Y124500D02*Y61500D01*
G54D83*X328000Y102000D02*Y56000D01*
X345000Y119000D02*X328000Y102000D01*
G54D82*X308500Y131000D02*X295500Y117500D01*
X250500Y130500D02*X258000Y124500D01*
X220500Y140500D02*X199500D01*
Y127500D01*
X220500Y130500D02*X216000Y126500D01*
X212000Y123000D02*X207500Y119000D01*
X216000Y126500D02*X212000Y123000D01*
X194500Y112500D02*X200000D01*
X194500D02*X179500Y127500D01*
X317347Y139847D02*X321953Y144400D01*
X308500Y131000D02*X317347Y139847D01*
X302500Y161500D02*X308500D01*
X336500Y150500D02*X320600Y166400D01*
X306100D01*
G54D83*X339500Y171000D02*X332000D01*
G54D82*X328000Y150500D02*X321953Y144400D01*
X336500Y150500D02*X328000D01*
G54D83*X345000Y119000D02*Y165000D01*
X339500Y171000D01*
X332000D02*X319000Y185000D01*
X98500Y194500D02*X62500D01*
X74000Y163000D02*X79500Y160500D01*
X74000Y194500D02*Y163000D01*
X90000Y178000D02*X81500Y171500D01*
X79000Y160500D02*X63000Y151500D01*
G54D82*X72000Y135000D02*X79500Y140500D01*
X68006Y142006D02*X79500Y150500D01*
X92500Y143500D02*X79500Y130500D01*
X115000Y165500D02*X92500Y143500D01*
G54D83*X38500Y76000D02*X17500D01*
X63000Y102500D02*X38500Y76000D01*
G54D82*X33500Y56000D02*X72000Y95500D01*
X35500Y66000D02*X68000Y98000D01*
X33500Y56000D02*X17500D01*
X35500Y66000D02*X17500D01*
G54D83*X63000Y151500D02*Y102500D01*
G54D82*X50000Y120500D02*X49500Y120000D01*
X50000Y121000D02*Y120500D01*
X68000Y98000D02*X68006Y142006D01*
G54D83*X33500Y13000D02*X30000Y22000D01*
X19000Y46500D01*
X135000Y13000D02*X33500D01*
X143500Y23500D02*X135000Y13000D01*
G54D82*X40500Y21500D02*X40000Y21000D01*
G54D84*X86000Y33000D02*X75000Y27000D01*
X65000Y21500D01*
X40500D01*
G54D82*X72000Y95500D02*Y135000D01*
X161000Y113500D02*X154500Y119500D01*
X161000Y113500D02*Y81000D01*
X79500Y120500D02*X123500D01*
X161000Y128000D02*X153500Y120500D01*
X161000Y81000D02*X128500Y48500D01*
X208500Y85000D02*X182000Y66000D01*
Y49000D01*
X207500Y119000D02*X200000Y112500D01*
G54D83*X171500Y121500D02*X180000Y112500D01*
X171500Y132000D02*Y121500D01*
X205000Y31000D02*X197500Y23500D01*
X150000Y31000D02*X143500Y23500D01*
X189499Y31000D02*X150000D01*
X196999Y23500D02*X189499Y31000D01*
X171500Y132000D02*X179500Y140000D01*
G54D82*X161000Y143000D02*Y128000D01*
G54D83*X179500Y140000D02*X171000Y145000D01*
X180000Y158500D02*X171000Y153000D01*
G54D82*X153500Y160500D02*Y150500D01*
X161000Y143000D01*
G54D83*X171000Y153000D02*Y145000D01*
X190500Y194000D02*X99000D01*
X170500Y170500D02*X153500D01*
X170500D02*X178000Y178000D01*
G54D82*X216000Y165500D02*X115000D01*
G54D83*X163000Y178000D02*X170500Y170500D01*
X90000Y178000D02*X163000D01*
G54D85*G36*
X238500Y188500D02*Y182500D01*
X244500D01*
Y188500D01*
X238500D01*
G37*
G54D86*X179500Y140500D03*
X199500D03*
G54D85*G36*
X176500Y130500D02*Y124500D01*
X182500D01*
Y130500D01*
X176500D01*
G37*
G36*
X167100Y173900D02*Y167100D01*
X173900D01*
Y173900D01*
X167100D01*
G37*
G54D87*X153500Y130500D03*
Y140500D03*
Y150500D03*
Y160500D03*
Y170500D03*
G54D86*X179500Y157500D03*
X199500D03*
G54D87*X49500Y140500D03*
Y130500D03*
Y120500D03*
Y110500D03*
Y100500D03*
X79500D03*
Y110500D03*
G54D85*G36*
X21000Y173500D02*Y167500D01*
X27000D01*
Y173500D01*
X21000D01*
G37*
G54D87*X24000Y160500D03*
G54D85*G36*
X21000Y137500D02*Y131500D01*
X27000D01*
Y137500D01*
X21000D01*
G37*
G54D87*X24000Y124500D03*
X79500Y120500D03*
Y130500D03*
Y140500D03*
G54D85*G36*
X46500Y173500D02*Y167500D01*
X52500D01*
Y173500D01*
X46500D01*
G37*
G54D87*X49500Y160500D03*
Y150500D03*
X79500D03*
Y160500D03*
Y170500D03*
G54D85*G36*
X95500Y197500D02*Y191500D01*
X101500D01*
Y197500D01*
X95500D01*
G37*
G54D87*X98500Y184500D03*
G54D85*G36*
X59500Y187500D02*Y181500D01*
X65500D01*
Y187500D01*
X59500D01*
G37*
G54D87*X62500Y194500D03*
G54D85*G36*
X120500Y173500D02*Y167500D01*
X126500D01*
Y173500D01*
X120500D01*
G37*
G54D87*X123500Y160500D03*
Y150500D03*
Y140500D03*
Y130500D03*
Y120500D03*
G54D85*G36*
X178100Y51900D02*Y45100D01*
X184900D01*
Y51900D01*
X178100D01*
G37*
G36*
X125100D02*Y45100D01*
X131900D01*
Y51900D01*
X125100D01*
G37*
G54D88*X168500Y48500D03*
G54D85*G36*
X244250Y26750D02*Y20250D01*
X250750D01*
Y26750D01*
X244250D01*
G37*
G54D89*X257500Y23500D03*
G54D85*G36*
X140250Y26750D02*Y20250D01*
X146750D01*
Y26750D01*
X140250D01*
G37*
G54D89*X153500Y23500D03*
G54D85*G36*
X194250Y26750D02*Y20250D01*
X200750D01*
Y26750D01*
X194250D01*
G37*
G54D89*X207500Y23500D03*
G54D86*X180000Y112500D03*
G54D87*X123500Y110500D03*
X153500D03*
Y120500D03*
G54D85*G36*
X26500Y25500D02*Y18500D01*
X33500D01*
Y25500D01*
X26500D01*
G37*
G54D90*X40000Y22000D03*
G54D85*G36*
X62000Y16000D02*Y10000D01*
X68000D01*
Y16000D01*
X62000D01*
G37*
G54D87*X65000Y23000D03*
G54D85*G36*
X15000Y48500D02*Y41500D01*
X22000D01*
Y48500D01*
X15000D01*
G37*
G54D90*X18500Y55000D03*
Y65000D03*
Y75000D03*
G54D86*X86000Y33000D03*
Y13000D03*
G54D87*X220500Y110500D03*
X250500D03*
G54D86*X200000Y112500D03*
G54D87*X220500Y100500D03*
X250500D03*
X220500Y90500D03*
Y80500D03*
X250500D03*
Y90500D03*
G54D85*G36*
X228100Y51900D02*Y45100D01*
X234900D01*
Y51900D01*
X228100D01*
G37*
G54D88*X271500Y48500D03*
X221500D03*
G54D85*G36*
X217500Y173500D02*Y167500D01*
X223500D01*
Y173500D01*
X217500D01*
G37*
G54D87*X220500Y160500D03*
Y150500D03*
Y140500D03*
Y130500D03*
G54D85*G36*
X265100Y153900D02*Y147100D01*
X271900D01*
Y153900D01*
X265100D01*
G37*
G54D87*X250500Y150500D03*
Y160500D03*
Y170500D03*
G54D85*G36*
X265100Y164900D02*Y158100D01*
X271900D01*
Y164900D01*
X265100D01*
G37*
G36*
Y142900D02*Y136100D01*
X271900D01*
Y142900D01*
X265100D01*
G37*
G54D87*X220500Y120500D03*
X250500D03*
Y130500D03*
Y140500D03*
X231500Y185500D03*
G54D85*G36*
X189500Y197000D02*Y191000D01*
X195500D01*
Y197000D01*
X189500D01*
G37*
G54D87*X192500Y184000D03*
X199500Y127500D03*
G54D88*X210500Y170500D03*
X308500Y150500D03*
Y161500D03*
G54D85*G36*
X292500Y120500D02*Y114500D01*
X298500D01*
Y120500D01*
X292500D01*
G37*
G54D87*X285500Y117500D03*
G54D88*X308500Y139500D03*
G54D85*G36*
X314500Y198500D02*Y192500D01*
X320500D01*
Y198500D01*
X314500D01*
G37*
G54D87*X317500Y185500D03*
X307500Y195500D03*
Y185500D03*
X297500Y195500D03*
Y185500D03*
X287500Y195500D03*
Y185500D03*
X277500Y195500D03*
Y185500D03*
G54D85*G36*
X334000Y80500D02*Y73500D01*
X341000D01*
Y80500D01*
X334000D01*
G37*
G54D90*X337500Y67000D03*
Y57000D03*
Y47000D03*
G54D85*G36*
X333500Y114000D02*Y107000D01*
X340500D01*
Y114000D01*
X333500D01*
G37*
G54D90*X337000Y120500D03*
Y130500D03*
Y140500D03*
Y150500D03*
Y160500D03*
G54D91*G54D84*G54D92*G54D91*G54D92*G54D84*G54D92*G54D83*G54D92*G54D83*G54D92*G54D91*G54D93*G54D84*G54D92*G54D91*G54D83*G54D91*G54D84*G54D92*G54D84*G54D92*G54D91*G54D92*G54D91*G54D92*G54D91*G54D92*G54D91*G54D83*G54D92*G54D91*M02*
