G04 start of page 3 for group 1 idx 1 *
G04 Title: (unknown), ground *
G04 Creator: pcb 20110918 *
G04 CreationDate: Wed 29 Oct 2014 08:53:53 GMT UTC *
G04 For: ksarkies *
G04 Format: Gerber/RS-274X *
G04 PCB-Dimensions: 350000 210000 *
G04 PCB-Coordinate-Origin: lower left *
%MOIN*%
%FSLAX25Y25*%
%LNBOTTOM*%
%ADD43C,0.0430*%
%ADD42C,0.0350*%
%ADD41C,0.1140*%
%ADD40C,0.0380*%
%ADD39C,0.0280*%
%ADD38C,0.0800*%
%ADD37C,0.1650*%
%ADD36C,0.0680*%
%ADD35C,0.0001*%
%ADD34C,0.0700*%
%ADD33C,0.0650*%
%ADD32C,0.0500*%
%ADD31C,0.0450*%
%ADD30C,0.0600*%
%ADD29C,0.0300*%
%ADD28C,0.0550*%
%ADD27C,0.0100*%
G54D27*X231000Y52000D02*X236000Y57000D01*
X208500Y85000D02*X182000Y66000D01*
Y49000D01*
X245000Y85000D02*X208500D01*
X254000Y57000D02*X236000D01*
X258000Y61000D02*X254000Y57000D01*
X231000Y48000D02*Y52000D01*
G54D28*X242500Y31000D02*X205000D01*
X196999Y23500D02*X189499Y31000D01*
G54D29*X247500Y23500D02*Y24000D01*
G54D28*X262000Y39000D01*
G54D27*X250500Y90500D02*X245000Y85000D01*
X246900Y190600D02*X241500Y185500D01*
G54D28*X247500Y23500D02*X242500Y31000D01*
G54D27*X293000Y161500D02*X308500D01*
X270000Y186000D02*X293000Y161500D01*
X320600Y166400D02*X298100D01*
X280500Y185000D02*X298100Y166400D01*
G54D29*X324500Y171500D02*X311500Y185500D01*
G54D27*X336500Y150500D02*X328000D01*
G54D29*X345000Y119000D02*Y165000D01*
X339500Y171000D01*
G54D27*X336500Y150500D02*X320600Y166400D01*
G54D29*X339500Y171000D02*X324500Y171500D01*
G54D27*X328000Y150500D02*X321953Y144400D01*
X317347Y139847D02*X321953Y144400D01*
X308500Y131000D02*X295500Y117500D01*
X308500Y131000D02*X317347Y139847D01*
X258000Y124500D02*Y61500D01*
G54D28*X263000Y125500D02*X262500Y39500D01*
G54D29*X263500Y92000D02*X262500Y93000D01*
X328000Y102000D02*Y56000D01*
X345000Y119000D02*X328000Y102000D01*
Y56000D02*X337500Y46500D01*
G54D30*X278000Y92000D02*X263500D01*
G54D27*X275400Y190600D02*X246900D01*
X280000Y186000D02*X275400Y190600D01*
G54D31*X178000Y178000D02*X243000D01*
G54D27*X220500Y140500D02*X199500D01*
Y127500D01*
X220500Y130500D02*X216000Y126500D01*
X220500Y160500D02*X216000Y165500D01*
X250500Y130500D02*X258000Y124500D01*
G54D29*X251000Y170500D02*X251500D01*
G54D32*X259000Y163000D01*
Y130000D01*
X262500Y126500D01*
G54D29*X251000Y171000D02*X250000D01*
G54D31*X243000Y178000D01*
X81500Y194500D02*X49500D01*
G54D32*X65500Y167000D02*X79500Y160500D01*
X65500Y194000D02*Y167000D01*
G54D28*X79000Y160500D02*X63000Y151500D01*
G54D27*X72000Y95500D02*Y135000D01*
X79500Y140500D01*
X68006Y142006D02*X79500Y150500D01*
G54D28*X63000Y151500D02*Y102500D01*
G54D27*X50000Y120500D02*X49500Y120000D01*
X50000Y121000D02*Y120500D01*
X68000Y98000D02*X68006Y142006D01*
G54D28*X90000Y178000D02*X81500Y171500D01*
X38500Y76000D02*X17500D01*
X63000Y102500D02*X38500Y76000D01*
G54D27*X33500Y56000D02*X72000Y95500D01*
X35500Y66000D02*X68000Y98000D01*
G54D33*X96500Y83500D02*X124000Y111000D01*
G54D27*X33500Y56000D02*X17500D01*
G54D29*X46500Y21500D02*X19000Y46500D01*
G54D27*X35500Y66000D02*X17500D01*
G54D28*X52000Y13000D02*X46500Y21500D01*
G54D33*X96000Y33000D02*X77500Y22000D01*
X78500Y21500D02*X57000Y21000D01*
G54D27*X56500Y20500D01*
G54D34*X96500Y33500D02*Y83500D01*
G54D28*X135000Y13000D02*X52000D01*
G54D30*X143500Y23500D02*X135000Y13000D01*
G54D28*X150000Y31000D02*X143500Y23500D01*
G54D27*X161000Y81000D02*X128500Y48500D01*
X161000Y113500D02*X154500Y119500D01*
X161000Y113500D02*Y81000D01*
G54D32*X205000Y31000D02*X197500Y23500D01*
G54D28*X189499Y31000D02*X150000D01*
G54D27*X79500Y120500D02*X123500D01*
X92500Y143500D02*X79500Y130500D01*
X115000Y165500D02*X92500Y143500D01*
G54D32*X91500Y160500D02*X94000Y158000D01*
G54D28*X146500Y178000D02*X154000Y170500D01*
X90000Y178000D02*X146500D01*
G54D32*X79500Y160500D02*X91500D01*
G54D29*X127000Y177000D02*Y190000D01*
G54D27*X194500Y112500D02*X200000D01*
X194500D02*X179500Y127500D01*
X212000Y123000D02*X207500Y119000D01*
X200000Y112500D01*
X216000Y126500D02*X212000Y123000D01*
G54D31*X171500Y121500D02*X180000Y112500D01*
X171500Y132000D02*Y121500D01*
G54D27*X161000Y128000D02*X153500Y120500D01*
G54D31*X171500Y132000D02*X179500Y140000D01*
G54D27*X161000Y143000D02*Y128000D01*
G54D31*X179500Y140000D02*X171000Y145000D01*
Y153000D02*Y145000D01*
G54D27*X153500Y150500D02*X161000Y143000D01*
G54D31*X180000Y158500D02*X171000Y153000D01*
G54D27*X153500Y160500D02*Y150500D01*
G54D29*X154000Y170500D02*X153500D01*
G54D27*X216000Y165500D02*X115000D01*
G54D28*X154000Y170000D02*X170500D01*
G54D29*Y170500D01*
G54D28*X177500Y177500D01*
G54D35*G36*
X217500Y173500D02*Y167500D01*
X223500D01*
Y173500D01*
X217500D01*
G37*
G54D30*X220500Y160500D03*
Y150500D03*
Y140500D03*
Y130500D03*
G54D35*G36*
X265100Y153900D02*Y147100D01*
X271900D01*
Y153900D01*
X265100D01*
G37*
G54D30*X250500Y150500D03*
Y160500D03*
Y170500D03*
G54D35*G36*
X265100Y164900D02*Y158100D01*
X271900D01*
Y164900D01*
X265100D01*
G37*
G54D30*X220500Y120500D03*
X250500D03*
Y130500D03*
Y140500D03*
X270000Y196000D03*
Y186000D03*
G54D35*G36*
X265100Y142900D02*Y136100D01*
X271900D01*
Y142900D01*
X265100D01*
G37*
G54D36*X308500Y150500D03*
Y161500D03*
Y139500D03*
G54D35*G36*
X307000Y199000D02*Y193000D01*
X313000D01*
Y199000D01*
X307000D01*
G37*
G54D30*X310000Y186000D03*
X300000Y196000D03*
Y186000D03*
X290000Y196000D03*
Y186000D03*
X280000Y196000D03*
Y186000D03*
G54D37*X335000Y195000D03*
G54D35*G36*
X238500Y188500D02*Y182500D01*
X244500D01*
Y188500D01*
X238500D01*
G37*
G54D30*X231500Y185500D03*
G54D35*G36*
X189500Y197000D02*Y191000D01*
X195500D01*
Y197000D01*
X189500D01*
G37*
G54D30*X192500Y184000D03*
G54D38*X179500Y140500D03*
X199500D03*
G54D35*G36*
X176500Y130500D02*Y124500D01*
X182500D01*
Y130500D01*
X176500D01*
G37*
G54D30*X199500Y127500D03*
G54D36*X210500Y170500D03*
G54D38*X179500Y157500D03*
X199500D03*
G54D35*G36*
X334000Y80500D02*Y73500D01*
X341000D01*
Y80500D01*
X334000D01*
G37*
G54D34*X337500Y67000D03*
Y57000D03*
Y47000D03*
G54D37*X335000Y15000D03*
G54D30*X285500Y117500D03*
G54D38*X277000Y71500D03*
Y91500D03*
G54D35*G36*
X292500Y120500D02*Y114500D01*
X298500D01*
Y120500D01*
X292500D01*
G37*
G36*
X333500Y114000D02*Y107000D01*
X340500D01*
Y114000D01*
X333500D01*
G37*
G54D34*X337000Y120500D03*
Y130500D03*
Y140500D03*
Y150500D03*
Y160500D03*
G54D30*X220500Y110500D03*
X250500D03*
G54D38*X180000Y112500D03*
X200000D03*
G54D30*X123500Y110500D03*
X153500D03*
X220500Y100500D03*
X250500D03*
X220500Y90500D03*
Y80500D03*
X250500D03*
Y90500D03*
G54D35*G36*
X178100Y51900D02*Y45100D01*
X184900D01*
Y51900D01*
X178100D01*
G37*
G36*
X125100D02*Y45100D01*
X131900D01*
Y51900D01*
X125100D01*
G37*
G54D36*X168500Y48500D03*
G54D38*X96500Y33000D03*
Y13000D03*
G54D35*G36*
X228100Y51900D02*Y45100D01*
X234900D01*
Y51900D01*
X228100D01*
G37*
G54D36*X271500Y48500D03*
X221500D03*
G54D35*G36*
X244250Y26750D02*Y20250D01*
X250750D01*
Y26750D01*
X244250D01*
G37*
G54D33*X257500Y23500D03*
G54D35*G36*
X140250Y26750D02*Y20250D01*
X146750D01*
Y26750D01*
X140250D01*
G37*
G54D33*X153500Y23500D03*
G54D35*G36*
X194250Y26750D02*Y20250D01*
X200750D01*
Y26750D01*
X194250D01*
G37*
G54D33*X207500Y23500D03*
G54D35*G36*
X46500Y173500D02*Y167500D01*
X52500D01*
Y173500D01*
X46500D01*
G37*
G54D30*X49500Y160500D03*
G54D35*G36*
X21000Y173500D02*Y167500D01*
X27000D01*
Y173500D01*
X21000D01*
G37*
G54D30*X24000Y160500D03*
G54D35*G36*
X21000Y137500D02*Y131500D01*
X27000D01*
Y137500D01*
X21000D01*
G37*
G54D30*X24000Y124500D03*
G54D35*G36*
X15000Y48500D02*Y41500D01*
X22000D01*
Y48500D01*
X15000D01*
G37*
G54D34*X18500Y55000D03*
Y65000D03*
Y75000D03*
G54D35*G36*
X46500Y187500D02*Y181500D01*
X52500D01*
Y187500D01*
X46500D01*
G37*
G54D30*X49500Y194500D03*
G54D37*X15000Y193000D03*
G54D35*G36*
X43000Y25000D02*Y18000D01*
X50000D01*
Y25000D01*
X43000D01*
G37*
G54D34*X56500Y21500D03*
G54D37*X15000Y17000D03*
G54D30*X49500Y110500D03*
Y100500D03*
X79500D03*
Y110500D03*
X49500Y150500D03*
Y140500D03*
Y130500D03*
Y120500D03*
G54D38*X94000Y158000D03*
Y178000D03*
G54D30*X79500Y120500D03*
Y130500D03*
Y140500D03*
Y150500D03*
Y160500D03*
Y170500D03*
G54D35*G36*
X78500Y197500D02*Y191500D01*
X84500D01*
Y197500D01*
X78500D01*
G37*
G54D30*X81500Y184500D03*
G54D35*G36*
X75500Y16000D02*Y10000D01*
X81500D01*
Y16000D01*
X75500D01*
G37*
G54D30*X78500Y23000D03*
G54D35*G36*
X167100Y173900D02*Y167100D01*
X173900D01*
Y173900D01*
X167100D01*
G37*
G36*
X120500Y173500D02*Y167500D01*
X126500D01*
Y173500D01*
X120500D01*
G37*
G54D38*X127000Y190000D03*
G54D30*X123500Y160500D03*
Y150500D03*
Y140500D03*
Y130500D03*
Y120500D03*
X153500D03*
Y130500D03*
Y140500D03*
Y150500D03*
Y160500D03*
Y170500D03*
G54D38*X147000Y190000D03*
G54D39*G54D40*G54D39*G54D40*G54D39*G54D40*G54D41*G54D40*G54D29*G54D42*G54D39*G54D40*G54D42*G54D40*G54D41*G54D40*G54D42*G54D40*G54D39*G54D42*G54D39*G54D40*G54D42*G54D40*G54D43*G54D39*G54D29*G54D40*G54D29*G54D41*G54D40*G54D41*G54D39*G54D42*G54D39*G54D29*G54D40*G54D39*G54D42*G54D39*G54D42*M02*
