G04 start of page 7 for group -4063 idx -4063 *
G04 Title: (unknown), componentmask *
G04 Creator: pcb 20110918 *
G04 CreationDate: Sun 26 Oct 2014 13:14:07 GMT UTC *
G04 For: ksarkies *
G04 Format: Gerber/RS-274X *
G04 PCB-Dimensions: 390000 370000 *
G04 PCB-Coordinate-Origin: lower left *
%MOIN*%
%FSLAX25Y25*%
%LNTOPMASK*%
%ADD104R,0.0746X0.0746*%
%ADD103R,0.2478X0.2478*%
%ADD102C,0.0910*%
%ADD101C,0.0780*%
%ADD100C,0.0860*%
%ADD99C,0.0750*%
%ADD98C,0.0710*%
%ADD97C,0.0700*%
%ADD96C,0.1100*%
%ADD95C,0.0740*%
%ADD94C,0.0660*%
%ADD93C,0.0001*%
G54D93*G36*
X217200Y333800D02*Y327200D01*
X223800D01*
Y333800D01*
X217200D01*
G37*
G54D94*X220500Y320500D03*
Y310500D03*
Y300500D03*
Y290500D03*
G54D93*G36*
X264800Y314200D02*Y306800D01*
X272200D01*
Y314200D01*
X264800D01*
G37*
G54D94*X250500Y310500D03*
Y320500D03*
Y330500D03*
G54D93*G36*
X264800Y325200D02*Y317800D01*
X272200D01*
Y325200D01*
X264800D01*
G37*
G54D94*X220500Y280500D03*
X250500D03*
Y290500D03*
Y300500D03*
X270000Y356000D03*
Y346000D03*
G54D93*G36*
X264800Y303200D02*Y295800D01*
X272200D01*
Y303200D01*
X264800D01*
G37*
G54D95*X308500Y310500D03*
Y321500D03*
Y299500D03*
G54D93*G36*
X306700Y359300D02*Y352700D01*
X313300D01*
Y359300D01*
X306700D01*
G37*
G54D94*X310000Y346000D03*
X300000Y356000D03*
Y346000D03*
X290000Y356000D03*
Y346000D03*
X280000Y356000D03*
Y346000D03*
G54D93*G36*
X238200Y348800D02*Y342200D01*
X244800D01*
Y348800D01*
X238200D01*
G37*
G54D94*X231500Y345500D03*
G54D93*G36*
X189200Y357300D02*Y350700D01*
X195800D01*
Y357300D01*
X189200D01*
G37*
G54D94*X192500Y344000D03*
G54D96*X179500Y300500D03*
X199500D03*
G54D93*G36*
X176200Y290800D02*Y284200D01*
X182800D01*
Y290800D01*
X176200D01*
G37*
G54D94*X199500Y287500D03*
G54D95*X210500Y330500D03*
G54D96*X179500Y317500D03*
X199500D03*
G54D94*X285500Y277500D03*
G54D96*X277000Y231500D03*
Y251500D03*
G54D93*G36*
X292200Y280800D02*Y274200D01*
X298800D01*
Y280800D01*
X292200D01*
G37*
G36*
X333500Y274000D02*Y267000D01*
X340500D01*
Y274000D01*
X333500D01*
G37*
G54D97*X337000Y280500D03*
Y290500D03*
Y300500D03*
Y310500D03*
Y320500D03*
G54D93*G36*
X334000Y240500D02*Y233500D01*
X341000D01*
Y240500D01*
X334000D01*
G37*
G54D97*X337500Y227000D03*
Y217000D03*
Y207000D03*
G54D93*G36*
X306000Y154000D02*Y147000D01*
X313000D01*
Y154000D01*
X306000D01*
G37*
G54D97*X319500Y150500D03*
G54D94*X220500Y270500D03*
X250500D03*
G54D96*X180000Y272500D03*
X200000D03*
G54D94*X123500Y270500D03*
X153500D03*
X220500Y260500D03*
X250500D03*
X220500Y250500D03*
Y240500D03*
X250500D03*
Y250500D03*
G54D93*G36*
X177800Y212200D02*Y204800D01*
X185200D01*
Y212200D01*
X177800D01*
G37*
G36*
X124800D02*Y204800D01*
X132200D01*
Y212200D01*
X124800D01*
G37*
G54D95*X168500Y208500D03*
G54D96*X96500Y193000D03*
Y173000D03*
G54D93*G36*
X227800Y212200D02*Y204800D01*
X235200D01*
Y212200D01*
X227800D01*
G37*
G54D95*X271500Y208500D03*
X221500D03*
G54D93*G36*
X243950Y187050D02*Y179950D01*
X251050D01*
Y187050D01*
X243950D01*
G37*
G54D98*X257500Y183500D03*
G54D93*G36*
X139950Y187050D02*Y179950D01*
X147050D01*
Y187050D01*
X139950D01*
G37*
G54D98*X153500Y183500D03*
G54D93*G36*
X193950Y187050D02*Y179950D01*
X201050D01*
Y187050D01*
X193950D01*
G37*
G54D98*X207500Y183500D03*
G54D94*X49500Y270500D03*
Y260500D03*
X79500D03*
Y270500D03*
X49500Y310500D03*
Y300500D03*
Y290500D03*
Y280500D03*
G54D96*X94000Y318000D03*
Y338000D03*
G54D94*X79500Y280500D03*
Y290500D03*
Y300500D03*
Y310500D03*
Y320500D03*
Y330500D03*
G54D93*G36*
X78200Y357800D02*Y351200D01*
X84800D01*
Y357800D01*
X78200D01*
G37*
G54D94*X81500Y344500D03*
G54D93*G36*
X166800Y334200D02*Y326800D01*
X174200D01*
Y334200D01*
X166800D01*
G37*
G36*
X120200Y333800D02*Y327200D01*
X126800D01*
Y333800D01*
X120200D01*
G37*
G54D96*X127000Y350000D03*
G54D94*X123500Y320500D03*
Y310500D03*
Y300500D03*
Y290500D03*
Y280500D03*
X153500D03*
Y290500D03*
Y300500D03*
Y310500D03*
Y320500D03*
Y330500D03*
G54D96*X147000Y350000D03*
G54D93*G36*
X46200Y333800D02*Y327200D01*
X52800D01*
Y333800D01*
X46200D01*
G37*
G54D94*X49500Y320500D03*
G54D93*G36*
X20700Y333800D02*Y327200D01*
X27300D01*
Y333800D01*
X20700D01*
G37*
G54D94*X24000Y320500D03*
G54D93*G36*
X20700Y297800D02*Y291200D01*
X27300D01*
Y297800D01*
X20700D01*
G37*
G54D94*X24000Y284500D03*
G54D93*G36*
X15000Y208500D02*Y201500D01*
X22000D01*
Y208500D01*
X15000D01*
G37*
G54D97*X18500Y215000D03*
Y225000D03*
Y235000D03*
G54D93*G36*
X46200Y347800D02*Y341200D01*
X52800D01*
Y347800D01*
X46200D01*
G37*
G54D94*X49500Y354500D03*
G54D93*G36*
X43000Y185000D02*Y178000D01*
X50000D01*
Y185000D01*
X43000D01*
G37*
G54D97*X56500Y181500D03*
G54D93*G36*
X46700Y153400D02*Y146400D01*
X53700D01*
Y153400D01*
X46700D01*
G37*
G54D97*X60200Y149900D03*
G54D96*X55200Y89900D03*
Y109900D03*
G54D93*G36*
X12268Y135310D02*Y128710D01*
X18868D01*
Y135310D01*
X12268D01*
G37*
G36*
X12800Y93200D02*Y86600D01*
X19400D01*
Y93200D01*
X12800D01*
G37*
G54D94*X16100Y79900D03*
X29710Y117868D03*
G54D99*X34700Y101800D03*
G54D93*G36*
X75200Y176300D02*Y169700D01*
X81800D01*
Y176300D01*
X75200D01*
G37*
G54D94*X78500Y183000D03*
G54D93*G36*
X71900Y133200D02*Y126600D01*
X78500D01*
Y133200D01*
X71900D01*
G37*
G54D94*X105200Y129900D03*
G54D93*G36*
X116500Y138600D02*Y131200D01*
X123900D01*
Y138600D01*
X116500D01*
G37*
G54D94*X75200Y119900D03*
Y109900D03*
Y99900D03*
X105200D03*
Y109900D03*
Y119900D03*
G54D95*X120200Y94900D03*
X110200Y54900D03*
Y82400D03*
G54D94*X57700Y69900D03*
G54D100*X54200Y41800D03*
G54D93*G36*
X66500Y58600D02*Y51200D01*
X73900D01*
Y58600D01*
X66500D01*
G37*
G36*
Y86100D02*Y78700D01*
X73900D01*
Y86100D01*
X66500D01*
G37*
G54D100*X35200Y29900D03*
G54D93*G36*
X44400Y73200D02*Y66600D01*
X51000D01*
Y73200D01*
X44400D01*
G37*
G54D100*X35200Y53900D03*
G54D99*X34700Y71800D03*
G54D93*G36*
X212100Y126400D02*Y118600D01*
X219900D01*
Y126400D01*
X212100D01*
G37*
G54D101*X206000Y122500D03*
G54D93*G36*
X212600Y106400D02*Y98600D01*
X220400D01*
Y106400D01*
X212600D01*
G37*
G54D99*X189000Y138000D03*
X219000D03*
G54D93*G36*
X272236Y135620D02*Y129020D01*
X278836D01*
Y135620D01*
X272236D01*
G37*
G54D94*X289678Y118178D03*
G54D99*X294500Y102000D03*
G54D93*G36*
X202200Y73800D02*Y67200D01*
X208800D01*
Y73800D01*
X202200D01*
G37*
G54D94*X205500Y60500D03*
Y50500D03*
G54D93*G36*
X195300Y88200D02*Y80800D01*
X202700D01*
Y88200D01*
X195300D01*
G37*
G54D96*X187000Y83500D03*
Y63500D03*
G54D94*X235500Y70500D03*
G54D95*X239000Y84500D03*
G54D93*G36*
X243800Y77200D02*Y69800D01*
X251200D01*
Y77200D01*
X243800D01*
G37*
G36*
X272200Y93300D02*Y86700D01*
X278800D01*
Y93300D01*
X272200D01*
G37*
G54D94*X275500Y80000D03*
G54D100*X165000Y54000D03*
G54D93*G36*
X152200Y67300D02*Y60700D01*
X158800D01*
Y67300D01*
X152200D01*
G37*
G54D94*X155500Y74000D03*
G54D93*G36*
X179000Y153500D02*Y146500D01*
X186000D01*
Y153500D01*
X179000D01*
G37*
G54D97*X192500Y150000D03*
G54D93*G36*
X150200Y145800D02*Y139200D01*
X156800D01*
Y145800D01*
X150200D01*
G37*
G54D94*X163500Y142500D03*
G54D101*X196000Y122500D03*
X206500Y102500D03*
X196500D03*
G54D96*X183000Y102000D03*
Y122000D03*
G54D93*G36*
X141700Y113300D02*Y106700D01*
X148300D01*
Y113300D01*
X141700D01*
G37*
G54D94*X165000Y110000D03*
X205500Y40500D03*
X235500Y50500D03*
Y60500D03*
G54D100*X184000Y41900D03*
G54D93*G36*
X191800Y26700D02*Y19300D01*
X199200D01*
Y26700D01*
X191800D01*
G37*
G36*
Y13700D02*Y6300D01*
X199200D01*
Y13700D01*
X191800D01*
G37*
G54D100*X165000Y30000D03*
G54D94*X235500Y40500D03*
G54D95*X247500Y33500D03*
X235500Y23000D03*
Y10000D03*
G54D93*G36*
X331700Y133800D02*Y127200D01*
X338300D01*
Y133800D01*
X331700D01*
G37*
G54D94*X365000Y130500D03*
G54D93*G36*
X376300Y139200D02*Y131800D01*
X383700D01*
Y139200D01*
X376300D01*
G37*
G54D94*X335000Y120500D03*
X365000D03*
Y100500D03*
Y110500D03*
G54D95*X380000Y95500D03*
X371500Y82000D03*
G54D94*X335000Y110500D03*
Y100500D03*
G54D96*X315000Y90500D03*
Y110500D03*
G54D93*G36*
X327800Y85700D02*Y78300D01*
X335200D01*
Y85700D01*
X327800D01*
G37*
G36*
X366800Y149200D02*Y141800D01*
X374200D01*
Y149200D01*
X366800D01*
G37*
G54D95*X330500Y145500D03*
G54D100*X295000Y54000D03*
G54D102*X314000Y41900D03*
X295000Y30000D03*
G54D93*G36*
X305200Y74300D02*Y67700D01*
X311800D01*
Y74300D01*
X305200D01*
G37*
G54D94*X318500Y71000D03*
G54D99*X294500Y72000D03*
G54D93*G36*
X332700Y44300D02*Y37700D01*
X339300D01*
Y44300D01*
X332700D01*
G37*
G54D94*X336000Y31000D03*
Y21000D03*
Y11000D03*
G54D93*G36*
X327300Y59700D02*Y52300D01*
X334700D01*
Y59700D01*
X327300D01*
G37*
G54D94*X366000Y11000D03*
Y21000D03*
Y31000D03*
Y41000D03*
G54D95*X371000Y56000D03*
G54D103*X237500Y129437D02*Y121563D01*
G54D104*X246555Y103452D02*Y95971D01*
X228445Y103452D02*Y95971D01*
M02*
