G04 start of page 8 for group -4062 idx -4062 *
G04 Title: (unknown), soldermask *
G04 Creator: pcb 20110918 *
G04 CreationDate: Wed 29 Oct 2014 08:53:53 GMT UTC *
G04 For: ksarkies *
G04 Format: Gerber/RS-274X *
G04 PCB-Dimensions: 350000 210000 *
G04 PCB-Coordinate-Origin: lower left *
%MOIN*%
%FSLAX25Y25*%
%LNBOTTOMMASK*%
%ADD75C,0.0710*%
%ADD74C,0.0700*%
%ADD73C,0.1100*%
%ADD72C,0.0740*%
%ADD71C,0.0660*%
%ADD70C,0.0001*%
G54D70*G36*
X217200Y173800D02*Y167200D01*
X223800D01*
Y173800D01*
X217200D01*
G37*
G54D71*X220500Y160500D03*
Y150500D03*
Y140500D03*
Y130500D03*
G54D70*G36*
X264800Y154200D02*Y146800D01*
X272200D01*
Y154200D01*
X264800D01*
G37*
G54D71*X250500Y150500D03*
Y160500D03*
Y170500D03*
G54D70*G36*
X264800Y165200D02*Y157800D01*
X272200D01*
Y165200D01*
X264800D01*
G37*
G54D71*X220500Y120500D03*
X250500D03*
Y130500D03*
Y140500D03*
X270000Y196000D03*
Y186000D03*
G54D70*G36*
X264800Y143200D02*Y135800D01*
X272200D01*
Y143200D01*
X264800D01*
G37*
G54D72*X308500Y150500D03*
Y161500D03*
Y139500D03*
G54D70*G36*
X306700Y199300D02*Y192700D01*
X313300D01*
Y199300D01*
X306700D01*
G37*
G54D71*X310000Y186000D03*
X300000Y196000D03*
Y186000D03*
X290000Y196000D03*
Y186000D03*
X280000Y196000D03*
Y186000D03*
G54D70*G36*
X238200Y188800D02*Y182200D01*
X244800D01*
Y188800D01*
X238200D01*
G37*
G54D71*X231500Y185500D03*
G54D70*G36*
X189200Y197300D02*Y190700D01*
X195800D01*
Y197300D01*
X189200D01*
G37*
G54D71*X192500Y184000D03*
G54D73*X179500Y140500D03*
X199500D03*
G54D70*G36*
X176200Y130800D02*Y124200D01*
X182800D01*
Y130800D01*
X176200D01*
G37*
G54D71*X199500Y127500D03*
G54D72*X210500Y170500D03*
G54D73*X179500Y157500D03*
X199500D03*
G54D70*G36*
X334000Y80500D02*Y73500D01*
X341000D01*
Y80500D01*
X334000D01*
G37*
G54D74*X337500Y67000D03*
Y57000D03*
Y47000D03*
G54D71*X285500Y117500D03*
G54D73*X277000Y71500D03*
Y91500D03*
G54D70*G36*
X292200Y120800D02*Y114200D01*
X298800D01*
Y120800D01*
X292200D01*
G37*
G36*
X333500Y114000D02*Y107000D01*
X340500D01*
Y114000D01*
X333500D01*
G37*
G54D74*X337000Y120500D03*
Y130500D03*
Y140500D03*
Y150500D03*
Y160500D03*
G54D71*X220500Y110500D03*
X250500D03*
G54D73*X180000Y112500D03*
X200000D03*
G54D71*X123500Y110500D03*
X153500D03*
X220500Y100500D03*
X250500D03*
X220500Y90500D03*
Y80500D03*
X250500D03*
Y90500D03*
G54D70*G36*
X177800Y52200D02*Y44800D01*
X185200D01*
Y52200D01*
X177800D01*
G37*
G36*
X124800D02*Y44800D01*
X132200D01*
Y52200D01*
X124800D01*
G37*
G54D72*X168500Y48500D03*
G54D73*X96500Y33000D03*
Y13000D03*
G54D70*G36*
X227800Y52200D02*Y44800D01*
X235200D01*
Y52200D01*
X227800D01*
G37*
G54D72*X271500Y48500D03*
X221500D03*
G54D70*G36*
X243950Y27050D02*Y19950D01*
X251050D01*
Y27050D01*
X243950D01*
G37*
G54D75*X257500Y23500D03*
G54D70*G36*
X139950Y27050D02*Y19950D01*
X147050D01*
Y27050D01*
X139950D01*
G37*
G54D75*X153500Y23500D03*
G54D70*G36*
X193950Y27050D02*Y19950D01*
X201050D01*
Y27050D01*
X193950D01*
G37*
G54D75*X207500Y23500D03*
G54D70*G36*
X46200Y173800D02*Y167200D01*
X52800D01*
Y173800D01*
X46200D01*
G37*
G54D71*X49500Y160500D03*
G54D70*G36*
X20700Y173800D02*Y167200D01*
X27300D01*
Y173800D01*
X20700D01*
G37*
G54D71*X24000Y160500D03*
G54D70*G36*
X20700Y137800D02*Y131200D01*
X27300D01*
Y137800D01*
X20700D01*
G37*
G54D71*X24000Y124500D03*
G54D70*G36*
X15000Y48500D02*Y41500D01*
X22000D01*
Y48500D01*
X15000D01*
G37*
G54D74*X18500Y55000D03*
Y65000D03*
Y75000D03*
G54D70*G36*
X46200Y187800D02*Y181200D01*
X52800D01*
Y187800D01*
X46200D01*
G37*
G54D71*X49500Y194500D03*
G54D70*G36*
X43000Y25000D02*Y18000D01*
X50000D01*
Y25000D01*
X43000D01*
G37*
G54D74*X56500Y21500D03*
G54D71*X49500Y110500D03*
Y100500D03*
X79500D03*
Y110500D03*
X49500Y150500D03*
Y140500D03*
Y130500D03*
Y120500D03*
G54D73*X94000Y158000D03*
Y178000D03*
G54D71*X79500Y120500D03*
Y130500D03*
Y140500D03*
Y150500D03*
Y160500D03*
Y170500D03*
G54D70*G36*
X78200Y197800D02*Y191200D01*
X84800D01*
Y197800D01*
X78200D01*
G37*
G54D71*X81500Y184500D03*
G54D70*G36*
X75200Y16300D02*Y9700D01*
X81800D01*
Y16300D01*
X75200D01*
G37*
G54D71*X78500Y23000D03*
G54D70*G36*
X166800Y174200D02*Y166800D01*
X174200D01*
Y174200D01*
X166800D01*
G37*
G36*
X120200Y173800D02*Y167200D01*
X126800D01*
Y173800D01*
X120200D01*
G37*
G54D73*X127000Y190000D03*
G54D71*X123500Y160500D03*
Y150500D03*
Y140500D03*
Y130500D03*
Y120500D03*
X153500D03*
Y130500D03*
Y140500D03*
Y150500D03*
Y160500D03*
Y170500D03*
G54D73*X147000Y190000D03*
M02*
