G04 start of page 8 for group -4062 idx -4062 *
G04 Title: (unknown), soldermask *
G04 Creator: pcb 20110918 *
G04 CreationDate: Fri 24 Oct 2014 08:24:34 GMT UTC *
G04 For: ksarkies *
G04 Format: Gerber/RS-274X *
G04 PCB-Dimensions: 390000 370000 *
G04 PCB-Coordinate-Origin: lower left *
%MOIN*%
%FSLAX25Y25*%
%LNBOTTOMMASK*%
%ADD103C,0.0910*%
%ADD102C,0.0860*%
%ADD101C,0.0710*%
%ADD100C,0.0560*%
%ADD99C,0.0700*%
%ADD98C,0.0740*%
%ADD97C,0.1100*%
%ADD96C,0.0660*%
%ADD95C,0.0001*%
G54D95*G36*
X217200Y333800D02*Y327200D01*
X223800D01*
Y333800D01*
X217200D01*
G37*
G54D96*X220500Y320500D03*
Y310500D03*
Y300500D03*
Y290500D03*
G54D95*G36*
X264800Y314200D02*Y306800D01*
X272200D01*
Y314200D01*
X264800D01*
G37*
G54D96*X250500Y310500D03*
Y320500D03*
Y330500D03*
G54D95*G36*
X264800Y325200D02*Y317800D01*
X272200D01*
Y325200D01*
X264800D01*
G37*
G36*
Y303200D02*Y295800D01*
X272200D01*
Y303200D01*
X264800D01*
G37*
G54D96*X220500Y280500D03*
X250500D03*
Y290500D03*
Y300500D03*
X231500Y345500D03*
G54D95*G36*
X189200Y357300D02*Y350700D01*
X195800D01*
Y357300D01*
X189200D01*
G37*
G54D96*X192500Y344000D03*
X199500Y287500D03*
G54D97*Y317500D03*
G54D98*X210500Y330500D03*
X308500Y310500D03*
Y321500D03*
G54D95*G36*
X292200Y280800D02*Y274200D01*
X298800D01*
Y280800D01*
X292200D01*
G37*
G54D96*X285500Y277500D03*
G54D98*X308500Y299500D03*
G54D95*G36*
X311700Y358300D02*Y351700D01*
X318300D01*
Y358300D01*
X311700D01*
G37*
G54D96*X315000Y345000D03*
X305000Y355000D03*
Y345000D03*
X295000Y355000D03*
Y345000D03*
X285000Y355000D03*
Y345000D03*
X275000Y355000D03*
Y345000D03*
G54D97*X277000Y231500D03*
Y251500D03*
G54D95*G36*
X334000Y240500D02*Y233500D01*
X341000D01*
Y240500D01*
X334000D01*
G37*
G54D99*X337500Y227000D03*
Y217000D03*
Y207000D03*
G54D95*G36*
X333500Y274000D02*Y267000D01*
X340500D01*
Y274000D01*
X333500D01*
G37*
G54D99*X337000Y280500D03*
Y290500D03*
Y300500D03*
Y310500D03*
Y320500D03*
G54D95*G36*
X306500Y154000D02*Y147000D01*
X313500D01*
Y154000D01*
X306500D01*
G37*
G54D99*X320000Y150500D03*
G54D98*X331000Y145500D03*
G54D95*G36*
X332200Y133800D02*Y127200D01*
X338800D01*
Y133800D01*
X332200D01*
G37*
G36*
X376800Y139200D02*Y131800D01*
X384200D01*
Y139200D01*
X376800D01*
G37*
G36*
X272736Y135620D02*Y129020D01*
X279336D01*
Y135620D01*
X272736D01*
G37*
G54D96*X335500Y120500D03*
Y110500D03*
G54D97*X315500D03*
G54D100*X295000Y102000D03*
G54D96*X290178Y118178D03*
X335500Y100500D03*
G54D98*X380500Y95500D03*
G54D96*X365500Y100500D03*
Y110500D03*
Y120500D03*
Y130500D03*
G54D95*G36*
X367300Y149200D02*Y141800D01*
X374700D01*
Y149200D01*
X367300D01*
G37*
G54D96*X220500Y270500D03*
X250500D03*
G54D97*X180000Y272500D03*
X200000D03*
G54D96*X123500Y270500D03*
X153500D03*
X220500Y260500D03*
X250500D03*
X220500Y250500D03*
Y240500D03*
X250500D03*
Y250500D03*
G54D95*G36*
X177800Y212200D02*Y204800D01*
X185200D01*
Y212200D01*
X177800D01*
G37*
G36*
X124800D02*Y204800D01*
X132200D01*
Y212200D01*
X124800D01*
G37*
G54D98*X168500Y208500D03*
G54D95*G36*
X227800Y212200D02*Y204800D01*
X235200D01*
Y212200D01*
X227800D01*
G37*
G54D98*X271500Y208500D03*
X221500D03*
G54D95*G36*
X243950Y187050D02*Y179950D01*
X251050D01*
Y187050D01*
X243950D01*
G37*
G54D101*X257500Y183500D03*
G54D95*G36*
X139950Y187050D02*Y179950D01*
X147050D01*
Y187050D01*
X139950D01*
G37*
G54D101*X153500Y183500D03*
G54D95*G36*
X193950Y187050D02*Y179950D01*
X201050D01*
Y187050D01*
X193950D01*
G37*
G54D101*X207500Y183500D03*
G54D95*G36*
X238200Y348800D02*Y342200D01*
X244800D01*
Y348800D01*
X238200D01*
G37*
G54D97*X179500Y300500D03*
X199500D03*
G54D96*X153500D03*
Y310500D03*
G54D95*G36*
X176200Y290800D02*Y284200D01*
X182800D01*
Y290800D01*
X176200D01*
G37*
G54D96*X153500Y280500D03*
Y290500D03*
G54D95*G36*
X166800Y334200D02*Y326800D01*
X174200D01*
Y334200D01*
X166800D01*
G37*
G54D96*X153500Y320500D03*
Y330500D03*
G54D97*X179500Y317500D03*
G54D95*G36*
X120200Y333800D02*Y327200D01*
X126800D01*
Y333800D01*
X120200D01*
G37*
G54D97*X147000Y350000D03*
X127000D03*
G54D96*X123500Y320500D03*
Y310500D03*
Y300500D03*
Y290500D03*
Y280500D03*
X79500Y270500D03*
Y280500D03*
Y290500D03*
Y300500D03*
G54D95*G36*
X78200Y357800D02*Y351200D01*
X84800D01*
Y357800D01*
X78200D01*
G37*
G54D96*X81500Y344500D03*
G54D95*G36*
X46200Y333800D02*Y327200D01*
X52800D01*
Y333800D01*
X46200D01*
G37*
G54D96*X49500Y320500D03*
Y310500D03*
X79500D03*
Y320500D03*
Y330500D03*
G54D95*G36*
X46200Y347800D02*Y341200D01*
X52800D01*
Y347800D01*
X46200D01*
G37*
G54D96*X49500Y354500D03*
Y300500D03*
Y290500D03*
Y280500D03*
Y270500D03*
Y260500D03*
G54D95*G36*
X20700Y333800D02*Y327200D01*
X27300D01*
Y333800D01*
X20700D01*
G37*
G54D96*X24000Y320500D03*
G54D95*G36*
X20700Y297800D02*Y291200D01*
X27300D01*
Y297800D01*
X20700D01*
G37*
G54D96*X24000Y284500D03*
G54D97*X94000Y318000D03*
Y338000D03*
G54D96*X79500Y260500D03*
G54D95*G36*
X67700Y176800D02*Y170200D01*
X74300D01*
Y176800D01*
X67700D01*
G37*
G54D96*X71000Y183500D03*
G54D97*X90500Y193000D03*
Y173000D03*
G54D99*X18500Y215000D03*
Y225000D03*
Y235000D03*
G54D95*G36*
X30500Y185500D02*Y178500D01*
X37500D01*
Y185500D01*
X30500D01*
G37*
G54D99*X44000Y182000D03*
G54D95*G36*
X15000Y208500D02*Y201500D01*
X22000D01*
Y208500D01*
X15000D01*
G37*
G36*
X12068Y136010D02*Y129410D01*
X18668D01*
Y136010D01*
X12068D01*
G37*
G54D100*X35000Y103100D03*
G54D96*X29510Y118568D03*
G54D95*G36*
X46500Y154100D02*Y147100D01*
X53500D01*
Y154100D01*
X46500D01*
G37*
G54D99*X60000Y150600D03*
G54D97*X55000Y110600D03*
G54D95*G36*
X71700Y133900D02*Y127300D01*
X78300D01*
Y133900D01*
X71700D01*
G37*
G54D96*X75000Y120600D03*
Y110600D03*
G54D95*G36*
X44200Y73900D02*Y67300D01*
X50800D01*
Y73900D01*
X44200D01*
G37*
G54D97*X55000Y90600D03*
G54D96*X57500Y70600D03*
G54D102*X35000Y54600D03*
X54000Y42500D03*
X35000Y30600D03*
G54D95*G36*
X32200Y75900D02*Y70300D01*
X37800D01*
Y75900D01*
X32200D01*
G37*
G36*
X12600Y93900D02*Y87300D01*
X19200D01*
Y93900D01*
X12600D01*
G37*
G54D96*X15900Y80600D03*
G54D95*G36*
X66300Y59300D02*Y51900D01*
X73700D01*
Y59300D01*
X66300D01*
G37*
G36*
Y86800D02*Y79400D01*
X73700D01*
Y86800D01*
X66300D01*
G37*
G54D96*X75000Y100600D03*
X105000D03*
G54D98*X120000Y95600D03*
G54D96*X105000Y110600D03*
Y120600D03*
Y130600D03*
G54D95*G36*
X116300Y139300D02*Y131900D01*
X123700D01*
Y139300D01*
X116300D01*
G37*
G36*
X142568Y136010D02*Y129410D01*
X149168D01*
Y136010D01*
X142568D01*
G37*
G54D98*X110000Y55600D03*
Y83100D03*
G54D95*G36*
X174700Y73900D02*Y67300D01*
X181300D01*
Y73900D01*
X174700D01*
G37*
G54D96*X188000Y70600D03*
G54D102*X165500Y54600D03*
X184500Y42500D03*
X165500Y30600D03*
G54D95*G36*
X162700Y75900D02*Y70300D01*
X168300D01*
Y75900D01*
X162700D01*
G37*
G54D96*X146400Y80600D03*
G54D95*G36*
X177000Y154100D02*Y147100D01*
X184000D01*
Y154100D01*
X177000D01*
G37*
G54D99*X190500Y150600D03*
G54D95*G36*
X202200Y133900D02*Y127300D01*
X208800D01*
Y133900D01*
X202200D01*
G37*
G54D96*X205500Y120600D03*
Y110600D03*
Y100600D03*
G54D97*X185500Y90600D03*
G54D95*G36*
X143100Y93900D02*Y87300D01*
X149700D01*
Y93900D01*
X143100D01*
G37*
G54D97*X185500Y110600D03*
G54D100*X165500Y103100D03*
G54D96*X160010Y118568D03*
X235500Y100600D03*
Y110600D03*
Y120600D03*
Y130600D03*
G54D95*G36*
X246800Y139300D02*Y131900D01*
X254200D01*
Y139300D01*
X246800D01*
G37*
G54D98*X250500Y95600D03*
G54D95*G36*
X196800Y59300D02*Y51900D01*
X204200D01*
Y59300D01*
X196800D01*
G37*
G36*
Y86800D02*Y79400D01*
X204200D01*
Y86800D01*
X196800D01*
G37*
G54D98*X240500Y55600D03*
Y83100D03*
G54D95*G36*
X272700Y93300D02*Y86700D01*
X279300D01*
Y93300D01*
X272700D01*
G37*
G54D96*X276000Y80000D03*
G54D102*X295500Y54000D03*
G54D103*X314500Y41900D03*
X295500Y30000D03*
G54D95*G36*
X333200Y44300D02*Y37700D01*
X339800D01*
Y44300D01*
X333200D01*
G37*
G54D96*X336500Y31000D03*
Y21000D03*
Y11000D03*
X366500D03*
Y21000D03*
Y31000D03*
Y41000D03*
G54D98*X371500Y56000D03*
G54D95*G36*
X328300Y85700D02*Y78300D01*
X335700D01*
Y85700D01*
X328300D01*
G37*
G36*
X327800Y59700D02*Y52300D01*
X335200D01*
Y59700D01*
X327800D01*
G37*
G54D98*X372000Y82000D03*
G54D97*X315500Y90500D03*
G54D95*G36*
X292200Y74800D02*Y69200D01*
X297800D01*
Y74800D01*
X292200D01*
G37*
G36*
X305700Y74300D02*Y67700D01*
X312300D01*
Y74300D01*
X305700D01*
G37*
G54D96*X319000Y71000D03*
M02*
