M48
INCH
T63C0.043
T62C0.035
T61C0.030
T60C0.114
T59C0.038
T58C0.028
%
T58
X022050Y017050
X022050Y016050
X022050Y015050
X022050Y014050
X022050Y013050
X025050Y015050
X025050Y016050
X025050Y017050
X022050Y012050
X025050Y012050
X025050Y013050
X025050Y014050
X017950Y012750
X019950Y012750
X022050Y011050
X025050Y011050
X012350Y011050
X015350Y011050
X022050Y010050
X025050Y010050
X022050Y009050
X022050Y008050
X025050Y008050
X025050Y009050
X004950Y017050
X004950Y016050
X004950Y011050
X004950Y010050
X007950Y010050
X007950Y011050
X004950Y015050
X004950Y014050
X004950Y013050
X004950Y012050
X007950Y012050
X007950Y013050
X007950Y014050
X007950Y015050
X007950Y016050
X007950Y017050
X012350Y017050
X012350Y016050
X012350Y015050
X012350Y014050
X012350Y013050
X012350Y012050
X015350Y012050
X015350Y013050
X015350Y014050
X015350Y015050
X015350Y016050
X015350Y017050
T61
X019250Y019400
X019250Y018400
X002400Y017050
X002400Y016050
X002400Y013450
X002400Y012450
X004950Y018450
X004950Y019450
X008150Y019450
X008150Y018450
X007850Y001300
X007850Y002300
T62
X017950Y014050
X019950Y014050
X017950Y015750
X019950Y015750
X027700Y007150
X027700Y009150
X018000Y011250
X020000Y011250
X009650Y003300
X009650Y001300
X009400Y015800
X009400Y017800
X012700Y019000
X014700Y019000
T59
X026850Y015050
X026850Y016150
X027000Y019600
X027000Y018600
X026850Y013950
X030850Y015050
X030850Y016150
X030850Y013950
X031000Y019600
X031000Y018600
X030000Y019600
X030000Y018600
X029000Y019600
X029000Y018600
X028000Y019600
X028000Y018600
X024150Y018550
X023150Y018550
X021050Y017050
X033750Y007700
X033750Y006700
X033750Y005700
X033750Y004700
X028550Y011750
X029550Y011750
X033700Y011050
X033700Y012050
X033700Y013050
X033700Y014050
X033700Y015050
X033700Y016050
X018150Y004850
X012850Y004850
X016850Y004850
X023150Y004850
X027150Y004850
X022150Y004850
X001850Y004500
X001850Y005500
X001850Y006500
X001850Y007500
X004650Y002150
X005650Y002150
X017050Y017050
T63
X024750Y002350
X025750Y002350
X014350Y002350
X015350Y002350
X019750Y002350
X020750Y002350
T60
X033500Y019500
X033500Y001500
X001500Y019300
X001500Y001700
M30
