G04 start of page 2 for group 0 idx 0 *
G04 Title: (unknown), top *
G04 Creator: pcb 20110918 *
G04 CreationDate: Thu 23 Oct 2014 13:36:36 GMT UTC *
G04 For: ksarkies *
G04 Format: Gerber/RS-274X *
G04 PCB-Dimensions: 350000 210000 *
G04 PCB-Coordinate-Origin: lower left *
%MOIN*%
%FSLAX25Y25*%
%LNTOP*%
%ADD81C,0.0430*%
%ADD80C,0.0280*%
%ADD79C,0.0380*%
%ADD78C,0.0700*%
%ADD77C,0.0650*%
%ADD76C,0.0680*%
%ADD75C,0.0600*%
%ADD74C,0.0800*%
%ADD73C,0.0001*%
%ADD72C,0.0350*%
%ADD71C,0.0100*%
%ADD70C,0.0300*%
G54D70*X337000Y110500D02*X336500D01*
G54D71*X220500Y150500D02*X221000D01*
X210500Y170500D02*Y169000D01*
X179500Y159000D02*X180000Y158500D01*
X98500Y194500D02*X99000Y194000D01*
X190500D02*X192500D01*
X190500Y191500D02*Y194000D01*
X192500Y192000D02*X190500Y191500D01*
X193000Y194000D02*X190500D01*
X193000D02*X192000Y193000D01*
X192500Y192000D01*
X180000Y112500D02*X178500D01*
X217499Y80500D02*X220500D01*
X24000Y124500D02*Y124000D01*
Y124500D02*X26000D01*
X47500Y130500D02*X49500D01*
X222000Y80500D02*X217499D01*
X196999Y23500D02*X197500D01*
X271500Y35500D02*Y48500D01*
X257500Y23500D02*X271500Y35500D01*
G54D70*X40000Y50000D02*X18500Y76500D01*
X40000Y21500D02*Y50000D01*
G54D71*X56000Y127000D02*X50000Y121000D01*
X79500Y130500D02*X88500Y126000D01*
Y116000D01*
X79500Y110500D01*
X143500Y130500D02*X149000Y110500D01*
G54D70*X169500Y100500D02*X178500Y112500D01*
X180000D02*X212500Y80500D01*
G54D71*X212000Y66500D02*X185500Y92500D01*
X214000Y61000D02*X184000Y90500D01*
X123500Y130500D02*X143500D01*
X149000Y140500D02*X153500D01*
X79500Y100500D02*X112500Y127500D01*
G54D70*X169500Y100000D02*X133000D01*
G54D71*X185500Y92500D02*X68070Y92526D01*
X68000Y92500D02*X49500Y110500D01*
X58500Y90500D02*X49500Y99500D01*
X184000Y90500D02*X58500D01*
X65500Y173500D02*Y161000D01*
X56000Y155500D01*
X78500Y184000D02*X65500Y173500D01*
X98500Y184500D02*X78500Y184000D01*
X62500Y168000D02*X49500Y160500D01*
X62500Y184500D02*Y168000D01*
X123500Y150500D02*Y140500D01*
X144500Y160500D02*X149000Y140500D01*
X173500Y150500D02*X153500Y130500D01*
X123500Y160500D02*X144500D01*
X231500Y181500D02*X220500Y170500D01*
X210500Y169000D02*X200000Y158500D01*
X112500Y159500D02*X123500Y170500D01*
X112500Y127500D02*Y159500D01*
X24000Y124500D02*X26000D01*
X24000Y160500D02*X28000Y158500D01*
X24000Y134500D02*X26500D01*
X36000Y130500D02*X49500D01*
X36000D02*X26000Y124500D01*
X56000Y155500D02*Y127000D01*
X45000Y156500D02*X49500Y150500D01*
X45000Y137000D02*X49500Y140500D01*
X32000Y137000D02*X45000D01*
X32000D02*X26500Y134500D01*
X31500Y156500D02*X45000D01*
X28000Y158500D02*X31500Y156500D01*
X24000Y170500D02*X49500D01*
G54D70*X325500Y192000D02*Y171500D01*
G54D71*X292000Y191500D02*Y167000D01*
X282500Y191000D02*Y165500D01*
G54D70*X323500Y195500D02*X325500Y192000D01*
X312000Y203000D02*X317500Y195500D01*
X269500Y203000D02*X312000D01*
X317500Y195500D02*X323500D01*
G54D71*X287500D02*X292000Y191500D01*
X277500Y195500D02*X282500Y191000D01*
X254500Y140500D02*X258000Y139500D01*
X250500Y140500D02*X254500D01*
G54D70*X250500Y184500D02*X269500Y203000D01*
X250500Y170500D02*Y184500D01*
X179500Y183500D02*Y159000D01*
Y183500D02*X190500Y191500D01*
G54D71*X192500Y184000D02*X191500D01*
X220500Y170500D02*X210500D01*
X225000Y184000D02*X191500D01*
X225000D02*X229000Y185500D01*
X231500D01*
Y181500D01*
G54D70*X336500Y160500D02*X325500Y171500D01*
G54D71*X327500Y120500D02*X337000D01*
X308500Y139500D02*X327500Y120500D01*
X308500Y161500D02*X315500D01*
X336500Y140500D01*
X258000Y139500D02*X268500D01*
G54D70*X344500Y154500D02*Y82000D01*
X303000Y71000D02*X328000Y110500D01*
X336500D01*
Y160500D02*X344500Y154500D01*
G54D72*X338500Y76500D02*X344500Y82500D01*
G54D70*X230500Y71000D02*X303500D01*
X222000Y80500D02*X229500Y71500D01*
X131500Y100000D02*X123500Y110500D01*
X212500Y80500D02*X217499D01*
G54D71*X149000Y110500D02*X153500D01*
X337500Y56500D02*X329000Y61000D01*
X212000Y66500D02*X337500D01*
X329000Y61000D02*X214000D01*
X221500Y33500D02*Y48500D01*
X207500Y23500D02*X221500Y33500D01*
X247500Y26500D02*Y23500D01*
X168500Y34000D02*Y48500D01*
X153500Y23500D02*X168500Y34000D01*
X272500Y130500D02*X250500D01*
X285500Y117500D02*X272500Y130500D01*
X245000Y125000D02*X250500Y120500D01*
X213000Y125000D02*X245000D01*
X213000D02*X208500Y120500D01*
X153500D02*X208500D01*
X221000Y150500D02*X173500D01*
X328500Y130500D02*X337000D01*
X328500D02*X292000Y167000D01*
X282500Y165500D02*X308500Y139500D01*
X258500Y161500D02*X268500D01*
X258500D02*X254500Y160500D01*
X250500D02*X254500D01*
X250500Y150500D02*X268500D01*
G54D73*G36*
X238500Y188500D02*Y182500D01*
X244500D01*
Y188500D01*
X238500D01*
G37*
G54D74*X179500Y140500D03*
X199500D03*
G54D73*G36*
X176500Y130500D02*Y124500D01*
X182500D01*
Y130500D01*
X176500D01*
G37*
G36*
X167100Y173900D02*Y167100D01*
X173900D01*
Y173900D01*
X167100D01*
G37*
G54D75*X153500Y130500D03*
Y140500D03*
Y150500D03*
Y160500D03*
Y170500D03*
G54D74*X179500Y157500D03*
X199500D03*
G54D75*X49500Y140500D03*
Y130500D03*
Y120500D03*
Y110500D03*
Y100500D03*
X79500D03*
Y110500D03*
G54D73*G36*
X21000Y173500D02*Y167500D01*
X27000D01*
Y173500D01*
X21000D01*
G37*
G54D75*X24000Y160500D03*
G54D73*G36*
X21000Y137500D02*Y131500D01*
X27000D01*
Y137500D01*
X21000D01*
G37*
G54D75*X24000Y124500D03*
X79500Y120500D03*
Y130500D03*
Y140500D03*
G54D73*G36*
X46500Y173500D02*Y167500D01*
X52500D01*
Y173500D01*
X46500D01*
G37*
G54D75*X49500Y160500D03*
Y150500D03*
X79500D03*
Y160500D03*
Y170500D03*
G54D73*G36*
X95500Y197500D02*Y191500D01*
X101500D01*
Y197500D01*
X95500D01*
G37*
G54D75*X98500Y184500D03*
G54D73*G36*
X59500Y187500D02*Y181500D01*
X65500D01*
Y187500D01*
X59500D01*
G37*
G54D75*X62500Y194500D03*
G54D73*G36*
X120500Y173500D02*Y167500D01*
X126500D01*
Y173500D01*
X120500D01*
G37*
G54D75*X123500Y160500D03*
Y150500D03*
Y140500D03*
Y130500D03*
Y120500D03*
G54D73*G36*
X178100Y51900D02*Y45100D01*
X184900D01*
Y51900D01*
X178100D01*
G37*
G36*
X125100D02*Y45100D01*
X131900D01*
Y51900D01*
X125100D01*
G37*
G54D76*X168500Y48500D03*
G54D73*G36*
X244250Y26750D02*Y20250D01*
X250750D01*
Y26750D01*
X244250D01*
G37*
G54D77*X257500Y23500D03*
G54D73*G36*
X140250Y26750D02*Y20250D01*
X146750D01*
Y26750D01*
X140250D01*
G37*
G54D77*X153500Y23500D03*
G54D73*G36*
X194250Y26750D02*Y20250D01*
X200750D01*
Y26750D01*
X194250D01*
G37*
G54D77*X207500Y23500D03*
G54D74*X180000Y112500D03*
G54D75*X123500Y110500D03*
X153500D03*
Y120500D03*
G54D73*G36*
X26500Y25500D02*Y18500D01*
X33500D01*
Y25500D01*
X26500D01*
G37*
G54D78*X40000Y22000D03*
G54D73*G36*
X62000Y16000D02*Y10000D01*
X68000D01*
Y16000D01*
X62000D01*
G37*
G54D75*X65000Y23000D03*
G54D73*G36*
X15000Y48500D02*Y41500D01*
X22000D01*
Y48500D01*
X15000D01*
G37*
G54D78*X18500Y55000D03*
Y65000D03*
Y75000D03*
G54D74*X86000Y33000D03*
Y13000D03*
G54D75*X220500Y110500D03*
X250500D03*
G54D74*X200000Y112500D03*
G54D75*X220500Y100500D03*
X250500D03*
X220500Y90500D03*
Y80500D03*
X250500D03*
Y90500D03*
G54D73*G36*
X228100Y51900D02*Y45100D01*
X234900D01*
Y51900D01*
X228100D01*
G37*
G54D76*X271500Y48500D03*
X221500D03*
G54D73*G36*
X217500Y173500D02*Y167500D01*
X223500D01*
Y173500D01*
X217500D01*
G37*
G54D75*X220500Y160500D03*
Y150500D03*
Y140500D03*
Y130500D03*
G54D73*G36*
X265100Y153900D02*Y147100D01*
X271900D01*
Y153900D01*
X265100D01*
G37*
G54D75*X250500Y150500D03*
Y160500D03*
Y170500D03*
G54D73*G36*
X265100Y164900D02*Y158100D01*
X271900D01*
Y164900D01*
X265100D01*
G37*
G36*
Y142900D02*Y136100D01*
X271900D01*
Y142900D01*
X265100D01*
G37*
G54D75*X220500Y120500D03*
X250500D03*
Y130500D03*
Y140500D03*
X231500Y185500D03*
G54D73*G36*
X189500Y197000D02*Y191000D01*
X195500D01*
Y197000D01*
X189500D01*
G37*
G54D75*X192500Y184000D03*
X199500Y127500D03*
G54D76*X210500Y170500D03*
X308500Y150500D03*
Y161500D03*
G54D73*G36*
X292500Y120500D02*Y114500D01*
X298500D01*
Y120500D01*
X292500D01*
G37*
G54D75*X285500Y117500D03*
G54D76*X308500Y139500D03*
G54D73*G36*
X314500Y198500D02*Y192500D01*
X320500D01*
Y198500D01*
X314500D01*
G37*
G54D75*X317500Y185500D03*
X307500Y195500D03*
Y185500D03*
X297500Y195500D03*
Y185500D03*
X287500Y195500D03*
Y185500D03*
X277500Y195500D03*
Y185500D03*
G54D73*G36*
X334000Y80500D02*Y73500D01*
X341000D01*
Y80500D01*
X334000D01*
G37*
G54D78*X337500Y67000D03*
Y57000D03*
Y47000D03*
G54D73*G36*
X333500Y114000D02*Y107000D01*
X340500D01*
Y114000D01*
X333500D01*
G37*
G54D78*X337000Y120500D03*
Y130500D03*
Y140500D03*
Y150500D03*
Y160500D03*
G54D79*G54D72*G54D80*G54D79*G54D80*G54D72*G54D80*G54D70*G54D80*G54D70*G54D80*G54D79*G54D81*G54D72*G54D80*G54D79*G54D70*G54D79*G54D72*G54D80*G54D72*G54D80*G54D79*G54D80*G54D79*G54D80*G54D79*G54D80*G54D79*G54D70*G54D80*G54D79*M02*
