G04 start of page 3 for group 1 idx 1 *
G04 Title: (unknown), ground *
G04 Creator: pcb 20110918 *
G04 CreationDate: Fri 24 Oct 2014 23:07:07 GMT UTC *
G04 For: ksarkies *
G04 Format: Gerber/RS-274X *
G04 PCB-Dimensions: 390000 370000 *
G04 PCB-Coordinate-Origin: lower left *
%MOIN*%
%FSLAX25Y25*%
%LNBOTTOM*%
%ADD41C,0.0950*%
%ADD40C,0.0900*%
%ADD39C,0.1650*%
%ADD38C,0.0680*%
%ADD37C,0.0800*%
%ADD36C,0.0700*%
%ADD35C,0.0650*%
%ADD34C,0.0500*%
%ADD33C,0.0450*%
%ADD32C,0.0600*%
%ADD31C,0.0300*%
%ADD30C,0.0550*%
%ADD29C,0.0100*%
%ADD28C,0.0001*%
G54D28*G36*
X119992Y160600D02*X130000D01*
Y600D01*
X119992D01*
Y4081D01*
X120000Y4080D01*
X121020Y4160D01*
X122015Y4399D01*
X122960Y4791D01*
X123832Y5325D01*
X124610Y5990D01*
X125275Y6768D01*
X125809Y7640D01*
X126201Y8585D01*
X126440Y9580D01*
X126500Y10600D01*
X126440Y11620D01*
X126201Y12615D01*
X125809Y13560D01*
X125275Y14432D01*
X124610Y15210D01*
X123832Y15875D01*
X122960Y16409D01*
X122015Y16801D01*
X121020Y17040D01*
X120000Y17120D01*
X119992Y17119D01*
Y90685D01*
X120000Y90685D01*
X120769Y90745D01*
X121519Y90925D01*
X122231Y91221D01*
X122889Y91624D01*
X123476Y92124D01*
X123976Y92711D01*
X124379Y93369D01*
X124675Y94081D01*
X124855Y94831D01*
X124900Y95600D01*
X124855Y96369D01*
X124675Y97119D01*
X124379Y97831D01*
X123976Y98489D01*
X123476Y99076D01*
X122889Y99576D01*
X122231Y99979D01*
X121519Y100275D01*
X120769Y100455D01*
X120000Y100515D01*
X119992Y100515D01*
Y130707D01*
X123635Y130714D01*
X123865Y130769D01*
X124083Y130859D01*
X124284Y130983D01*
X124464Y131136D01*
X124617Y131316D01*
X124741Y131517D01*
X124831Y131735D01*
X124886Y131965D01*
X124900Y132200D01*
X124886Y139235D01*
X124831Y139465D01*
X124741Y139683D01*
X124617Y139884D01*
X124464Y140064D01*
X124284Y140217D01*
X124083Y140341D01*
X123865Y140431D01*
X123635Y140486D01*
X123400Y140500D01*
X119992Y140493D01*
Y144081D01*
X120000Y144080D01*
X121020Y144160D01*
X122015Y144399D01*
X122960Y144791D01*
X123832Y145325D01*
X124610Y145990D01*
X125275Y146768D01*
X125809Y147640D01*
X126201Y148585D01*
X126440Y149580D01*
X126500Y150600D01*
X126440Y151620D01*
X126201Y152615D01*
X125809Y153560D01*
X125275Y154432D01*
X124610Y155210D01*
X123832Y155875D01*
X122960Y156409D01*
X122015Y156801D01*
X121020Y157040D01*
X120000Y157120D01*
X119992Y157119D01*
Y160600D01*
G37*
G36*
X109992D02*X119992D01*
Y157119D01*
X118980Y157040D01*
X117985Y156801D01*
X117040Y156409D01*
X116168Y155875D01*
X115390Y155210D01*
X114725Y154432D01*
X114191Y153560D01*
X113799Y152615D01*
X113560Y151620D01*
X113480Y150600D01*
X113560Y149580D01*
X113799Y148585D01*
X114191Y147640D01*
X114725Y146768D01*
X115390Y145990D01*
X116168Y145325D01*
X117040Y144791D01*
X117985Y144399D01*
X118980Y144160D01*
X119992Y144081D01*
Y140493D01*
X116365Y140486D01*
X116135Y140431D01*
X115917Y140341D01*
X115716Y140217D01*
X115536Y140064D01*
X115383Y139884D01*
X115259Y139683D01*
X115169Y139465D01*
X115114Y139235D01*
X115100Y139000D01*
X115114Y131965D01*
X115169Y131735D01*
X115259Y131517D01*
X115383Y131316D01*
X115536Y131136D01*
X115716Y130983D01*
X115917Y130859D01*
X116135Y130769D01*
X116365Y130714D01*
X116600Y130700D01*
X119992Y130707D01*
Y100515D01*
X119231Y100455D01*
X118481Y100275D01*
X117769Y99979D01*
X117111Y99576D01*
X116524Y99076D01*
X116024Y98489D01*
X115621Y97831D01*
X115325Y97119D01*
X115145Y96369D01*
X115085Y95600D01*
X115145Y94831D01*
X115325Y94081D01*
X115621Y93369D01*
X116024Y92711D01*
X116524Y92124D01*
X117111Y91624D01*
X117769Y91221D01*
X118481Y90925D01*
X119231Y90745D01*
X119992Y90685D01*
Y17119D01*
X118980Y17040D01*
X117985Y16801D01*
X117040Y16409D01*
X116168Y15875D01*
X115390Y15210D01*
X114725Y14432D01*
X114191Y13560D01*
X113799Y12615D01*
X113560Y11620D01*
X113480Y10600D01*
X113560Y9580D01*
X113799Y8585D01*
X114191Y7640D01*
X114725Y6768D01*
X115390Y5990D01*
X116168Y5325D01*
X117040Y4791D01*
X117985Y4399D01*
X118980Y4160D01*
X119992Y4081D01*
Y600D01*
X109992D01*
Y50685D01*
X110000Y50685D01*
X110769Y50745D01*
X111519Y50925D01*
X112231Y51221D01*
X112889Y51624D01*
X113476Y52124D01*
X113976Y52711D01*
X114379Y53369D01*
X114675Y54081D01*
X114855Y54831D01*
X114900Y55600D01*
X114855Y56369D01*
X114675Y57119D01*
X114379Y57831D01*
X113976Y58489D01*
X113476Y59076D01*
X112889Y59576D01*
X112231Y59979D01*
X111519Y60275D01*
X110769Y60455D01*
X110000Y60515D01*
X109992Y60515D01*
Y78185D01*
X110000Y78185D01*
X110769Y78245D01*
X111519Y78425D01*
X112231Y78721D01*
X112889Y79124D01*
X113476Y79624D01*
X113976Y80211D01*
X114379Y80869D01*
X114675Y81581D01*
X114855Y82331D01*
X114900Y83100D01*
X114855Y83869D01*
X114675Y84619D01*
X114379Y85331D01*
X113976Y85989D01*
X113476Y86576D01*
X112889Y87076D01*
X112231Y87479D01*
X111519Y87775D01*
X110769Y87955D01*
X110000Y88015D01*
X109992Y88015D01*
Y160600D01*
G37*
G36*
X104993D02*X109992D01*
Y88015D01*
X109231Y87955D01*
X108481Y87775D01*
X107769Y87479D01*
X107111Y87076D01*
X106524Y86576D01*
X106024Y85989D01*
X105621Y85331D01*
X105325Y84619D01*
X105145Y83869D01*
X105085Y83100D01*
X105145Y82331D01*
X105325Y81581D01*
X105621Y80869D01*
X106024Y80211D01*
X106524Y79624D01*
X107111Y79124D01*
X107769Y78721D01*
X108481Y78425D01*
X109231Y78245D01*
X109992Y78185D01*
Y60515D01*
X109231Y60455D01*
X108481Y60275D01*
X107769Y59979D01*
X107111Y59576D01*
X106524Y59076D01*
X106024Y58489D01*
X105621Y57831D01*
X105325Y57119D01*
X105145Y56369D01*
X105085Y55600D01*
X105145Y54831D01*
X105325Y54081D01*
X105621Y53369D01*
X106024Y52711D01*
X106524Y52124D01*
X107111Y51624D01*
X107769Y51221D01*
X108481Y50925D01*
X109231Y50745D01*
X109992Y50685D01*
Y600D01*
X104993D01*
Y96087D01*
X105000Y96086D01*
X105706Y96142D01*
X106395Y96307D01*
X107049Y96578D01*
X107653Y96948D01*
X108192Y97408D01*
X108652Y97947D01*
X109022Y98551D01*
X109293Y99205D01*
X109458Y99894D01*
X109500Y100600D01*
X109458Y101306D01*
X109293Y101995D01*
X109022Y102649D01*
X108652Y103253D01*
X108192Y103792D01*
X107653Y104252D01*
X107049Y104622D01*
X106395Y104893D01*
X105706Y105058D01*
X105000Y105114D01*
X104993Y105113D01*
Y106087D01*
X105000Y106086D01*
X105706Y106142D01*
X106395Y106307D01*
X107049Y106578D01*
X107653Y106948D01*
X108192Y107408D01*
X108652Y107947D01*
X109022Y108551D01*
X109293Y109205D01*
X109458Y109894D01*
X109500Y110600D01*
X109458Y111306D01*
X109293Y111995D01*
X109022Y112649D01*
X108652Y113253D01*
X108192Y113792D01*
X107653Y114252D01*
X107049Y114622D01*
X106395Y114893D01*
X105706Y115058D01*
X105000Y115114D01*
X104993Y115113D01*
Y116087D01*
X105000Y116086D01*
X105706Y116142D01*
X106395Y116307D01*
X107049Y116578D01*
X107653Y116948D01*
X108192Y117408D01*
X108652Y117947D01*
X109022Y118551D01*
X109293Y119205D01*
X109458Y119894D01*
X109500Y120600D01*
X109458Y121306D01*
X109293Y121995D01*
X109022Y122649D01*
X108652Y123253D01*
X108192Y123792D01*
X107653Y124252D01*
X107049Y124622D01*
X106395Y124893D01*
X105706Y125058D01*
X105000Y125114D01*
X104993Y125113D01*
Y126087D01*
X105000Y126086D01*
X105706Y126142D01*
X106395Y126307D01*
X107049Y126578D01*
X107653Y126948D01*
X108192Y127408D01*
X108652Y127947D01*
X109022Y128551D01*
X109293Y129205D01*
X109458Y129894D01*
X109500Y130600D01*
X109458Y131306D01*
X109293Y131995D01*
X109022Y132649D01*
X108652Y133253D01*
X108192Y133792D01*
X107653Y134252D01*
X107049Y134622D01*
X106395Y134893D01*
X105706Y135058D01*
X105000Y135114D01*
X104993Y135113D01*
Y160600D01*
G37*
G36*
X78613D02*X104993D01*
Y135113D01*
X104294Y135058D01*
X103605Y134893D01*
X102951Y134622D01*
X102347Y134252D01*
X101808Y133792D01*
X101348Y133253D01*
X100978Y132649D01*
X100707Y131995D01*
X100542Y131306D01*
X100486Y130600D01*
X100542Y129894D01*
X100707Y129205D01*
X100978Y128551D01*
X101348Y127947D01*
X101808Y127408D01*
X102347Y126948D01*
X102951Y126578D01*
X103605Y126307D01*
X104294Y126142D01*
X104993Y126087D01*
Y125113D01*
X104294Y125058D01*
X103605Y124893D01*
X102951Y124622D01*
X102347Y124252D01*
X101808Y123792D01*
X101348Y123253D01*
X100978Y122649D01*
X100707Y121995D01*
X100542Y121306D01*
X100486Y120600D01*
X100542Y119894D01*
X100707Y119205D01*
X100978Y118551D01*
X101348Y117947D01*
X101808Y117408D01*
X102347Y116948D01*
X102951Y116578D01*
X103605Y116307D01*
X104294Y116142D01*
X104993Y116087D01*
Y115113D01*
X104294Y115058D01*
X103605Y114893D01*
X102951Y114622D01*
X102347Y114252D01*
X101808Y113792D01*
X101348Y113253D01*
X100978Y112649D01*
X100707Y111995D01*
X100542Y111306D01*
X100486Y110600D01*
X100542Y109894D01*
X100707Y109205D01*
X100978Y108551D01*
X101348Y107947D01*
X101808Y107408D01*
X102347Y106948D01*
X102951Y106578D01*
X103605Y106307D01*
X104294Y106142D01*
X104993Y106087D01*
Y105113D01*
X104294Y105058D01*
X103605Y104893D01*
X102951Y104622D01*
X102347Y104252D01*
X101808Y103792D01*
X101348Y103253D01*
X100978Y102649D01*
X100707Y101995D01*
X100542Y101306D01*
X100486Y100600D01*
X100542Y99894D01*
X100707Y99205D01*
X100978Y98551D01*
X101348Y97947D01*
X101808Y97408D01*
X102347Y96948D01*
X102951Y96578D01*
X103605Y96307D01*
X104294Y96142D01*
X104993Y96087D01*
Y600D01*
X78613D01*
Y98453D01*
X78656Y98460D01*
X78768Y98497D01*
X78873Y98552D01*
X78968Y98622D01*
X79051Y98706D01*
X79119Y98802D01*
X79170Y98908D01*
X79318Y99316D01*
X79422Y99737D01*
X79484Y100167D01*
X79505Y100600D01*
X79484Y101033D01*
X79422Y101463D01*
X79318Y101884D01*
X79175Y102294D01*
X79122Y102400D01*
X79053Y102496D01*
X78970Y102581D01*
X78875Y102651D01*
X78769Y102706D01*
X78657Y102743D01*
X78613Y102751D01*
Y107902D01*
X78652Y107947D01*
X79022Y108551D01*
X79293Y109205D01*
X79458Y109894D01*
X79500Y110600D01*
X79458Y111306D01*
X79293Y111995D01*
X79022Y112649D01*
X78652Y113253D01*
X78613Y113298D01*
Y117902D01*
X78652Y117947D01*
X79022Y118551D01*
X79293Y119205D01*
X79458Y119894D01*
X79500Y120600D01*
X79458Y121306D01*
X79293Y121995D01*
X79022Y122649D01*
X78652Y123253D01*
X78613Y123298D01*
Y126230D01*
X78683Y126259D01*
X78884Y126383D01*
X79064Y126536D01*
X79217Y126716D01*
X79341Y126917D01*
X79431Y127135D01*
X79486Y127365D01*
X79500Y127600D01*
X79486Y133835D01*
X79431Y134065D01*
X79341Y134283D01*
X79217Y134484D01*
X79064Y134664D01*
X78884Y134817D01*
X78683Y134941D01*
X78613Y134970D01*
Y160600D01*
G37*
G36*
Y123298D02*X78192Y123792D01*
X77653Y124252D01*
X77049Y124622D01*
X76395Y124893D01*
X75706Y125058D01*
X75000Y125114D01*
Y126107D01*
X78235Y126114D01*
X78465Y126169D01*
X78613Y126230D01*
Y123298D01*
G37*
G36*
Y113298D02*X78192Y113792D01*
X77653Y114252D01*
X77049Y114622D01*
X76395Y114893D01*
X75706Y115058D01*
X75000Y115114D01*
Y116086D01*
X75706Y116142D01*
X76395Y116307D01*
X77049Y116578D01*
X77653Y116948D01*
X78192Y117408D01*
X78613Y117902D01*
Y113298D01*
G37*
G36*
Y600D02*X75000D01*
Y96095D01*
X75433Y96116D01*
X75863Y96178D01*
X76284Y96282D01*
X76694Y96425D01*
X76800Y96478D01*
X76896Y96547D01*
X76981Y96630D01*
X77051Y96725D01*
X77106Y96831D01*
X77143Y96943D01*
X77163Y97060D01*
X77164Y97179D01*
X77146Y97296D01*
X77110Y97409D01*
X77057Y97515D01*
X76988Y97612D01*
X76905Y97696D01*
X76809Y97767D01*
X76704Y97821D01*
X76592Y97859D01*
X76475Y97878D01*
X76356Y97879D01*
X76239Y97861D01*
X76126Y97823D01*
X75855Y97724D01*
X75575Y97656D01*
X75289Y97614D01*
X75000Y97600D01*
Y103600D01*
X75289Y103586D01*
X75575Y103544D01*
X75855Y103476D01*
X76128Y103380D01*
X76239Y103342D01*
X76356Y103325D01*
X76474Y103325D01*
X76591Y103345D01*
X76703Y103382D01*
X76807Y103436D01*
X76902Y103506D01*
X76985Y103591D01*
X77054Y103687D01*
X77107Y103792D01*
X77143Y103905D01*
X77160Y104021D01*
X77159Y104139D01*
X77140Y104256D01*
X77103Y104368D01*
X77048Y104473D01*
X76978Y104568D01*
X76894Y104651D01*
X76798Y104719D01*
X76692Y104770D01*
X76284Y104918D01*
X75863Y105022D01*
X75433Y105084D01*
X75000Y105105D01*
Y106086D01*
X75706Y106142D01*
X76395Y106307D01*
X77049Y106578D01*
X77653Y106948D01*
X78192Y107408D01*
X78613Y107902D01*
Y102751D01*
X78540Y102763D01*
X78421Y102764D01*
X78304Y102746D01*
X78191Y102710D01*
X78085Y102657D01*
X77988Y102588D01*
X77904Y102505D01*
X77833Y102409D01*
X77779Y102304D01*
X77741Y102192D01*
X77722Y102075D01*
X77721Y101956D01*
X77739Y101839D01*
X77777Y101726D01*
X77876Y101455D01*
X77944Y101175D01*
X77986Y100889D01*
X78000Y100600D01*
X77986Y100311D01*
X77944Y100025D01*
X77876Y99745D01*
X77780Y99472D01*
X77742Y99361D01*
X77725Y99244D01*
X77725Y99126D01*
X77745Y99009D01*
X77782Y98897D01*
X77836Y98793D01*
X77906Y98698D01*
X77991Y98615D01*
X78087Y98546D01*
X78192Y98493D01*
X78305Y98457D01*
X78421Y98440D01*
X78539Y98441D01*
X78613Y98453D01*
Y600D01*
G37*
G36*
X75000Y160600D02*X78613D01*
Y134970D01*
X78465Y135031D01*
X78235Y135086D01*
X78000Y135100D01*
X75000Y135093D01*
Y160600D01*
G37*
G36*
X74150Y96176D02*X74567Y96116D01*
X75000Y96095D01*
Y600D01*
X74150D01*
Y52948D01*
X74268Y52957D01*
X74382Y52985D01*
X74492Y53030D01*
X74592Y53091D01*
X74682Y53168D01*
X74759Y53258D01*
X74820Y53358D01*
X74865Y53468D01*
X74893Y53582D01*
X74900Y53700D01*
Y57500D01*
X74893Y57618D01*
X74865Y57732D01*
X74820Y57842D01*
X74759Y57942D01*
X74682Y58032D01*
X74592Y58109D01*
X74492Y58170D01*
X74382Y58215D01*
X74268Y58243D01*
X74150Y58252D01*
Y78400D01*
X74284Y78483D01*
X74464Y78636D01*
X74617Y78816D01*
X74741Y79017D01*
X74831Y79235D01*
X74886Y79465D01*
X74900Y79700D01*
X74886Y86735D01*
X74831Y86965D01*
X74741Y87183D01*
X74617Y87384D01*
X74464Y87564D01*
X74284Y87717D01*
X74150Y87800D01*
Y96176D01*
G37*
G36*
Y103477D02*X74425Y103544D01*
X74711Y103586D01*
X75000Y103600D01*
Y97600D01*
X74711Y97614D01*
X74425Y97656D01*
X74150Y97723D01*
Y103477D01*
G37*
G36*
Y106176D02*X74294Y106142D01*
X75000Y106086D01*
Y105105D01*
X74567Y105084D01*
X74150Y105024D01*
Y106176D01*
G37*
G36*
Y116176D02*X74294Y116142D01*
X75000Y116086D01*
Y115114D01*
X74294Y115058D01*
X74150Y115024D01*
Y116176D01*
G37*
G36*
Y126105D02*X75000Y126107D01*
Y125114D01*
X74294Y125058D01*
X74150Y125024D01*
Y126105D01*
G37*
G36*
Y160600D02*X75000D01*
Y135093D01*
X74150Y135091D01*
Y160600D01*
G37*
G36*
Y600D02*X70000D01*
Y50700D01*
X71900D01*
X72018Y50707D01*
X72132Y50735D01*
X72242Y50780D01*
X72342Y50841D01*
X72432Y50918D01*
X72509Y51008D01*
X72570Y51108D01*
X72615Y51218D01*
X72643Y51332D01*
X72652Y51450D01*
X72643Y51568D01*
X72615Y51682D01*
X72570Y51792D01*
X72509Y51892D01*
X72432Y51982D01*
X72342Y52059D01*
X72242Y52120D01*
X72132Y52165D01*
X72018Y52193D01*
X71900Y52200D01*
X70000D01*
Y59000D01*
X71900D01*
X72018Y59007D01*
X72132Y59035D01*
X72242Y59080D01*
X72342Y59141D01*
X72432Y59218D01*
X72509Y59308D01*
X72570Y59408D01*
X72615Y59518D01*
X72643Y59632D01*
X72652Y59750D01*
X72643Y59868D01*
X72615Y59982D01*
X72570Y60092D01*
X72509Y60192D01*
X72432Y60282D01*
X72342Y60359D01*
X72242Y60420D01*
X72132Y60465D01*
X72018Y60493D01*
X71900Y60500D01*
X70000D01*
Y78207D01*
X73635Y78214D01*
X73865Y78269D01*
X74083Y78359D01*
X74150Y78400D01*
Y58252D01*
X74032Y58243D01*
X73918Y58215D01*
X73808Y58170D01*
X73708Y58109D01*
X73618Y58032D01*
X73541Y57942D01*
X73480Y57842D01*
X73435Y57732D01*
X73407Y57618D01*
X73400Y57500D01*
Y53700D01*
X73407Y53582D01*
X73435Y53468D01*
X73480Y53358D01*
X73541Y53258D01*
X73618Y53168D01*
X73708Y53091D01*
X73808Y53030D01*
X73918Y52985D01*
X74032Y52957D01*
X74150Y52948D01*
Y600D01*
G37*
G36*
X71387Y107902D02*X71808Y107408D01*
X72347Y106948D01*
X72951Y106578D01*
X73605Y106307D01*
X74150Y106176D01*
Y105024D01*
X74137Y105022D01*
X73716Y104918D01*
X73306Y104775D01*
X73200Y104722D01*
X73104Y104653D01*
X73019Y104570D01*
X72949Y104475D01*
X72894Y104369D01*
X72857Y104257D01*
X72837Y104140D01*
X72836Y104021D01*
X72854Y103904D01*
X72890Y103791D01*
X72943Y103685D01*
X73012Y103588D01*
X73095Y103504D01*
X73191Y103433D01*
X73296Y103379D01*
X73408Y103341D01*
X73525Y103322D01*
X73644Y103321D01*
X73761Y103339D01*
X73874Y103377D01*
X74145Y103476D01*
X74150Y103477D01*
Y97723D01*
X74145Y97724D01*
X73872Y97820D01*
X73761Y97858D01*
X73644Y97875D01*
X73526Y97875D01*
X73409Y97855D01*
X73297Y97818D01*
X73193Y97764D01*
X73098Y97694D01*
X73015Y97609D01*
X72946Y97513D01*
X72893Y97408D01*
X72857Y97295D01*
X72840Y97179D01*
X72841Y97061D01*
X72860Y96944D01*
X72897Y96832D01*
X72952Y96727D01*
X73022Y96632D01*
X73106Y96549D01*
X73202Y96481D01*
X73308Y96430D01*
X73716Y96282D01*
X74137Y96178D01*
X74150Y96176D01*
Y87800D01*
X74083Y87841D01*
X73865Y87931D01*
X73635Y87986D01*
X73400Y88000D01*
X71387Y87996D01*
Y98449D01*
X71460Y98437D01*
X71579Y98436D01*
X71696Y98454D01*
X71809Y98490D01*
X71915Y98543D01*
X72012Y98612D01*
X72096Y98695D01*
X72167Y98791D01*
X72221Y98896D01*
X72259Y99008D01*
X72278Y99125D01*
X72279Y99244D01*
X72261Y99361D01*
X72223Y99474D01*
X72124Y99745D01*
X72056Y100025D01*
X72014Y100311D01*
X72000Y100600D01*
X72014Y100889D01*
X72056Y101175D01*
X72124Y101455D01*
X72220Y101728D01*
X72258Y101839D01*
X72275Y101956D01*
X72275Y102074D01*
X72255Y102191D01*
X72218Y102303D01*
X72164Y102407D01*
X72094Y102502D01*
X72009Y102585D01*
X71913Y102654D01*
X71808Y102707D01*
X71695Y102743D01*
X71579Y102760D01*
X71461Y102759D01*
X71387Y102747D01*
Y107902D01*
G37*
G36*
Y117902D02*X71808Y117408D01*
X72347Y116948D01*
X72951Y116578D01*
X73605Y116307D01*
X74150Y116176D01*
Y115024D01*
X73605Y114893D01*
X72951Y114622D01*
X72347Y114252D01*
X71808Y113792D01*
X71387Y113298D01*
Y117902D01*
G37*
G36*
Y126230D02*X71535Y126169D01*
X71765Y126114D01*
X72000Y126100D01*
X74150Y126105D01*
Y125024D01*
X73605Y124893D01*
X72951Y124622D01*
X72347Y124252D01*
X71808Y123792D01*
X71387Y123298D01*
Y126230D01*
G37*
G36*
Y160600D02*X74150D01*
Y135091D01*
X71765Y135086D01*
X71535Y135031D01*
X71387Y134970D01*
Y160600D01*
G37*
G36*
X70000D02*X71387D01*
Y134970D01*
X71317Y134941D01*
X71116Y134817D01*
X70936Y134664D01*
X70783Y134484D01*
X70659Y134283D01*
X70569Y134065D01*
X70514Y133835D01*
X70500Y133600D01*
X70514Y127365D01*
X70569Y127135D01*
X70659Y126917D01*
X70783Y126716D01*
X70936Y126536D01*
X71116Y126383D01*
X71317Y126259D01*
X71387Y126230D01*
Y123298D01*
X71348Y123253D01*
X70978Y122649D01*
X70707Y121995D01*
X70542Y121306D01*
X70486Y120600D01*
X70542Y119894D01*
X70707Y119205D01*
X70978Y118551D01*
X71348Y117947D01*
X71387Y117902D01*
Y113298D01*
X71348Y113253D01*
X70978Y112649D01*
X70707Y111995D01*
X70542Y111306D01*
X70486Y110600D01*
X70542Y109894D01*
X70707Y109205D01*
X70978Y108551D01*
X71348Y107947D01*
X71387Y107902D01*
Y102747D01*
X71344Y102740D01*
X71232Y102703D01*
X71127Y102648D01*
X71032Y102578D01*
X70949Y102494D01*
X70881Y102398D01*
X70830Y102292D01*
X70682Y101884D01*
X70578Y101463D01*
X70516Y101033D01*
X70495Y100600D01*
X70516Y100167D01*
X70578Y99737D01*
X70682Y99316D01*
X70825Y98906D01*
X70878Y98800D01*
X70947Y98704D01*
X71030Y98619D01*
X71125Y98549D01*
X71231Y98494D01*
X71343Y98457D01*
X71387Y98449D01*
Y87996D01*
X70000Y87993D01*
Y160600D01*
G37*
G36*
X65850Y78400D02*X65917Y78359D01*
X66135Y78269D01*
X66365Y78214D01*
X66600Y78200D01*
X70000Y78207D01*
Y60500D01*
X68100D01*
X67982Y60493D01*
X67868Y60465D01*
X67758Y60420D01*
X67658Y60359D01*
X67568Y60282D01*
X67491Y60192D01*
X67430Y60092D01*
X67385Y59982D01*
X67357Y59868D01*
X67348Y59750D01*
X67357Y59632D01*
X67385Y59518D01*
X67430Y59408D01*
X67491Y59308D01*
X67568Y59218D01*
X67658Y59141D01*
X67758Y59080D01*
X67868Y59035D01*
X67982Y59007D01*
X68100Y59000D01*
X70000D01*
Y52200D01*
X68100D01*
X67982Y52193D01*
X67868Y52165D01*
X67758Y52120D01*
X67658Y52059D01*
X67568Y51982D01*
X67491Y51892D01*
X67430Y51792D01*
X67385Y51682D01*
X67357Y51568D01*
X67348Y51450D01*
X67357Y51332D01*
X67385Y51218D01*
X67430Y51108D01*
X67491Y51008D01*
X67568Y50918D01*
X67658Y50841D01*
X67758Y50780D01*
X67868Y50735D01*
X67982Y50707D01*
X68100Y50700D01*
X70000D01*
Y600D01*
X65850D01*
Y52948D01*
X65968Y52957D01*
X66082Y52985D01*
X66192Y53030D01*
X66292Y53091D01*
X66382Y53168D01*
X66459Y53258D01*
X66520Y53358D01*
X66565Y53468D01*
X66593Y53582D01*
X66600Y53700D01*
Y57500D01*
X66593Y57618D01*
X66565Y57732D01*
X66520Y57842D01*
X66459Y57942D01*
X66382Y58032D01*
X66292Y58109D01*
X66192Y58170D01*
X66082Y58215D01*
X65968Y58243D01*
X65850Y58252D01*
Y78400D01*
G37*
G36*
Y160600D02*X70000D01*
Y87993D01*
X66365Y87986D01*
X66135Y87931D01*
X65917Y87841D01*
X65850Y87800D01*
Y160600D01*
G37*
G36*
X64051D02*X65850D01*
Y87800D01*
X65716Y87717D01*
X65536Y87564D01*
X65383Y87384D01*
X65259Y87183D01*
X65169Y86965D01*
X65114Y86735D01*
X65100Y86500D01*
X65114Y79465D01*
X65169Y79235D01*
X65259Y79017D01*
X65383Y78816D01*
X65536Y78636D01*
X65716Y78483D01*
X65850Y78400D01*
Y58252D01*
X65732Y58243D01*
X65618Y58215D01*
X65508Y58170D01*
X65408Y58109D01*
X65318Y58032D01*
X65241Y57942D01*
X65180Y57842D01*
X65135Y57732D01*
X65107Y57618D01*
X65100Y57500D01*
Y53700D01*
X65107Y53582D01*
X65135Y53468D01*
X65180Y53358D01*
X65241Y53258D01*
X65318Y53168D01*
X65408Y53091D01*
X65508Y53030D01*
X65618Y52985D01*
X65732Y52957D01*
X65850Y52948D01*
Y600D01*
X64051D01*
Y148094D01*
X64119Y148113D01*
X64226Y148162D01*
X64324Y148228D01*
X64411Y148308D01*
X64484Y148401D01*
X64540Y148504D01*
X64725Y148948D01*
X64862Y149409D01*
X64954Y149881D01*
X65000Y150360D01*
Y150840D01*
X64954Y151319D01*
X64862Y151791D01*
X64725Y152252D01*
X64545Y152698D01*
X64487Y152802D01*
X64414Y152895D01*
X64327Y152975D01*
X64228Y153041D01*
X64120Y153091D01*
X64051Y153110D01*
Y160600D01*
G37*
G36*
X61113D02*X64051D01*
Y153110D01*
X64006Y153123D01*
X63888Y153137D01*
X63769Y153132D01*
X63653Y153109D01*
X63542Y153068D01*
X63438Y153010D01*
X63345Y152936D01*
X63265Y152849D01*
X63199Y152750D01*
X63149Y152643D01*
X63117Y152528D01*
X63103Y152411D01*
X63108Y152292D01*
X63131Y152176D01*
X63174Y152065D01*
X63304Y151755D01*
X63399Y151433D01*
X63464Y151103D01*
X63496Y150768D01*
Y150432D01*
X63464Y150097D01*
X63399Y149767D01*
X63304Y149445D01*
X63178Y149133D01*
X63135Y149023D01*
X63112Y148908D01*
X63107Y148790D01*
X63121Y148672D01*
X63153Y148559D01*
X63202Y148452D01*
X63268Y148353D01*
X63348Y148267D01*
X63440Y148193D01*
X63543Y148136D01*
X63654Y148095D01*
X63770Y148072D01*
X63888Y148067D01*
X64005Y148081D01*
X64051Y148094D01*
Y600D01*
X61113D01*
Y68453D01*
X61156Y68460D01*
X61268Y68497D01*
X61373Y68552D01*
X61468Y68622D01*
X61551Y68706D01*
X61619Y68802D01*
X61670Y68908D01*
X61818Y69316D01*
X61922Y69737D01*
X61984Y70167D01*
X62005Y70600D01*
X61984Y71033D01*
X61922Y71463D01*
X61818Y71884D01*
X61675Y72294D01*
X61622Y72400D01*
X61553Y72496D01*
X61470Y72581D01*
X61375Y72651D01*
X61269Y72706D01*
X61157Y72743D01*
X61113Y72751D01*
Y145723D01*
X61191Y145738D01*
X61652Y145875D01*
X62098Y146055D01*
X62202Y146113D01*
X62295Y146186D01*
X62375Y146273D01*
X62441Y146372D01*
X62491Y146480D01*
X62523Y146594D01*
X62537Y146712D01*
X62532Y146831D01*
X62509Y146947D01*
X62468Y147058D01*
X62410Y147162D01*
X62336Y147255D01*
X62249Y147335D01*
X62150Y147401D01*
X62043Y147451D01*
X61928Y147483D01*
X61811Y147497D01*
X61692Y147492D01*
X61576Y147469D01*
X61465Y147426D01*
X61155Y147296D01*
X61113Y147284D01*
Y153916D01*
X61155Y153904D01*
X61467Y153778D01*
X61577Y153735D01*
X61692Y153712D01*
X61810Y153707D01*
X61928Y153721D01*
X62041Y153753D01*
X62148Y153802D01*
X62247Y153868D01*
X62333Y153948D01*
X62407Y154040D01*
X62464Y154143D01*
X62505Y154254D01*
X62528Y154370D01*
X62533Y154488D01*
X62519Y154605D01*
X62487Y154719D01*
X62438Y154826D01*
X62372Y154924D01*
X62292Y155011D01*
X62199Y155084D01*
X62096Y155140D01*
X61652Y155325D01*
X61191Y155462D01*
X61113Y155477D01*
Y160600D01*
G37*
G36*
Y147284D02*X60833Y147201D01*
X60503Y147136D01*
X60168Y147104D01*
X60002D01*
Y154096D01*
X60168D01*
X60503Y154064D01*
X60833Y153999D01*
X61113Y153916D01*
Y147284D01*
G37*
G36*
Y600D02*X60002D01*
Y88321D01*
X60122Y88580D01*
X60289Y89069D01*
X60409Y89572D01*
X60482Y90084D01*
X60506Y90600D01*
X60482Y91116D01*
X60409Y91628D01*
X60289Y92131D01*
X60122Y92620D01*
X60002Y92887D01*
Y108304D01*
X60247Y108895D01*
X60449Y109737D01*
X60500Y110600D01*
X60449Y111463D01*
X60247Y112305D01*
X60002Y112896D01*
Y145600D01*
X60240D01*
X60719Y145646D01*
X61113Y145723D01*
Y72751D01*
X61040Y72763D01*
X60921Y72764D01*
X60804Y72746D01*
X60691Y72710D01*
X60585Y72657D01*
X60488Y72588D01*
X60404Y72505D01*
X60333Y72409D01*
X60279Y72304D01*
X60241Y72192D01*
X60222Y72075D01*
X60221Y71956D01*
X60239Y71839D01*
X60277Y71726D01*
X60376Y71455D01*
X60444Y71175D01*
X60486Y70889D01*
X60500Y70600D01*
X60486Y70311D01*
X60444Y70025D01*
X60376Y69745D01*
X60280Y69472D01*
X60242Y69361D01*
X60225Y69244D01*
X60225Y69126D01*
X60245Y69009D01*
X60282Y68897D01*
X60336Y68793D01*
X60406Y68698D01*
X60491Y68615D01*
X60587Y68546D01*
X60692Y68493D01*
X60805Y68457D01*
X60921Y68440D01*
X61039Y68441D01*
X61113Y68453D01*
Y600D01*
G37*
G36*
X60002Y160600D02*X61113D01*
Y155477D01*
X60719Y155554D01*
X60240Y155600D01*
X60002D01*
Y160600D01*
G37*
G36*
Y600D02*X57502D01*
Y66095D01*
X57933Y66116D01*
X58363Y66178D01*
X58784Y66282D01*
X59194Y66425D01*
X59300Y66478D01*
X59396Y66547D01*
X59481Y66630D01*
X59551Y66725D01*
X59606Y66831D01*
X59643Y66943D01*
X59663Y67060D01*
X59664Y67179D01*
X59646Y67296D01*
X59610Y67409D01*
X59557Y67515D01*
X59488Y67612D01*
X59405Y67696D01*
X59309Y67767D01*
X59204Y67821D01*
X59092Y67859D01*
X58975Y67878D01*
X58856Y67879D01*
X58739Y67861D01*
X58626Y67823D01*
X58355Y67724D01*
X58075Y67656D01*
X57789Y67614D01*
X57502Y67600D01*
Y73600D01*
X57789Y73586D01*
X58075Y73544D01*
X58355Y73476D01*
X58628Y73380D01*
X58739Y73342D01*
X58856Y73325D01*
X58974Y73325D01*
X59091Y73345D01*
X59203Y73382D01*
X59307Y73436D01*
X59402Y73506D01*
X59485Y73591D01*
X59554Y73687D01*
X59607Y73792D01*
X59643Y73905D01*
X59660Y74021D01*
X59659Y74139D01*
X59640Y74256D01*
X59603Y74368D01*
X59548Y74473D01*
X59478Y74568D01*
X59394Y74651D01*
X59298Y74719D01*
X59192Y74770D01*
X58784Y74918D01*
X58363Y75022D01*
X57933Y75084D01*
X57502Y75105D01*
Y85696D01*
X57593Y85751D01*
X57684Y85828D01*
X57761Y85918D01*
X57823Y86020D01*
X57869Y86129D01*
X57897Y86245D01*
X57906Y86363D01*
X57897Y86481D01*
X57870Y86597D01*
X57824Y86707D01*
X57762Y86808D01*
X57686Y86898D01*
X57595Y86976D01*
X57502Y87033D01*
Y94172D01*
X57593Y94228D01*
X57682Y94305D01*
X57759Y94395D01*
X57820Y94495D01*
X57865Y94604D01*
X57893Y94719D01*
X57902Y94837D01*
X57892Y94955D01*
X57865Y95069D01*
X57819Y95178D01*
X57757Y95279D01*
X57681Y95369D01*
X57591Y95445D01*
X57502Y95497D01*
Y105683D01*
X57505Y105684D01*
X58243Y106137D01*
X58901Y106699D01*
X59463Y107357D01*
X59916Y108095D01*
X60002Y108304D01*
Y92887D01*
X59910Y93092D01*
X59849Y93193D01*
X59772Y93284D01*
X59682Y93361D01*
X59580Y93423D01*
X59471Y93469D01*
X59355Y93497D01*
X59237Y93506D01*
X59119Y93497D01*
X59003Y93470D01*
X58893Y93424D01*
X58792Y93362D01*
X58702Y93286D01*
X58624Y93195D01*
X58562Y93094D01*
X58516Y92985D01*
X58489Y92869D01*
X58479Y92751D01*
X58488Y92632D01*
X58516Y92517D01*
X58563Y92408D01*
X58721Y92068D01*
X58842Y91712D01*
X58930Y91347D01*
X58982Y90975D01*
X59000Y90600D01*
X58982Y90225D01*
X58930Y89853D01*
X58842Y89488D01*
X58721Y89132D01*
X58567Y88790D01*
X58520Y88682D01*
X58493Y88567D01*
X58483Y88449D01*
X58493Y88332D01*
X58521Y88217D01*
X58566Y88108D01*
X58628Y88007D01*
X58705Y87918D01*
X58795Y87841D01*
X58895Y87780D01*
X59004Y87735D01*
X59119Y87707D01*
X59237Y87698D01*
X59355Y87708D01*
X59469Y87735D01*
X59578Y87781D01*
X59679Y87843D01*
X59769Y87919D01*
X59845Y88009D01*
X59905Y88111D01*
X60002Y88321D01*
Y600D01*
G37*
G36*
X57502Y95497D02*X57489Y95505D01*
X57020Y95722D01*
X56531Y95889D01*
X56028Y96009D01*
X55516Y96082D01*
X55002Y96106D01*
Y105083D01*
X55863Y105151D01*
X56705Y105353D01*
X57502Y105683D01*
Y95497D01*
G37*
G36*
Y87033D02*X57494Y87038D01*
X57385Y87084D01*
X57269Y87111D01*
X57151Y87121D01*
X57032Y87112D01*
X56917Y87084D01*
X56808Y87037D01*
X56468Y86879D01*
X56112Y86758D01*
X55747Y86670D01*
X55375Y86618D01*
X55002Y86600D01*
Y94600D01*
X55375Y94582D01*
X55747Y94530D01*
X56112Y94442D01*
X56468Y94321D01*
X56810Y94167D01*
X56918Y94120D01*
X57033Y94093D01*
X57151Y94083D01*
X57268Y94093D01*
X57383Y94121D01*
X57492Y94166D01*
X57502Y94172D01*
Y87033D01*
G37*
G36*
Y600D02*X55002D01*
Y85094D01*
X55516Y85118D01*
X56028Y85191D01*
X56531Y85311D01*
X57020Y85478D01*
X57492Y85690D01*
X57502Y85696D01*
Y75105D01*
X57500Y75105D01*
X57067Y75084D01*
X56637Y75022D01*
X56216Y74918D01*
X55806Y74775D01*
X55700Y74722D01*
X55604Y74653D01*
X55519Y74570D01*
X55449Y74475D01*
X55394Y74369D01*
X55357Y74257D01*
X55337Y74140D01*
X55336Y74021D01*
X55354Y73904D01*
X55390Y73791D01*
X55443Y73685D01*
X55512Y73588D01*
X55595Y73504D01*
X55691Y73433D01*
X55796Y73379D01*
X55908Y73341D01*
X56025Y73322D01*
X56144Y73321D01*
X56261Y73339D01*
X56374Y73377D01*
X56645Y73476D01*
X56925Y73544D01*
X57211Y73586D01*
X57500Y73600D01*
X57502Y73600D01*
Y67600D01*
X57500Y67600D01*
X57211Y67614D01*
X56925Y67656D01*
X56645Y67724D01*
X56372Y67820D01*
X56261Y67858D01*
X56144Y67875D01*
X56026Y67875D01*
X55909Y67855D01*
X55797Y67818D01*
X55693Y67764D01*
X55598Y67694D01*
X55515Y67609D01*
X55446Y67513D01*
X55393Y67408D01*
X55357Y67295D01*
X55340Y67179D01*
X55341Y67061D01*
X55360Y66944D01*
X55397Y66832D01*
X55452Y66727D01*
X55522Y66632D01*
X55606Y66549D01*
X55702Y66481D01*
X55808Y66430D01*
X56216Y66282D01*
X56637Y66178D01*
X57067Y66116D01*
X57500Y66095D01*
X57502Y66095D01*
Y600D01*
G37*
G36*
X53887Y94442D02*X53888Y94442D01*
X54253Y94530D01*
X54625Y94582D01*
X55000Y94600D01*
X55002Y94600D01*
Y86600D01*
X55000Y86600D01*
X54625Y86618D01*
X54253Y86670D01*
X53888Y86758D01*
X53887Y86758D01*
Y94442D01*
G37*
G36*
Y105211D02*X54137Y105151D01*
X55000Y105083D01*
X55002Y105083D01*
Y96106D01*
X55000Y96106D01*
X54484Y96082D01*
X53972Y96009D01*
X53887Y95989D01*
Y105211D01*
G37*
G36*
X55002Y600D02*X53887D01*
Y68449D01*
X53960Y68437D01*
X54079Y68436D01*
X54196Y68454D01*
X54309Y68490D01*
X54415Y68543D01*
X54512Y68612D01*
X54596Y68695D01*
X54667Y68791D01*
X54721Y68896D01*
X54759Y69008D01*
X54778Y69125D01*
X54779Y69244D01*
X54761Y69361D01*
X54723Y69474D01*
X54624Y69745D01*
X54556Y70025D01*
X54514Y70311D01*
X54500Y70600D01*
X54514Y70889D01*
X54556Y71175D01*
X54624Y71455D01*
X54720Y71728D01*
X54758Y71839D01*
X54775Y71956D01*
X54775Y72074D01*
X54755Y72191D01*
X54718Y72303D01*
X54664Y72407D01*
X54594Y72502D01*
X54509Y72585D01*
X54413Y72654D01*
X54308Y72707D01*
X54195Y72743D01*
X54079Y72760D01*
X53961Y72759D01*
X53887Y72747D01*
Y85211D01*
X53972Y85191D01*
X54484Y85118D01*
X55000Y85094D01*
X55002Y85094D01*
Y600D01*
G37*
G36*
X53887D02*X50000D01*
Y66112D01*
X50735Y66114D01*
X50965Y66169D01*
X51183Y66259D01*
X51384Y66383D01*
X51564Y66536D01*
X51717Y66716D01*
X51841Y66917D01*
X51931Y67135D01*
X51986Y67365D01*
X52000Y67600D01*
X51986Y73835D01*
X51931Y74065D01*
X51841Y74283D01*
X51717Y74484D01*
X51564Y74664D01*
X51384Y74817D01*
X51183Y74941D01*
X50965Y75031D01*
X50735Y75086D01*
X50500Y75100D01*
X50000Y75099D01*
Y88308D01*
X50090Y88108D01*
X50151Y88007D01*
X50228Y87916D01*
X50318Y87839D01*
X50420Y87777D01*
X50529Y87731D01*
X50645Y87703D01*
X50763Y87694D01*
X50881Y87703D01*
X50997Y87730D01*
X51107Y87776D01*
X51208Y87838D01*
X51298Y87914D01*
X51376Y88005D01*
X51438Y88106D01*
X51484Y88215D01*
X51511Y88331D01*
X51521Y88449D01*
X51512Y88568D01*
X51484Y88683D01*
X51437Y88792D01*
X51279Y89132D01*
X51158Y89488D01*
X51070Y89853D01*
X51018Y90225D01*
X51000Y90600D01*
X51018Y90975D01*
X51070Y91347D01*
X51158Y91712D01*
X51279Y92068D01*
X51433Y92410D01*
X51480Y92518D01*
X51507Y92633D01*
X51517Y92751D01*
X51507Y92868D01*
X51479Y92983D01*
X51434Y93092D01*
X51372Y93193D01*
X51295Y93282D01*
X51205Y93359D01*
X51105Y93420D01*
X50996Y93465D01*
X50881Y93493D01*
X50763Y93502D01*
X50645Y93492D01*
X50531Y93465D01*
X50422Y93419D01*
X50321Y93357D01*
X50231Y93281D01*
X50155Y93191D01*
X50095Y93089D01*
X50000Y92883D01*
Y108299D01*
X50084Y108095D01*
X50537Y107357D01*
X51099Y106699D01*
X51757Y106137D01*
X52495Y105684D01*
X53295Y105353D01*
X53887Y105211D01*
Y95989D01*
X53469Y95889D01*
X52980Y95722D01*
X52508Y95510D01*
X52407Y95449D01*
X52316Y95372D01*
X52239Y95282D01*
X52177Y95180D01*
X52131Y95071D01*
X52103Y94955D01*
X52094Y94837D01*
X52103Y94719D01*
X52130Y94603D01*
X52176Y94493D01*
X52238Y94392D01*
X52314Y94302D01*
X52405Y94224D01*
X52506Y94162D01*
X52615Y94116D01*
X52731Y94089D01*
X52849Y94079D01*
X52968Y94088D01*
X53083Y94116D01*
X53192Y94163D01*
X53532Y94321D01*
X53887Y94442D01*
Y86758D01*
X53532Y86879D01*
X53190Y87033D01*
X53082Y87080D01*
X52967Y87107D01*
X52849Y87117D01*
X52732Y87107D01*
X52617Y87079D01*
X52508Y87034D01*
X52407Y86972D01*
X52318Y86895D01*
X52241Y86805D01*
X52180Y86705D01*
X52135Y86596D01*
X52107Y86481D01*
X52098Y86363D01*
X52108Y86245D01*
X52135Y86131D01*
X52181Y86022D01*
X52243Y85921D01*
X52319Y85831D01*
X52409Y85755D01*
X52511Y85695D01*
X52980Y85478D01*
X53469Y85311D01*
X53887Y85211D01*
Y72747D01*
X53844Y72740D01*
X53732Y72703D01*
X53627Y72648D01*
X53532Y72578D01*
X53449Y72494D01*
X53381Y72398D01*
X53330Y72292D01*
X53182Y71884D01*
X53078Y71463D01*
X53016Y71033D01*
X52995Y70600D01*
X53016Y70167D01*
X53078Y69737D01*
X53182Y69316D01*
X53325Y68906D01*
X53378Y68800D01*
X53447Y68704D01*
X53530Y68619D01*
X53625Y68549D01*
X53731Y68494D01*
X53843Y68457D01*
X53887Y68449D01*
Y600D01*
G37*
G36*
X55949Y160600D02*X60002D01*
Y155600D01*
X59760D01*
X59281Y155554D01*
X58809Y155462D01*
X58348Y155325D01*
X57902Y155145D01*
X57798Y155087D01*
X57705Y155014D01*
X57625Y154927D01*
X57559Y154828D01*
X57509Y154720D01*
X57477Y154606D01*
X57463Y154488D01*
X57468Y154369D01*
X57491Y154253D01*
X57532Y154142D01*
X57590Y154038D01*
X57664Y153945D01*
X57751Y153865D01*
X57850Y153799D01*
X57957Y153749D01*
X58072Y153717D01*
X58189Y153703D01*
X58308Y153708D01*
X58424Y153731D01*
X58535Y153774D01*
X58845Y153904D01*
X59167Y153999D01*
X59497Y154064D01*
X59832Y154096D01*
X60002D01*
Y147104D01*
X59832D01*
X59497Y147136D01*
X59167Y147201D01*
X58845Y147296D01*
X58533Y147422D01*
X58423Y147465D01*
X58308Y147488D01*
X58190Y147493D01*
X58072Y147479D01*
X57959Y147447D01*
X57852Y147398D01*
X57753Y147332D01*
X57667Y147252D01*
X57593Y147160D01*
X57536Y147057D01*
X57495Y146946D01*
X57472Y146830D01*
X57467Y146712D01*
X57481Y146595D01*
X57513Y146481D01*
X57562Y146374D01*
X57628Y146276D01*
X57708Y146189D01*
X57801Y146116D01*
X57904Y146060D01*
X58348Y145875D01*
X58809Y145738D01*
X59281Y145646D01*
X59760Y145600D01*
X60002D01*
Y112896D01*
X59916Y113105D01*
X59463Y113843D01*
X58901Y114501D01*
X58243Y115063D01*
X57505Y115516D01*
X56705Y115847D01*
X55949Y116029D01*
Y148090D01*
X55994Y148077D01*
X56112Y148063D01*
X56231Y148068D01*
X56347Y148091D01*
X56458Y148132D01*
X56562Y148190D01*
X56655Y148264D01*
X56735Y148351D01*
X56801Y148450D01*
X56851Y148557D01*
X56883Y148672D01*
X56897Y148789D01*
X56892Y148908D01*
X56869Y149024D01*
X56826Y149135D01*
X56696Y149445D01*
X56601Y149767D01*
X56536Y150097D01*
X56504Y150432D01*
Y150768D01*
X56536Y151103D01*
X56601Y151433D01*
X56696Y151755D01*
X56822Y152067D01*
X56865Y152177D01*
X56888Y152292D01*
X56893Y152410D01*
X56879Y152528D01*
X56847Y152641D01*
X56798Y152748D01*
X56732Y152847D01*
X56652Y152933D01*
X56560Y153007D01*
X56457Y153064D01*
X56346Y153105D01*
X56230Y153128D01*
X56112Y153133D01*
X55995Y153119D01*
X55949Y153106D01*
Y160600D01*
G37*
G36*
X50000D02*X55949D01*
Y153106D01*
X55881Y153087D01*
X55774Y153038D01*
X55676Y152972D01*
X55589Y152892D01*
X55516Y152799D01*
X55460Y152696D01*
X55275Y152252D01*
X55138Y151791D01*
X55046Y151319D01*
X55000Y150840D01*
Y150360D01*
X55046Y149881D01*
X55138Y149409D01*
X55275Y148948D01*
X55455Y148502D01*
X55513Y148398D01*
X55586Y148305D01*
X55673Y148225D01*
X55772Y148159D01*
X55880Y148109D01*
X55949Y148090D01*
Y116029D01*
X55863Y116049D01*
X55000Y116117D01*
X54137Y116049D01*
X53295Y115847D01*
X52495Y115516D01*
X51757Y115063D01*
X51099Y114501D01*
X50537Y113843D01*
X50084Y113105D01*
X50000Y112901D01*
Y145607D01*
X53735Y145614D01*
X53965Y145669D01*
X54183Y145759D01*
X54384Y145883D01*
X54564Y146036D01*
X54717Y146216D01*
X54841Y146417D01*
X54931Y146635D01*
X54986Y146865D01*
X55000Y147100D01*
X54986Y154335D01*
X54931Y154565D01*
X54841Y154783D01*
X54717Y154984D01*
X54564Y155164D01*
X54384Y155317D01*
X54183Y155441D01*
X53965Y155531D01*
X53735Y155586D01*
X53500Y155600D01*
X50000Y155593D01*
Y160600D01*
G37*
G36*
X38750D02*X50000D01*
Y155593D01*
X46265Y155586D01*
X46035Y155531D01*
X45817Y155441D01*
X45616Y155317D01*
X45436Y155164D01*
X45283Y154984D01*
X45159Y154783D01*
X45069Y154565D01*
X45014Y154335D01*
X45000Y154100D01*
X45014Y146865D01*
X45069Y146635D01*
X45159Y146417D01*
X45283Y146216D01*
X45436Y146036D01*
X45616Y145883D01*
X45817Y145759D01*
X46035Y145669D01*
X46265Y145614D01*
X46500Y145600D01*
X50000Y145607D01*
Y112901D01*
X49753Y112305D01*
X49551Y111463D01*
X49483Y110600D01*
X49551Y109737D01*
X49753Y108895D01*
X50000Y108299D01*
Y92883D01*
X49878Y92620D01*
X49711Y92131D01*
X49591Y91628D01*
X49518Y91116D01*
X49494Y90600D01*
X49518Y90084D01*
X49591Y89572D01*
X49711Y89069D01*
X49878Y88580D01*
X50000Y88308D01*
Y75099D01*
X44265Y75086D01*
X44035Y75031D01*
X43817Y74941D01*
X43616Y74817D01*
X43436Y74664D01*
X43283Y74484D01*
X43159Y74283D01*
X43069Y74065D01*
X43014Y73835D01*
X43000Y73600D01*
X43014Y67365D01*
X43069Y67135D01*
X43159Y66917D01*
X43283Y66716D01*
X43436Y66536D01*
X43616Y66383D01*
X43817Y66259D01*
X44035Y66169D01*
X44265Y66114D01*
X44500Y66100D01*
X50000Y66112D01*
Y600D01*
X38750D01*
Y51136D01*
X39140Y51592D01*
X39559Y52277D01*
X39866Y53019D01*
X40054Y53800D01*
X40101Y54600D01*
X40054Y55400D01*
X39866Y56181D01*
X39559Y56923D01*
X39140Y57608D01*
X38750Y58064D01*
Y70848D01*
X38868Y70857D01*
X38982Y70885D01*
X39092Y70930D01*
X39192Y70991D01*
X39282Y71068D01*
X39359Y71158D01*
X39420Y71258D01*
X39465Y71368D01*
X39493Y71482D01*
X39500Y71600D01*
Y74600D01*
X39493Y74718D01*
X39465Y74832D01*
X39420Y74942D01*
X39359Y75042D01*
X39282Y75132D01*
X39192Y75209D01*
X39092Y75270D01*
X38982Y75315D01*
X38868Y75343D01*
X38750Y75352D01*
Y99792D01*
X39058Y100152D01*
X39469Y100823D01*
X39770Y101550D01*
X39954Y102315D01*
X40000Y103100D01*
X39954Y103885D01*
X39770Y104650D01*
X39469Y105377D01*
X39058Y106048D01*
X38750Y106408D01*
Y160600D01*
G37*
G36*
Y58064D02*X38618Y58218D01*
X38008Y58740D01*
X37323Y59159D01*
X36581Y59466D01*
X35800Y59654D01*
X35000Y59717D01*
X34992Y59716D01*
Y68600D01*
X36500D01*
X36618Y68607D01*
X36732Y68635D01*
X36842Y68680D01*
X36942Y68741D01*
X37032Y68818D01*
X37109Y68908D01*
X37170Y69008D01*
X37215Y69118D01*
X37243Y69232D01*
X37252Y69350D01*
X37243Y69468D01*
X37215Y69582D01*
X37170Y69692D01*
X37109Y69792D01*
X37032Y69882D01*
X36942Y69959D01*
X36842Y70020D01*
X36732Y70065D01*
X36618Y70093D01*
X36500Y70100D01*
X34992D01*
Y76100D01*
X36500D01*
X36618Y76107D01*
X36732Y76135D01*
X36842Y76180D01*
X36942Y76241D01*
X37032Y76318D01*
X37109Y76408D01*
X37170Y76508D01*
X37215Y76618D01*
X37243Y76732D01*
X37252Y76850D01*
X37243Y76968D01*
X37215Y77082D01*
X37170Y77192D01*
X37109Y77292D01*
X37032Y77382D01*
X36942Y77459D01*
X36842Y77520D01*
X36732Y77565D01*
X36618Y77593D01*
X36500Y77600D01*
X34992D01*
Y98085D01*
X35000Y98085D01*
X35785Y98146D01*
X36550Y98330D01*
X37277Y98631D01*
X37948Y99042D01*
X38546Y99554D01*
X38750Y99792D01*
Y75352D01*
X38632Y75343D01*
X38518Y75315D01*
X38408Y75270D01*
X38308Y75209D01*
X38218Y75132D01*
X38141Y75042D01*
X38080Y74942D01*
X38035Y74832D01*
X38007Y74718D01*
X38000Y74600D01*
Y71600D01*
X38007Y71482D01*
X38035Y71368D01*
X38080Y71258D01*
X38141Y71158D01*
X38218Y71068D01*
X38308Y70991D01*
X38408Y70930D01*
X38518Y70885D01*
X38632Y70857D01*
X38750Y70848D01*
Y58064D01*
G37*
G36*
Y600D02*X34992D01*
Y49484D01*
X35000Y49483D01*
X35800Y49546D01*
X36581Y49734D01*
X37323Y50041D01*
X38008Y50460D01*
X38618Y50982D01*
X38750Y51136D01*
Y600D01*
G37*
G36*
X34992Y160600D02*X38750D01*
Y106408D01*
X38546Y106646D01*
X37948Y107158D01*
X37277Y107569D01*
X36550Y107870D01*
X35785Y108054D01*
X35000Y108115D01*
X34992Y108115D01*
Y160600D01*
G37*
G36*
X31250Y51136D02*X31382Y50982D01*
X31992Y50460D01*
X32677Y50041D01*
X33419Y49734D01*
X34200Y49546D01*
X34992Y49484D01*
Y600D01*
X31250D01*
Y51136D01*
G37*
G36*
Y99792D02*X31454Y99554D01*
X32052Y99042D01*
X32723Y98631D01*
X33450Y98330D01*
X34215Y98146D01*
X34992Y98085D01*
Y77600D01*
X33500D01*
X33382Y77593D01*
X33268Y77565D01*
X33158Y77520D01*
X33058Y77459D01*
X32968Y77382D01*
X32891Y77292D01*
X32830Y77192D01*
X32785Y77082D01*
X32757Y76968D01*
X32748Y76850D01*
X32757Y76732D01*
X32785Y76618D01*
X32830Y76508D01*
X32891Y76408D01*
X32968Y76318D01*
X33058Y76241D01*
X33158Y76180D01*
X33268Y76135D01*
X33382Y76107D01*
X33500Y76100D01*
X34992D01*
Y70100D01*
X33500D01*
X33382Y70093D01*
X33268Y70065D01*
X33158Y70020D01*
X33058Y69959D01*
X32968Y69882D01*
X32891Y69792D01*
X32830Y69692D01*
X32785Y69582D01*
X32757Y69468D01*
X32748Y69350D01*
X32757Y69232D01*
X32785Y69118D01*
X32830Y69008D01*
X32891Y68908D01*
X32968Y68818D01*
X33058Y68741D01*
X33158Y68680D01*
X33268Y68635D01*
X33382Y68607D01*
X33500Y68600D01*
X34992D01*
Y59716D01*
X34200Y59654D01*
X33419Y59466D01*
X32677Y59159D01*
X31992Y58740D01*
X31382Y58218D01*
X31250Y58064D01*
Y70848D01*
X31368Y70857D01*
X31482Y70885D01*
X31592Y70930D01*
X31692Y70991D01*
X31782Y71068D01*
X31859Y71158D01*
X31920Y71258D01*
X31965Y71368D01*
X31993Y71482D01*
X32000Y71600D01*
Y74600D01*
X31993Y74718D01*
X31965Y74832D01*
X31920Y74942D01*
X31859Y75042D01*
X31782Y75132D01*
X31692Y75209D01*
X31592Y75270D01*
X31482Y75315D01*
X31368Y75343D01*
X31250Y75352D01*
Y99792D01*
G37*
G36*
Y160600D02*X34992D01*
Y108115D01*
X34215Y108054D01*
X33450Y107870D01*
X32723Y107569D01*
X32052Y107158D01*
X31454Y106646D01*
X31250Y106408D01*
Y114418D01*
X31559Y114546D01*
X32163Y114916D01*
X32702Y115376D01*
X33162Y115915D01*
X33532Y116519D01*
X33803Y117173D01*
X33968Y117862D01*
X34010Y118568D01*
X33968Y119274D01*
X33803Y119963D01*
X33532Y120617D01*
X33162Y121221D01*
X32702Y121760D01*
X32163Y122220D01*
X31559Y122590D01*
X31250Y122718D01*
Y160600D01*
G37*
G36*
Y106408D02*X30942Y106048D01*
X30531Y105377D01*
X30230Y104650D01*
X30046Y103885D01*
X29985Y103100D01*
X30046Y102315D01*
X30230Y101550D01*
X30531Y100823D01*
X30942Y100152D01*
X31250Y99792D01*
Y75352D01*
X31132Y75343D01*
X31018Y75315D01*
X30908Y75270D01*
X30808Y75209D01*
X30718Y75132D01*
X30641Y75042D01*
X30580Y74942D01*
X30535Y74832D01*
X30507Y74718D01*
X30500Y74600D01*
Y71600D01*
X30507Y71482D01*
X30535Y71368D01*
X30580Y71258D01*
X30641Y71158D01*
X30718Y71068D01*
X30808Y70991D01*
X30908Y70930D01*
X31018Y70885D01*
X31132Y70857D01*
X31250Y70848D01*
Y58064D01*
X30860Y57608D01*
X30441Y56923D01*
X30134Y56181D01*
X29946Y55400D01*
X29883Y54600D01*
X29946Y53800D01*
X30134Y53019D01*
X30441Y52277D01*
X30860Y51592D01*
X31250Y51136D01*
Y600D01*
X29503D01*
Y114055D01*
X29510Y114054D01*
X30216Y114110D01*
X30905Y114275D01*
X31250Y114418D01*
Y106408D01*
G37*
G36*
X29503Y160600D02*X31250D01*
Y122718D01*
X30905Y122861D01*
X30216Y123026D01*
X29510Y123082D01*
X29503Y123081D01*
Y160600D01*
G37*
G36*
X19513D02*X29503D01*
Y123081D01*
X28804Y123026D01*
X28115Y122861D01*
X27461Y122590D01*
X26857Y122220D01*
X26318Y121760D01*
X25858Y121221D01*
X25488Y120617D01*
X25217Y119963D01*
X25052Y119274D01*
X24996Y118568D01*
X25052Y117862D01*
X25217Y117173D01*
X25488Y116519D01*
X25858Y115915D01*
X26318Y115376D01*
X26857Y114916D01*
X27461Y114546D01*
X28115Y114275D01*
X28804Y114110D01*
X29503Y114055D01*
Y600D01*
X19513D01*
Y78453D01*
X19556Y78460D01*
X19668Y78497D01*
X19773Y78552D01*
X19868Y78622D01*
X19951Y78706D01*
X20019Y78802D01*
X20070Y78908D01*
X20218Y79316D01*
X20322Y79737D01*
X20384Y80167D01*
X20405Y80600D01*
X20384Y81033D01*
X20322Y81463D01*
X20218Y81884D01*
X20075Y82294D01*
X20022Y82400D01*
X19953Y82496D01*
X19870Y82581D01*
X19775Y82651D01*
X19669Y82706D01*
X19557Y82743D01*
X19513Y82751D01*
Y86230D01*
X19583Y86259D01*
X19784Y86383D01*
X19964Y86536D01*
X20117Y86716D01*
X20241Y86917D01*
X20331Y87135D01*
X20386Y87365D01*
X20400Y87600D01*
X20386Y93835D01*
X20331Y94065D01*
X20241Y94283D01*
X20117Y94484D01*
X19964Y94664D01*
X19784Y94817D01*
X19583Y94941D01*
X19513Y94970D01*
Y128741D01*
X19585Y128826D01*
X19709Y129027D01*
X19799Y129245D01*
X19854Y129475D01*
X19868Y129710D01*
X19854Y135945D01*
X19799Y136175D01*
X19709Y136393D01*
X19585Y136594D01*
X19513Y136679D01*
Y160600D01*
G37*
G36*
Y94970D02*X19365Y95031D01*
X19135Y95086D01*
X18900Y95100D01*
X15368Y95092D01*
Y128217D01*
X18603Y128224D01*
X18833Y128279D01*
X19051Y128369D01*
X19252Y128493D01*
X19432Y128646D01*
X19513Y128741D01*
Y94970D01*
G37*
G36*
Y600D02*X15368D01*
Y6920D01*
X15809Y7640D01*
X16201Y8585D01*
X16440Y9580D01*
X16500Y10600D01*
X16440Y11620D01*
X16201Y12615D01*
X15809Y13560D01*
X15368Y14280D01*
Y76130D01*
X15467Y76116D01*
X15900Y76095D01*
X16333Y76116D01*
X16763Y76178D01*
X17184Y76282D01*
X17594Y76425D01*
X17700Y76478D01*
X17796Y76547D01*
X17881Y76630D01*
X17951Y76725D01*
X18006Y76831D01*
X18043Y76943D01*
X18063Y77060D01*
X18064Y77179D01*
X18046Y77296D01*
X18010Y77409D01*
X17957Y77515D01*
X17888Y77612D01*
X17805Y77696D01*
X17709Y77767D01*
X17604Y77821D01*
X17492Y77859D01*
X17375Y77878D01*
X17256Y77879D01*
X17139Y77861D01*
X17026Y77823D01*
X16755Y77724D01*
X16475Y77656D01*
X16189Y77614D01*
X15900Y77600D01*
X15611Y77614D01*
X15368Y77649D01*
Y83551D01*
X15611Y83586D01*
X15900Y83600D01*
X16189Y83586D01*
X16475Y83544D01*
X16755Y83476D01*
X17028Y83380D01*
X17139Y83342D01*
X17256Y83325D01*
X17374Y83325D01*
X17491Y83345D01*
X17603Y83382D01*
X17707Y83436D01*
X17802Y83506D01*
X17885Y83591D01*
X17954Y83687D01*
X18007Y83792D01*
X18043Y83905D01*
X18060Y84021D01*
X18059Y84139D01*
X18040Y84256D01*
X18003Y84368D01*
X17948Y84473D01*
X17878Y84568D01*
X17794Y84651D01*
X17698Y84719D01*
X17592Y84770D01*
X17184Y84918D01*
X16763Y85022D01*
X16333Y85084D01*
X15900Y85105D01*
X15467Y85084D01*
X15368Y85070D01*
Y86106D01*
X19135Y86114D01*
X19365Y86169D01*
X19513Y86230D01*
Y82751D01*
X19440Y82763D01*
X19321Y82764D01*
X19204Y82746D01*
X19091Y82710D01*
X18985Y82657D01*
X18888Y82588D01*
X18804Y82505D01*
X18733Y82409D01*
X18679Y82304D01*
X18641Y82192D01*
X18622Y82075D01*
X18621Y81956D01*
X18639Y81839D01*
X18677Y81726D01*
X18776Y81455D01*
X18844Y81175D01*
X18886Y80889D01*
X18900Y80600D01*
X18886Y80311D01*
X18844Y80025D01*
X18776Y79745D01*
X18680Y79472D01*
X18642Y79361D01*
X18625Y79244D01*
X18625Y79126D01*
X18645Y79009D01*
X18682Y78897D01*
X18736Y78793D01*
X18806Y78698D01*
X18891Y78615D01*
X18987Y78546D01*
X19092Y78493D01*
X19205Y78457D01*
X19321Y78440D01*
X19439Y78441D01*
X19513Y78453D01*
Y600D01*
G37*
G36*
X15368Y160600D02*X19513D01*
Y136679D01*
X19432Y136774D01*
X19252Y136927D01*
X19051Y137051D01*
X18833Y137141D01*
X18603Y137196D01*
X18368Y137210D01*
X15368Y137203D01*
Y146920D01*
X15809Y147640D01*
X16201Y148585D01*
X16440Y149580D01*
X16500Y150600D01*
X16440Y151620D01*
X16201Y152615D01*
X15809Y153560D01*
X15368Y154280D01*
Y160600D01*
G37*
G36*
X12287Y4512D02*X12960Y4791D01*
X13832Y5325D01*
X14610Y5990D01*
X15275Y6768D01*
X15368Y6920D01*
Y600D01*
X12287D01*
Y4512D01*
G37*
G36*
Y86230D02*X12435Y86169D01*
X12665Y86114D01*
X12900Y86100D01*
X15368Y86106D01*
Y85070D01*
X15037Y85022D01*
X14616Y84918D01*
X14206Y84775D01*
X14100Y84722D01*
X14004Y84653D01*
X13919Y84570D01*
X13849Y84475D01*
X13794Y84369D01*
X13757Y84257D01*
X13737Y84140D01*
X13736Y84021D01*
X13754Y83904D01*
X13790Y83791D01*
X13843Y83685D01*
X13912Y83588D01*
X13995Y83504D01*
X14091Y83433D01*
X14196Y83379D01*
X14308Y83341D01*
X14425Y83322D01*
X14544Y83321D01*
X14661Y83339D01*
X14774Y83377D01*
X15045Y83476D01*
X15325Y83544D01*
X15368Y83551D01*
Y77649D01*
X15325Y77656D01*
X15045Y77724D01*
X14772Y77820D01*
X14661Y77858D01*
X14544Y77875D01*
X14426Y77875D01*
X14309Y77855D01*
X14197Y77818D01*
X14093Y77764D01*
X13998Y77694D01*
X13915Y77609D01*
X13846Y77513D01*
X13793Y77408D01*
X13757Y77295D01*
X13740Y77179D01*
X13741Y77061D01*
X13760Y76944D01*
X13797Y76832D01*
X13852Y76727D01*
X13922Y76632D01*
X14006Y76549D01*
X14102Y76481D01*
X14208Y76430D01*
X14616Y76282D01*
X15037Y76178D01*
X15368Y76130D01*
Y14280D01*
X15275Y14432D01*
X14610Y15210D01*
X13832Y15875D01*
X12960Y16409D01*
X12287Y16688D01*
Y78449D01*
X12360Y78437D01*
X12479Y78436D01*
X12596Y78454D01*
X12709Y78490D01*
X12815Y78543D01*
X12912Y78612D01*
X12996Y78695D01*
X13067Y78791D01*
X13121Y78896D01*
X13159Y79008D01*
X13178Y79125D01*
X13179Y79244D01*
X13161Y79361D01*
X13123Y79474D01*
X13024Y79745D01*
X12956Y80025D01*
X12914Y80311D01*
X12900Y80600D01*
X12914Y80889D01*
X12956Y81175D01*
X13024Y81455D01*
X13120Y81728D01*
X13158Y81839D01*
X13175Y81956D01*
X13175Y82074D01*
X13155Y82191D01*
X13118Y82303D01*
X13064Y82407D01*
X12994Y82502D01*
X12909Y82585D01*
X12813Y82654D01*
X12708Y82707D01*
X12595Y82743D01*
X12479Y82760D01*
X12361Y82759D01*
X12287Y82747D01*
Y86230D01*
G37*
G36*
Y128215D02*X12368Y128210D01*
X15368Y128217D01*
Y95092D01*
X12665Y95086D01*
X12435Y95031D01*
X12287Y94970D01*
Y128215D01*
G37*
G36*
Y144512D02*X12960Y144791D01*
X13832Y145325D01*
X14610Y145990D01*
X15275Y146768D01*
X15368Y146920D01*
Y137203D01*
X12287Y137196D01*
Y144512D01*
G37*
G36*
Y160600D02*X15368D01*
Y154280D01*
X15275Y154432D01*
X14610Y155210D01*
X13832Y155875D01*
X12960Y156409D01*
X12287Y156688D01*
Y160600D01*
G37*
G36*
X0D02*X12287D01*
Y156688D01*
X12015Y156801D01*
X11020Y157040D01*
X10000Y157120D01*
X8980Y157040D01*
X7985Y156801D01*
X7040Y156409D01*
X6168Y155875D01*
X5390Y155210D01*
X4725Y154432D01*
X4191Y153560D01*
X3799Y152615D01*
X3560Y151620D01*
X3480Y150600D01*
X3560Y149580D01*
X3799Y148585D01*
X4191Y147640D01*
X4725Y146768D01*
X5390Y145990D01*
X6168Y145325D01*
X7040Y144791D01*
X7985Y144399D01*
X8980Y144160D01*
X10000Y144080D01*
X11020Y144160D01*
X12015Y144399D01*
X12287Y144512D01*
Y137196D01*
X12133Y137196D01*
X11903Y137141D01*
X11685Y137051D01*
X11484Y136927D01*
X11304Y136774D01*
X11151Y136594D01*
X11027Y136393D01*
X10937Y136175D01*
X10882Y135945D01*
X10868Y135710D01*
X10882Y129475D01*
X10937Y129245D01*
X11027Y129027D01*
X11151Y128826D01*
X11304Y128646D01*
X11484Y128493D01*
X11685Y128369D01*
X11903Y128279D01*
X12133Y128224D01*
X12287Y128215D01*
Y94970D01*
X12217Y94941D01*
X12016Y94817D01*
X11836Y94664D01*
X11683Y94484D01*
X11559Y94283D01*
X11469Y94065D01*
X11414Y93835D01*
X11400Y93600D01*
X11414Y87365D01*
X11469Y87135D01*
X11559Y86917D01*
X11683Y86716D01*
X11836Y86536D01*
X12016Y86383D01*
X12217Y86259D01*
X12287Y86230D01*
Y82747D01*
X12244Y82740D01*
X12132Y82703D01*
X12027Y82648D01*
X11932Y82578D01*
X11849Y82494D01*
X11781Y82398D01*
X11730Y82292D01*
X11582Y81884D01*
X11478Y81463D01*
X11416Y81033D01*
X11395Y80600D01*
X11416Y80167D01*
X11478Y79737D01*
X11582Y79316D01*
X11725Y78906D01*
X11778Y78800D01*
X11847Y78704D01*
X11930Y78619D01*
X12025Y78549D01*
X12131Y78494D01*
X12243Y78457D01*
X12287Y78449D01*
Y16688D01*
X12015Y16801D01*
X11020Y17040D01*
X10000Y17120D01*
X8980Y17040D01*
X7985Y16801D01*
X7040Y16409D01*
X6168Y15875D01*
X5390Y15210D01*
X4725Y14432D01*
X4191Y13560D01*
X3799Y12615D01*
X3560Y11620D01*
X3480Y10600D01*
X3560Y9580D01*
X3799Y8585D01*
X4191Y7640D01*
X4725Y6768D01*
X5390Y5990D01*
X6168Y5325D01*
X7040Y4791D01*
X7985Y4399D01*
X8980Y4160D01*
X10000Y4080D01*
X11020Y4160D01*
X12015Y4399D01*
X12287Y4512D01*
Y600D01*
X0D01*
Y160600D01*
G37*
G36*
X250500D02*X260500D01*
Y600D01*
X250500D01*
Y4080D01*
X251520Y4160D01*
X252515Y4399D01*
X253460Y4791D01*
X254332Y5325D01*
X255110Y5990D01*
X255775Y6768D01*
X256309Y7640D01*
X256701Y8585D01*
X256940Y9580D01*
X257000Y10600D01*
X256940Y11620D01*
X256701Y12615D01*
X256309Y13560D01*
X255775Y14432D01*
X255110Y15210D01*
X254332Y15875D01*
X253460Y16409D01*
X252515Y16801D01*
X251520Y17040D01*
X250500Y17120D01*
Y90685D01*
X251269Y90745D01*
X252019Y90925D01*
X252731Y91221D01*
X253389Y91624D01*
X253976Y92124D01*
X254476Y92711D01*
X254879Y93369D01*
X255175Y94081D01*
X255355Y94831D01*
X255400Y95600D01*
X255355Y96369D01*
X255175Y97119D01*
X254879Y97831D01*
X254476Y98489D01*
X253976Y99076D01*
X253389Y99576D01*
X252731Y99979D01*
X252019Y100275D01*
X251269Y100455D01*
X250500Y100515D01*
Y130707D01*
X254135Y130714D01*
X254365Y130769D01*
X254583Y130859D01*
X254784Y130983D01*
X254964Y131136D01*
X255117Y131316D01*
X255241Y131517D01*
X255331Y131735D01*
X255386Y131965D01*
X255400Y132200D01*
X255386Y139235D01*
X255331Y139465D01*
X255241Y139683D01*
X255117Y139884D01*
X254964Y140064D01*
X254784Y140217D01*
X254583Y140341D01*
X254365Y140431D01*
X254135Y140486D01*
X253900Y140500D01*
X250500Y140493D01*
Y144080D01*
X251520Y144160D01*
X252515Y144399D01*
X253460Y144791D01*
X254332Y145325D01*
X255110Y145990D01*
X255775Y146768D01*
X256309Y147640D01*
X256701Y148585D01*
X256940Y149580D01*
X257000Y150600D01*
X256940Y151620D01*
X256701Y152615D01*
X256309Y153560D01*
X255775Y154432D01*
X255110Y155210D01*
X254332Y155875D01*
X253460Y156409D01*
X252515Y156801D01*
X251520Y157040D01*
X250500Y157120D01*
Y160600D01*
G37*
G36*
X240492D02*X250500D01*
Y157120D01*
X249480Y157040D01*
X248485Y156801D01*
X247540Y156409D01*
X246668Y155875D01*
X245890Y155210D01*
X245225Y154432D01*
X244691Y153560D01*
X244299Y152615D01*
X244060Y151620D01*
X243980Y150600D01*
X244060Y149580D01*
X244299Y148585D01*
X244691Y147640D01*
X245225Y146768D01*
X245890Y145990D01*
X246668Y145325D01*
X247540Y144791D01*
X248485Y144399D01*
X249480Y144160D01*
X250500Y144080D01*
Y140493D01*
X246865Y140486D01*
X246635Y140431D01*
X246417Y140341D01*
X246216Y140217D01*
X246036Y140064D01*
X245883Y139884D01*
X245759Y139683D01*
X245669Y139465D01*
X245614Y139235D01*
X245600Y139000D01*
X245614Y131965D01*
X245669Y131735D01*
X245759Y131517D01*
X245883Y131316D01*
X246036Y131136D01*
X246216Y130983D01*
X246417Y130859D01*
X246635Y130769D01*
X246865Y130714D01*
X247100Y130700D01*
X250500Y130707D01*
Y100515D01*
X249731Y100455D01*
X248981Y100275D01*
X248269Y99979D01*
X247611Y99576D01*
X247024Y99076D01*
X246524Y98489D01*
X246121Y97831D01*
X245825Y97119D01*
X245645Y96369D01*
X245585Y95600D01*
X245645Y94831D01*
X245825Y94081D01*
X246121Y93369D01*
X246524Y92711D01*
X247024Y92124D01*
X247611Y91624D01*
X248269Y91221D01*
X248981Y90925D01*
X249731Y90745D01*
X250500Y90685D01*
Y17120D01*
X249480Y17040D01*
X248485Y16801D01*
X247540Y16409D01*
X246668Y15875D01*
X245890Y15210D01*
X245225Y14432D01*
X244691Y13560D01*
X244299Y12615D01*
X244060Y11620D01*
X243980Y10600D01*
X244060Y9580D01*
X244299Y8585D01*
X244691Y7640D01*
X245225Y6768D01*
X245890Y5990D01*
X246668Y5325D01*
X247540Y4791D01*
X248485Y4399D01*
X249480Y4160D01*
X250500Y4080D01*
Y600D01*
X240492D01*
Y50685D01*
X240500Y50685D01*
X241269Y50745D01*
X242019Y50925D01*
X242731Y51221D01*
X243389Y51624D01*
X243976Y52124D01*
X244476Y52711D01*
X244879Y53369D01*
X245175Y54081D01*
X245355Y54831D01*
X245400Y55600D01*
X245355Y56369D01*
X245175Y57119D01*
X244879Y57831D01*
X244476Y58489D01*
X243976Y59076D01*
X243389Y59576D01*
X242731Y59979D01*
X242019Y60275D01*
X241269Y60455D01*
X240500Y60515D01*
X240492Y60515D01*
Y78185D01*
X240500Y78185D01*
X241269Y78245D01*
X242019Y78425D01*
X242731Y78721D01*
X243389Y79124D01*
X243976Y79624D01*
X244476Y80211D01*
X244879Y80869D01*
X245175Y81581D01*
X245355Y82331D01*
X245400Y83100D01*
X245355Y83869D01*
X245175Y84619D01*
X244879Y85331D01*
X244476Y85989D01*
X243976Y86576D01*
X243389Y87076D01*
X242731Y87479D01*
X242019Y87775D01*
X241269Y87955D01*
X240500Y88015D01*
X240492Y88015D01*
Y160600D01*
G37*
G36*
X235493D02*X240492D01*
Y88015D01*
X239731Y87955D01*
X238981Y87775D01*
X238269Y87479D01*
X237611Y87076D01*
X237024Y86576D01*
X236524Y85989D01*
X236121Y85331D01*
X235825Y84619D01*
X235645Y83869D01*
X235585Y83100D01*
X235645Y82331D01*
X235825Y81581D01*
X236121Y80869D01*
X236524Y80211D01*
X237024Y79624D01*
X237611Y79124D01*
X238269Y78721D01*
X238981Y78425D01*
X239731Y78245D01*
X240492Y78185D01*
Y60515D01*
X239731Y60455D01*
X238981Y60275D01*
X238269Y59979D01*
X237611Y59576D01*
X237024Y59076D01*
X236524Y58489D01*
X236121Y57831D01*
X235825Y57119D01*
X235645Y56369D01*
X235585Y55600D01*
X235645Y54831D01*
X235825Y54081D01*
X236121Y53369D01*
X236524Y52711D01*
X237024Y52124D01*
X237611Y51624D01*
X238269Y51221D01*
X238981Y50925D01*
X239731Y50745D01*
X240492Y50685D01*
Y600D01*
X235493D01*
Y96087D01*
X235500Y96086D01*
X236206Y96142D01*
X236895Y96307D01*
X237549Y96578D01*
X238153Y96948D01*
X238692Y97408D01*
X239152Y97947D01*
X239522Y98551D01*
X239793Y99205D01*
X239958Y99894D01*
X240000Y100600D01*
X239958Y101306D01*
X239793Y101995D01*
X239522Y102649D01*
X239152Y103253D01*
X238692Y103792D01*
X238153Y104252D01*
X237549Y104622D01*
X236895Y104893D01*
X236206Y105058D01*
X235500Y105114D01*
X235493Y105113D01*
Y106087D01*
X235500Y106086D01*
X236206Y106142D01*
X236895Y106307D01*
X237549Y106578D01*
X238153Y106948D01*
X238692Y107408D01*
X239152Y107947D01*
X239522Y108551D01*
X239793Y109205D01*
X239958Y109894D01*
X240000Y110600D01*
X239958Y111306D01*
X239793Y111995D01*
X239522Y112649D01*
X239152Y113253D01*
X238692Y113792D01*
X238153Y114252D01*
X237549Y114622D01*
X236895Y114893D01*
X236206Y115058D01*
X235500Y115114D01*
X235493Y115113D01*
Y116087D01*
X235500Y116086D01*
X236206Y116142D01*
X236895Y116307D01*
X237549Y116578D01*
X238153Y116948D01*
X238692Y117408D01*
X239152Y117947D01*
X239522Y118551D01*
X239793Y119205D01*
X239958Y119894D01*
X240000Y120600D01*
X239958Y121306D01*
X239793Y121995D01*
X239522Y122649D01*
X239152Y123253D01*
X238692Y123792D01*
X238153Y124252D01*
X237549Y124622D01*
X236895Y124893D01*
X236206Y125058D01*
X235500Y125114D01*
X235493Y125113D01*
Y126087D01*
X235500Y126086D01*
X236206Y126142D01*
X236895Y126307D01*
X237549Y126578D01*
X238153Y126948D01*
X238692Y127408D01*
X239152Y127947D01*
X239522Y128551D01*
X239793Y129205D01*
X239958Y129894D01*
X240000Y130600D01*
X239958Y131306D01*
X239793Y131995D01*
X239522Y132649D01*
X239152Y133253D01*
X238692Y133792D01*
X238153Y134252D01*
X237549Y134622D01*
X236895Y134893D01*
X236206Y135058D01*
X235500Y135114D01*
X235493Y135113D01*
Y160600D01*
G37*
G36*
X209113D02*X235493D01*
Y135113D01*
X234794Y135058D01*
X234105Y134893D01*
X233451Y134622D01*
X232847Y134252D01*
X232308Y133792D01*
X231848Y133253D01*
X231478Y132649D01*
X231207Y131995D01*
X231042Y131306D01*
X230986Y130600D01*
X231042Y129894D01*
X231207Y129205D01*
X231478Y128551D01*
X231848Y127947D01*
X232308Y127408D01*
X232847Y126948D01*
X233451Y126578D01*
X234105Y126307D01*
X234794Y126142D01*
X235493Y126087D01*
Y125113D01*
X234794Y125058D01*
X234105Y124893D01*
X233451Y124622D01*
X232847Y124252D01*
X232308Y123792D01*
X231848Y123253D01*
X231478Y122649D01*
X231207Y121995D01*
X231042Y121306D01*
X230986Y120600D01*
X231042Y119894D01*
X231207Y119205D01*
X231478Y118551D01*
X231848Y117947D01*
X232308Y117408D01*
X232847Y116948D01*
X233451Y116578D01*
X234105Y116307D01*
X234794Y116142D01*
X235493Y116087D01*
Y115113D01*
X234794Y115058D01*
X234105Y114893D01*
X233451Y114622D01*
X232847Y114252D01*
X232308Y113792D01*
X231848Y113253D01*
X231478Y112649D01*
X231207Y111995D01*
X231042Y111306D01*
X230986Y110600D01*
X231042Y109894D01*
X231207Y109205D01*
X231478Y108551D01*
X231848Y107947D01*
X232308Y107408D01*
X232847Y106948D01*
X233451Y106578D01*
X234105Y106307D01*
X234794Y106142D01*
X235493Y106087D01*
Y105113D01*
X234794Y105058D01*
X234105Y104893D01*
X233451Y104622D01*
X232847Y104252D01*
X232308Y103792D01*
X231848Y103253D01*
X231478Y102649D01*
X231207Y101995D01*
X231042Y101306D01*
X230986Y100600D01*
X231042Y99894D01*
X231207Y99205D01*
X231478Y98551D01*
X231848Y97947D01*
X232308Y97408D01*
X232847Y96948D01*
X233451Y96578D01*
X234105Y96307D01*
X234794Y96142D01*
X235493Y96087D01*
Y600D01*
X209113D01*
Y98453D01*
X209156Y98460D01*
X209268Y98497D01*
X209373Y98552D01*
X209468Y98622D01*
X209551Y98706D01*
X209619Y98802D01*
X209670Y98908D01*
X209818Y99316D01*
X209922Y99737D01*
X209984Y100167D01*
X210005Y100600D01*
X209984Y101033D01*
X209922Y101463D01*
X209818Y101884D01*
X209675Y102294D01*
X209622Y102400D01*
X209553Y102496D01*
X209470Y102581D01*
X209375Y102651D01*
X209269Y102706D01*
X209157Y102743D01*
X209113Y102751D01*
Y107902D01*
X209152Y107947D01*
X209522Y108551D01*
X209793Y109205D01*
X209958Y109894D01*
X210000Y110600D01*
X209958Y111306D01*
X209793Y111995D01*
X209522Y112649D01*
X209152Y113253D01*
X209113Y113298D01*
Y117902D01*
X209152Y117947D01*
X209522Y118551D01*
X209793Y119205D01*
X209958Y119894D01*
X210000Y120600D01*
X209958Y121306D01*
X209793Y121995D01*
X209522Y122649D01*
X209152Y123253D01*
X209113Y123298D01*
Y126230D01*
X209183Y126259D01*
X209384Y126383D01*
X209564Y126536D01*
X209717Y126716D01*
X209841Y126917D01*
X209931Y127135D01*
X209986Y127365D01*
X210000Y127600D01*
X209986Y133835D01*
X209931Y134065D01*
X209841Y134283D01*
X209717Y134484D01*
X209564Y134664D01*
X209384Y134817D01*
X209183Y134941D01*
X209113Y134970D01*
Y160600D01*
G37*
G36*
Y123298D02*X208692Y123792D01*
X208153Y124252D01*
X207549Y124622D01*
X206895Y124893D01*
X206206Y125058D01*
X205500Y125114D01*
Y126107D01*
X208735Y126114D01*
X208965Y126169D01*
X209113Y126230D01*
Y123298D01*
G37*
G36*
Y113298D02*X208692Y113792D01*
X208153Y114252D01*
X207549Y114622D01*
X206895Y114893D01*
X206206Y115058D01*
X205500Y115114D01*
Y116086D01*
X206206Y116142D01*
X206895Y116307D01*
X207549Y116578D01*
X208153Y116948D01*
X208692Y117408D01*
X209113Y117902D01*
Y113298D01*
G37*
G36*
Y600D02*X205500D01*
Y96095D01*
X205933Y96116D01*
X206363Y96178D01*
X206784Y96282D01*
X207194Y96425D01*
X207300Y96478D01*
X207396Y96547D01*
X207481Y96630D01*
X207551Y96725D01*
X207606Y96831D01*
X207643Y96943D01*
X207663Y97060D01*
X207664Y97179D01*
X207646Y97296D01*
X207610Y97409D01*
X207557Y97515D01*
X207488Y97612D01*
X207405Y97696D01*
X207309Y97767D01*
X207204Y97821D01*
X207092Y97859D01*
X206975Y97878D01*
X206856Y97879D01*
X206739Y97861D01*
X206626Y97823D01*
X206355Y97724D01*
X206075Y97656D01*
X205789Y97614D01*
X205500Y97600D01*
Y103600D01*
X205789Y103586D01*
X206075Y103544D01*
X206355Y103476D01*
X206628Y103380D01*
X206739Y103342D01*
X206856Y103325D01*
X206974Y103325D01*
X207091Y103345D01*
X207203Y103382D01*
X207307Y103436D01*
X207402Y103506D01*
X207485Y103591D01*
X207554Y103687D01*
X207607Y103792D01*
X207643Y103905D01*
X207660Y104021D01*
X207659Y104139D01*
X207640Y104256D01*
X207603Y104368D01*
X207548Y104473D01*
X207478Y104568D01*
X207394Y104651D01*
X207298Y104719D01*
X207192Y104770D01*
X206784Y104918D01*
X206363Y105022D01*
X205933Y105084D01*
X205500Y105105D01*
Y106086D01*
X206206Y106142D01*
X206895Y106307D01*
X207549Y106578D01*
X208153Y106948D01*
X208692Y107408D01*
X209113Y107902D01*
Y102751D01*
X209040Y102763D01*
X208921Y102764D01*
X208804Y102746D01*
X208691Y102710D01*
X208585Y102657D01*
X208488Y102588D01*
X208404Y102505D01*
X208333Y102409D01*
X208279Y102304D01*
X208241Y102192D01*
X208222Y102075D01*
X208221Y101956D01*
X208239Y101839D01*
X208277Y101726D01*
X208376Y101455D01*
X208444Y101175D01*
X208486Y100889D01*
X208500Y100600D01*
X208486Y100311D01*
X208444Y100025D01*
X208376Y99745D01*
X208280Y99472D01*
X208242Y99361D01*
X208225Y99244D01*
X208225Y99126D01*
X208245Y99009D01*
X208282Y98897D01*
X208336Y98793D01*
X208406Y98698D01*
X208491Y98615D01*
X208587Y98546D01*
X208692Y98493D01*
X208805Y98457D01*
X208921Y98440D01*
X209039Y98441D01*
X209113Y98453D01*
Y600D01*
G37*
G36*
X205500Y160600D02*X209113D01*
Y134970D01*
X208965Y135031D01*
X208735Y135086D01*
X208500Y135100D01*
X205500Y135093D01*
Y160600D01*
G37*
G36*
X204650Y96176D02*X205067Y96116D01*
X205500Y96095D01*
Y600D01*
X204650D01*
Y52948D01*
X204768Y52957D01*
X204882Y52985D01*
X204992Y53030D01*
X205092Y53091D01*
X205182Y53168D01*
X205259Y53258D01*
X205320Y53358D01*
X205365Y53468D01*
X205393Y53582D01*
X205400Y53700D01*
Y57500D01*
X205393Y57618D01*
X205365Y57732D01*
X205320Y57842D01*
X205259Y57942D01*
X205182Y58032D01*
X205092Y58109D01*
X204992Y58170D01*
X204882Y58215D01*
X204768Y58243D01*
X204650Y58252D01*
Y78400D01*
X204784Y78483D01*
X204964Y78636D01*
X205117Y78816D01*
X205241Y79017D01*
X205331Y79235D01*
X205386Y79465D01*
X205400Y79700D01*
X205386Y86735D01*
X205331Y86965D01*
X205241Y87183D01*
X205117Y87384D01*
X204964Y87564D01*
X204784Y87717D01*
X204650Y87800D01*
Y96176D01*
G37*
G36*
Y103477D02*X204925Y103544D01*
X205211Y103586D01*
X205500Y103600D01*
Y97600D01*
X205211Y97614D01*
X204925Y97656D01*
X204650Y97723D01*
Y103477D01*
G37*
G36*
Y106176D02*X204794Y106142D01*
X205500Y106086D01*
Y105105D01*
X205067Y105084D01*
X204650Y105024D01*
Y106176D01*
G37*
G36*
Y600D02*X201887D01*
Y50700D01*
X202400D01*
X202518Y50707D01*
X202632Y50735D01*
X202742Y50780D01*
X202842Y50841D01*
X202932Y50918D01*
X203009Y51008D01*
X203070Y51108D01*
X203115Y51218D01*
X203143Y51332D01*
X203152Y51450D01*
X203143Y51568D01*
X203115Y51682D01*
X203070Y51792D01*
X203009Y51892D01*
X202932Y51982D01*
X202842Y52059D01*
X202742Y52120D01*
X202632Y52165D01*
X202518Y52193D01*
X202400Y52200D01*
X201887D01*
Y59000D01*
X202400D01*
X202518Y59007D01*
X202632Y59035D01*
X202742Y59080D01*
X202842Y59141D01*
X202932Y59218D01*
X203009Y59308D01*
X203070Y59408D01*
X203115Y59518D01*
X203143Y59632D01*
X203152Y59750D01*
X203143Y59868D01*
X203115Y59982D01*
X203070Y60092D01*
X203009Y60192D01*
X202932Y60282D01*
X202842Y60359D01*
X202742Y60420D01*
X202632Y60465D01*
X202518Y60493D01*
X202400Y60500D01*
X201887D01*
Y78209D01*
X204135Y78214D01*
X204365Y78269D01*
X204583Y78359D01*
X204650Y78400D01*
Y58252D01*
X204532Y58243D01*
X204418Y58215D01*
X204308Y58170D01*
X204208Y58109D01*
X204118Y58032D01*
X204041Y57942D01*
X203980Y57842D01*
X203935Y57732D01*
X203907Y57618D01*
X203900Y57500D01*
Y53700D01*
X203907Y53582D01*
X203935Y53468D01*
X203980Y53358D01*
X204041Y53258D01*
X204118Y53168D01*
X204208Y53091D01*
X204308Y53030D01*
X204418Y52985D01*
X204532Y52957D01*
X204650Y52948D01*
Y600D01*
G37*
G36*
X201887Y107902D02*X202308Y107408D01*
X202847Y106948D01*
X203451Y106578D01*
X204105Y106307D01*
X204650Y106176D01*
Y105024D01*
X204637Y105022D01*
X204216Y104918D01*
X203806Y104775D01*
X203700Y104722D01*
X203604Y104653D01*
X203519Y104570D01*
X203449Y104475D01*
X203394Y104369D01*
X203357Y104257D01*
X203337Y104140D01*
X203336Y104021D01*
X203354Y103904D01*
X203390Y103791D01*
X203443Y103685D01*
X203512Y103588D01*
X203595Y103504D01*
X203691Y103433D01*
X203796Y103379D01*
X203908Y103341D01*
X204025Y103322D01*
X204144Y103321D01*
X204261Y103339D01*
X204374Y103377D01*
X204645Y103476D01*
X204650Y103477D01*
Y97723D01*
X204645Y97724D01*
X204372Y97820D01*
X204261Y97858D01*
X204144Y97875D01*
X204026Y97875D01*
X203909Y97855D01*
X203797Y97818D01*
X203693Y97764D01*
X203598Y97694D01*
X203515Y97609D01*
X203446Y97513D01*
X203393Y97408D01*
X203357Y97295D01*
X203340Y97179D01*
X203341Y97061D01*
X203360Y96944D01*
X203397Y96832D01*
X203452Y96727D01*
X203522Y96632D01*
X203606Y96549D01*
X203702Y96481D01*
X203808Y96430D01*
X204216Y96282D01*
X204637Y96178D01*
X204650Y96176D01*
Y87800D01*
X204583Y87841D01*
X204365Y87931D01*
X204135Y87986D01*
X203900Y88000D01*
X201887Y87996D01*
Y98449D01*
X201960Y98437D01*
X202079Y98436D01*
X202196Y98454D01*
X202309Y98490D01*
X202415Y98543D01*
X202512Y98612D01*
X202596Y98695D01*
X202667Y98791D01*
X202721Y98896D01*
X202759Y99008D01*
X202778Y99125D01*
X202779Y99244D01*
X202761Y99361D01*
X202723Y99474D01*
X202624Y99745D01*
X202556Y100025D01*
X202514Y100311D01*
X202500Y100600D01*
X202514Y100889D01*
X202556Y101175D01*
X202624Y101455D01*
X202720Y101728D01*
X202758Y101839D01*
X202775Y101956D01*
X202775Y102074D01*
X202755Y102191D01*
X202718Y102303D01*
X202664Y102407D01*
X202594Y102502D01*
X202509Y102585D01*
X202413Y102654D01*
X202308Y102707D01*
X202195Y102743D01*
X202079Y102760D01*
X201961Y102759D01*
X201887Y102747D01*
Y107902D01*
G37*
G36*
Y117902D02*X202308Y117408D01*
X202847Y116948D01*
X203451Y116578D01*
X204105Y116307D01*
X204794Y116142D01*
X205500Y116086D01*
Y115114D01*
X204794Y115058D01*
X204105Y114893D01*
X203451Y114622D01*
X202847Y114252D01*
X202308Y113792D01*
X201887Y113298D01*
Y117902D01*
G37*
G36*
Y126230D02*X202035Y126169D01*
X202265Y126114D01*
X202500Y126100D01*
X205500Y126107D01*
Y125114D01*
X204794Y125058D01*
X204105Y124893D01*
X203451Y124622D01*
X202847Y124252D01*
X202308Y123792D01*
X201887Y123298D01*
Y126230D01*
G37*
G36*
Y160600D02*X205500D01*
Y135093D01*
X202265Y135086D01*
X202035Y135031D01*
X201887Y134970D01*
Y160600D01*
G37*
G36*
X196350Y78400D02*X196417Y78359D01*
X196635Y78269D01*
X196865Y78214D01*
X197100Y78200D01*
X201887Y78209D01*
Y60500D01*
X198600D01*
X198482Y60493D01*
X198368Y60465D01*
X198258Y60420D01*
X198158Y60359D01*
X198068Y60282D01*
X197991Y60192D01*
X197930Y60092D01*
X197885Y59982D01*
X197857Y59868D01*
X197848Y59750D01*
X197857Y59632D01*
X197885Y59518D01*
X197930Y59408D01*
X197991Y59308D01*
X198068Y59218D01*
X198158Y59141D01*
X198258Y59080D01*
X198368Y59035D01*
X198482Y59007D01*
X198600Y59000D01*
X201887D01*
Y52200D01*
X198600D01*
X198482Y52193D01*
X198368Y52165D01*
X198258Y52120D01*
X198158Y52059D01*
X198068Y51982D01*
X197991Y51892D01*
X197930Y51792D01*
X197885Y51682D01*
X197857Y51568D01*
X197848Y51450D01*
X197857Y51332D01*
X197885Y51218D01*
X197930Y51108D01*
X197991Y51008D01*
X198068Y50918D01*
X198158Y50841D01*
X198258Y50780D01*
X198368Y50735D01*
X198482Y50707D01*
X198600Y50700D01*
X201887D01*
Y600D01*
X196350D01*
Y52948D01*
X196468Y52957D01*
X196582Y52985D01*
X196692Y53030D01*
X196792Y53091D01*
X196882Y53168D01*
X196959Y53258D01*
X197020Y53358D01*
X197065Y53468D01*
X197093Y53582D01*
X197100Y53700D01*
Y57500D01*
X197093Y57618D01*
X197065Y57732D01*
X197020Y57842D01*
X196959Y57942D01*
X196882Y58032D01*
X196792Y58109D01*
X196692Y58170D01*
X196582Y58215D01*
X196468Y58243D01*
X196350Y58252D01*
Y78400D01*
G37*
G36*
Y160600D02*X201887D01*
Y134970D01*
X201817Y134941D01*
X201616Y134817D01*
X201436Y134664D01*
X201283Y134484D01*
X201159Y134283D01*
X201069Y134065D01*
X201014Y133835D01*
X201000Y133600D01*
X201014Y127365D01*
X201069Y127135D01*
X201159Y126917D01*
X201283Y126716D01*
X201436Y126536D01*
X201616Y126383D01*
X201817Y126259D01*
X201887Y126230D01*
Y123298D01*
X201848Y123253D01*
X201478Y122649D01*
X201207Y121995D01*
X201042Y121306D01*
X200986Y120600D01*
X201042Y119894D01*
X201207Y119205D01*
X201478Y118551D01*
X201848Y117947D01*
X201887Y117902D01*
Y113298D01*
X201848Y113253D01*
X201478Y112649D01*
X201207Y111995D01*
X201042Y111306D01*
X200986Y110600D01*
X201042Y109894D01*
X201207Y109205D01*
X201478Y108551D01*
X201848Y107947D01*
X201887Y107902D01*
Y102747D01*
X201844Y102740D01*
X201732Y102703D01*
X201627Y102648D01*
X201532Y102578D01*
X201449Y102494D01*
X201381Y102398D01*
X201330Y102292D01*
X201182Y101884D01*
X201078Y101463D01*
X201016Y101033D01*
X200995Y100600D01*
X201016Y100167D01*
X201078Y99737D01*
X201182Y99316D01*
X201325Y98906D01*
X201378Y98800D01*
X201447Y98704D01*
X201530Y98619D01*
X201625Y98549D01*
X201731Y98494D01*
X201843Y98457D01*
X201887Y98449D01*
Y87996D01*
X196865Y87986D01*
X196635Y87931D01*
X196417Y87841D01*
X196350Y87800D01*
Y160600D01*
G37*
G36*
X194551D02*X196350D01*
Y87800D01*
X196216Y87717D01*
X196036Y87564D01*
X195883Y87384D01*
X195759Y87183D01*
X195669Y86965D01*
X195614Y86735D01*
X195600Y86500D01*
X195614Y79465D01*
X195669Y79235D01*
X195759Y79017D01*
X195883Y78816D01*
X196036Y78636D01*
X196216Y78483D01*
X196350Y78400D01*
Y58252D01*
X196232Y58243D01*
X196118Y58215D01*
X196008Y58170D01*
X195908Y58109D01*
X195818Y58032D01*
X195741Y57942D01*
X195680Y57842D01*
X195635Y57732D01*
X195607Y57618D01*
X195600Y57500D01*
Y53700D01*
X195607Y53582D01*
X195635Y53468D01*
X195680Y53358D01*
X195741Y53258D01*
X195818Y53168D01*
X195908Y53091D01*
X196008Y53030D01*
X196118Y52985D01*
X196232Y52957D01*
X196350Y52948D01*
Y600D01*
X194551D01*
Y148094D01*
X194619Y148113D01*
X194726Y148162D01*
X194824Y148228D01*
X194911Y148308D01*
X194984Y148401D01*
X195040Y148504D01*
X195225Y148948D01*
X195362Y149409D01*
X195454Y149881D01*
X195500Y150360D01*
Y150840D01*
X195454Y151319D01*
X195362Y151791D01*
X195225Y152252D01*
X195045Y152698D01*
X194987Y152802D01*
X194914Y152895D01*
X194827Y152975D01*
X194728Y153041D01*
X194620Y153091D01*
X194551Y153110D01*
Y160600D01*
G37*
G36*
X191613D02*X194551D01*
Y153110D01*
X194506Y153123D01*
X194388Y153137D01*
X194269Y153132D01*
X194153Y153109D01*
X194042Y153068D01*
X193938Y153010D01*
X193845Y152936D01*
X193765Y152849D01*
X193699Y152750D01*
X193649Y152643D01*
X193617Y152528D01*
X193603Y152411D01*
X193608Y152292D01*
X193631Y152176D01*
X193674Y152065D01*
X193804Y151755D01*
X193899Y151433D01*
X193964Y151103D01*
X193996Y150768D01*
Y150432D01*
X193964Y150097D01*
X193899Y149767D01*
X193804Y149445D01*
X193678Y149133D01*
X193635Y149023D01*
X193612Y148908D01*
X193607Y148790D01*
X193621Y148672D01*
X193653Y148559D01*
X193702Y148452D01*
X193768Y148353D01*
X193848Y148267D01*
X193940Y148193D01*
X194043Y148136D01*
X194154Y148095D01*
X194270Y148072D01*
X194388Y148067D01*
X194505Y148081D01*
X194551Y148094D01*
Y600D01*
X191613D01*
Y68453D01*
X191656Y68460D01*
X191768Y68497D01*
X191873Y68552D01*
X191968Y68622D01*
X192051Y68706D01*
X192119Y68802D01*
X192170Y68908D01*
X192318Y69316D01*
X192422Y69737D01*
X192484Y70167D01*
X192505Y70600D01*
X192484Y71033D01*
X192422Y71463D01*
X192318Y71884D01*
X192175Y72294D01*
X192122Y72400D01*
X192053Y72496D01*
X191970Y72581D01*
X191875Y72651D01*
X191769Y72706D01*
X191657Y72743D01*
X191613Y72751D01*
Y145723D01*
X191691Y145738D01*
X192152Y145875D01*
X192598Y146055D01*
X192702Y146113D01*
X192795Y146186D01*
X192875Y146273D01*
X192941Y146372D01*
X192991Y146480D01*
X193023Y146594D01*
X193037Y146712D01*
X193032Y146831D01*
X193009Y146947D01*
X192968Y147058D01*
X192910Y147162D01*
X192836Y147255D01*
X192749Y147335D01*
X192650Y147401D01*
X192543Y147451D01*
X192428Y147483D01*
X192311Y147497D01*
X192192Y147492D01*
X192076Y147469D01*
X191965Y147426D01*
X191655Y147296D01*
X191613Y147284D01*
Y153916D01*
X191655Y153904D01*
X191967Y153778D01*
X192077Y153735D01*
X192192Y153712D01*
X192310Y153707D01*
X192428Y153721D01*
X192541Y153753D01*
X192648Y153802D01*
X192747Y153868D01*
X192833Y153948D01*
X192907Y154040D01*
X192964Y154143D01*
X193005Y154254D01*
X193028Y154370D01*
X193033Y154488D01*
X193019Y154605D01*
X192987Y154719D01*
X192938Y154826D01*
X192872Y154924D01*
X192792Y155011D01*
X192699Y155084D01*
X192596Y155140D01*
X192152Y155325D01*
X191691Y155462D01*
X191613Y155477D01*
Y160600D01*
G37*
G36*
Y147284D02*X191333Y147201D01*
X191003Y147136D01*
X190668Y147104D01*
X190332D01*
X189997Y147136D01*
X189667Y147201D01*
X189345Y147296D01*
X189033Y147422D01*
X188923Y147465D01*
X188808Y147488D01*
X188690Y147493D01*
X188572Y147479D01*
X188459Y147447D01*
X188352Y147398D01*
X188253Y147332D01*
X188167Y147252D01*
X188093Y147160D01*
X188036Y147057D01*
X188002Y146964D01*
Y154224D01*
X188032Y154142D01*
X188090Y154038D01*
X188164Y153945D01*
X188251Y153865D01*
X188350Y153799D01*
X188457Y153749D01*
X188572Y153717D01*
X188689Y153703D01*
X188808Y153708D01*
X188924Y153731D01*
X189035Y153774D01*
X189345Y153904D01*
X189667Y153999D01*
X189997Y154064D01*
X190332Y154096D01*
X190668D01*
X191003Y154064D01*
X191333Y153999D01*
X191613Y153916D01*
Y147284D01*
G37*
G36*
Y600D02*X189993D01*
Y66646D01*
X190051Y66725D01*
X190106Y66831D01*
X190143Y66943D01*
X190163Y67060D01*
X190164Y67179D01*
X190146Y67296D01*
X190110Y67409D01*
X190057Y67515D01*
X189993Y67605D01*
Y73601D01*
X190054Y73687D01*
X190107Y73792D01*
X190143Y73905D01*
X190160Y74021D01*
X190159Y74139D01*
X190140Y74256D01*
X190103Y74368D01*
X190048Y74473D01*
X189993Y74548D01*
Y87745D01*
X190078Y87781D01*
X190179Y87843D01*
X190269Y87919D01*
X190345Y88009D01*
X190405Y88111D01*
X190622Y88580D01*
X190789Y89069D01*
X190909Y89572D01*
X190982Y90084D01*
X191006Y90600D01*
X190982Y91116D01*
X190909Y91628D01*
X190789Y92131D01*
X190622Y92620D01*
X190410Y93092D01*
X190349Y93193D01*
X190272Y93284D01*
X190182Y93361D01*
X190080Y93423D01*
X189993Y93460D01*
Y107405D01*
X190416Y108095D01*
X190747Y108895D01*
X190949Y109737D01*
X191000Y110600D01*
X190949Y111463D01*
X190747Y112305D01*
X190416Y113105D01*
X189993Y113795D01*
Y145626D01*
X190260Y145600D01*
X190740D01*
X191219Y145646D01*
X191613Y145723D01*
Y72751D01*
X191540Y72763D01*
X191421Y72764D01*
X191304Y72746D01*
X191191Y72710D01*
X191085Y72657D01*
X190988Y72588D01*
X190904Y72505D01*
X190833Y72409D01*
X190779Y72304D01*
X190741Y72192D01*
X190722Y72075D01*
X190721Y71956D01*
X190739Y71839D01*
X190777Y71726D01*
X190876Y71455D01*
X190944Y71175D01*
X190986Y70889D01*
X191000Y70600D01*
X190986Y70311D01*
X190944Y70025D01*
X190876Y69745D01*
X190780Y69472D01*
X190742Y69361D01*
X190725Y69244D01*
X190725Y69126D01*
X190745Y69009D01*
X190782Y68897D01*
X190836Y68793D01*
X190906Y68698D01*
X190991Y68615D01*
X191087Y68546D01*
X191192Y68493D01*
X191305Y68457D01*
X191421Y68440D01*
X191539Y68441D01*
X191613Y68453D01*
Y600D01*
G37*
G36*
X189993Y113795D02*X189963Y113843D01*
X189401Y114501D01*
X188743Y115063D01*
X188005Y115516D01*
X188002Y115517D01*
Y146521D01*
X188013Y146481D01*
X188062Y146374D01*
X188128Y146276D01*
X188208Y146189D01*
X188301Y146116D01*
X188404Y146060D01*
X188848Y145875D01*
X189309Y145738D01*
X189781Y145646D01*
X189993Y145626D01*
Y113795D01*
G37*
G36*
Y74548D02*X189978Y74568D01*
X189894Y74651D01*
X189798Y74719D01*
X189692Y74770D01*
X189284Y74918D01*
X188863Y75022D01*
X188433Y75084D01*
X188002Y75105D01*
Y85696D01*
X188093Y85751D01*
X188184Y85828D01*
X188261Y85918D01*
X188323Y86020D01*
X188369Y86129D01*
X188397Y86245D01*
X188406Y86363D01*
X188397Y86481D01*
X188370Y86597D01*
X188324Y86707D01*
X188262Y86808D01*
X188186Y86898D01*
X188095Y86976D01*
X188002Y87033D01*
Y94172D01*
X188093Y94228D01*
X188182Y94305D01*
X188259Y94395D01*
X188320Y94495D01*
X188365Y94604D01*
X188393Y94719D01*
X188402Y94837D01*
X188392Y94955D01*
X188365Y95069D01*
X188319Y95178D01*
X188257Y95279D01*
X188181Y95369D01*
X188091Y95445D01*
X188002Y95497D01*
Y105683D01*
X188005Y105684D01*
X188743Y106137D01*
X189401Y106699D01*
X189963Y107357D01*
X189993Y107405D01*
Y93460D01*
X189971Y93469D01*
X189855Y93497D01*
X189737Y93506D01*
X189619Y93497D01*
X189503Y93470D01*
X189393Y93424D01*
X189292Y93362D01*
X189202Y93286D01*
X189124Y93195D01*
X189062Y93094D01*
X189016Y92985D01*
X188989Y92869D01*
X188979Y92751D01*
X188988Y92632D01*
X189016Y92517D01*
X189063Y92408D01*
X189221Y92068D01*
X189342Y91712D01*
X189430Y91347D01*
X189482Y90975D01*
X189500Y90600D01*
X189482Y90225D01*
X189430Y89853D01*
X189342Y89488D01*
X189221Y89132D01*
X189067Y88790D01*
X189020Y88682D01*
X188993Y88567D01*
X188983Y88449D01*
X188993Y88332D01*
X189021Y88217D01*
X189066Y88108D01*
X189128Y88007D01*
X189205Y87918D01*
X189295Y87841D01*
X189395Y87780D01*
X189504Y87735D01*
X189619Y87707D01*
X189737Y87698D01*
X189855Y87708D01*
X189969Y87735D01*
X189993Y87745D01*
Y74548D01*
G37*
G36*
Y67605D02*X189988Y67612D01*
X189905Y67696D01*
X189809Y67767D01*
X189704Y67821D01*
X189592Y67859D01*
X189475Y67878D01*
X189356Y67879D01*
X189239Y67861D01*
X189126Y67823D01*
X188855Y67724D01*
X188575Y67656D01*
X188289Y67614D01*
X188002Y67600D01*
Y73600D01*
X188289Y73586D01*
X188575Y73544D01*
X188855Y73476D01*
X189128Y73380D01*
X189239Y73342D01*
X189356Y73325D01*
X189474Y73325D01*
X189591Y73345D01*
X189703Y73382D01*
X189807Y73436D01*
X189902Y73506D01*
X189985Y73591D01*
X189993Y73601D01*
Y67605D01*
G37*
G36*
Y600D02*X188002D01*
Y66095D01*
X188433Y66116D01*
X188863Y66178D01*
X189284Y66282D01*
X189694Y66425D01*
X189800Y66478D01*
X189896Y66547D01*
X189981Y66630D01*
X189993Y66646D01*
Y600D01*
G37*
G36*
X188002Y160600D02*X191613D01*
Y155477D01*
X191219Y155554D01*
X190740Y155600D01*
X190260D01*
X189781Y155554D01*
X189309Y155462D01*
X188848Y155325D01*
X188402Y155145D01*
X188298Y155087D01*
X188205Y155014D01*
X188125Y154927D01*
X188059Y154828D01*
X188009Y154720D01*
X188002Y154694D01*
Y160600D01*
G37*
G36*
X184387Y85211D02*X184472Y85191D01*
X184984Y85118D01*
X185500Y85094D01*
X186016Y85118D01*
X186528Y85191D01*
X187031Y85311D01*
X187520Y85478D01*
X187992Y85690D01*
X188002Y85696D01*
Y75105D01*
X188000Y75105D01*
X187567Y75084D01*
X187137Y75022D01*
X186716Y74918D01*
X186306Y74775D01*
X186200Y74722D01*
X186104Y74653D01*
X186019Y74570D01*
X185949Y74475D01*
X185894Y74369D01*
X185857Y74257D01*
X185837Y74140D01*
X185836Y74021D01*
X185854Y73904D01*
X185890Y73791D01*
X185943Y73685D01*
X186012Y73588D01*
X186095Y73504D01*
X186191Y73433D01*
X186296Y73379D01*
X186408Y73341D01*
X186525Y73322D01*
X186644Y73321D01*
X186761Y73339D01*
X186874Y73377D01*
X187145Y73476D01*
X187425Y73544D01*
X187711Y73586D01*
X188000Y73600D01*
X188002Y73600D01*
Y67600D01*
X188000Y67600D01*
X187711Y67614D01*
X187425Y67656D01*
X187145Y67724D01*
X186872Y67820D01*
X186761Y67858D01*
X186644Y67875D01*
X186526Y67875D01*
X186409Y67855D01*
X186297Y67818D01*
X186193Y67764D01*
X186098Y67694D01*
X186015Y67609D01*
X185946Y67513D01*
X185893Y67408D01*
X185857Y67295D01*
X185840Y67179D01*
X185841Y67061D01*
X185860Y66944D01*
X185897Y66832D01*
X185952Y66727D01*
X186022Y66632D01*
X186106Y66549D01*
X186202Y66481D01*
X186308Y66430D01*
X186716Y66282D01*
X187137Y66178D01*
X187567Y66116D01*
X188000Y66095D01*
X188002Y66095D01*
Y600D01*
X184387D01*
Y68449D01*
X184460Y68437D01*
X184579Y68436D01*
X184696Y68454D01*
X184809Y68490D01*
X184915Y68543D01*
X185012Y68612D01*
X185096Y68695D01*
X185167Y68791D01*
X185221Y68896D01*
X185259Y69008D01*
X185278Y69125D01*
X185279Y69244D01*
X185261Y69361D01*
X185223Y69474D01*
X185124Y69745D01*
X185056Y70025D01*
X185014Y70311D01*
X185000Y70600D01*
X185014Y70889D01*
X185056Y71175D01*
X185124Y71455D01*
X185220Y71728D01*
X185258Y71839D01*
X185275Y71956D01*
X185275Y72074D01*
X185255Y72191D01*
X185218Y72303D01*
X185164Y72407D01*
X185094Y72502D01*
X185009Y72585D01*
X184913Y72654D01*
X184808Y72707D01*
X184695Y72743D01*
X184579Y72760D01*
X184461Y72759D01*
X184387Y72747D01*
Y85211D01*
G37*
G36*
Y94442D02*X184388Y94442D01*
X184753Y94530D01*
X185125Y94582D01*
X185500Y94600D01*
X185875Y94582D01*
X186247Y94530D01*
X186612Y94442D01*
X186968Y94321D01*
X187310Y94167D01*
X187418Y94120D01*
X187533Y94093D01*
X187651Y94083D01*
X187768Y94093D01*
X187883Y94121D01*
X187992Y94166D01*
X188002Y94172D01*
Y87033D01*
X187994Y87038D01*
X187885Y87084D01*
X187769Y87111D01*
X187651Y87121D01*
X187532Y87112D01*
X187417Y87084D01*
X187308Y87037D01*
X186968Y86879D01*
X186612Y86758D01*
X186247Y86670D01*
X185875Y86618D01*
X185500Y86600D01*
X185125Y86618D01*
X184753Y86670D01*
X184388Y86758D01*
X184387Y86758D01*
Y94442D01*
G37*
G36*
Y105211D02*X184637Y105151D01*
X185500Y105083D01*
X186363Y105151D01*
X187205Y105353D01*
X188002Y105683D01*
Y95497D01*
X187989Y95505D01*
X187520Y95722D01*
X187031Y95889D01*
X186528Y96009D01*
X186016Y96082D01*
X185500Y96106D01*
X184984Y96082D01*
X184472Y96009D01*
X184387Y95989D01*
Y105211D01*
G37*
G36*
X186449Y160600D02*X188002D01*
Y154694D01*
X187977Y154606D01*
X187963Y154488D01*
X187968Y154369D01*
X187991Y154253D01*
X188002Y154224D01*
Y146964D01*
X187995Y146946D01*
X187972Y146830D01*
X187967Y146712D01*
X187981Y146595D01*
X188002Y146521D01*
Y115517D01*
X187205Y115847D01*
X186449Y116029D01*
Y148090D01*
X186494Y148077D01*
X186612Y148063D01*
X186731Y148068D01*
X186847Y148091D01*
X186958Y148132D01*
X187062Y148190D01*
X187155Y148264D01*
X187235Y148351D01*
X187301Y148450D01*
X187351Y148557D01*
X187383Y148672D01*
X187397Y148789D01*
X187392Y148908D01*
X187369Y149024D01*
X187326Y149135D01*
X187196Y149445D01*
X187101Y149767D01*
X187036Y150097D01*
X187004Y150432D01*
Y150768D01*
X187036Y151103D01*
X187101Y151433D01*
X187196Y151755D01*
X187322Y152067D01*
X187365Y152177D01*
X187388Y152292D01*
X187393Y152410D01*
X187379Y152528D01*
X187347Y152641D01*
X187298Y152748D01*
X187232Y152847D01*
X187152Y152933D01*
X187060Y153007D01*
X186957Y153064D01*
X186846Y153105D01*
X186730Y153128D01*
X186612Y153133D01*
X186495Y153119D01*
X186449Y153106D01*
Y160600D01*
G37*
G36*
X184387D02*X186449D01*
Y153106D01*
X186381Y153087D01*
X186274Y153038D01*
X186176Y152972D01*
X186089Y152892D01*
X186016Y152799D01*
X185960Y152696D01*
X185775Y152252D01*
X185638Y151791D01*
X185546Y151319D01*
X185500Y150840D01*
Y150360D01*
X185546Y149881D01*
X185638Y149409D01*
X185775Y148948D01*
X185955Y148502D01*
X186013Y148398D01*
X186086Y148305D01*
X186173Y148225D01*
X186272Y148159D01*
X186380Y148109D01*
X186449Y148090D01*
Y116029D01*
X186363Y116049D01*
X185500Y116117D01*
X184637Y116049D01*
X184387Y115989D01*
Y145650D01*
X184465Y145669D01*
X184683Y145759D01*
X184884Y145883D01*
X185064Y146036D01*
X185217Y146216D01*
X185341Y146417D01*
X185431Y146635D01*
X185486Y146865D01*
X185500Y147100D01*
X185486Y154335D01*
X185431Y154565D01*
X185341Y154783D01*
X185217Y154984D01*
X185064Y155164D01*
X184884Y155317D01*
X184683Y155441D01*
X184465Y155531D01*
X184387Y155550D01*
Y160600D01*
G37*
G36*
X181007Y107405D02*X181037Y107357D01*
X181599Y106699D01*
X182257Y106137D01*
X182995Y105684D01*
X183795Y105353D01*
X184387Y105211D01*
Y95989D01*
X183969Y95889D01*
X183480Y95722D01*
X183008Y95510D01*
X182907Y95449D01*
X182816Y95372D01*
X182739Y95282D01*
X182677Y95180D01*
X182631Y95071D01*
X182603Y94955D01*
X182594Y94837D01*
X182603Y94719D01*
X182630Y94603D01*
X182676Y94493D01*
X182738Y94392D01*
X182814Y94302D01*
X182905Y94224D01*
X183006Y94162D01*
X183115Y94116D01*
X183231Y94089D01*
X183349Y94079D01*
X183468Y94088D01*
X183583Y94116D01*
X183692Y94163D01*
X184032Y94321D01*
X184387Y94442D01*
Y86758D01*
X184032Y86879D01*
X183690Y87033D01*
X183582Y87080D01*
X183467Y87107D01*
X183349Y87117D01*
X183232Y87107D01*
X183117Y87079D01*
X183008Y87034D01*
X182907Y86972D01*
X182818Y86895D01*
X182741Y86805D01*
X182680Y86705D01*
X182635Y86596D01*
X182607Y86481D01*
X182598Y86363D01*
X182608Y86245D01*
X182635Y86131D01*
X182681Y86022D01*
X182743Y85921D01*
X182819Y85831D01*
X182909Y85755D01*
X183011Y85695D01*
X183480Y85478D01*
X183969Y85311D01*
X184387Y85211D01*
Y72747D01*
X184344Y72740D01*
X184232Y72703D01*
X184127Y72648D01*
X184032Y72578D01*
X183949Y72494D01*
X183881Y72398D01*
X183830Y72292D01*
X183682Y71884D01*
X183578Y71463D01*
X183516Y71033D01*
X183495Y70600D01*
X183516Y70167D01*
X183578Y69737D01*
X183682Y69316D01*
X183825Y68906D01*
X183878Y68800D01*
X183947Y68704D01*
X184030Y68619D01*
X184125Y68549D01*
X184231Y68494D01*
X184343Y68457D01*
X184387Y68449D01*
Y600D01*
X181007D01*
Y66113D01*
X181235Y66114D01*
X181465Y66169D01*
X181683Y66259D01*
X181884Y66383D01*
X182064Y66536D01*
X182217Y66716D01*
X182341Y66917D01*
X182431Y67135D01*
X182486Y67365D01*
X182500Y67600D01*
X182486Y73835D01*
X182431Y74065D01*
X182341Y74283D01*
X182217Y74484D01*
X182064Y74664D01*
X181884Y74817D01*
X181683Y74941D01*
X181465Y75031D01*
X181235Y75086D01*
X181007Y75100D01*
Y87740D01*
X181029Y87731D01*
X181145Y87703D01*
X181263Y87694D01*
X181381Y87703D01*
X181497Y87730D01*
X181607Y87776D01*
X181708Y87838D01*
X181798Y87914D01*
X181876Y88005D01*
X181938Y88106D01*
X181984Y88215D01*
X182011Y88331D01*
X182021Y88449D01*
X182012Y88568D01*
X181984Y88683D01*
X181937Y88792D01*
X181779Y89132D01*
X181658Y89488D01*
X181570Y89853D01*
X181518Y90225D01*
X181500Y90600D01*
X181518Y90975D01*
X181570Y91347D01*
X181658Y91712D01*
X181779Y92068D01*
X181933Y92410D01*
X181980Y92518D01*
X182007Y92633D01*
X182017Y92751D01*
X182007Y92868D01*
X181979Y92983D01*
X181934Y93092D01*
X181872Y93193D01*
X181795Y93282D01*
X181705Y93359D01*
X181605Y93420D01*
X181496Y93465D01*
X181381Y93493D01*
X181263Y93502D01*
X181145Y93492D01*
X181031Y93465D01*
X181007Y93455D01*
Y107405D01*
G37*
G36*
X184387Y115989D02*X183795Y115847D01*
X182995Y115516D01*
X182257Y115063D01*
X181599Y114501D01*
X181037Y113843D01*
X181007Y113795D01*
Y145608D01*
X184235Y145614D01*
X184387Y145650D01*
Y115989D01*
G37*
G36*
X181007Y600D02*X178000D01*
Y66107D01*
X181007Y66113D01*
Y600D01*
G37*
G36*
Y113795D02*X180584Y113105D01*
X180253Y112305D01*
X180051Y111463D01*
X179983Y110600D01*
X180051Y109737D01*
X180253Y108895D01*
X180584Y108095D01*
X181007Y107405D01*
Y93455D01*
X180922Y93419D01*
X180821Y93357D01*
X180731Y93281D01*
X180655Y93191D01*
X180595Y93089D01*
X180378Y92620D01*
X180211Y92131D01*
X180091Y91628D01*
X180018Y91116D01*
X179994Y90600D01*
X180018Y90084D01*
X180091Y89572D01*
X180211Y89069D01*
X180378Y88580D01*
X180590Y88108D01*
X180651Y88007D01*
X180728Y87916D01*
X180818Y87839D01*
X180920Y87777D01*
X181007Y87740D01*
Y75100D01*
X181000Y75100D01*
X178000Y75093D01*
Y145602D01*
X181007Y145608D01*
Y113795D01*
G37*
G36*
X178000Y160600D02*X184387D01*
Y155550D01*
X184235Y155586D01*
X184000Y155600D01*
X178000Y155588D01*
Y160600D01*
G37*
G36*
X169250D02*X178000D01*
Y155588D01*
X176765Y155586D01*
X176535Y155531D01*
X176317Y155441D01*
X176116Y155317D01*
X175936Y155164D01*
X175783Y154984D01*
X175659Y154783D01*
X175569Y154565D01*
X175514Y154335D01*
X175500Y154100D01*
X175514Y146865D01*
X175569Y146635D01*
X175659Y146417D01*
X175783Y146216D01*
X175936Y146036D01*
X176116Y145883D01*
X176317Y145759D01*
X176535Y145669D01*
X176765Y145614D01*
X177000Y145600D01*
X178000Y145602D01*
Y75093D01*
X174765Y75086D01*
X174535Y75031D01*
X174317Y74941D01*
X174116Y74817D01*
X173936Y74664D01*
X173783Y74484D01*
X173659Y74283D01*
X173569Y74065D01*
X173514Y73835D01*
X173500Y73600D01*
X173514Y67365D01*
X173569Y67135D01*
X173659Y66917D01*
X173783Y66716D01*
X173936Y66536D01*
X174116Y66383D01*
X174317Y66259D01*
X174535Y66169D01*
X174765Y66114D01*
X175000Y66100D01*
X178000Y66107D01*
Y600D01*
X169250D01*
Y51136D01*
X169640Y51592D01*
X170059Y52277D01*
X170366Y53019D01*
X170554Y53800D01*
X170601Y54600D01*
X170554Y55400D01*
X170366Y56181D01*
X170059Y56923D01*
X169640Y57608D01*
X169250Y58064D01*
Y70848D01*
X169368Y70857D01*
X169482Y70885D01*
X169592Y70930D01*
X169692Y70991D01*
X169782Y71068D01*
X169859Y71158D01*
X169920Y71258D01*
X169965Y71368D01*
X169993Y71482D01*
X170000Y71600D01*
Y74600D01*
X169993Y74718D01*
X169965Y74832D01*
X169920Y74942D01*
X169859Y75042D01*
X169782Y75132D01*
X169692Y75209D01*
X169592Y75270D01*
X169482Y75315D01*
X169368Y75343D01*
X169250Y75352D01*
Y99792D01*
X169558Y100152D01*
X169969Y100823D01*
X170270Y101550D01*
X170454Y102315D01*
X170500Y103100D01*
X170454Y103885D01*
X170270Y104650D01*
X169969Y105377D01*
X169558Y106048D01*
X169250Y106408D01*
Y160600D01*
G37*
G36*
Y58064D02*X169118Y58218D01*
X168508Y58740D01*
X167823Y59159D01*
X167081Y59466D01*
X166300Y59654D01*
X165500Y59717D01*
X165492Y59716D01*
Y68600D01*
X167000D01*
X167118Y68607D01*
X167232Y68635D01*
X167342Y68680D01*
X167442Y68741D01*
X167532Y68818D01*
X167609Y68908D01*
X167670Y69008D01*
X167715Y69118D01*
X167743Y69232D01*
X167752Y69350D01*
X167743Y69468D01*
X167715Y69582D01*
X167670Y69692D01*
X167609Y69792D01*
X167532Y69882D01*
X167442Y69959D01*
X167342Y70020D01*
X167232Y70065D01*
X167118Y70093D01*
X167000Y70100D01*
X165492D01*
Y76100D01*
X167000D01*
X167118Y76107D01*
X167232Y76135D01*
X167342Y76180D01*
X167442Y76241D01*
X167532Y76318D01*
X167609Y76408D01*
X167670Y76508D01*
X167715Y76618D01*
X167743Y76732D01*
X167752Y76850D01*
X167743Y76968D01*
X167715Y77082D01*
X167670Y77192D01*
X167609Y77292D01*
X167532Y77382D01*
X167442Y77459D01*
X167342Y77520D01*
X167232Y77565D01*
X167118Y77593D01*
X167000Y77600D01*
X165492D01*
Y98085D01*
X165500Y98085D01*
X166285Y98146D01*
X167050Y98330D01*
X167777Y98631D01*
X168448Y99042D01*
X169046Y99554D01*
X169250Y99792D01*
Y75352D01*
X169132Y75343D01*
X169018Y75315D01*
X168908Y75270D01*
X168808Y75209D01*
X168718Y75132D01*
X168641Y75042D01*
X168580Y74942D01*
X168535Y74832D01*
X168507Y74718D01*
X168500Y74600D01*
Y71600D01*
X168507Y71482D01*
X168535Y71368D01*
X168580Y71258D01*
X168641Y71158D01*
X168718Y71068D01*
X168808Y70991D01*
X168908Y70930D01*
X169018Y70885D01*
X169132Y70857D01*
X169250Y70848D01*
Y58064D01*
G37*
G36*
Y600D02*X165492D01*
Y49484D01*
X165500Y49483D01*
X166300Y49546D01*
X167081Y49734D01*
X167823Y50041D01*
X168508Y50460D01*
X169118Y50982D01*
X169250Y51136D01*
Y600D01*
G37*
G36*
X165492Y160600D02*X169250D01*
Y106408D01*
X169046Y106646D01*
X168448Y107158D01*
X167777Y107569D01*
X167050Y107870D01*
X166285Y108054D01*
X165500Y108115D01*
X165492Y108115D01*
Y160600D01*
G37*
G36*
X161750Y51136D02*X161882Y50982D01*
X162492Y50460D01*
X163177Y50041D01*
X163919Y49734D01*
X164700Y49546D01*
X165492Y49484D01*
Y600D01*
X161750D01*
Y51136D01*
G37*
G36*
Y99792D02*X161954Y99554D01*
X162552Y99042D01*
X163223Y98631D01*
X163950Y98330D01*
X164715Y98146D01*
X165492Y98085D01*
Y77600D01*
X164000D01*
X163882Y77593D01*
X163768Y77565D01*
X163658Y77520D01*
X163558Y77459D01*
X163468Y77382D01*
X163391Y77292D01*
X163330Y77192D01*
X163285Y77082D01*
X163257Y76968D01*
X163248Y76850D01*
X163257Y76732D01*
X163285Y76618D01*
X163330Y76508D01*
X163391Y76408D01*
X163468Y76318D01*
X163558Y76241D01*
X163658Y76180D01*
X163768Y76135D01*
X163882Y76107D01*
X164000Y76100D01*
X165492D01*
Y70100D01*
X164000D01*
X163882Y70093D01*
X163768Y70065D01*
X163658Y70020D01*
X163558Y69959D01*
X163468Y69882D01*
X163391Y69792D01*
X163330Y69692D01*
X163285Y69582D01*
X163257Y69468D01*
X163248Y69350D01*
X163257Y69232D01*
X163285Y69118D01*
X163330Y69008D01*
X163391Y68908D01*
X163468Y68818D01*
X163558Y68741D01*
X163658Y68680D01*
X163768Y68635D01*
X163882Y68607D01*
X164000Y68600D01*
X165492D01*
Y59716D01*
X164700Y59654D01*
X163919Y59466D01*
X163177Y59159D01*
X162492Y58740D01*
X161882Y58218D01*
X161750Y58064D01*
Y70848D01*
X161868Y70857D01*
X161982Y70885D01*
X162092Y70930D01*
X162192Y70991D01*
X162282Y71068D01*
X162359Y71158D01*
X162420Y71258D01*
X162465Y71368D01*
X162493Y71482D01*
X162500Y71600D01*
Y74600D01*
X162493Y74718D01*
X162465Y74832D01*
X162420Y74942D01*
X162359Y75042D01*
X162282Y75132D01*
X162192Y75209D01*
X162092Y75270D01*
X161982Y75315D01*
X161868Y75343D01*
X161750Y75352D01*
Y99792D01*
G37*
G36*
Y160600D02*X165492D01*
Y108115D01*
X164715Y108054D01*
X163950Y107870D01*
X163223Y107569D01*
X162552Y107158D01*
X161954Y106646D01*
X161750Y106408D01*
Y114418D01*
X162059Y114546D01*
X162663Y114916D01*
X163202Y115376D01*
X163662Y115915D01*
X164032Y116519D01*
X164303Y117173D01*
X164468Y117862D01*
X164510Y118568D01*
X164468Y119274D01*
X164303Y119963D01*
X164032Y120617D01*
X163662Y121221D01*
X163202Y121760D01*
X162663Y122220D01*
X162059Y122590D01*
X161750Y122718D01*
Y160600D01*
G37*
G36*
X150013D02*X161750D01*
Y122718D01*
X161405Y122861D01*
X160716Y123026D01*
X160010Y123082D01*
X159304Y123026D01*
X158615Y122861D01*
X157961Y122590D01*
X157357Y122220D01*
X156818Y121760D01*
X156358Y121221D01*
X155988Y120617D01*
X155717Y119963D01*
X155552Y119274D01*
X155496Y118568D01*
X155552Y117862D01*
X155717Y117173D01*
X155988Y116519D01*
X156358Y115915D01*
X156818Y115376D01*
X157357Y114916D01*
X157961Y114546D01*
X158615Y114275D01*
X159304Y114110D01*
X160010Y114054D01*
X160716Y114110D01*
X161405Y114275D01*
X161750Y114418D01*
Y106408D01*
X161442Y106048D01*
X161031Y105377D01*
X160730Y104650D01*
X160546Y103885D01*
X160485Y103100D01*
X160546Y102315D01*
X160730Y101550D01*
X161031Y100823D01*
X161442Y100152D01*
X161750Y99792D01*
Y75352D01*
X161632Y75343D01*
X161518Y75315D01*
X161408Y75270D01*
X161308Y75209D01*
X161218Y75132D01*
X161141Y75042D01*
X161080Y74942D01*
X161035Y74832D01*
X161007Y74718D01*
X161000Y74600D01*
Y71600D01*
X161007Y71482D01*
X161035Y71368D01*
X161080Y71258D01*
X161141Y71158D01*
X161218Y71068D01*
X161308Y70991D01*
X161408Y70930D01*
X161518Y70885D01*
X161632Y70857D01*
X161750Y70848D01*
Y58064D01*
X161360Y57608D01*
X160941Y56923D01*
X160634Y56181D01*
X160446Y55400D01*
X160383Y54600D01*
X160446Y53800D01*
X160634Y53019D01*
X160941Y52277D01*
X161360Y51592D01*
X161750Y51136D01*
Y600D01*
X150013D01*
Y78453D01*
X150056Y78460D01*
X150168Y78497D01*
X150273Y78552D01*
X150368Y78622D01*
X150451Y78706D01*
X150519Y78802D01*
X150570Y78908D01*
X150718Y79316D01*
X150822Y79737D01*
X150884Y80167D01*
X150905Y80600D01*
X150884Y81033D01*
X150822Y81463D01*
X150718Y81884D01*
X150575Y82294D01*
X150522Y82400D01*
X150453Y82496D01*
X150370Y82581D01*
X150275Y82651D01*
X150169Y82706D01*
X150057Y82743D01*
X150013Y82751D01*
Y86230D01*
X150083Y86259D01*
X150284Y86383D01*
X150464Y86536D01*
X150617Y86716D01*
X150741Y86917D01*
X150831Y87135D01*
X150886Y87365D01*
X150900Y87600D01*
X150886Y93835D01*
X150831Y94065D01*
X150741Y94283D01*
X150617Y94484D01*
X150464Y94664D01*
X150284Y94817D01*
X150083Y94941D01*
X150013Y94970D01*
Y128741D01*
X150085Y128826D01*
X150209Y129027D01*
X150299Y129245D01*
X150354Y129475D01*
X150368Y129710D01*
X150354Y135945D01*
X150299Y136175D01*
X150209Y136393D01*
X150085Y136594D01*
X150013Y136679D01*
Y160600D01*
G37*
G36*
Y94970D02*X149865Y95031D01*
X149635Y95086D01*
X149400Y95100D01*
X145868Y95092D01*
Y128217D01*
X149103Y128224D01*
X149333Y128279D01*
X149551Y128369D01*
X149752Y128493D01*
X149932Y128646D01*
X150013Y128741D01*
Y94970D01*
G37*
G36*
Y600D02*X145868D01*
Y6920D01*
X146309Y7640D01*
X146701Y8585D01*
X146940Y9580D01*
X147000Y10600D01*
X146940Y11620D01*
X146701Y12615D01*
X146309Y13560D01*
X145868Y14280D01*
Y76130D01*
X145967Y76116D01*
X146400Y76095D01*
X146833Y76116D01*
X147263Y76178D01*
X147684Y76282D01*
X148094Y76425D01*
X148200Y76478D01*
X148296Y76547D01*
X148381Y76630D01*
X148451Y76725D01*
X148506Y76831D01*
X148543Y76943D01*
X148563Y77060D01*
X148564Y77179D01*
X148546Y77296D01*
X148510Y77409D01*
X148457Y77515D01*
X148388Y77612D01*
X148305Y77696D01*
X148209Y77767D01*
X148104Y77821D01*
X147992Y77859D01*
X147875Y77878D01*
X147756Y77879D01*
X147639Y77861D01*
X147526Y77823D01*
X147255Y77724D01*
X146975Y77656D01*
X146689Y77614D01*
X146400Y77600D01*
X146111Y77614D01*
X145868Y77649D01*
Y83551D01*
X146111Y83586D01*
X146400Y83600D01*
X146689Y83586D01*
X146975Y83544D01*
X147255Y83476D01*
X147528Y83380D01*
X147639Y83342D01*
X147756Y83325D01*
X147874Y83325D01*
X147991Y83345D01*
X148103Y83382D01*
X148207Y83436D01*
X148302Y83506D01*
X148385Y83591D01*
X148454Y83687D01*
X148507Y83792D01*
X148543Y83905D01*
X148560Y84021D01*
X148559Y84139D01*
X148540Y84256D01*
X148503Y84368D01*
X148448Y84473D01*
X148378Y84568D01*
X148294Y84651D01*
X148198Y84719D01*
X148092Y84770D01*
X147684Y84918D01*
X147263Y85022D01*
X146833Y85084D01*
X146400Y85105D01*
X145967Y85084D01*
X145868Y85070D01*
Y86106D01*
X149635Y86114D01*
X149865Y86169D01*
X150013Y86230D01*
Y82751D01*
X149940Y82763D01*
X149821Y82764D01*
X149704Y82746D01*
X149591Y82710D01*
X149485Y82657D01*
X149388Y82588D01*
X149304Y82505D01*
X149233Y82409D01*
X149179Y82304D01*
X149141Y82192D01*
X149122Y82075D01*
X149121Y81956D01*
X149139Y81839D01*
X149177Y81726D01*
X149276Y81455D01*
X149344Y81175D01*
X149386Y80889D01*
X149400Y80600D01*
X149386Y80311D01*
X149344Y80025D01*
X149276Y79745D01*
X149180Y79472D01*
X149142Y79361D01*
X149125Y79244D01*
X149125Y79126D01*
X149145Y79009D01*
X149182Y78897D01*
X149236Y78793D01*
X149306Y78698D01*
X149391Y78615D01*
X149487Y78546D01*
X149592Y78493D01*
X149705Y78457D01*
X149821Y78440D01*
X149939Y78441D01*
X150013Y78453D01*
Y600D01*
G37*
G36*
X145868Y160600D02*X150013D01*
Y136679D01*
X149932Y136774D01*
X149752Y136927D01*
X149551Y137051D01*
X149333Y137141D01*
X149103Y137196D01*
X148868Y137210D01*
X145868Y137203D01*
Y146920D01*
X146309Y147640D01*
X146701Y148585D01*
X146940Y149580D01*
X147000Y150600D01*
X146940Y151620D01*
X146701Y152615D01*
X146309Y153560D01*
X145868Y154280D01*
Y160600D01*
G37*
G36*
X142787Y4512D02*X143460Y4791D01*
X144332Y5325D01*
X145110Y5990D01*
X145775Y6768D01*
X145868Y6920D01*
Y600D01*
X142787D01*
Y4512D01*
G37*
G36*
Y86230D02*X142935Y86169D01*
X143165Y86114D01*
X143400Y86100D01*
X145868Y86106D01*
Y85070D01*
X145537Y85022D01*
X145116Y84918D01*
X144706Y84775D01*
X144600Y84722D01*
X144504Y84653D01*
X144419Y84570D01*
X144349Y84475D01*
X144294Y84369D01*
X144257Y84257D01*
X144237Y84140D01*
X144236Y84021D01*
X144254Y83904D01*
X144290Y83791D01*
X144343Y83685D01*
X144412Y83588D01*
X144495Y83504D01*
X144591Y83433D01*
X144696Y83379D01*
X144808Y83341D01*
X144925Y83322D01*
X145044Y83321D01*
X145161Y83339D01*
X145274Y83377D01*
X145545Y83476D01*
X145825Y83544D01*
X145868Y83551D01*
Y77649D01*
X145825Y77656D01*
X145545Y77724D01*
X145272Y77820D01*
X145161Y77858D01*
X145044Y77875D01*
X144926Y77875D01*
X144809Y77855D01*
X144697Y77818D01*
X144593Y77764D01*
X144498Y77694D01*
X144415Y77609D01*
X144346Y77513D01*
X144293Y77408D01*
X144257Y77295D01*
X144240Y77179D01*
X144241Y77061D01*
X144260Y76944D01*
X144297Y76832D01*
X144352Y76727D01*
X144422Y76632D01*
X144506Y76549D01*
X144602Y76481D01*
X144708Y76430D01*
X145116Y76282D01*
X145537Y76178D01*
X145868Y76130D01*
Y14280D01*
X145775Y14432D01*
X145110Y15210D01*
X144332Y15875D01*
X143460Y16409D01*
X142787Y16688D01*
Y78449D01*
X142860Y78437D01*
X142979Y78436D01*
X143096Y78454D01*
X143209Y78490D01*
X143315Y78543D01*
X143412Y78612D01*
X143496Y78695D01*
X143567Y78791D01*
X143621Y78896D01*
X143659Y79008D01*
X143678Y79125D01*
X143679Y79244D01*
X143661Y79361D01*
X143623Y79474D01*
X143524Y79745D01*
X143456Y80025D01*
X143414Y80311D01*
X143400Y80600D01*
X143414Y80889D01*
X143456Y81175D01*
X143524Y81455D01*
X143620Y81728D01*
X143658Y81839D01*
X143675Y81956D01*
X143675Y82074D01*
X143655Y82191D01*
X143618Y82303D01*
X143564Y82407D01*
X143494Y82502D01*
X143409Y82585D01*
X143313Y82654D01*
X143208Y82707D01*
X143095Y82743D01*
X142979Y82760D01*
X142861Y82759D01*
X142787Y82747D01*
Y86230D01*
G37*
G36*
Y128215D02*X142868Y128210D01*
X145868Y128217D01*
Y95092D01*
X143165Y95086D01*
X142935Y95031D01*
X142787Y94970D01*
Y128215D01*
G37*
G36*
Y144512D02*X143460Y144791D01*
X144332Y145325D01*
X145110Y145990D01*
X145775Y146768D01*
X145868Y146920D01*
Y137203D01*
X142787Y137196D01*
Y144512D01*
G37*
G36*
Y160600D02*X145868D01*
Y154280D01*
X145775Y154432D01*
X145110Y155210D01*
X144332Y155875D01*
X143460Y156409D01*
X142787Y156688D01*
Y160600D01*
G37*
G36*
X130500D02*X142787D01*
Y156688D01*
X142515Y156801D01*
X141520Y157040D01*
X140500Y157120D01*
X139480Y157040D01*
X138485Y156801D01*
X137540Y156409D01*
X136668Y155875D01*
X135890Y155210D01*
X135225Y154432D01*
X134691Y153560D01*
X134299Y152615D01*
X134060Y151620D01*
X133980Y150600D01*
X134060Y149580D01*
X134299Y148585D01*
X134691Y147640D01*
X135225Y146768D01*
X135890Y145990D01*
X136668Y145325D01*
X137540Y144791D01*
X138485Y144399D01*
X139480Y144160D01*
X140500Y144080D01*
X141520Y144160D01*
X142515Y144399D01*
X142787Y144512D01*
Y137196D01*
X142633Y137196D01*
X142403Y137141D01*
X142185Y137051D01*
X141984Y136927D01*
X141804Y136774D01*
X141651Y136594D01*
X141527Y136393D01*
X141437Y136175D01*
X141382Y135945D01*
X141368Y135710D01*
X141382Y129475D01*
X141437Y129245D01*
X141527Y129027D01*
X141651Y128826D01*
X141804Y128646D01*
X141984Y128493D01*
X142185Y128369D01*
X142403Y128279D01*
X142633Y128224D01*
X142787Y128215D01*
Y94970D01*
X142717Y94941D01*
X142516Y94817D01*
X142336Y94664D01*
X142183Y94484D01*
X142059Y94283D01*
X141969Y94065D01*
X141914Y93835D01*
X141900Y93600D01*
X141914Y87365D01*
X141969Y87135D01*
X142059Y86917D01*
X142183Y86716D01*
X142336Y86536D01*
X142516Y86383D01*
X142717Y86259D01*
X142787Y86230D01*
Y82747D01*
X142744Y82740D01*
X142632Y82703D01*
X142527Y82648D01*
X142432Y82578D01*
X142349Y82494D01*
X142281Y82398D01*
X142230Y82292D01*
X142082Y81884D01*
X141978Y81463D01*
X141916Y81033D01*
X141895Y80600D01*
X141916Y80167D01*
X141978Y79737D01*
X142082Y79316D01*
X142225Y78906D01*
X142278Y78800D01*
X142347Y78704D01*
X142430Y78619D01*
X142525Y78549D01*
X142631Y78494D01*
X142743Y78457D01*
X142787Y78449D01*
Y16688D01*
X142515Y16801D01*
X141520Y17040D01*
X140500Y17120D01*
X139480Y17040D01*
X138485Y16801D01*
X137540Y16409D01*
X136668Y15875D01*
X135890Y15210D01*
X135225Y14432D01*
X134691Y13560D01*
X134299Y12615D01*
X134060Y11620D01*
X133980Y10600D01*
X134060Y9580D01*
X134299Y8585D01*
X134691Y7640D01*
X135225Y6768D01*
X135890Y5990D01*
X136668Y5325D01*
X137540Y4791D01*
X138485Y4399D01*
X139480Y4160D01*
X140500Y4080D01*
X141520Y4160D01*
X142515Y4399D01*
X142787Y4512D01*
Y600D01*
X130500D01*
Y160600D01*
G37*
G36*
X380500Y160500D02*X390000D01*
Y500D01*
X380500D01*
Y3980D01*
X381520Y4060D01*
X382515Y4299D01*
X383460Y4691D01*
X384332Y5225D01*
X385110Y5890D01*
X385775Y6668D01*
X386309Y7540D01*
X386701Y8485D01*
X386940Y9480D01*
X387000Y10500D01*
X386940Y11520D01*
X386701Y12515D01*
X386309Y13460D01*
X385775Y14332D01*
X385110Y15110D01*
X384332Y15775D01*
X383460Y16309D01*
X382515Y16701D01*
X381520Y16940D01*
X380500Y17020D01*
Y90585D01*
X381269Y90645D01*
X382019Y90825D01*
X382731Y91121D01*
X383389Y91524D01*
X383976Y92024D01*
X384476Y92611D01*
X384879Y93269D01*
X385175Y93981D01*
X385355Y94731D01*
X385400Y95500D01*
X385355Y96269D01*
X385175Y97019D01*
X384879Y97731D01*
X384476Y98389D01*
X383976Y98976D01*
X383389Y99476D01*
X382731Y99879D01*
X382019Y100175D01*
X381269Y100355D01*
X380500Y100415D01*
Y130607D01*
X384135Y130614D01*
X384365Y130669D01*
X384583Y130759D01*
X384784Y130883D01*
X384964Y131036D01*
X385117Y131216D01*
X385241Y131417D01*
X385331Y131635D01*
X385386Y131865D01*
X385400Y132100D01*
X385386Y139135D01*
X385331Y139365D01*
X385241Y139583D01*
X385117Y139784D01*
X384964Y139964D01*
X384784Y140117D01*
X384583Y140241D01*
X384365Y140331D01*
X384135Y140386D01*
X383900Y140400D01*
X380500Y140393D01*
Y143980D01*
X381520Y144060D01*
X382515Y144299D01*
X383460Y144691D01*
X384332Y145225D01*
X385110Y145890D01*
X385775Y146668D01*
X386309Y147540D01*
X386701Y148485D01*
X386940Y149480D01*
X387000Y150500D01*
X386940Y151520D01*
X386701Y152515D01*
X386309Y153460D01*
X385775Y154332D01*
X385110Y155110D01*
X384332Y155775D01*
X383460Y156309D01*
X382515Y156701D01*
X381520Y156940D01*
X380500Y157020D01*
Y160500D01*
G37*
G36*
X375964Y5826D02*X376668Y5225D01*
X377540Y4691D01*
X378485Y4299D01*
X379480Y4060D01*
X380500Y3980D01*
Y500D01*
X375964D01*
Y5826D01*
G37*
G36*
Y93647D02*X376121Y93269D01*
X376524Y92611D01*
X377024Y92024D01*
X377611Y91524D01*
X378269Y91121D01*
X378981Y90825D01*
X379731Y90645D01*
X380500Y90585D01*
Y17020D01*
X379480Y16940D01*
X378485Y16701D01*
X377540Y16309D01*
X376668Y15775D01*
X375964Y15174D01*
Y53972D01*
X376175Y54481D01*
X376355Y55231D01*
X376400Y56000D01*
X376355Y56769D01*
X376175Y57519D01*
X375964Y58028D01*
Y79564D01*
X376049Y79589D01*
X376155Y79639D01*
X376253Y79706D01*
X376339Y79787D01*
X376411Y79880D01*
X376466Y79984D01*
X376641Y80412D01*
X376770Y80855D01*
X376857Y81309D01*
X376900Y81769D01*
Y82231D01*
X376857Y82691D01*
X376770Y83145D01*
X376641Y83588D01*
X376471Y84018D01*
X376415Y84122D01*
X376342Y84216D01*
X376255Y84297D01*
X376157Y84364D01*
X376050Y84414D01*
X375964Y84440D01*
Y93647D01*
G37*
G36*
Y131121D02*X376036Y131036D01*
X376216Y130883D01*
X376417Y130759D01*
X376635Y130669D01*
X376865Y130614D01*
X377100Y130600D01*
X380500Y130607D01*
Y100415D01*
X379731Y100355D01*
X378981Y100175D01*
X378269Y99879D01*
X377611Y99476D01*
X377024Y98976D01*
X376524Y98389D01*
X376121Y97731D01*
X375964Y97353D01*
Y131121D01*
G37*
G36*
Y145826D02*X376668Y145225D01*
X377540Y144691D01*
X378485Y144299D01*
X379480Y144060D01*
X380500Y143980D01*
Y140393D01*
X376865Y140386D01*
X376635Y140331D01*
X376417Y140241D01*
X376216Y140117D01*
X376036Y139964D01*
X375964Y139879D01*
Y145826D01*
G37*
G36*
Y160500D02*X380500D01*
Y157020D01*
X379480Y156940D01*
X378485Y156701D01*
X377540Y156309D01*
X376668Y155775D01*
X375964Y155174D01*
Y160500D01*
G37*
G36*
Y15174D02*X375890Y15110D01*
X375225Y14332D01*
X374691Y13460D01*
X374299Y12515D01*
X374060Y11520D01*
X373980Y10500D01*
X374060Y9480D01*
X374299Y8485D01*
X374691Y7540D01*
X375225Y6668D01*
X375890Y5890D01*
X375964Y5826D01*
Y500D01*
X371000D01*
Y51124D01*
X371500Y51085D01*
X372269Y51145D01*
X373019Y51325D01*
X373731Y51621D01*
X374389Y52024D01*
X374976Y52524D01*
X375476Y53111D01*
X375879Y53769D01*
X375964Y53972D01*
Y15174D01*
G37*
G36*
X371000Y160500D02*X375964D01*
Y155174D01*
X375890Y155110D01*
X375225Y154332D01*
X374691Y153460D01*
X374299Y152515D01*
X374060Y151520D01*
X373980Y150500D01*
X374060Y149480D01*
X374299Y148485D01*
X374558Y147861D01*
X374541Y147842D01*
X374480Y147742D01*
X374435Y147632D01*
X374407Y147518D01*
X374400Y147400D01*
Y143600D01*
X374407Y143482D01*
X374435Y143368D01*
X374480Y143258D01*
X374541Y143158D01*
X374618Y143068D01*
X374708Y142991D01*
X374808Y142930D01*
X374918Y142885D01*
X375032Y142857D01*
X375150Y142848D01*
X375268Y142857D01*
X375382Y142885D01*
X375492Y142930D01*
X375592Y142991D01*
X375682Y143068D01*
X375759Y143158D01*
X375820Y143258D01*
X375865Y143368D01*
X375893Y143482D01*
X375900Y143600D01*
Y145881D01*
X375964Y145826D01*
Y139879D01*
X375883Y139784D01*
X375759Y139583D01*
X375669Y139365D01*
X375614Y139135D01*
X375600Y138900D01*
X375614Y131865D01*
X375669Y131635D01*
X375759Y131417D01*
X375883Y131216D01*
X375964Y131121D01*
Y97353D01*
X375825Y97019D01*
X375645Y96269D01*
X375585Y95500D01*
X375645Y94731D01*
X375825Y93981D01*
X375964Y93647D01*
Y84440D01*
X375936Y84448D01*
X375818Y84462D01*
X375700Y84459D01*
X375583Y84437D01*
X375472Y84396D01*
X375368Y84339D01*
X375274Y84266D01*
X375193Y84180D01*
X375126Y84082D01*
X375075Y83975D01*
X375042Y83861D01*
X375027Y83743D01*
X375031Y83624D01*
X375053Y83508D01*
X375096Y83397D01*
X375217Y83101D01*
X375306Y82793D01*
X375366Y82479D01*
X375396Y82160D01*
Y81840D01*
X375366Y81521D01*
X375306Y81207D01*
X375217Y80899D01*
X375099Y80601D01*
X375057Y80491D01*
X375035Y80375D01*
X375031Y80257D01*
X375046Y80140D01*
X375079Y80027D01*
X375129Y79920D01*
X375196Y79822D01*
X375276Y79736D01*
X375370Y79664D01*
X375473Y79607D01*
X375584Y79567D01*
X375700Y79545D01*
X375818Y79541D01*
X375935Y79556D01*
X375964Y79564D01*
Y58028D01*
X375879Y58231D01*
X375476Y58889D01*
X374976Y59476D01*
X374389Y59976D01*
X373731Y60379D01*
X373019Y60675D01*
X372269Y60855D01*
X371500Y60915D01*
X371000Y60876D01*
Y77202D01*
X371309Y77143D01*
X371769Y77100D01*
X372231D01*
X372691Y77143D01*
X373145Y77230D01*
X373588Y77359D01*
X374018Y77529D01*
X374122Y77585D01*
X374216Y77658D01*
X374297Y77745D01*
X374364Y77843D01*
X374414Y77950D01*
X374448Y78064D01*
X374462Y78182D01*
X374459Y78300D01*
X374436Y78417D01*
X374396Y78528D01*
X374339Y78632D01*
X374266Y78726D01*
X374180Y78807D01*
X374082Y78874D01*
X373975Y78925D01*
X373861Y78958D01*
X373743Y78973D01*
X373624Y78969D01*
X373508Y78947D01*
X373397Y78904D01*
X373101Y78783D01*
X372793Y78694D01*
X372479Y78634D01*
X372160Y78604D01*
X371840D01*
X371521Y78634D01*
X371207Y78694D01*
X371000Y78754D01*
Y85246D01*
X371207Y85306D01*
X371521Y85366D01*
X371840Y85396D01*
X372160D01*
X372479Y85366D01*
X372793Y85306D01*
X373101Y85217D01*
X373399Y85099D01*
X373509Y85057D01*
X373625Y85035D01*
X373743Y85031D01*
X373860Y85046D01*
X373973Y85079D01*
X374080Y85129D01*
X374178Y85196D01*
X374264Y85276D01*
X374336Y85370D01*
X374393Y85473D01*
X374433Y85584D01*
X374455Y85700D01*
X374459Y85818D01*
X374444Y85935D01*
X374411Y86049D01*
X374361Y86155D01*
X374294Y86253D01*
X374213Y86339D01*
X374120Y86411D01*
X374016Y86466D01*
X373588Y86641D01*
X373145Y86770D01*
X372691Y86857D01*
X372231Y86900D01*
X371769D01*
X371309Y86857D01*
X371000Y86798D01*
Y140600D01*
X372900D01*
X373018Y140607D01*
X373132Y140635D01*
X373242Y140680D01*
X373342Y140741D01*
X373432Y140818D01*
X373509Y140908D01*
X373570Y141008D01*
X373615Y141118D01*
X373643Y141232D01*
X373652Y141350D01*
X373643Y141468D01*
X373615Y141582D01*
X373570Y141692D01*
X373509Y141792D01*
X373432Y141882D01*
X373342Y141959D01*
X373242Y142020D01*
X373132Y142065D01*
X373018Y142093D01*
X372900Y142100D01*
X371000D01*
Y148900D01*
X372900D01*
X373018Y148907D01*
X373132Y148935D01*
X373242Y148980D01*
X373342Y149041D01*
X373432Y149118D01*
X373509Y149208D01*
X373570Y149308D01*
X373615Y149418D01*
X373643Y149532D01*
X373652Y149650D01*
X373643Y149768D01*
X373615Y149882D01*
X373570Y149992D01*
X373509Y150092D01*
X373432Y150182D01*
X373342Y150259D01*
X373242Y150320D01*
X373132Y150365D01*
X373018Y150393D01*
X372900Y150400D01*
X371000D01*
Y160500D01*
G37*
G36*
X366850Y54422D02*X367121Y53769D01*
X367524Y53111D01*
X368024Y52524D01*
X368611Y52024D01*
X369269Y51621D01*
X369981Y51325D01*
X370731Y51145D01*
X371000Y51124D01*
Y500D01*
X366850D01*
Y6514D01*
X367206Y6542D01*
X367895Y6707D01*
X368549Y6978D01*
X369153Y7348D01*
X369692Y7808D01*
X370152Y8347D01*
X370522Y8951D01*
X370793Y9605D01*
X370958Y10294D01*
X371000Y11000D01*
X370958Y11706D01*
X370793Y12395D01*
X370522Y13049D01*
X370152Y13653D01*
X369692Y14192D01*
X369153Y14652D01*
X368549Y15022D01*
X367895Y15293D01*
X367206Y15458D01*
X366850Y15486D01*
Y16514D01*
X367206Y16542D01*
X367895Y16707D01*
X368549Y16978D01*
X369153Y17348D01*
X369692Y17808D01*
X370152Y18347D01*
X370522Y18951D01*
X370793Y19605D01*
X370958Y20294D01*
X371000Y21000D01*
X370958Y21706D01*
X370793Y22395D01*
X370522Y23049D01*
X370152Y23653D01*
X369692Y24192D01*
X369153Y24652D01*
X368549Y25022D01*
X367895Y25293D01*
X367206Y25458D01*
X366850Y25486D01*
Y26514D01*
X367206Y26542D01*
X367895Y26707D01*
X368549Y26978D01*
X369153Y27348D01*
X369692Y27808D01*
X370152Y28347D01*
X370522Y28951D01*
X370793Y29605D01*
X370958Y30294D01*
X371000Y31000D01*
X370958Y31706D01*
X370793Y32395D01*
X370522Y33049D01*
X370152Y33653D01*
X369692Y34192D01*
X369153Y34652D01*
X368549Y35022D01*
X367895Y35293D01*
X367206Y35458D01*
X366850Y35486D01*
Y36514D01*
X367206Y36542D01*
X367895Y36707D01*
X368549Y36978D01*
X369153Y37348D01*
X369692Y37808D01*
X370152Y38347D01*
X370522Y38951D01*
X370793Y39605D01*
X370958Y40294D01*
X371000Y41000D01*
X370958Y41706D01*
X370793Y42395D01*
X370522Y43049D01*
X370152Y43653D01*
X369692Y44192D01*
X369153Y44652D01*
X368549Y45022D01*
X367895Y45293D01*
X367206Y45458D01*
X366850Y45486D01*
Y54422D01*
G37*
G36*
X368036Y160500D02*X371000D01*
Y150400D01*
X369100D01*
X368982Y150393D01*
X368868Y150365D01*
X368758Y150320D01*
X368658Y150259D01*
X368568Y150182D01*
X368491Y150092D01*
X368430Y149992D01*
X368385Y149882D01*
X368357Y149768D01*
X368348Y149650D01*
X368357Y149532D01*
X368385Y149418D01*
X368430Y149308D01*
X368491Y149208D01*
X368568Y149118D01*
X368658Y149041D01*
X368758Y148980D01*
X368868Y148935D01*
X368982Y148907D01*
X369100Y148900D01*
X371000D01*
Y142100D01*
X369100D01*
X368982Y142093D01*
X368868Y142065D01*
X368758Y142020D01*
X368658Y141959D01*
X368568Y141882D01*
X368491Y141792D01*
X368430Y141692D01*
X368385Y141582D01*
X368357Y141468D01*
X368348Y141350D01*
X368357Y141232D01*
X368385Y141118D01*
X368430Y141008D01*
X368491Y140908D01*
X368568Y140818D01*
X368658Y140741D01*
X368758Y140680D01*
X368868Y140635D01*
X368982Y140607D01*
X369100Y140600D01*
X371000D01*
Y86798D01*
X370855Y86770D01*
X370412Y86641D01*
X369982Y86471D01*
X369878Y86415D01*
X369784Y86342D01*
X369703Y86255D01*
X369636Y86157D01*
X369586Y86050D01*
X369552Y85936D01*
X369538Y85818D01*
X369541Y85700D01*
X369563Y85583D01*
X369604Y85472D01*
X369661Y85368D01*
X369734Y85274D01*
X369820Y85193D01*
X369918Y85126D01*
X370025Y85075D01*
X370139Y85042D01*
X370257Y85027D01*
X370376Y85031D01*
X370492Y85053D01*
X370603Y85096D01*
X370899Y85217D01*
X371000Y85246D01*
Y78754D01*
X370899Y78783D01*
X370601Y78901D01*
X370491Y78943D01*
X370375Y78965D01*
X370257Y78969D01*
X370140Y78954D01*
X370027Y78921D01*
X369920Y78871D01*
X369822Y78804D01*
X369736Y78724D01*
X369664Y78630D01*
X369607Y78527D01*
X369567Y78416D01*
X369545Y78300D01*
X369541Y78182D01*
X369556Y78065D01*
X369589Y77951D01*
X369639Y77845D01*
X369706Y77747D01*
X369787Y77661D01*
X369880Y77589D01*
X369984Y77534D01*
X370412Y77359D01*
X370855Y77230D01*
X371000Y77202D01*
Y60876D01*
X370731Y60855D01*
X369981Y60675D01*
X369269Y60379D01*
X368611Y59976D01*
X368036Y59486D01*
Y79560D01*
X368064Y79552D01*
X368182Y79538D01*
X368300Y79541D01*
X368417Y79564D01*
X368528Y79604D01*
X368632Y79661D01*
X368726Y79734D01*
X368807Y79820D01*
X368874Y79918D01*
X368925Y80025D01*
X368958Y80139D01*
X368973Y80257D01*
X368969Y80376D01*
X368947Y80492D01*
X368904Y80603D01*
X368783Y80899D01*
X368694Y81207D01*
X368634Y81521D01*
X368604Y81840D01*
Y82160D01*
X368634Y82479D01*
X368694Y82793D01*
X368783Y83101D01*
X368901Y83399D01*
X368943Y83509D01*
X368965Y83625D01*
X368969Y83743D01*
X368954Y83860D01*
X368921Y83973D01*
X368871Y84080D01*
X368804Y84178D01*
X368724Y84264D01*
X368630Y84336D01*
X368527Y84393D01*
X368416Y84433D01*
X368300Y84455D01*
X368182Y84459D01*
X368065Y84444D01*
X368036Y84436D01*
Y96777D01*
X368153Y96848D01*
X368692Y97308D01*
X369152Y97847D01*
X369522Y98451D01*
X369793Y99105D01*
X369958Y99794D01*
X370000Y100500D01*
X369958Y101206D01*
X369793Y101895D01*
X369522Y102549D01*
X369152Y103153D01*
X368692Y103692D01*
X368153Y104152D01*
X368036Y104223D01*
Y106777D01*
X368153Y106848D01*
X368692Y107308D01*
X369152Y107847D01*
X369522Y108451D01*
X369793Y109105D01*
X369958Y109794D01*
X370000Y110500D01*
X369958Y111206D01*
X369793Y111895D01*
X369522Y112549D01*
X369152Y113153D01*
X368692Y113692D01*
X368153Y114152D01*
X368036Y114223D01*
Y116777D01*
X368153Y116848D01*
X368692Y117308D01*
X369152Y117847D01*
X369522Y118451D01*
X369793Y119105D01*
X369958Y119794D01*
X370000Y120500D01*
X369958Y121206D01*
X369793Y121895D01*
X369522Y122549D01*
X369152Y123153D01*
X368692Y123692D01*
X368153Y124152D01*
X368036Y124223D01*
Y126777D01*
X368153Y126848D01*
X368692Y127308D01*
X369152Y127847D01*
X369522Y128451D01*
X369793Y129105D01*
X369958Y129794D01*
X370000Y130500D01*
X369958Y131206D01*
X369793Y131895D01*
X369522Y132549D01*
X369152Y133153D01*
X368692Y133692D01*
X368153Y134152D01*
X368036Y134223D01*
Y160500D01*
G37*
G36*
Y124223D02*X367549Y124522D01*
X366895Y124793D01*
X366850Y124804D01*
Y126196D01*
X366895Y126207D01*
X367549Y126478D01*
X368036Y126777D01*
Y124223D01*
G37*
G36*
Y114223D02*X367549Y114522D01*
X366895Y114793D01*
X366850Y114804D01*
Y116196D01*
X366895Y116207D01*
X367549Y116478D01*
X368036Y116777D01*
Y114223D01*
G37*
G36*
Y104223D02*X367549Y104522D01*
X366895Y104793D01*
X366850Y104804D01*
Y106196D01*
X366895Y106207D01*
X367549Y106478D01*
X368036Y106777D01*
Y104223D01*
G37*
G36*
Y59486D02*X368024Y59476D01*
X367524Y58889D01*
X367121Y58231D01*
X366850Y57578D01*
Y96196D01*
X366895Y96207D01*
X367549Y96478D01*
X368036Y96777D01*
Y84436D01*
X367951Y84411D01*
X367845Y84361D01*
X367747Y84294D01*
X367661Y84213D01*
X367589Y84120D01*
X367534Y84016D01*
X367359Y83588D01*
X367230Y83145D01*
X367143Y82691D01*
X367100Y82231D01*
Y81769D01*
X367143Y81309D01*
X367230Y80855D01*
X367359Y80412D01*
X367529Y79982D01*
X367585Y79878D01*
X367658Y79784D01*
X367745Y79703D01*
X367843Y79636D01*
X367950Y79586D01*
X368036Y79560D01*
Y59486D01*
G37*
G36*
X366850Y160500D02*X368036D01*
Y134223D01*
X367549Y134522D01*
X366895Y134793D01*
X366850Y134804D01*
Y142848D01*
X366968Y142857D01*
X367082Y142885D01*
X367192Y142930D01*
X367292Y142991D01*
X367382Y143068D01*
X367459Y143158D01*
X367520Y143258D01*
X367565Y143368D01*
X367593Y143482D01*
X367600Y143600D01*
Y147400D01*
X367593Y147518D01*
X367565Y147632D01*
X367520Y147742D01*
X367459Y147842D01*
X367382Y147932D01*
X367292Y148009D01*
X367192Y148070D01*
X367082Y148115D01*
X366968Y148143D01*
X366850Y148152D01*
Y160500D01*
G37*
G36*
Y124804D02*X366206Y124958D01*
X365500Y125014D01*
X365493Y125013D01*
Y125987D01*
X365500Y125986D01*
X366206Y126042D01*
X366850Y126196D01*
Y124804D01*
G37*
G36*
Y114804D02*X366206Y114958D01*
X365500Y115014D01*
X365493Y115013D01*
Y115987D01*
X365500Y115986D01*
X366206Y116042D01*
X366850Y116196D01*
Y114804D01*
G37*
G36*
Y104804D02*X366206Y104958D01*
X365500Y105014D01*
X365493Y105013D01*
Y105987D01*
X365500Y105986D01*
X366206Y106042D01*
X366850Y106196D01*
Y104804D01*
G37*
G36*
Y35486D02*X366500Y35514D01*
X365794Y35458D01*
X365493Y35386D01*
Y36614D01*
X365794Y36542D01*
X366500Y36486D01*
X366850Y36514D01*
Y35486D01*
G37*
G36*
Y25486D02*X366500Y25514D01*
X365794Y25458D01*
X365493Y25386D01*
Y26614D01*
X365794Y26542D01*
X366500Y26486D01*
X366850Y26514D01*
Y25486D01*
G37*
G36*
Y15486D02*X366500Y15514D01*
X365794Y15458D01*
X365493Y15386D01*
Y16614D01*
X365794Y16542D01*
X366500Y16486D01*
X366850Y16514D01*
Y15486D01*
G37*
G36*
Y500D02*X365493D01*
Y6614D01*
X365794Y6542D01*
X366500Y6486D01*
X366850Y6514D01*
Y500D01*
G37*
G36*
Y57578D02*X366825Y57519D01*
X366645Y56769D01*
X366585Y56000D01*
X366645Y55231D01*
X366825Y54481D01*
X366850Y54422D01*
Y45486D01*
X366500Y45514D01*
X365794Y45458D01*
X365493Y45386D01*
Y95987D01*
X365500Y95986D01*
X366206Y96042D01*
X366850Y96196D01*
Y57578D01*
G37*
G36*
X365493Y160500D02*X366850D01*
Y148152D01*
X366732Y148143D01*
X366618Y148115D01*
X366508Y148070D01*
X366408Y148009D01*
X366318Y147932D01*
X366241Y147842D01*
X366180Y147742D01*
X366135Y147632D01*
X366107Y147518D01*
X366100Y147400D01*
Y143600D01*
X366107Y143482D01*
X366135Y143368D01*
X366180Y143258D01*
X366241Y143158D01*
X366318Y143068D01*
X366408Y142991D01*
X366508Y142930D01*
X366618Y142885D01*
X366732Y142857D01*
X366850Y142848D01*
Y134804D01*
X366206Y134958D01*
X365500Y135014D01*
X365493Y135013D01*
Y160500D01*
G37*
G36*
X340113D02*X365493D01*
Y135013D01*
X364794Y134958D01*
X364105Y134793D01*
X363451Y134522D01*
X362847Y134152D01*
X362308Y133692D01*
X361848Y133153D01*
X361478Y132549D01*
X361207Y131895D01*
X361042Y131206D01*
X360986Y130500D01*
X361042Y129794D01*
X361207Y129105D01*
X361478Y128451D01*
X361848Y127847D01*
X362308Y127308D01*
X362847Y126848D01*
X363451Y126478D01*
X364105Y126207D01*
X364794Y126042D01*
X365493Y125987D01*
Y125013D01*
X364794Y124958D01*
X364105Y124793D01*
X363451Y124522D01*
X362847Y124152D01*
X362308Y123692D01*
X361848Y123153D01*
X361478Y122549D01*
X361207Y121895D01*
X361042Y121206D01*
X360986Y120500D01*
X361042Y119794D01*
X361207Y119105D01*
X361478Y118451D01*
X361848Y117847D01*
X362308Y117308D01*
X362847Y116848D01*
X363451Y116478D01*
X364105Y116207D01*
X364794Y116042D01*
X365493Y115987D01*
Y115013D01*
X364794Y114958D01*
X364105Y114793D01*
X363451Y114522D01*
X362847Y114152D01*
X362308Y113692D01*
X361848Y113153D01*
X361478Y112549D01*
X361207Y111895D01*
X361042Y111206D01*
X360986Y110500D01*
X361042Y109794D01*
X361207Y109105D01*
X361478Y108451D01*
X361848Y107847D01*
X362308Y107308D01*
X362847Y106848D01*
X363451Y106478D01*
X364105Y106207D01*
X364794Y106042D01*
X365493Y105987D01*
Y105013D01*
X364794Y104958D01*
X364105Y104793D01*
X363451Y104522D01*
X362847Y104152D01*
X362308Y103692D01*
X361848Y103153D01*
X361478Y102549D01*
X361207Y101895D01*
X361042Y101206D01*
X360986Y100500D01*
X361042Y99794D01*
X361207Y99105D01*
X361478Y98451D01*
X361848Y97847D01*
X362308Y97308D01*
X362847Y96848D01*
X363451Y96478D01*
X364105Y96207D01*
X364794Y96042D01*
X365493Y95987D01*
Y45386D01*
X365105Y45293D01*
X364451Y45022D01*
X363847Y44652D01*
X363308Y44192D01*
X362848Y43653D01*
X362478Y43049D01*
X362207Y42395D01*
X362042Y41706D01*
X361986Y41000D01*
X362042Y40294D01*
X362207Y39605D01*
X362478Y38951D01*
X362848Y38347D01*
X363308Y37808D01*
X363847Y37348D01*
X364451Y36978D01*
X365105Y36707D01*
X365493Y36614D01*
Y35386D01*
X365105Y35293D01*
X364451Y35022D01*
X363847Y34652D01*
X363308Y34192D01*
X362848Y33653D01*
X362478Y33049D01*
X362207Y32395D01*
X362042Y31706D01*
X361986Y31000D01*
X362042Y30294D01*
X362207Y29605D01*
X362478Y28951D01*
X362848Y28347D01*
X363308Y27808D01*
X363847Y27348D01*
X364451Y26978D01*
X365105Y26707D01*
X365493Y26614D01*
Y25386D01*
X365105Y25293D01*
X364451Y25022D01*
X363847Y24652D01*
X363308Y24192D01*
X362848Y23653D01*
X362478Y23049D01*
X362207Y22395D01*
X362042Y21706D01*
X361986Y21000D01*
X362042Y20294D01*
X362207Y19605D01*
X362478Y18951D01*
X362848Y18347D01*
X363308Y17808D01*
X363847Y17348D01*
X364451Y16978D01*
X365105Y16707D01*
X365493Y16614D01*
Y15386D01*
X365105Y15293D01*
X364451Y15022D01*
X363847Y14652D01*
X363308Y14192D01*
X362848Y13653D01*
X362478Y13049D01*
X362207Y12395D01*
X362042Y11706D01*
X361986Y11000D01*
X362042Y10294D01*
X362207Y9605D01*
X362478Y8951D01*
X362848Y8347D01*
X363308Y7808D01*
X363847Y7348D01*
X364451Y6978D01*
X365105Y6707D01*
X365493Y6614D01*
Y500D01*
X340113D01*
Y8853D01*
X340156Y8860D01*
X340268Y8897D01*
X340373Y8952D01*
X340468Y9022D01*
X340551Y9106D01*
X340619Y9202D01*
X340670Y9308D01*
X340818Y9716D01*
X340922Y10137D01*
X340984Y10567D01*
X341005Y11000D01*
X340984Y11433D01*
X340922Y11863D01*
X340818Y12284D01*
X340675Y12694D01*
X340622Y12800D01*
X340553Y12896D01*
X340470Y12981D01*
X340375Y13051D01*
X340269Y13106D01*
X340157Y13143D01*
X340113Y13151D01*
Y18302D01*
X340152Y18347D01*
X340522Y18951D01*
X340793Y19605D01*
X340958Y20294D01*
X341000Y21000D01*
X340958Y21706D01*
X340793Y22395D01*
X340522Y23049D01*
X340152Y23653D01*
X340113Y23698D01*
Y28302D01*
X340152Y28347D01*
X340522Y28951D01*
X340793Y29605D01*
X340958Y30294D01*
X341000Y31000D01*
X340958Y31706D01*
X340793Y32395D01*
X340522Y33049D01*
X340152Y33653D01*
X340113Y33698D01*
Y36630D01*
X340183Y36659D01*
X340384Y36783D01*
X340564Y36936D01*
X340717Y37116D01*
X340841Y37317D01*
X340931Y37535D01*
X340986Y37765D01*
X341000Y38000D01*
X340986Y44235D01*
X340931Y44465D01*
X340841Y44683D01*
X340717Y44884D01*
X340564Y45064D01*
X340384Y45217D01*
X340183Y45341D01*
X340113Y45370D01*
Y160500D01*
G37*
G36*
Y33698D02*X339692Y34192D01*
X339153Y34652D01*
X339113Y34676D01*
Y36513D01*
X339735Y36514D01*
X339965Y36569D01*
X340113Y36630D01*
Y33698D01*
G37*
G36*
Y23698D02*X339692Y24192D01*
X339153Y24652D01*
X339113Y24676D01*
Y27324D01*
X339153Y27348D01*
X339692Y27808D01*
X340113Y28302D01*
Y23698D01*
G37*
G36*
Y500D02*X339113D01*
Y17324D01*
X339153Y17348D01*
X339692Y17808D01*
X340113Y18302D01*
Y13151D01*
X340040Y13163D01*
X339921Y13164D01*
X339804Y13146D01*
X339691Y13110D01*
X339585Y13057D01*
X339488Y12988D01*
X339404Y12905D01*
X339333Y12809D01*
X339279Y12704D01*
X339241Y12592D01*
X339222Y12475D01*
X339221Y12356D01*
X339239Y12239D01*
X339277Y12126D01*
X339376Y11855D01*
X339444Y11575D01*
X339486Y11289D01*
X339500Y11000D01*
X339486Y10711D01*
X339444Y10425D01*
X339376Y10145D01*
X339280Y9872D01*
X339242Y9761D01*
X339225Y9644D01*
X339225Y9526D01*
X339245Y9409D01*
X339282Y9297D01*
X339336Y9193D01*
X339406Y9098D01*
X339491Y9015D01*
X339587Y8946D01*
X339692Y8893D01*
X339805Y8857D01*
X339921Y8840D01*
X340039Y8841D01*
X340113Y8853D01*
Y500D01*
G37*
G36*
X339113Y160500D02*X340113D01*
Y45370D01*
X339965Y45431D01*
X339735Y45486D01*
X339500Y45500D01*
X339113Y45499D01*
Y98353D01*
X339156Y98360D01*
X339268Y98397D01*
X339373Y98452D01*
X339468Y98522D01*
X339551Y98606D01*
X339619Y98702D01*
X339670Y98808D01*
X339818Y99216D01*
X339922Y99637D01*
X339984Y100067D01*
X340005Y100500D01*
X339984Y100933D01*
X339922Y101363D01*
X339818Y101784D01*
X339675Y102194D01*
X339622Y102300D01*
X339553Y102396D01*
X339470Y102481D01*
X339375Y102551D01*
X339269Y102606D01*
X339157Y102643D01*
X339113Y102651D01*
Y107802D01*
X339152Y107847D01*
X339522Y108451D01*
X339793Y109105D01*
X339958Y109794D01*
X340000Y110500D01*
X339958Y111206D01*
X339793Y111895D01*
X339522Y112549D01*
X339152Y113153D01*
X339113Y113198D01*
Y117802D01*
X339152Y117847D01*
X339522Y118451D01*
X339793Y119105D01*
X339958Y119794D01*
X340000Y120500D01*
X339958Y121206D01*
X339793Y121895D01*
X339522Y122549D01*
X339152Y123153D01*
X339113Y123198D01*
Y126130D01*
X339183Y126159D01*
X339384Y126283D01*
X339564Y126436D01*
X339717Y126616D01*
X339841Y126817D01*
X339931Y127035D01*
X339986Y127265D01*
X340000Y127500D01*
X339986Y133735D01*
X339931Y133965D01*
X339841Y134183D01*
X339717Y134384D01*
X339564Y134564D01*
X339384Y134717D01*
X339183Y134841D01*
X339113Y134870D01*
Y160500D01*
G37*
G36*
Y123198D02*X338692Y123692D01*
X338153Y124152D01*
X337549Y124522D01*
X336895Y124793D01*
X336206Y124958D01*
X335500Y125014D01*
Y126007D01*
X338735Y126014D01*
X338965Y126069D01*
X339113Y126130D01*
Y123198D01*
G37*
G36*
Y113198D02*X338692Y113692D01*
X338153Y114152D01*
X337549Y114522D01*
X336895Y114793D01*
X336206Y114958D01*
X335500Y115014D01*
Y115986D01*
X336206Y116042D01*
X336895Y116207D01*
X337549Y116478D01*
X338153Y116848D01*
X338692Y117308D01*
X339113Y117802D01*
Y113198D01*
G37*
G36*
Y45499D02*X335500Y45491D01*
Y51225D01*
X335583Y51259D01*
X335784Y51383D01*
X335964Y51536D01*
X336117Y51716D01*
X336241Y51917D01*
X336331Y52135D01*
X336386Y52365D01*
X336400Y52600D01*
X336386Y59635D01*
X336331Y59865D01*
X336241Y60083D01*
X336117Y60284D01*
X335964Y60464D01*
X335784Y60617D01*
X335583Y60741D01*
X335500Y60775D01*
Y77114D01*
X335635Y77114D01*
X335865Y77169D01*
X336083Y77259D01*
X336284Y77383D01*
X336464Y77536D01*
X336617Y77716D01*
X336741Y77917D01*
X336831Y78135D01*
X336886Y78365D01*
X336900Y78600D01*
X336886Y85635D01*
X336831Y85865D01*
X336741Y86083D01*
X336617Y86284D01*
X336464Y86464D01*
X336284Y86617D01*
X336083Y86741D01*
X335865Y86831D01*
X335635Y86886D01*
X335500Y86894D01*
Y95995D01*
X335933Y96016D01*
X336363Y96078D01*
X336784Y96182D01*
X337194Y96325D01*
X337300Y96378D01*
X337396Y96447D01*
X337481Y96530D01*
X337551Y96625D01*
X337606Y96731D01*
X337643Y96843D01*
X337663Y96960D01*
X337664Y97079D01*
X337646Y97196D01*
X337610Y97309D01*
X337557Y97415D01*
X337488Y97512D01*
X337405Y97596D01*
X337309Y97667D01*
X337204Y97721D01*
X337092Y97759D01*
X336975Y97778D01*
X336856Y97779D01*
X336739Y97761D01*
X336626Y97723D01*
X336355Y97624D01*
X336075Y97556D01*
X335789Y97514D01*
X335500Y97500D01*
Y103500D01*
X335789Y103486D01*
X336075Y103444D01*
X336355Y103376D01*
X336628Y103280D01*
X336739Y103242D01*
X336856Y103225D01*
X336974Y103225D01*
X337091Y103245D01*
X337203Y103282D01*
X337307Y103336D01*
X337402Y103406D01*
X337485Y103491D01*
X337554Y103587D01*
X337607Y103692D01*
X337643Y103805D01*
X337660Y103921D01*
X337659Y104039D01*
X337640Y104156D01*
X337603Y104268D01*
X337548Y104373D01*
X337478Y104468D01*
X337394Y104551D01*
X337298Y104619D01*
X337192Y104670D01*
X336784Y104818D01*
X336363Y104922D01*
X335933Y104984D01*
X335500Y105005D01*
Y105986D01*
X336206Y106042D01*
X336895Y106207D01*
X337549Y106478D01*
X338153Y106848D01*
X338692Y107308D01*
X339113Y107802D01*
Y102651D01*
X339040Y102663D01*
X338921Y102664D01*
X338804Y102646D01*
X338691Y102610D01*
X338585Y102557D01*
X338488Y102488D01*
X338404Y102405D01*
X338333Y102309D01*
X338279Y102204D01*
X338241Y102092D01*
X338222Y101975D01*
X338221Y101856D01*
X338239Y101739D01*
X338277Y101626D01*
X338376Y101355D01*
X338444Y101075D01*
X338486Y100789D01*
X338500Y100500D01*
X338486Y100211D01*
X338444Y99925D01*
X338376Y99645D01*
X338280Y99372D01*
X338242Y99261D01*
X338225Y99144D01*
X338225Y99026D01*
X338245Y98909D01*
X338282Y98797D01*
X338336Y98693D01*
X338406Y98598D01*
X338491Y98515D01*
X338587Y98446D01*
X338692Y98393D01*
X338805Y98357D01*
X338921Y98340D01*
X339039Y98341D01*
X339113Y98353D01*
Y45499D01*
G37*
G36*
Y34676D02*X338549Y35022D01*
X337895Y35293D01*
X337206Y35458D01*
X336500Y35514D01*
X335794Y35458D01*
X335500Y35388D01*
Y36504D01*
X339113Y36513D01*
Y34676D01*
G37*
G36*
Y24676D02*X338549Y25022D01*
X337895Y25293D01*
X337206Y25458D01*
X336500Y25514D01*
X335794Y25458D01*
X335500Y25388D01*
Y26612D01*
X335794Y26542D01*
X336500Y26486D01*
X337206Y26542D01*
X337895Y26707D01*
X338549Y26978D01*
X339113Y27324D01*
Y24676D01*
G37*
G36*
Y500D02*X335500D01*
Y6612D01*
X335637Y6578D01*
X336067Y6516D01*
X336500Y6495D01*
X336933Y6516D01*
X337363Y6578D01*
X337784Y6682D01*
X338194Y6825D01*
X338300Y6878D01*
X338396Y6947D01*
X338481Y7030D01*
X338551Y7125D01*
X338606Y7231D01*
X338643Y7343D01*
X338663Y7460D01*
X338664Y7579D01*
X338646Y7696D01*
X338610Y7809D01*
X338557Y7915D01*
X338488Y8012D01*
X338405Y8096D01*
X338309Y8167D01*
X338204Y8221D01*
X338092Y8259D01*
X337975Y8278D01*
X337856Y8279D01*
X337739Y8261D01*
X337626Y8223D01*
X337355Y8124D01*
X337075Y8056D01*
X336789Y8014D01*
X336500Y8000D01*
X336211Y8014D01*
X335925Y8056D01*
X335645Y8124D01*
X335500Y8175D01*
Y13823D01*
X335645Y13876D01*
X335925Y13944D01*
X336211Y13986D01*
X336500Y14000D01*
X336789Y13986D01*
X337075Y13944D01*
X337355Y13876D01*
X337628Y13780D01*
X337739Y13742D01*
X337856Y13725D01*
X337974Y13725D01*
X338091Y13745D01*
X338203Y13782D01*
X338307Y13836D01*
X338402Y13906D01*
X338485Y13991D01*
X338554Y14087D01*
X338607Y14192D01*
X338643Y14305D01*
X338660Y14421D01*
X338659Y14539D01*
X338640Y14656D01*
X338603Y14768D01*
X338548Y14873D01*
X338478Y14968D01*
X338394Y15051D01*
X338298Y15119D01*
X338192Y15170D01*
X337784Y15318D01*
X337363Y15422D01*
X336933Y15484D01*
X336500Y15505D01*
X336067Y15484D01*
X335637Y15422D01*
X335500Y15388D01*
Y16612D01*
X335794Y16542D01*
X336500Y16486D01*
X337206Y16542D01*
X337895Y16707D01*
X338549Y16978D01*
X339113Y17324D01*
Y500D01*
G37*
G36*
X335500Y160500D02*X339113D01*
Y134870D01*
X338965Y134931D01*
X338735Y134986D01*
X338500Y135000D01*
X335500Y134993D01*
Y143560D01*
X335675Y143981D01*
X335855Y144731D01*
X335900Y145500D01*
X335855Y146269D01*
X335675Y147019D01*
X335500Y147440D01*
Y160500D01*
G37*
G36*
Y125014D02*X334794Y124958D01*
X334105Y124793D01*
X333451Y124522D01*
X332847Y124152D01*
X332308Y123692D01*
X331848Y123153D01*
X331478Y122549D01*
X331207Y121895D01*
X331042Y121206D01*
X330992Y120580D01*
Y140585D01*
X331000Y140585D01*
X331769Y140645D01*
X332519Y140825D01*
X333231Y141121D01*
X333889Y141524D01*
X334476Y142024D01*
X334976Y142611D01*
X335379Y143269D01*
X335500Y143560D01*
Y134993D01*
X332265Y134986D01*
X332035Y134931D01*
X331817Y134841D01*
X331616Y134717D01*
X331436Y134564D01*
X331283Y134384D01*
X331159Y134183D01*
X331069Y133965D01*
X331014Y133735D01*
X331000Y133500D01*
X331014Y127265D01*
X331069Y127035D01*
X331159Y126817D01*
X331283Y126616D01*
X331436Y126436D01*
X331616Y126283D01*
X331817Y126159D01*
X332035Y126069D01*
X332265Y126014D01*
X332500Y126000D01*
X335500Y126007D01*
Y125014D01*
G37*
G36*
Y115014D02*X334794Y114958D01*
X334105Y114793D01*
X333451Y114522D01*
X332847Y114152D01*
X332308Y113692D01*
X331848Y113153D01*
X331478Y112549D01*
X331207Y111895D01*
X331042Y111206D01*
X330992Y110580D01*
Y120420D01*
X331042Y119794D01*
X331207Y119105D01*
X331478Y118451D01*
X331848Y117847D01*
X332308Y117308D01*
X332847Y116848D01*
X333451Y116478D01*
X334105Y116207D01*
X334794Y116042D01*
X335500Y115986D01*
Y115014D01*
G37*
G36*
Y86894D02*X335400Y86900D01*
X331887Y86893D01*
Y98349D01*
X331960Y98337D01*
X332079Y98336D01*
X332196Y98354D01*
X332309Y98390D01*
X332415Y98443D01*
X332512Y98512D01*
X332596Y98595D01*
X332667Y98691D01*
X332721Y98796D01*
X332759Y98908D01*
X332778Y99025D01*
X332779Y99144D01*
X332761Y99261D01*
X332723Y99374D01*
X332624Y99645D01*
X332556Y99925D01*
X332514Y100211D01*
X332500Y100500D01*
X332514Y100789D01*
X332556Y101075D01*
X332624Y101355D01*
X332720Y101628D01*
X332758Y101739D01*
X332775Y101856D01*
X332775Y101974D01*
X332755Y102091D01*
X332718Y102203D01*
X332664Y102307D01*
X332594Y102402D01*
X332509Y102485D01*
X332413Y102554D01*
X332308Y102607D01*
X332195Y102643D01*
X332079Y102660D01*
X331961Y102659D01*
X331887Y102647D01*
Y107802D01*
X332308Y107308D01*
X332847Y106848D01*
X333451Y106478D01*
X334105Y106207D01*
X334794Y106042D01*
X335500Y105986D01*
Y105005D01*
X335067Y104984D01*
X334637Y104922D01*
X334216Y104818D01*
X333806Y104675D01*
X333700Y104622D01*
X333604Y104553D01*
X333519Y104470D01*
X333449Y104375D01*
X333394Y104269D01*
X333357Y104157D01*
X333337Y104040D01*
X333336Y103921D01*
X333354Y103804D01*
X333390Y103691D01*
X333443Y103585D01*
X333512Y103488D01*
X333595Y103404D01*
X333691Y103333D01*
X333796Y103279D01*
X333908Y103241D01*
X334025Y103222D01*
X334144Y103221D01*
X334261Y103239D01*
X334374Y103277D01*
X334645Y103376D01*
X334925Y103444D01*
X335211Y103486D01*
X335500Y103500D01*
Y97500D01*
X335211Y97514D01*
X334925Y97556D01*
X334645Y97624D01*
X334372Y97720D01*
X334261Y97758D01*
X334144Y97775D01*
X334026Y97775D01*
X333909Y97755D01*
X333797Y97718D01*
X333693Y97664D01*
X333598Y97594D01*
X333515Y97509D01*
X333446Y97413D01*
X333393Y97308D01*
X333357Y97195D01*
X333340Y97079D01*
X333341Y96961D01*
X333360Y96844D01*
X333397Y96732D01*
X333452Y96627D01*
X333522Y96532D01*
X333606Y96449D01*
X333702Y96381D01*
X333808Y96330D01*
X334216Y96182D01*
X334637Y96078D01*
X335067Y96016D01*
X335500Y95995D01*
Y86894D01*
G37*
G36*
X331887Y86893D02*X330992Y86891D01*
Y110420D01*
X331042Y109794D01*
X331207Y109105D01*
X331478Y108451D01*
X331848Y107847D01*
X331887Y107802D01*
Y102647D01*
X331844Y102640D01*
X331732Y102603D01*
X331627Y102548D01*
X331532Y102478D01*
X331449Y102394D01*
X331381Y102298D01*
X331330Y102192D01*
X331182Y101784D01*
X331078Y101363D01*
X331016Y100933D01*
X330995Y100500D01*
X331016Y100067D01*
X331078Y99637D01*
X331182Y99216D01*
X331325Y98806D01*
X331378Y98700D01*
X331447Y98604D01*
X331530Y98519D01*
X331625Y98449D01*
X331731Y98394D01*
X331843Y98357D01*
X331887Y98349D01*
Y86893D01*
G37*
G36*
X335500Y60775D02*X335365Y60831D01*
X335135Y60886D01*
X334900Y60900D01*
X330992Y60892D01*
Y77105D01*
X335500Y77114D01*
Y60775D01*
G37*
G36*
X332887Y28302D02*X333308Y27808D01*
X333847Y27348D01*
X334451Y26978D01*
X335105Y26707D01*
X335500Y26612D01*
Y25388D01*
X335105Y25293D01*
X334451Y25022D01*
X333847Y24652D01*
X333308Y24192D01*
X332887Y23698D01*
Y28302D01*
G37*
G36*
Y36630D02*X333035Y36569D01*
X333265Y36514D01*
X333500Y36500D01*
X335500Y36504D01*
Y35388D01*
X335105Y35293D01*
X334451Y35022D01*
X333847Y34652D01*
X333308Y34192D01*
X332887Y33698D01*
Y36630D01*
G37*
G36*
Y51109D02*X335135Y51114D01*
X335365Y51169D01*
X335500Y51225D01*
Y45491D01*
X333265Y45486D01*
X333035Y45431D01*
X332887Y45370D01*
Y51109D01*
G37*
G36*
X335500Y500D02*X332887D01*
Y8849D01*
X332960Y8837D01*
X333079Y8836D01*
X333196Y8854D01*
X333309Y8890D01*
X333415Y8943D01*
X333512Y9012D01*
X333596Y9095D01*
X333667Y9191D01*
X333721Y9296D01*
X333759Y9408D01*
X333778Y9525D01*
X333779Y9644D01*
X333761Y9761D01*
X333723Y9874D01*
X333624Y10145D01*
X333556Y10425D01*
X333514Y10711D01*
X333500Y11000D01*
X333514Y11289D01*
X333556Y11575D01*
X333624Y11855D01*
X333720Y12128D01*
X333758Y12239D01*
X333775Y12356D01*
X333775Y12474D01*
X333755Y12591D01*
X333718Y12703D01*
X333664Y12807D01*
X333594Y12902D01*
X333509Y12985D01*
X333413Y13054D01*
X333308Y13107D01*
X333195Y13143D01*
X333079Y13160D01*
X332961Y13159D01*
X332887Y13147D01*
Y18302D01*
X333308Y17808D01*
X333847Y17348D01*
X334451Y16978D01*
X335105Y16707D01*
X335500Y16612D01*
Y15388D01*
X335216Y15318D01*
X334806Y15175D01*
X334700Y15122D01*
X334604Y15053D01*
X334519Y14970D01*
X334449Y14875D01*
X334394Y14769D01*
X334357Y14657D01*
X334337Y14540D01*
X334336Y14421D01*
X334354Y14304D01*
X334390Y14191D01*
X334443Y14085D01*
X334512Y13988D01*
X334595Y13904D01*
X334691Y13833D01*
X334796Y13779D01*
X334908Y13741D01*
X335025Y13722D01*
X335144Y13721D01*
X335261Y13739D01*
X335374Y13777D01*
X335500Y13823D01*
Y8175D01*
X335372Y8220D01*
X335261Y8258D01*
X335144Y8275D01*
X335026Y8275D01*
X334909Y8255D01*
X334797Y8218D01*
X334693Y8164D01*
X334598Y8094D01*
X334515Y8009D01*
X334446Y7913D01*
X334393Y7808D01*
X334357Y7695D01*
X334340Y7579D01*
X334341Y7461D01*
X334360Y7344D01*
X334397Y7232D01*
X334452Y7127D01*
X334522Y7032D01*
X334606Y6949D01*
X334702Y6881D01*
X334808Y6830D01*
X335216Y6682D01*
X335500Y6612D01*
Y500D01*
G37*
G36*
X332887D02*X330992D01*
Y51106D01*
X332887Y51109D01*
Y45370D01*
X332817Y45341D01*
X332616Y45217D01*
X332436Y45064D01*
X332283Y44884D01*
X332159Y44683D01*
X332069Y44465D01*
X332014Y44235D01*
X332000Y44000D01*
X332014Y37765D01*
X332069Y37535D01*
X332159Y37317D01*
X332283Y37116D01*
X332436Y36936D01*
X332616Y36783D01*
X332817Y36659D01*
X332887Y36630D01*
Y33698D01*
X332848Y33653D01*
X332478Y33049D01*
X332207Y32395D01*
X332042Y31706D01*
X331986Y31000D01*
X332042Y30294D01*
X332207Y29605D01*
X332478Y28951D01*
X332848Y28347D01*
X332887Y28302D01*
Y23698D01*
X332848Y23653D01*
X332478Y23049D01*
X332207Y22395D01*
X332042Y21706D01*
X331986Y21000D01*
X332042Y20294D01*
X332207Y19605D01*
X332478Y18951D01*
X332848Y18347D01*
X332887Y18302D01*
Y13147D01*
X332844Y13140D01*
X332732Y13103D01*
X332627Y13048D01*
X332532Y12978D01*
X332449Y12894D01*
X332381Y12798D01*
X332330Y12692D01*
X332182Y12284D01*
X332078Y11863D01*
X332016Y11433D01*
X331995Y11000D01*
X332016Y10567D01*
X332078Y10137D01*
X332182Y9716D01*
X332325Y9306D01*
X332378Y9200D01*
X332447Y9104D01*
X332530Y9019D01*
X332625Y8949D01*
X332731Y8894D01*
X332843Y8857D01*
X332887Y8849D01*
Y500D01*
G37*
G36*
X330992Y160500D02*X335500D01*
Y147440D01*
X335379Y147731D01*
X334976Y148389D01*
X334476Y148976D01*
X333889Y149476D01*
X333231Y149879D01*
X332519Y150175D01*
X331769Y150355D01*
X331000Y150415D01*
X330992Y150415D01*
Y160500D01*
G37*
G36*
X322613D02*X330992D01*
Y150415D01*
X330231Y150355D01*
X329481Y150175D01*
X328769Y149879D01*
X328111Y149476D01*
X327524Y148976D01*
X327024Y148389D01*
X326621Y147731D01*
X326325Y147019D01*
X326145Y146269D01*
X326085Y145500D01*
X326145Y144731D01*
X326325Y143981D01*
X326621Y143269D01*
X327024Y142611D01*
X327524Y142024D01*
X328111Y141524D01*
X328769Y141121D01*
X329481Y140825D01*
X330231Y140645D01*
X330992Y140585D01*
Y120580D01*
X330986Y120500D01*
X330992Y120420D01*
Y110580D01*
X330986Y110500D01*
X330992Y110420D01*
Y86891D01*
X328365Y86886D01*
X328135Y86831D01*
X327917Y86741D01*
X327716Y86617D01*
X327536Y86464D01*
X327383Y86284D01*
X327259Y86083D01*
X327169Y85865D01*
X327114Y85635D01*
X327100Y85400D01*
X327114Y78365D01*
X327169Y78135D01*
X327259Y77917D01*
X327383Y77716D01*
X327536Y77536D01*
X327716Y77383D01*
X327917Y77259D01*
X328135Y77169D01*
X328365Y77114D01*
X328600Y77100D01*
X330992Y77105D01*
Y60892D01*
X327865Y60886D01*
X327635Y60831D01*
X327417Y60741D01*
X327216Y60617D01*
X327036Y60464D01*
X326883Y60284D01*
X326759Y60083D01*
X326669Y59865D01*
X326614Y59635D01*
X326600Y59400D01*
X326614Y52365D01*
X326669Y52135D01*
X326759Y51917D01*
X326883Y51716D01*
X327036Y51536D01*
X327216Y51383D01*
X327417Y51259D01*
X327635Y51169D01*
X327865Y51114D01*
X328100Y51100D01*
X330992Y51106D01*
Y500D01*
X322613D01*
Y68853D01*
X322656Y68860D01*
X322768Y68897D01*
X322873Y68952D01*
X322968Y69022D01*
X323051Y69106D01*
X323119Y69202D01*
X323170Y69308D01*
X323318Y69716D01*
X323422Y70137D01*
X323484Y70567D01*
X323505Y71000D01*
X323484Y71433D01*
X323422Y71863D01*
X323318Y72284D01*
X323175Y72694D01*
X323122Y72800D01*
X323053Y72896D01*
X322970Y72981D01*
X322875Y73051D01*
X322769Y73106D01*
X322657Y73143D01*
X322613Y73151D01*
Y146237D01*
X322948Y146442D01*
X323546Y146954D01*
X324058Y147552D01*
X324469Y148223D01*
X324770Y148950D01*
X324954Y149715D01*
X325000Y150500D01*
X324954Y151285D01*
X324770Y152050D01*
X324469Y152777D01*
X324058Y153448D01*
X323546Y154046D01*
X322948Y154558D01*
X322613Y154763D01*
Y160500D01*
G37*
G36*
Y500D02*X319993D01*
Y66610D01*
X320284Y66682D01*
X320694Y66825D01*
X320800Y66878D01*
X320896Y66947D01*
X320981Y67030D01*
X321051Y67125D01*
X321106Y67231D01*
X321143Y67343D01*
X321163Y67460D01*
X321164Y67579D01*
X321146Y67696D01*
X321110Y67809D01*
X321057Y67915D01*
X320988Y68012D01*
X320905Y68096D01*
X320809Y68167D01*
X320704Y68221D01*
X320592Y68259D01*
X320475Y68278D01*
X320356Y68279D01*
X320239Y68261D01*
X320126Y68223D01*
X319993Y68175D01*
Y73827D01*
X320128Y73780D01*
X320239Y73742D01*
X320356Y73725D01*
X320474Y73725D01*
X320591Y73745D01*
X320703Y73782D01*
X320807Y73836D01*
X320902Y73906D01*
X320985Y73991D01*
X321054Y74087D01*
X321107Y74192D01*
X321143Y74305D01*
X321160Y74421D01*
X321159Y74539D01*
X321140Y74656D01*
X321103Y74768D01*
X321048Y74873D01*
X320978Y74968D01*
X320894Y75051D01*
X320798Y75119D01*
X320692Y75170D01*
X320284Y75318D01*
X319993Y75390D01*
Y87645D01*
X320078Y87681D01*
X320179Y87743D01*
X320269Y87819D01*
X320345Y87909D01*
X320405Y88011D01*
X320622Y88480D01*
X320789Y88969D01*
X320909Y89472D01*
X320982Y89984D01*
X321006Y90500D01*
X320982Y91016D01*
X320909Y91528D01*
X320789Y92031D01*
X320622Y92520D01*
X320410Y92992D01*
X320349Y93093D01*
X320272Y93184D01*
X320182Y93261D01*
X320080Y93323D01*
X319993Y93360D01*
Y107305D01*
X320416Y107995D01*
X320747Y108795D01*
X320949Y109637D01*
X321000Y110500D01*
X320949Y111363D01*
X320747Y112205D01*
X320416Y113005D01*
X319993Y113695D01*
Y145485D01*
X320000Y145485D01*
X320785Y145546D01*
X321550Y145730D01*
X322277Y146031D01*
X322613Y146237D01*
Y73151D01*
X322540Y73163D01*
X322421Y73164D01*
X322304Y73146D01*
X322191Y73110D01*
X322085Y73057D01*
X321988Y72988D01*
X321904Y72905D01*
X321833Y72809D01*
X321779Y72704D01*
X321741Y72592D01*
X321722Y72475D01*
X321721Y72356D01*
X321739Y72239D01*
X321777Y72126D01*
X321876Y71855D01*
X321944Y71575D01*
X321986Y71289D01*
X322000Y71000D01*
X321986Y70711D01*
X321944Y70425D01*
X321876Y70145D01*
X321780Y69872D01*
X321742Y69761D01*
X321725Y69644D01*
X321725Y69526D01*
X321745Y69409D01*
X321782Y69297D01*
X321836Y69193D01*
X321906Y69098D01*
X321991Y69015D01*
X322087Y68946D01*
X322192Y68893D01*
X322305Y68857D01*
X322421Y68840D01*
X322539Y68841D01*
X322613Y68853D01*
Y500D01*
G37*
G36*
X319993Y160500D02*X322613D01*
Y154763D01*
X322277Y154969D01*
X321550Y155270D01*
X320785Y155454D01*
X320000Y155515D01*
X319993Y155515D01*
Y160500D01*
G37*
G36*
Y113695D02*X319963Y113743D01*
X319401Y114401D01*
X318743Y114963D01*
X318005Y115416D01*
X317205Y115747D01*
X316363Y115949D01*
X315500Y116017D01*
X315000Y115978D01*
Y150304D01*
X315046Y149715D01*
X315230Y148950D01*
X315531Y148223D01*
X315942Y147552D01*
X316454Y146954D01*
X317052Y146442D01*
X317723Y146031D01*
X318450Y145730D01*
X319215Y145546D01*
X319993Y145485D01*
Y113695D01*
G37*
G36*
Y500D02*X315000D01*
Y69050D01*
X315030Y69019D01*
X315125Y68949D01*
X315231Y68894D01*
X315343Y68857D01*
X315460Y68837D01*
X315579Y68836D01*
X315696Y68854D01*
X315809Y68890D01*
X315915Y68943D01*
X316012Y69012D01*
X316096Y69095D01*
X316167Y69191D01*
X316221Y69296D01*
X316259Y69408D01*
X316278Y69525D01*
X316279Y69644D01*
X316261Y69761D01*
X316223Y69874D01*
X316124Y70145D01*
X316056Y70425D01*
X316014Y70711D01*
X316000Y71000D01*
X316014Y71289D01*
X316056Y71575D01*
X316124Y71855D01*
X316220Y72128D01*
X316258Y72239D01*
X316275Y72356D01*
X316275Y72474D01*
X316255Y72591D01*
X316218Y72703D01*
X316164Y72807D01*
X316094Y72902D01*
X316009Y72985D01*
X315913Y73054D01*
X315808Y73107D01*
X315695Y73143D01*
X315579Y73160D01*
X315461Y73159D01*
X315344Y73140D01*
X315232Y73103D01*
X315127Y73048D01*
X315032Y72978D01*
X315000Y72945D01*
Y85017D01*
X315500Y84994D01*
X316016Y85018D01*
X316528Y85091D01*
X317031Y85211D01*
X317520Y85378D01*
X317992Y85590D01*
X318093Y85651D01*
X318184Y85728D01*
X318261Y85818D01*
X318323Y85920D01*
X318369Y86029D01*
X318397Y86145D01*
X318406Y86263D01*
X318397Y86381D01*
X318370Y86497D01*
X318324Y86607D01*
X318262Y86708D01*
X318186Y86798D01*
X318095Y86876D01*
X317994Y86938D01*
X317885Y86984D01*
X317769Y87011D01*
X317651Y87021D01*
X317532Y87012D01*
X317417Y86984D01*
X317308Y86937D01*
X316968Y86779D01*
X316612Y86658D01*
X316247Y86570D01*
X315875Y86518D01*
X315500Y86500D01*
X315125Y86518D01*
X315000Y86535D01*
Y94465D01*
X315125Y94482D01*
X315500Y94500D01*
X315875Y94482D01*
X316247Y94430D01*
X316612Y94342D01*
X316968Y94221D01*
X317310Y94067D01*
X317418Y94020D01*
X317533Y93993D01*
X317651Y93983D01*
X317768Y93993D01*
X317883Y94021D01*
X317992Y94066D01*
X318093Y94128D01*
X318182Y94205D01*
X318259Y94295D01*
X318320Y94395D01*
X318365Y94504D01*
X318393Y94619D01*
X318402Y94737D01*
X318392Y94855D01*
X318365Y94969D01*
X318319Y95078D01*
X318257Y95179D01*
X318181Y95269D01*
X318091Y95345D01*
X317989Y95405D01*
X317520Y95622D01*
X317031Y95789D01*
X316528Y95909D01*
X316016Y95982D01*
X315500Y96006D01*
X315000Y95983D01*
Y105022D01*
X315500Y104983D01*
X316363Y105051D01*
X317205Y105253D01*
X318005Y105584D01*
X318743Y106037D01*
X319401Y106599D01*
X319963Y107257D01*
X319993Y107305D01*
Y93360D01*
X319971Y93369D01*
X319855Y93397D01*
X319737Y93406D01*
X319619Y93397D01*
X319503Y93370D01*
X319393Y93324D01*
X319292Y93262D01*
X319202Y93186D01*
X319124Y93095D01*
X319062Y92994D01*
X319016Y92885D01*
X318989Y92769D01*
X318979Y92651D01*
X318988Y92532D01*
X319016Y92417D01*
X319063Y92308D01*
X319221Y91968D01*
X319342Y91612D01*
X319430Y91247D01*
X319482Y90875D01*
X319500Y90500D01*
X319482Y90125D01*
X319430Y89753D01*
X319342Y89388D01*
X319221Y89032D01*
X319067Y88690D01*
X319020Y88582D01*
X318993Y88467D01*
X318983Y88349D01*
X318993Y88232D01*
X319021Y88117D01*
X319066Y88008D01*
X319128Y87907D01*
X319205Y87818D01*
X319295Y87741D01*
X319395Y87680D01*
X319504Y87635D01*
X319619Y87607D01*
X319737Y87598D01*
X319855Y87608D01*
X319969Y87635D01*
X319993Y87645D01*
Y75390D01*
X319863Y75422D01*
X319433Y75484D01*
X319000Y75505D01*
X318567Y75484D01*
X318137Y75422D01*
X317716Y75318D01*
X317306Y75175D01*
X317200Y75122D01*
X317104Y75053D01*
X317019Y74970D01*
X316949Y74875D01*
X316894Y74769D01*
X316857Y74657D01*
X316837Y74540D01*
X316836Y74421D01*
X316854Y74304D01*
X316890Y74191D01*
X316943Y74085D01*
X317012Y73988D01*
X317095Y73904D01*
X317191Y73833D01*
X317296Y73779D01*
X317408Y73741D01*
X317525Y73722D01*
X317644Y73721D01*
X317761Y73739D01*
X317874Y73777D01*
X318145Y73876D01*
X318425Y73944D01*
X318711Y73986D01*
X319000Y74000D01*
X319289Y73986D01*
X319575Y73944D01*
X319855Y73876D01*
X319993Y73827D01*
Y68175D01*
X319855Y68124D01*
X319575Y68056D01*
X319289Y68014D01*
X319000Y68000D01*
X318711Y68014D01*
X318425Y68056D01*
X318145Y68124D01*
X317872Y68220D01*
X317761Y68258D01*
X317644Y68275D01*
X317526Y68275D01*
X317409Y68255D01*
X317297Y68218D01*
X317193Y68164D01*
X317098Y68094D01*
X317015Y68009D01*
X316946Y67913D01*
X316893Y67808D01*
X316857Y67695D01*
X316840Y67579D01*
X316841Y67461D01*
X316860Y67344D01*
X316897Y67232D01*
X316952Y67127D01*
X317022Y67032D01*
X317106Y66949D01*
X317202Y66881D01*
X317308Y66830D01*
X317716Y66682D01*
X318137Y66578D01*
X318567Y66516D01*
X319000Y66495D01*
X319433Y66516D01*
X319863Y66578D01*
X319993Y66610D01*
Y500D01*
G37*
G36*
X315000Y160500D02*X319993D01*
Y155515D01*
X319215Y155454D01*
X318450Y155270D01*
X317723Y154969D01*
X317052Y154558D01*
X316454Y154046D01*
X315942Y153448D01*
X315531Y152777D01*
X315230Y152050D01*
X315046Y151285D01*
X315000Y150696D01*
Y160500D01*
G37*
G36*
Y147000D02*X314993Y150387D01*
X315000Y150304D01*
Y147000D01*
G37*
G36*
X311007Y107305D02*X311037Y107257D01*
X311599Y106599D01*
X312257Y106037D01*
X312995Y105584D01*
X313795Y105253D01*
X314637Y105051D01*
X315000Y105022D01*
Y95983D01*
X314984Y95982D01*
X314472Y95909D01*
X313969Y95789D01*
X313480Y95622D01*
X313008Y95410D01*
X312907Y95349D01*
X312816Y95272D01*
X312739Y95182D01*
X312677Y95080D01*
X312631Y94971D01*
X312603Y94855D01*
X312594Y94737D01*
X312603Y94619D01*
X312630Y94503D01*
X312676Y94393D01*
X312738Y94292D01*
X312814Y94202D01*
X312905Y94124D01*
X313006Y94062D01*
X313115Y94016D01*
X313231Y93989D01*
X313349Y93979D01*
X313468Y93988D01*
X313583Y94016D01*
X313692Y94063D01*
X314032Y94221D01*
X314388Y94342D01*
X314753Y94430D01*
X315000Y94465D01*
Y86535D01*
X314753Y86570D01*
X314388Y86658D01*
X314032Y86779D01*
X313690Y86933D01*
X313582Y86980D01*
X313467Y87007D01*
X313349Y87017D01*
X313232Y87007D01*
X313117Y86979D01*
X313008Y86934D01*
X312907Y86872D01*
X312818Y86795D01*
X312741Y86705D01*
X312680Y86605D01*
X312635Y86496D01*
X312607Y86381D01*
X312598Y86263D01*
X312608Y86145D01*
X312635Y86031D01*
X312681Y85922D01*
X312743Y85821D01*
X312819Y85731D01*
X312909Y85655D01*
X313011Y85595D01*
X313480Y85378D01*
X313969Y85211D01*
X314472Y85091D01*
X314984Y85018D01*
X315000Y85017D01*
Y72945D01*
X314949Y72894D01*
X314881Y72798D01*
X314830Y72692D01*
X314682Y72284D01*
X314578Y71863D01*
X314516Y71433D01*
X314495Y71000D01*
X314516Y70567D01*
X314578Y70137D01*
X314682Y69716D01*
X314825Y69306D01*
X314878Y69200D01*
X314947Y69104D01*
X315000Y69050D01*
Y500D01*
X311007D01*
Y66511D01*
X312235Y66514D01*
X312465Y66569D01*
X312683Y66659D01*
X312884Y66783D01*
X313064Y66936D01*
X313217Y67116D01*
X313341Y67317D01*
X313431Y67535D01*
X313486Y67765D01*
X313500Y68000D01*
X313486Y74235D01*
X313431Y74465D01*
X313341Y74683D01*
X313217Y74884D01*
X313064Y75064D01*
X312884Y75217D01*
X312683Y75341D01*
X312465Y75431D01*
X312235Y75486D01*
X312000Y75500D01*
X311007Y75498D01*
Y87640D01*
X311029Y87631D01*
X311145Y87603D01*
X311263Y87594D01*
X311381Y87603D01*
X311497Y87630D01*
X311607Y87676D01*
X311708Y87738D01*
X311798Y87814D01*
X311876Y87905D01*
X311938Y88006D01*
X311984Y88115D01*
X312011Y88231D01*
X312021Y88349D01*
X312012Y88468D01*
X311984Y88583D01*
X311937Y88692D01*
X311779Y89032D01*
X311658Y89388D01*
X311570Y89753D01*
X311518Y90125D01*
X311500Y90500D01*
X311518Y90875D01*
X311570Y91247D01*
X311658Y91612D01*
X311779Y91968D01*
X311933Y92310D01*
X311980Y92418D01*
X312007Y92533D01*
X312017Y92651D01*
X312007Y92768D01*
X311979Y92883D01*
X311934Y92992D01*
X311872Y93093D01*
X311795Y93182D01*
X311705Y93259D01*
X311605Y93320D01*
X311496Y93365D01*
X311381Y93393D01*
X311263Y93402D01*
X311145Y93392D01*
X311031Y93365D01*
X311007Y93355D01*
Y107305D01*
G37*
G36*
Y145509D02*X313735Y145514D01*
X313965Y145569D01*
X314183Y145659D01*
X314384Y145783D01*
X314564Y145936D01*
X314717Y146116D01*
X314841Y146317D01*
X314931Y146535D01*
X314986Y146765D01*
X315000Y147000D01*
Y115978D01*
X314637Y115949D01*
X313795Y115747D01*
X312995Y115416D01*
X312257Y114963D01*
X311599Y114401D01*
X311037Y113743D01*
X311007Y113695D01*
Y145509D01*
G37*
G36*
Y160500D02*X315000D01*
Y150696D01*
X314993Y150608D01*
X314986Y154235D01*
X314931Y154465D01*
X314841Y154683D01*
X314717Y154884D01*
X314564Y155064D01*
X314384Y155217D01*
X314183Y155341D01*
X313965Y155431D01*
X313735Y155486D01*
X313500Y155500D01*
X311007Y155495D01*
Y160500D01*
G37*
G36*
X299000D02*X311007D01*
Y155495D01*
X306265Y155486D01*
X306035Y155431D01*
X305817Y155341D01*
X305616Y155217D01*
X305436Y155064D01*
X305283Y154884D01*
X305159Y154683D01*
X305069Y154465D01*
X305014Y154235D01*
X305000Y154000D01*
X305014Y146765D01*
X305069Y146535D01*
X305159Y146317D01*
X305283Y146116D01*
X305436Y145936D01*
X305616Y145783D01*
X305817Y145659D01*
X306035Y145569D01*
X306265Y145514D01*
X306500Y145500D01*
X311007Y145509D01*
Y113695D01*
X310584Y113005D01*
X310253Y112205D01*
X310051Y111363D01*
X309983Y110500D01*
X310051Y109637D01*
X310253Y108795D01*
X310584Y107995D01*
X311007Y107305D01*
Y93355D01*
X310922Y93319D01*
X310821Y93257D01*
X310731Y93181D01*
X310655Y93091D01*
X310595Y92989D01*
X310378Y92520D01*
X310211Y92031D01*
X310091Y91528D01*
X310018Y91016D01*
X309994Y90500D01*
X310018Y89984D01*
X310091Y89472D01*
X310211Y88969D01*
X310378Y88480D01*
X310590Y88008D01*
X310651Y87907D01*
X310728Y87816D01*
X310818Y87739D01*
X310920Y87677D01*
X311007Y87640D01*
Y75498D01*
X305765Y75486D01*
X305535Y75431D01*
X305317Y75341D01*
X305116Y75217D01*
X304936Y75064D01*
X304783Y74884D01*
X304659Y74683D01*
X304569Y74465D01*
X304514Y74235D01*
X304500Y74000D01*
X304514Y67765D01*
X304569Y67535D01*
X304659Y67317D01*
X304783Y67116D01*
X304936Y66936D01*
X305116Y66783D01*
X305317Y66659D01*
X305535Y66569D01*
X305765Y66514D01*
X306000Y66500D01*
X311007Y66511D01*
Y500D01*
X299000D01*
Y50281D01*
X299118Y50382D01*
X299640Y50992D01*
X300059Y51677D01*
X300366Y52419D01*
X300554Y53200D01*
X300601Y54000D01*
X300554Y54800D01*
X300366Y55581D01*
X300059Y56323D01*
X299640Y57008D01*
X299118Y57618D01*
X299000Y57719D01*
Y69498D01*
X299118Y69507D01*
X299232Y69535D01*
X299342Y69580D01*
X299442Y69641D01*
X299532Y69718D01*
X299609Y69808D01*
X299670Y69908D01*
X299715Y70018D01*
X299743Y70132D01*
X299750Y70250D01*
Y73750D01*
X299743Y73868D01*
X299715Y73982D01*
X299670Y74092D01*
X299609Y74192D01*
X299532Y74282D01*
X299442Y74359D01*
X299342Y74420D01*
X299232Y74465D01*
X299118Y74493D01*
X299000Y74502D01*
Y98985D01*
X299058Y99052D01*
X299469Y99723D01*
X299770Y100450D01*
X299954Y101215D01*
X300000Y102000D01*
X299954Y102785D01*
X299770Y103550D01*
X299469Y104277D01*
X299058Y104948D01*
X299000Y105015D01*
Y160500D01*
G37*
G36*
Y57719D02*X298508Y58140D01*
X297823Y58559D01*
X297081Y58866D01*
X296300Y59054D01*
X295500Y59117D01*
X294992Y59077D01*
Y67250D01*
X296750D01*
X296868Y67257D01*
X296982Y67285D01*
X297092Y67330D01*
X297192Y67391D01*
X297282Y67468D01*
X297359Y67558D01*
X297420Y67658D01*
X297465Y67768D01*
X297493Y67882D01*
X297502Y68000D01*
X297493Y68118D01*
X297465Y68232D01*
X297420Y68342D01*
X297359Y68442D01*
X297282Y68532D01*
X297192Y68609D01*
X297092Y68670D01*
X296982Y68715D01*
X296868Y68743D01*
X296750Y68750D01*
X294992D01*
Y75250D01*
X296750D01*
X296868Y75257D01*
X296982Y75285D01*
X297092Y75330D01*
X297192Y75391D01*
X297282Y75468D01*
X297359Y75558D01*
X297420Y75658D01*
X297465Y75768D01*
X297493Y75882D01*
X297502Y76000D01*
X297493Y76118D01*
X297465Y76232D01*
X297420Y76342D01*
X297359Y76442D01*
X297282Y76532D01*
X297192Y76609D01*
X297092Y76670D01*
X296982Y76715D01*
X296868Y76743D01*
X296750Y76750D01*
X294992D01*
Y96985D01*
X295000Y96985D01*
X295785Y97046D01*
X296550Y97230D01*
X297277Y97531D01*
X297948Y97942D01*
X298546Y98454D01*
X299000Y98985D01*
Y74502D01*
X298882Y74493D01*
X298768Y74465D01*
X298658Y74420D01*
X298558Y74359D01*
X298468Y74282D01*
X298391Y74192D01*
X298330Y74092D01*
X298285Y73982D01*
X298257Y73868D01*
X298250Y73750D01*
Y70250D01*
X298257Y70132D01*
X298285Y70018D01*
X298330Y69908D01*
X298391Y69808D01*
X298468Y69718D01*
X298558Y69641D01*
X298658Y69580D01*
X298768Y69535D01*
X298882Y69507D01*
X299000Y69498D01*
Y57719D01*
G37*
G36*
Y500D02*X294992D01*
Y48923D01*
X295500Y48883D01*
X296300Y48946D01*
X297081Y49134D01*
X297823Y49441D01*
X298508Y49860D01*
X299000Y50281D01*
Y500D01*
G37*
G36*
X294992Y160500D02*X299000D01*
Y105015D01*
X298546Y105546D01*
X297948Y106058D01*
X297277Y106469D01*
X296550Y106770D01*
X295785Y106954D01*
X295000Y107015D01*
X294992Y107015D01*
Y160500D01*
G37*
G36*
X291000Y51581D02*X291360Y50992D01*
X291882Y50382D01*
X292492Y49860D01*
X293177Y49441D01*
X293919Y49134D01*
X294700Y48946D01*
X294992Y48923D01*
Y500D01*
X291000D01*
Y51581D01*
G37*
G36*
Y98985D02*X291454Y98454D01*
X292052Y97942D01*
X292723Y97531D01*
X293450Y97230D01*
X294215Y97046D01*
X294992Y96985D01*
Y76750D01*
X293250D01*
X293132Y76743D01*
X293018Y76715D01*
X292908Y76670D01*
X292808Y76609D01*
X292718Y76532D01*
X292641Y76442D01*
X292580Y76342D01*
X292535Y76232D01*
X292507Y76118D01*
X292498Y76000D01*
X292507Y75882D01*
X292535Y75768D01*
X292580Y75658D01*
X292641Y75558D01*
X292718Y75468D01*
X292808Y75391D01*
X292908Y75330D01*
X293018Y75285D01*
X293132Y75257D01*
X293250Y75250D01*
X294992D01*
Y68750D01*
X293250D01*
X293132Y68743D01*
X293018Y68715D01*
X292908Y68670D01*
X292808Y68609D01*
X292718Y68532D01*
X292641Y68442D01*
X292580Y68342D01*
X292535Y68232D01*
X292507Y68118D01*
X292498Y68000D01*
X292507Y67882D01*
X292535Y67768D01*
X292580Y67658D01*
X292641Y67558D01*
X292718Y67468D01*
X292808Y67391D01*
X292908Y67330D01*
X293018Y67285D01*
X293132Y67257D01*
X293250Y67250D01*
X294992D01*
Y59077D01*
X294700Y59054D01*
X293919Y58866D01*
X293177Y58559D01*
X292492Y58140D01*
X291882Y57618D01*
X291360Y57008D01*
X291000Y56419D01*
Y69498D01*
X291118Y69507D01*
X291232Y69535D01*
X291342Y69580D01*
X291442Y69641D01*
X291532Y69718D01*
X291609Y69808D01*
X291670Y69908D01*
X291715Y70018D01*
X291743Y70132D01*
X291750Y70250D01*
Y73750D01*
X291743Y73868D01*
X291715Y73982D01*
X291670Y74092D01*
X291609Y74192D01*
X291532Y74282D01*
X291442Y74359D01*
X291342Y74420D01*
X291232Y74465D01*
X291118Y74493D01*
X291000Y74502D01*
Y98985D01*
G37*
G36*
X290171Y100696D02*X290230Y100450D01*
X290531Y99723D01*
X290942Y99052D01*
X291000Y98985D01*
Y74502D01*
X290882Y74493D01*
X290768Y74465D01*
X290658Y74420D01*
X290558Y74359D01*
X290468Y74282D01*
X290391Y74192D01*
X290330Y74092D01*
X290285Y73982D01*
X290257Y73868D01*
X290250Y73750D01*
Y70250D01*
X290257Y70132D01*
X290285Y70018D01*
X290330Y69908D01*
X290391Y69808D01*
X290468Y69718D01*
X290558Y69641D01*
X290658Y69580D01*
X290768Y69535D01*
X290882Y69507D01*
X291000Y69498D01*
Y56419D01*
X290941Y56323D01*
X290634Y55581D01*
X290446Y54800D01*
X290383Y54000D01*
X290446Y53200D01*
X290634Y52419D01*
X290941Y51677D01*
X291000Y51581D01*
Y500D01*
X290171D01*
Y100696D01*
G37*
G36*
Y160500D02*X294992D01*
Y107015D01*
X294215Y106954D01*
X293450Y106770D01*
X292723Y106469D01*
X292052Y106058D01*
X291454Y105546D01*
X290942Y104948D01*
X290531Y104277D01*
X290230Y103550D01*
X290171Y103304D01*
Y113665D01*
X290178Y113664D01*
X290884Y113720D01*
X291573Y113885D01*
X292227Y114156D01*
X292831Y114526D01*
X293370Y114986D01*
X293830Y115525D01*
X294200Y116129D01*
X294471Y116783D01*
X294636Y117472D01*
X294678Y118178D01*
X294636Y118884D01*
X294471Y119573D01*
X294200Y120227D01*
X293830Y120831D01*
X293370Y121370D01*
X292831Y121830D01*
X292227Y122200D01*
X291573Y122471D01*
X290884Y122636D01*
X290178Y122692D01*
X290171Y122691D01*
Y160500D01*
G37*
G36*
X279613D02*X290171D01*
Y122691D01*
X289472Y122636D01*
X288783Y122471D01*
X288129Y122200D01*
X287525Y121830D01*
X286986Y121370D01*
X286526Y120831D01*
X286156Y120227D01*
X285885Y119573D01*
X285720Y118884D01*
X285664Y118178D01*
X285720Y117472D01*
X285885Y116783D01*
X286156Y116129D01*
X286526Y115525D01*
X286986Y114986D01*
X287525Y114526D01*
X288129Y114156D01*
X288783Y113885D01*
X289472Y113720D01*
X290171Y113665D01*
Y103304D01*
X290046Y102785D01*
X289985Y102000D01*
X290046Y101215D01*
X290171Y100696D01*
Y500D01*
X279613D01*
Y77853D01*
X279656Y77860D01*
X279768Y77897D01*
X279873Y77952D01*
X279968Y78022D01*
X280051Y78106D01*
X280119Y78202D01*
X280170Y78308D01*
X280318Y78716D01*
X280422Y79137D01*
X280484Y79567D01*
X280505Y80000D01*
X280484Y80433D01*
X280422Y80863D01*
X280318Y81284D01*
X280175Y81694D01*
X280122Y81800D01*
X280053Y81896D01*
X279970Y81981D01*
X279875Y82051D01*
X279769Y82106D01*
X279657Y82143D01*
X279613Y82151D01*
Y85630D01*
X279683Y85659D01*
X279884Y85783D01*
X280064Y85936D01*
X280217Y86116D01*
X280341Y86317D01*
X280431Y86535D01*
X280486Y86765D01*
X280500Y87000D01*
X280486Y93235D01*
X280431Y93465D01*
X280341Y93683D01*
X280217Y93884D01*
X280064Y94064D01*
X279884Y94217D01*
X279683Y94341D01*
X279613Y94370D01*
Y127935D01*
X279719Y127979D01*
X279920Y128103D01*
X280100Y128256D01*
X280253Y128436D01*
X280377Y128637D01*
X280467Y128855D01*
X280522Y129085D01*
X280536Y129320D01*
X280522Y135555D01*
X280467Y135785D01*
X280377Y136003D01*
X280253Y136204D01*
X280100Y136384D01*
X279920Y136537D01*
X279719Y136661D01*
X279613Y136705D01*
Y160500D01*
G37*
G36*
Y94370D02*X279465Y94431D01*
X279235Y94486D01*
X279000Y94500D01*
X276036Y94493D01*
Y127827D01*
X279271Y127834D01*
X279501Y127889D01*
X279613Y127935D01*
Y94370D01*
G37*
G36*
Y500D02*X276036D01*
Y7094D01*
X276309Y7540D01*
X276701Y8485D01*
X276940Y9480D01*
X277000Y10500D01*
X276940Y11520D01*
X276701Y12515D01*
X276309Y13460D01*
X276036Y13906D01*
Y75497D01*
X276433Y75516D01*
X276863Y75578D01*
X277284Y75682D01*
X277694Y75825D01*
X277800Y75878D01*
X277896Y75947D01*
X277981Y76030D01*
X278051Y76125D01*
X278106Y76231D01*
X278143Y76343D01*
X278163Y76460D01*
X278164Y76579D01*
X278146Y76696D01*
X278110Y76809D01*
X278057Y76915D01*
X277988Y77012D01*
X277905Y77096D01*
X277809Y77167D01*
X277704Y77221D01*
X277592Y77259D01*
X277475Y77278D01*
X277356Y77279D01*
X277239Y77261D01*
X277126Y77223D01*
X276855Y77124D01*
X276575Y77056D01*
X276289Y77014D01*
X276036Y77002D01*
Y82998D01*
X276289Y82986D01*
X276575Y82944D01*
X276855Y82876D01*
X277128Y82780D01*
X277239Y82742D01*
X277356Y82725D01*
X277474Y82725D01*
X277591Y82745D01*
X277703Y82782D01*
X277807Y82836D01*
X277902Y82906D01*
X277985Y82991D01*
X278054Y83087D01*
X278107Y83192D01*
X278143Y83305D01*
X278160Y83421D01*
X278159Y83539D01*
X278140Y83656D01*
X278103Y83768D01*
X278048Y83873D01*
X277978Y83968D01*
X277894Y84051D01*
X277798Y84119D01*
X277692Y84170D01*
X277284Y84318D01*
X276863Y84422D01*
X276433Y84484D01*
X276036Y84503D01*
Y85507D01*
X279235Y85514D01*
X279465Y85569D01*
X279613Y85630D01*
Y82151D01*
X279540Y82163D01*
X279421Y82164D01*
X279304Y82146D01*
X279191Y82110D01*
X279085Y82057D01*
X278988Y81988D01*
X278904Y81905D01*
X278833Y81809D01*
X278779Y81704D01*
X278741Y81592D01*
X278722Y81475D01*
X278721Y81356D01*
X278739Y81239D01*
X278777Y81126D01*
X278876Y80855D01*
X278944Y80575D01*
X278986Y80289D01*
X279000Y80000D01*
X278986Y79711D01*
X278944Y79425D01*
X278876Y79145D01*
X278780Y78872D01*
X278742Y78761D01*
X278725Y78644D01*
X278725Y78526D01*
X278745Y78409D01*
X278782Y78297D01*
X278836Y78193D01*
X278906Y78098D01*
X278991Y78015D01*
X279087Y77946D01*
X279192Y77893D01*
X279305Y77857D01*
X279421Y77840D01*
X279539Y77841D01*
X279613Y77853D01*
Y500D01*
G37*
G36*
X276036Y160500D02*X279613D01*
Y136705D01*
X279501Y136751D01*
X279271Y136806D01*
X279036Y136820D01*
X276036Y136813D01*
Y147094D01*
X276309Y147540D01*
X276701Y148485D01*
X276940Y149480D01*
X277000Y150500D01*
X276940Y151520D01*
X276701Y152515D01*
X276309Y153460D01*
X276036Y153906D01*
Y160500D01*
G37*
G36*
X272387Y127965D02*X272571Y127889D01*
X272801Y127834D01*
X273036Y127820D01*
X276036Y127827D01*
Y94493D01*
X272765Y94486D01*
X272535Y94431D01*
X272387Y94370D01*
Y127965D01*
G37*
G36*
Y144268D02*X272515Y144299D01*
X273460Y144691D01*
X274332Y145225D01*
X275110Y145890D01*
X275775Y146668D01*
X276036Y147094D01*
Y136813D01*
X272801Y136806D01*
X272571Y136751D01*
X272387Y136675D01*
Y144268D01*
G37*
G36*
X276036Y13906D02*X275775Y14332D01*
X275110Y15110D01*
X274332Y15775D01*
X273460Y16309D01*
X272515Y16701D01*
X272387Y16732D01*
Y77849D01*
X272460Y77837D01*
X272579Y77836D01*
X272696Y77854D01*
X272809Y77890D01*
X272915Y77943D01*
X273012Y78012D01*
X273096Y78095D01*
X273167Y78191D01*
X273221Y78296D01*
X273259Y78408D01*
X273278Y78525D01*
X273279Y78644D01*
X273261Y78761D01*
X273223Y78874D01*
X273124Y79145D01*
X273056Y79425D01*
X273014Y79711D01*
X273000Y80000D01*
X273014Y80289D01*
X273056Y80575D01*
X273124Y80855D01*
X273220Y81128D01*
X273258Y81239D01*
X273275Y81356D01*
X273275Y81474D01*
X273255Y81591D01*
X273218Y81703D01*
X273164Y81807D01*
X273094Y81902D01*
X273009Y81985D01*
X272913Y82054D01*
X272808Y82107D01*
X272695Y82143D01*
X272579Y82160D01*
X272461Y82159D01*
X272387Y82147D01*
Y85630D01*
X272535Y85569D01*
X272765Y85514D01*
X273000Y85500D01*
X276036Y85507D01*
Y84503D01*
X276000Y84505D01*
X275567Y84484D01*
X275137Y84422D01*
X274716Y84318D01*
X274306Y84175D01*
X274200Y84122D01*
X274104Y84053D01*
X274019Y83970D01*
X273949Y83875D01*
X273894Y83769D01*
X273857Y83657D01*
X273837Y83540D01*
X273836Y83421D01*
X273854Y83304D01*
X273890Y83191D01*
X273943Y83085D01*
X274012Y82988D01*
X274095Y82904D01*
X274191Y82833D01*
X274296Y82779D01*
X274408Y82741D01*
X274525Y82722D01*
X274644Y82721D01*
X274761Y82739D01*
X274874Y82777D01*
X275145Y82876D01*
X275425Y82944D01*
X275711Y82986D01*
X276000Y83000D01*
X276036Y82998D01*
Y77002D01*
X276000Y77000D01*
X275711Y77014D01*
X275425Y77056D01*
X275145Y77124D01*
X274872Y77220D01*
X274761Y77258D01*
X274644Y77275D01*
X274526Y77275D01*
X274409Y77255D01*
X274297Y77218D01*
X274193Y77164D01*
X274098Y77094D01*
X274015Y77009D01*
X273946Y76913D01*
X273893Y76808D01*
X273857Y76695D01*
X273840Y76579D01*
X273841Y76461D01*
X273860Y76344D01*
X273897Y76232D01*
X273952Y76127D01*
X274022Y76032D01*
X274106Y75949D01*
X274202Y75881D01*
X274308Y75830D01*
X274716Y75682D01*
X275137Y75578D01*
X275567Y75516D01*
X276000Y75495D01*
X276036Y75497D01*
Y13906D01*
G37*
G36*
X272387Y16732D02*X271520Y16940D01*
X270500Y17020D01*
X270490Y17019D01*
Y143981D01*
X270500Y143980D01*
X271520Y144060D01*
X272387Y144268D01*
Y136675D01*
X272353Y136661D01*
X272152Y136537D01*
X271972Y136384D01*
X271819Y136204D01*
X271695Y136003D01*
X271605Y135785D01*
X271550Y135555D01*
X271536Y135320D01*
X271550Y129085D01*
X271605Y128855D01*
X271695Y128637D01*
X271819Y128436D01*
X271972Y128256D01*
X272152Y128103D01*
X272353Y127979D01*
X272387Y127965D01*
Y94370D01*
X272317Y94341D01*
X272116Y94217D01*
X271936Y94064D01*
X271783Y93884D01*
X271659Y93683D01*
X271569Y93465D01*
X271514Y93235D01*
X271500Y93000D01*
X271514Y86765D01*
X271569Y86535D01*
X271659Y86317D01*
X271783Y86116D01*
X271936Y85936D01*
X272116Y85783D01*
X272317Y85659D01*
X272387Y85630D01*
Y82147D01*
X272344Y82140D01*
X272232Y82103D01*
X272127Y82048D01*
X272032Y81978D01*
X271949Y81894D01*
X271881Y81798D01*
X271830Y81692D01*
X271682Y81284D01*
X271578Y80863D01*
X271516Y80433D01*
X271495Y80000D01*
X271516Y79567D01*
X271578Y79137D01*
X271682Y78716D01*
X271825Y78306D01*
X271878Y78200D01*
X271947Y78104D01*
X272030Y78019D01*
X272125Y77949D01*
X272231Y77894D01*
X272343Y77857D01*
X272387Y77849D01*
Y16732D01*
G37*
G36*
X276036Y500D02*X270490D01*
Y3981D01*
X270500Y3980D01*
X271520Y4060D01*
X272515Y4299D01*
X273460Y4691D01*
X274332Y5225D01*
X275110Y5890D01*
X275775Y6668D01*
X276036Y7094D01*
Y500D01*
G37*
G36*
X270490Y160500D02*X276036D01*
Y153906D01*
X275775Y154332D01*
X275110Y155110D01*
X274332Y155775D01*
X273460Y156309D01*
X272515Y156701D01*
X271520Y156940D01*
X270500Y157020D01*
X270490Y157019D01*
Y160500D01*
G37*
G36*
X261000D02*X270490D01*
Y157019D01*
X269480Y156940D01*
X268485Y156701D01*
X267540Y156309D01*
X266668Y155775D01*
X265890Y155110D01*
X265225Y154332D01*
X264691Y153460D01*
X264299Y152515D01*
X264060Y151520D01*
X263980Y150500D01*
X264060Y149480D01*
X264299Y148485D01*
X264691Y147540D01*
X265225Y146668D01*
X265890Y145890D01*
X266668Y145225D01*
X267540Y144691D01*
X268485Y144299D01*
X269480Y144060D01*
X270490Y143981D01*
Y17019D01*
X269480Y16940D01*
X268485Y16701D01*
X267540Y16309D01*
X266668Y15775D01*
X265890Y15110D01*
X265225Y14332D01*
X264691Y13460D01*
X264299Y12515D01*
X264060Y11520D01*
X263980Y10500D01*
X264060Y9480D01*
X264299Y8485D01*
X264691Y7540D01*
X265225Y6668D01*
X265890Y5890D01*
X266668Y5225D01*
X267540Y4691D01*
X268485Y4299D01*
X269480Y4060D01*
X270490Y3981D01*
Y500D01*
X261000D01*
Y160500D01*
G37*
G54D29*X231000Y212000D02*X236000Y217000D01*
X208500Y245000D02*X182000Y226000D01*
Y209000D01*
X245000Y245000D02*X208500D01*
X254000Y217000D02*X236000D01*
X258000Y221000D02*X254000Y217000D01*
X231000Y208000D02*Y212000D01*
G54D30*X242500Y191000D02*X205000D01*
X196999Y183500D02*X189499Y191000D01*
G54D31*X247500Y183500D02*Y184000D01*
G54D30*X262000Y199000D01*
G54D29*X250500Y250500D02*X245000Y245000D01*
X247500Y350000D02*X241500Y345500D01*
G54D30*X247500Y183500D02*X242500Y191000D01*
G54D29*X299000Y321500D02*X308500D01*
X275000Y345000D02*X299000Y321500D01*
X320600Y326400D02*X304100D01*
X286000Y344500D02*X304100Y326400D01*
G54D31*X332000Y331000D02*X316500Y344500D01*
G54D29*X336500Y310500D02*X328000D01*
G54D31*X345000Y279000D02*Y325000D01*
X339500Y331000D01*
G54D29*X336500Y310500D02*X320600Y326400D01*
G54D31*X339500Y331000D02*X332000D01*
G54D29*X328000Y310500D02*X321953Y304400D01*
X317347Y299847D02*X321953Y304400D01*
X308500Y291000D02*X295500Y277500D01*
X308500Y291000D02*X317347Y299847D01*
X258000Y284500D02*Y221500D01*
G54D30*X263000Y285500D02*X262500Y199500D01*
G54D31*X263500Y252000D02*X262500Y253000D01*
X328000Y262000D02*Y216000D01*
X345000Y279000D02*X328000Y262000D01*
Y216000D02*X337500Y206500D01*
G54D32*X278000Y252000D02*X263500D01*
G54D29*X280000Y350000D02*X247500D01*
X285000Y345000D02*X280000Y350000D01*
G54D33*X178000Y338000D02*X243000D01*
G54D29*X220500Y300500D02*X199500D01*
Y287500D01*
X220500Y290500D02*X216000Y286500D01*
X220500Y320500D02*X216000Y325500D01*
X250500Y290500D02*X258000Y284500D01*
G54D31*X251000Y330500D02*X251500D01*
G54D34*X259000Y323000D01*
Y290000D01*
X262500Y286500D01*
G54D31*X251000Y331000D02*X250000D01*
G54D33*X243000Y338000D01*
X81500Y354500D02*X49500D01*
G54D34*X65500Y327000D02*X79500Y320500D01*
X65500Y354000D02*Y327000D01*
G54D30*X79000Y320500D02*X63000Y311500D01*
G54D29*X72000Y255500D02*Y295000D01*
X79500Y300500D01*
X68006Y302006D02*X79500Y310500D01*
G54D30*X63000Y311500D02*Y262500D01*
G54D29*X50000Y280500D02*X49500Y280000D01*
X50000Y281000D02*Y280500D01*
X68000Y258000D02*X68006Y302006D01*
G54D30*X90000Y338000D02*X81500Y331500D01*
X38500Y236000D02*X17500D01*
X63000Y262500D02*X38500Y236000D01*
G54D29*X33500Y216000D02*X72000Y255500D01*
X35500Y226000D02*X68000Y258000D01*
G54D35*X91000Y238500D02*X124000Y271000D01*
G54D29*X33500Y216000D02*X17500D01*
G54D31*X34000Y181500D02*X19000Y206500D01*
G54D29*X35500Y226000D02*X17500D01*
G54D30*X37500Y172500D02*X34000Y181500D01*
G54D35*X88500Y192500D02*X71000Y182000D01*
G54D36*X91000Y193500D02*Y238500D01*
G54D35*X71000Y182000D02*X44500Y181500D01*
G54D30*X135000Y173000D02*X37500Y172500D01*
G54D32*X143500Y183500D02*X135000Y173000D01*
G54D30*X150000Y191000D02*X143500Y183500D01*
G54D29*X161000Y241000D02*X128500Y208500D01*
X161000Y273500D02*X154500Y279500D01*
X161000Y273500D02*Y241000D01*
G54D34*X205000Y191000D02*X197500Y183500D01*
G54D30*X189499Y191000D02*X150000D01*
G54D29*X79500Y280500D02*X123500D01*
X92500Y303500D02*X79500Y290500D01*
X115000Y325500D02*X92500Y303500D01*
G54D34*X91500Y320500D02*X94000Y318000D01*
G54D30*X146500Y338000D02*X154000Y330500D01*
X90000Y338000D02*X146500D01*
G54D34*X79500Y320500D02*X91500D01*
G54D31*X127000Y337000D02*Y350000D01*
G54D29*X194500Y272500D02*X200000D01*
X194500D02*X179500Y287500D01*
X212000Y283000D02*X207500Y279000D01*
X200000Y272500D01*
X216000Y286500D02*X212000Y283000D01*
G54D33*X171500Y281500D02*X180000Y272500D01*
X171500Y292000D02*Y281500D01*
G54D29*X161000Y288000D02*X153500Y280500D01*
G54D33*X171500Y292000D02*X179500Y300000D01*
G54D29*X161000Y303000D02*Y288000D01*
G54D33*X179500Y300000D02*X171000Y305000D01*
Y313000D02*Y305000D01*
G54D29*X153500Y310500D02*X161000Y303000D01*
G54D33*X180000Y318500D02*X171000Y313000D01*
G54D29*X153500Y320500D02*Y310500D01*
G54D31*X154000Y330500D02*X153500D01*
G54D29*X216000Y325500D02*X115000D01*
G54D30*X154000Y330000D02*X170500D01*
G54D31*Y330500D01*
G54D30*X177500Y337500D01*
G54D28*G36*
X217500Y333500D02*Y327500D01*
X223500D01*
Y333500D01*
X217500D01*
G37*
G54D32*X220500Y320500D03*
Y310500D03*
Y300500D03*
Y290500D03*
G54D28*G36*
X265100Y313900D02*Y307100D01*
X271900D01*
Y313900D01*
X265100D01*
G37*
G54D32*X250500Y310500D03*
Y320500D03*
Y330500D03*
G54D28*G36*
X265100Y324900D02*Y318100D01*
X271900D01*
Y324900D01*
X265100D01*
G37*
G36*
Y302900D02*Y296100D01*
X271900D01*
Y302900D01*
X265100D01*
G37*
G54D32*X220500Y280500D03*
X250500D03*
Y290500D03*
Y300500D03*
X231500Y345500D03*
G54D28*G36*
X189500Y357000D02*Y351000D01*
X195500D01*
Y357000D01*
X189500D01*
G37*
G54D32*X192500Y344000D03*
X199500Y287500D03*
G54D37*Y317500D03*
G54D38*X210500Y330500D03*
X308500Y310500D03*
Y321500D03*
G54D28*G36*
X292500Y280500D02*Y274500D01*
X298500D01*
Y280500D01*
X292500D01*
G37*
G54D32*X285500Y277500D03*
G54D38*X308500Y299500D03*
G54D28*G36*
X312000Y358000D02*Y352000D01*
X318000D01*
Y358000D01*
X312000D01*
G37*
G54D32*X315000Y345000D03*
X305000Y355000D03*
Y345000D03*
X295000Y355000D03*
Y345000D03*
X285000Y355000D03*
Y345000D03*
X275000Y355000D03*
Y345000D03*
G54D37*X277000Y231500D03*
Y251500D03*
G54D28*G36*
X334000Y240500D02*Y233500D01*
X341000D01*
Y240500D01*
X334000D01*
G37*
G54D36*X337500Y227000D03*
Y217000D03*
Y207000D03*
G54D39*X335000Y177000D03*
G54D28*G36*
X333500Y274000D02*Y267000D01*
X340500D01*
Y274000D01*
X333500D01*
G37*
G54D36*X337000Y280500D03*
Y290500D03*
Y300500D03*
Y310500D03*
Y320500D03*
G54D39*X335000Y355000D03*
G54D28*G36*
X306500Y154000D02*Y147000D01*
X313500D01*
Y154000D01*
X306500D01*
G37*
G54D36*X320000Y150500D03*
G54D38*X331000Y145500D03*
G54D32*X270500Y150500D03*
G54D28*G36*
X332500Y133500D02*Y127500D01*
X338500D01*
Y133500D01*
X332500D01*
G37*
G36*
X377100Y138900D02*Y132100D01*
X383900D01*
Y138900D01*
X377100D01*
G37*
G36*
X273036Y135320D02*Y129320D01*
X279036D01*
Y135320D01*
X273036D01*
G37*
G54D32*X335500Y120500D03*
Y110500D03*
G54D37*X315500D03*
G54D36*X295000Y102000D03*
G54D32*X290178Y118178D03*
X335500Y100500D03*
G54D38*X380500Y95500D03*
G54D32*X365500Y100500D03*
Y110500D03*
Y120500D03*
Y130500D03*
G54D28*G36*
X367600Y148900D02*Y142100D01*
X374400D01*
Y148900D01*
X367600D01*
G37*
G54D32*X220500Y270500D03*
X250500D03*
G54D37*X180000Y272500D03*
X200000D03*
G54D32*X123500Y270500D03*
X153500D03*
X220500Y260500D03*
X250500D03*
X220500Y250500D03*
Y240500D03*
X250500D03*
Y250500D03*
G54D28*G36*
X178100Y211900D02*Y205100D01*
X184900D01*
Y211900D01*
X178100D01*
G37*
G36*
X125100D02*Y205100D01*
X131900D01*
Y211900D01*
X125100D01*
G37*
G54D38*X168500Y208500D03*
G54D28*G36*
X228100Y211900D02*Y205100D01*
X234900D01*
Y211900D01*
X228100D01*
G37*
G54D38*X271500Y208500D03*
X221500D03*
G54D28*G36*
X244250Y186750D02*Y180250D01*
X250750D01*
Y186750D01*
X244250D01*
G37*
G54D35*X257500Y183500D03*
G54D28*G36*
X140250Y186750D02*Y180250D01*
X146750D01*
Y186750D01*
X140250D01*
G37*
G54D35*X153500Y183500D03*
G54D28*G36*
X194250Y186750D02*Y180250D01*
X200750D01*
Y186750D01*
X194250D01*
G37*
G54D35*X207500Y183500D03*
G54D28*G36*
X238500Y348500D02*Y342500D01*
X244500D01*
Y348500D01*
X238500D01*
G37*
G54D37*X179500Y300500D03*
X199500D03*
G54D32*X153500D03*
Y310500D03*
G54D28*G36*
X176500Y290500D02*Y284500D01*
X182500D01*
Y290500D01*
X176500D01*
G37*
G54D32*X153500Y280500D03*
Y290500D03*
G54D28*G36*
X167100Y333900D02*Y327100D01*
X173900D01*
Y333900D01*
X167100D01*
G37*
G54D32*X153500Y320500D03*
Y330500D03*
G54D37*X179500Y317500D03*
G54D28*G36*
X120500Y333500D02*Y327500D01*
X126500D01*
Y333500D01*
X120500D01*
G37*
G54D37*X147000Y350000D03*
X127000D03*
G54D32*X123500Y320500D03*
Y310500D03*
Y300500D03*
Y290500D03*
Y280500D03*
X79500Y270500D03*
Y280500D03*
Y290500D03*
Y300500D03*
G54D28*G36*
X78500Y357500D02*Y351500D01*
X84500D01*
Y357500D01*
X78500D01*
G37*
G54D32*X81500Y344500D03*
G54D28*G36*
X46500Y333500D02*Y327500D01*
X52500D01*
Y333500D01*
X46500D01*
G37*
G54D32*X49500Y320500D03*
Y310500D03*
X79500D03*
Y320500D03*
Y330500D03*
G54D28*G36*
X46500Y347500D02*Y341500D01*
X52500D01*
Y347500D01*
X46500D01*
G37*
G54D32*X49500Y354500D03*
Y300500D03*
Y290500D03*
Y280500D03*
Y270500D03*
Y260500D03*
G54D28*G36*
X21000Y333500D02*Y327500D01*
X27000D01*
Y333500D01*
X21000D01*
G37*
G54D32*X24000Y320500D03*
G54D28*G36*
X21000Y297500D02*Y291500D01*
X27000D01*
Y297500D01*
X21000D01*
G37*
G54D32*X24000Y284500D03*
G54D37*X94000Y318000D03*
Y338000D03*
G54D39*X15000Y357000D03*
G54D32*X79500Y260500D03*
G54D28*G36*
X68000Y176500D02*Y170500D01*
X74000D01*
Y176500D01*
X68000D01*
G37*
G54D32*X71000Y183500D03*
G54D37*X90500Y193000D03*
Y173000D03*
G54D36*X18500Y215000D03*
Y225000D03*
Y235000D03*
G54D28*G36*
X30500Y185500D02*Y178500D01*
X37500D01*
Y185500D01*
X30500D01*
G37*
G54D36*X44000Y182000D03*
G54D28*G36*
X15000Y208500D02*Y201500D01*
X22000D01*
Y208500D01*
X15000D01*
G37*
G36*
X12368Y135710D02*Y129710D01*
X18368D01*
Y135710D01*
X12368D01*
G37*
G54D32*X10000Y150600D03*
G54D36*X35000Y103100D03*
G54D32*X29510Y118568D03*
G54D28*G36*
X46500Y154100D02*Y147100D01*
X53500D01*
Y154100D01*
X46500D01*
G37*
G54D36*X60000Y150600D03*
G54D37*X55000Y110600D03*
G54D28*G36*
X72000Y133600D02*Y127600D01*
X78000D01*
Y133600D01*
X72000D01*
G37*
G54D32*X75000Y120600D03*
Y110600D03*
G54D39*X15000Y177000D03*
G54D28*G36*
X44500Y73600D02*Y67600D01*
X50500D01*
Y73600D01*
X44500D01*
G37*
G54D37*X55000Y90600D03*
G54D32*X57500Y70600D03*
G54D40*X35000Y54600D03*
X54000Y42500D03*
X35000Y30600D03*
G54D28*G36*
X32000Y76100D02*Y70100D01*
X38000D01*
Y76100D01*
X32000D01*
G37*
G36*
X12900Y93600D02*Y87600D01*
X18900D01*
Y93600D01*
X12900D01*
G37*
G54D32*X15900Y80600D03*
X10000Y10600D03*
G54D28*G36*
X66600Y59000D02*Y52200D01*
X73400D01*
Y59000D01*
X66600D01*
G37*
G36*
Y86500D02*Y79700D01*
X73400D01*
Y86500D01*
X66600D01*
G37*
G54D32*X75000Y100600D03*
X105000D03*
G54D38*X120000Y95600D03*
G54D32*X105000Y110600D03*
Y120600D03*
Y130600D03*
G54D28*G36*
X116600Y139000D02*Y132200D01*
X123400D01*
Y139000D01*
X116600D01*
G37*
G54D32*X120000Y150600D03*
G54D28*G36*
X142868Y135710D02*Y129710D01*
X148868D01*
Y135710D01*
X142868D01*
G37*
G54D32*X140500Y150600D03*
G54D38*X110000Y55600D03*
Y83100D03*
G54D32*X120000Y10600D03*
G54D28*G36*
X175000Y73600D02*Y67600D01*
X181000D01*
Y73600D01*
X175000D01*
G37*
G54D32*X188000Y70600D03*
G54D40*X165500Y54600D03*
X184500Y42500D03*
X165500Y30600D03*
G54D28*G36*
X162500Y76100D02*Y70100D01*
X168500D01*
Y76100D01*
X162500D01*
G37*
G54D32*X146400Y80600D03*
X140500Y10600D03*
G54D28*G36*
X177000Y154100D02*Y147100D01*
X184000D01*
Y154100D01*
X177000D01*
G37*
G54D36*X190500Y150600D03*
G54D28*G36*
X202500Y133600D02*Y127600D01*
X208500D01*
Y133600D01*
X202500D01*
G37*
G54D32*X205500Y120600D03*
Y110600D03*
Y100600D03*
G54D37*X185500Y90600D03*
G54D28*G36*
X143400Y93600D02*Y87600D01*
X149400D01*
Y93600D01*
X143400D01*
G37*
G54D37*X185500Y110600D03*
G54D36*X165500Y103100D03*
G54D32*X160010Y118568D03*
X235500Y100600D03*
Y110600D03*
Y120600D03*
Y130600D03*
G54D28*G36*
X247100Y139000D02*Y132200D01*
X253900D01*
Y139000D01*
X247100D01*
G37*
G54D32*X250500Y150600D03*
G54D38*Y95600D03*
G54D28*G36*
X197100Y59000D02*Y52200D01*
X203900D01*
Y59000D01*
X197100D01*
G37*
G36*
Y86500D02*Y79700D01*
X203900D01*
Y86500D01*
X197100D01*
G37*
G54D38*X240500Y55600D03*
Y83100D03*
G54D32*X250500Y10600D03*
G54D28*G36*
X273000Y93000D02*Y87000D01*
X279000D01*
Y93000D01*
X273000D01*
G37*
G54D32*X276000Y80000D03*
X270500Y10500D03*
G54D40*X295500Y54000D03*
G54D41*X314500Y41900D03*
X295500Y30000D03*
G54D28*G36*
X333500Y44000D02*Y38000D01*
X339500D01*
Y44000D01*
X333500D01*
G37*
G54D32*X336500Y31000D03*
Y21000D03*
Y11000D03*
X366500D03*
Y21000D03*
Y31000D03*
X380500Y10500D03*
X366500Y41000D03*
G54D38*X371500Y56000D03*
G54D28*G36*
X328600Y85400D02*Y78600D01*
X335400D01*
Y85400D01*
X328600D01*
G37*
G36*
X328100Y59400D02*Y52600D01*
X334900D01*
Y59400D01*
X328100D01*
G37*
G54D38*X372000Y82000D03*
G54D37*X315500Y90500D03*
G54D28*G36*
X291750Y75250D02*Y68750D01*
X298250D01*
Y75250D01*
X291750D01*
G37*
G36*
X306000Y74000D02*Y68000D01*
X312000D01*
Y74000D01*
X306000D01*
G37*
G54D32*X319000Y71000D03*
X380500Y150500D03*
M02*
